0
SECTION
2
HEADER
9
$INSUNITS
70
4
9
$ACADVER
1
AC1014
9
$HANDSEED
5
FFFF
0
ENDSEC
0
SECTION
2
TABLES
0
TABLE
2
VPORT
5
8
100
AcDbSymbolTable
0
ENDTAB
0
TABLE
2
LTYPE
5
5
100
AcDbSymbolTable
0
LTYPE
5
14
100
AcDbSymbolTableRecord
100
AcDbLinetypeTableRecord
2
BYBLOCK
70
0
0
LTYPE
5
15
100
AcDbSymbolTableRecord
100
AcDbLinetypeTableRecord
2
BYLAYER
70
0
0
ENDTAB
0
TABLE
2
LAYER
5
2
100
AcDbSymbolTable
70
2
0
LAYER
5
50
100
AcDbSymbolTableRecord
100
AcDbLayerTableRecord
2
0
70
0
6
CONTINUOUS
0
ENDTAB
0
TABLE
2
STYLE
5
3
100
AcDbSymbolTable
70
1
0
STYLE
5
11
100
AcDbSymbolTableRecord
100
AcDbTextStyleTableRecord
2
STANDARD
70
0
0
ENDTAB
0
TABLE
2
VIEW
5
6
100
AcDbSymbolTable
70
0
0
ENDTAB
0
TABLE
2
UCS
5
7
100
AcDbSymbolTable
70
0
0
ENDTAB
0
TABLE
2
APPID
5
9
100
AcDbSymbolTable
70
2
0
APPID
5
12
100
AcDbSymbolTableRecord
100
AcDbRegAppTableRecord
2
ACAD
70
0
0
ENDTAB
0
TABLE
2
DIMSTYLE
5
A
100
AcDbSymbolTable
70
1
0
ENDTAB
0
TABLE
2
BLOCK_RECORD
5
1
100
AcDbSymbolTable
70
1
0
BLOCK_RECORD
5
1F
100
AcDbSymbolTableRecord
100
AcDbBlockTableRecord
2
*MODEL_SPACE
0
BLOCK_RECORD
5
1B
100
AcDbSymbolTableRecord
100
AcDbBlockTableRecord
2
*PAPER_SPACE
0
ENDTAB
0
ENDSEC
0
SECTION
2
BLOCKS
0
BLOCK
5
20
100
AcDbEntity
100
AcDbBlockBegin
2
*MODEL_SPACE
0
ENDBLK
5
21
100
AcDbEntity
100
AcDbBlockEnd
0
BLOCK
5
1C
100
AcDbEntity
100
AcDbBlockBegin
2
*PAPER_SPACE
0
ENDBLK
5
1D
100
AcDbEntity
100
AcDbBlockEnd
0
ENDSEC
0
SECTION
2
ENTITIES
0
LINE
5
100
100
AcDbEntity
8
0
100
AcDbLine
10
0
20
124
30
0
11
0
21
-64
31
0
0
LINE
5
101
100
AcDbEntity
8
0
100
AcDbLine
10
1
20
125
30
0
11
70
21
125
31
0
0
LINE
5
102
100
AcDbEntity
8
0
100
AcDbLine
10
1
20
-65
30
0
11
69.00000111758709
21
-65
31
0
0
LINE
5
103
100
AcDbEntity
8
0
100
AcDbLine
10
70
20
125
30
0
11
75
21
125
31
0
0
LINE
5
104
100
AcDbEntity
8
0
100
AcDbLine
10
75.00000111758709
20
120.00000178813934
30
0
11
75.00000111758709
21
125.00000178813922
31
0
0
LINE
5
105
100
AcDbEntity
8
0
100
AcDbLine
10
75.00000111758709
20
120.00000178813934
30
0
11
70.00000111758709
21
120.00000178813934
31
0
0
LINE
5
106
100
AcDbEntity
8
0
100
AcDbLine
10
70.00000111758709
20
120.00000178813934
30
0
11
70.00000111758709
21
115.00000178813934
31
0
0
LINE
5
107
100
AcDbEntity
8
0
100
AcDbLine
10
70
20
115
30
0
11
75
21
115
31
0
0
LINE
5
108
100
AcDbEntity
8
0
100
AcDbLine
10
75.00000111758709
20
110.00000178813934
30
0
11
75.00000111758709
21
115.00000178813922
31
0
0
LINE
5
109
100
AcDbEntity
8
0
100
AcDbLine
10
75.00000111758709
20
110.00000178813934
30
0
11
70.00000111758709
21
110.00000178813934
31
0
0
LINE
5
110
100
AcDbEntity
8
0
100
AcDbLine
10
70.00000111758709
20
110.00000178813934
30
0
11
70.00000111758709
21
105.00000178813934
31
0
0
LINE
5
111
100
AcDbEntity
8
0
100
AcDbLine
10
70
20
105
30
0
11
75
21
105
31
0
0
LINE
5
112
100
AcDbEntity
8
0
100
AcDbLine
10
75.00000111758709
20
100.00000178813934
30
0
11
75.00000111758709
21
105.00000178813922
31
0
0
LINE
5
113
100
AcDbEntity
8
0
100
AcDbLine
10
75.00000111758709
20
100.00000178813934
30
0
11
70.00000111758709
21
100.00000178813934
31
0
0
LINE
5
114
100
AcDbEntity
8
0
100
AcDbLine
10
70.00000111758709
20
100.00000178813934
30
0
11
70.00000111758709
21
95.000001788139343
31
0
0
LINE
5
115
100
AcDbEntity
8
0
100
AcDbLine
10
70
20
95
30
0
11
75
21
95
31
0
0
LINE
5
116
100
AcDbEntity
8
0
100
AcDbLine
10
75.00000111758709
20
90.000001788139343
30
0
11
75.00000111758709
21
95.000001788139215
31
0
0
LINE
5
117
100
AcDbEntity
8
0
100
AcDbLine
10
75.00000111758709
20
90.000001788139343
30
0
11
70.00000111758709
21
90.000001788139343
31
0
0
LINE
5
118
100
AcDbEntity
8
0
100
AcDbLine
10
70.00000111758709
20
90.000001788139343
30
0
11
70.00000111758709
21
85.000001788139343
31
0
0
LINE
5
119
100
AcDbEntity
8
0
100
AcDbLine
10
70
20
85
30
0
11
75
21
85
31
0
0
LINE
5
120
100
AcDbEntity
8
0
100
AcDbLine
10
75.00000111758709
20
80.000001788139343
30
0
11
75.00000111758709
21
85.000001788139215
31
0
0
LINE
5
121
100
AcDbEntity
8
0
100
AcDbLine
10
75.00000111758709
20
80.000001788139343
30
0
11
70.00000111758709
21
80.000001788139343
31
0
0
LINE
5
122
100
AcDbEntity
8
0
100
AcDbLine
10
70.00000111758709
20
80.000001788139343
30
0
11
70.00000111758709
21
75.000001788139343
31
0
0
LINE
5
123
100
AcDbEntity
8
0
100
AcDbLine
10
70
20
75
30
0
11
75
21
75
31
0
0
LINE
5
124
100
AcDbEntity
8
0
100
AcDbLine
10
75.00000111758709
20
70.000001788139343
30
0
11
75.00000111758709
21
75.000001788139215
31
0
0
LINE
5
125
100
AcDbEntity
8
0
100
AcDbLine
10
75.00000111758709
20
70.000001788139343
30
0
11
70.00000111758709
21
70.000001788139343
31
0
0
LINE
5
126
100
AcDbEntity
8
0
100
AcDbLine
10
70.00000111758709
20
70.000001788139343
30
0
11
70.00000111758709
21
65.000001788139343
31
0
0
LINE
5
127
100
AcDbEntity
8
0
100
AcDbLine
10
70
20
65
30
0
11
75
21
65
31
0
0
LINE
5
128
100
AcDbEntity
8
0
100
AcDbLine
10
75.00000111758709
20
60.000001788139343
30
0
11
75.00000111758709
21
65.000001788139215
31
0
0
LINE
5
129
100
AcDbEntity
8
0
100
AcDbLine
10
75.00000111758709
20
60.000001788139343
30
0
11
70.00000111758709
21
60.000001788139343
31
0
0
LINE
5
130
100
AcDbEntity
8
0
100
AcDbLine
10
70.00000111758709
20
60.000001788139343
30
0
11
70.00000111758709
21
55.000001788139343
31
0
0
LINE
5
131
100
AcDbEntity
8
0
100
AcDbLine
10
70
20
55
30
0
11
75
21
55
31
0
0
LINE
5
132
100
AcDbEntity
8
0
100
AcDbLine
10
75.00000111758709
20
50.000001788139343
30
0
11
75.00000111758709
21
55.000001788139215
31
0
0
LINE
5
133
100
AcDbEntity
8
0
100
AcDbLine
10
75.00000111758709
20
50.000001788139343
30
0
11
70.00000111758709
21
50.000001788139343
31
0
0
LINE
5
134
100
AcDbEntity
8
0
100
AcDbLine
10
70.00000111758709
20
50.000001788139343
30
0
11
70.00000111758709
21
45.000001788139343
31
0
0
LINE
5
135
100
AcDbEntity
8
0
100
AcDbLine
10
70
20
45
30
0
11
75
21
45
31
0
0
LINE
5
136
100
AcDbEntity
8
0
100
AcDbLine
10
75.00000111758709
20
40.000001788139343
30
0
11
75.00000111758709
21
45.000001788139215
31
0
0
LINE
5
137
100
AcDbEntity
8
0
100
AcDbLine
10
75.00000111758709
20
40.000001788139343
30
0
11
70.00000111758709
21
40.000001788139343
31
0
0
LINE
5
138
100
AcDbEntity
8
0
100
AcDbLine
10
70.00000111758709
20
40.000001788139343
30
0
11
70.00000111758709
21
35.000001788139343
31
0
0
LINE
5
139
100
AcDbEntity
8
0
100
AcDbLine
10
70
20
35
30
0
11
75
21
35
31
0
0
LINE
5
140
100
AcDbEntity
8
0
100
AcDbLine
10
75.00000111758709
20
30.000001788139343
30
0
11
75.00000111758709
21
35.000001788139215
31
0
0
LINE
5
141
100
AcDbEntity
8
0
100
AcDbLine
10
75.00000111758709
20
30.000001788139343
30
0
11
70.00000111758709
21
30.000001788139343
31
0
0
LINE
5
142
100
AcDbEntity
8
0
100
AcDbLine
10
70.00000111758709
20
30.000001788139343
30
0
11
70.00000111758709
21
25.000001788139343
31
0
0
LINE
5
143
100
AcDbEntity
8
0
100
AcDbLine
10
70
20
25
30
0
11
75
21
25
31
0
0
LINE
5
144
100
AcDbEntity
8
0
100
AcDbLine
10
75.00000111758709
20
20.000001788139343
30
0
11
75.00000111758709
21
25.000001788139219
31
0
0
LINE
5
145
100
AcDbEntity
8
0
100
AcDbLine
10
75.00000111758709
20
20.000001788139343
30
0
11
70.00000111758709
21
20.000001788139343
31
0
0
LINE
5
146
100
AcDbEntity
8
0
100
AcDbLine
10
70.00000111758709
20
20.000001788139343
30
0
11
70.00000111758709
21
15.000001788139343
31
0
0
LINE
5
147
100
AcDbEntity
8
0
100
AcDbLine
10
70
20
15
30
0
11
75
21
15
31
0
0
LINE
5
148
100
AcDbEntity
8
0
100
AcDbLine
10
75.00000111758709
20
10.000001788139343
30
0
11
75.00000111758709
21
15.000001788139219
31
0
0
LINE
5
149
100
AcDbEntity
8
0
100
AcDbLine
10
75.00000111758709
20
10.000001788139343
30
0
11
70.00000111758709
21
10.000001788139343
31
0
0
LINE
5
150
100
AcDbEntity
8
0
100
AcDbLine
10
70.00000111758709
20
10.000001788139343
30
0
11
70.00000111758709
21
5.0000017881393433
31
0
0
LINE
5
151
100
AcDbEntity
8
0
100
AcDbLine
10
70
20
5
30
0
11
75
21
5
31
0
0
LINE
5
152
100
AcDbEntity
8
0
100
AcDbLine
10
75.00000111758709
20
1.7881393432617188e-06
30
0
11
75.00000111758709
21
5.0000017881392189
31
0
0
LINE
5
153
100
AcDbEntity
8
0
100
AcDbLine
10
75.00000111758709
20
1.7881393432617188e-06
30
0
11
70.00000111758709
21
1.7881393432617188e-06
31
0
0
LINE
5
154
100
AcDbEntity
8
0
100
AcDbLine
10
70.00000111758709
20
1.7881393432617188e-06
30
0
11
70.00000111758709
21
-4.9999982118606567
31
0
0
LINE
5
155
100
AcDbEntity
8
0
100
AcDbLine
10
70
20
-5
30
0
11
75
21
-5
31
0
0
LINE
5
156
100
AcDbEntity
8
0
100
AcDbLine
10
75.00000111758709
20
-9.9999982118606567
30
0
11
75.00000111758709
21
-4.9999982118607811
31
0
0
LINE
5
157
100
AcDbEntity
8
0
100
AcDbLine
10
75.00000111758709
20
-9.9999982118606567
30
0
11
70.00000111758709
21
-9.9999982118606567
31
0
0
LINE
5
158
100
AcDbEntity
8
0
100
AcDbLine
10
70.00000111758709
20
-9.9999982118606567
30
0
11
70.00000111758709
21
-14.999998211860657
31
0
0
LINE
5
159
100
AcDbEntity
8
0
100
AcDbLine
10
70
20
-15
30
0
11
75
21
-15
31
0
0
LINE
5
160
100
AcDbEntity
8
0
100
AcDbLine
10
75.00000111758709
20
-19.999998211860657
30
0
11
75.00000111758709
21
-14.999998211860781
31
0
0
LINE
5
161
100
AcDbEntity
8
0
100
AcDbLine
10
75.00000111758709
20
-19.999998211860657
30
0
11
70.00000111758709
21
-19.999998211860657
31
0
0
LINE
5
162
100
AcDbEntity
8
0
100
AcDbLine
10
70.00000111758709
20
-19.999998211860657
30
0
11
70.00000111758709
21
-24.999998211860657
31
0
0
LINE
5
163
100
AcDbEntity
8
0
100
AcDbLine
10
70
20
-25
30
0
11
75
21
-25
31
0
0
LINE
5
164
100
AcDbEntity
8
0
100
AcDbLine
10
75.00000111758709
20
-29.999998211860657
30
0
11
75.00000111758709
21
-24.999998211860781
31
0
0
LINE
5
165
100
AcDbEntity
8
0
100
AcDbLine
10
75.00000111758709
20
-29.999998211860657
30
0
11
70.00000111758709
21
-29.999998211860657
31
0
0
LINE
5
166
100
AcDbEntity
8
0
100
AcDbLine
10
70.00000111758709
20
-29.999998211860657
30
0
11
70.00000111758709
21
-34.999998211860657
31
0
0
LINE
5
167
100
AcDbEntity
8
0
100
AcDbLine
10
70
20
-35
30
0
11
75
21
-35
31
0
0
LINE
5
168
100
AcDbEntity
8
0
100
AcDbLine
10
75.00000111758709
20
-39.999998211860657
30
0
11
75.00000111758709
21
-34.999998211860785
31
0
0
LINE
5
169
100
AcDbEntity
8
0
100
AcDbLine
10
75.00000111758709
20
-39.999998211860657
30
0
11
70.00000111758709
21
-39.999998211860657
31
0
0
LINE
5
170
100
AcDbEntity
8
0
100
AcDbLine
10
70.00000111758709
20
-39.999998211860657
30
0
11
70.00000111758709
21
-44.999998211860657
31
0
0
LINE
5
171
100
AcDbEntity
8
0
100
AcDbLine
10
70
20
-45
30
0
11
75
21
-45
31
0
0
LINE
5
172
100
AcDbEntity
8
0
100
AcDbLine
10
75.00000111758709
20
-49.999998211860657
30
0
11
75.00000111758709
21
-44.999998211860785
31
0
0
LINE
5
173
100
AcDbEntity
8
0
100
AcDbLine
10
75.00000111758709
20
-49.999998211860657
30
0
11
70.00000111758709
21
-49.999998211860657
31
0
0
LINE
5
174
100
AcDbEntity
8
0
100
AcDbLine
10
70.00000111758709
20
-49.999998211860657
30
0
11
70.00000111758709
21
-54.999998211860657
31
0
0
LINE
5
175
100
AcDbEntity
8
0
100
AcDbLine
10
70
20
-55
30
0
11
75
21
-55
31
0
0
LINE
5
176
100
AcDbEntity
8
0
100
AcDbLine
10
75.00000111758709
20
-59.999998211860657
30
0
11
75.00000111758709
21
-54.999998211860785
31
0
0
LINE
5
177
100
AcDbEntity
8
0
100
AcDbLine
10
75.00000111758709
20
-59.999998211860657
30
0
11
70.00000111758709
21
-59.999998211860657
31
0
0
LINE
5
178
100
AcDbEntity
8
0
100
AcDbLine
10
70.00000111758709
20
-59.999998211860657
30
0
11
70.000001117587104
21
-64
31
0
0
LINE
5
179
100
AcDbEntity
8
0
100
AcDbLine
10
0
20
124
30
0
11
1
21
125
31
0
0
LINE
5
180
100
AcDbEntity
8
0
100
AcDbLine
10
0
20
-64
30
0
11
1
21
-65
31
0
0
LINE
5
181
100
AcDbEntity
8
0
100
AcDbLine
10
70.000001117587104
20
-64
30
0
11
69.00000111758709
21
-65
31
0
0
ENDSEC
0
SECTION
2
OBJECTS
0
DICTIONARY
5
C
100
AcDbDictionary
3
ACAD_GROUP
350
D
3
ACAD_MLINESTYLE
350
17
0
DICTIONARY
5
D
100
AcDbDictionary
0
DICTIONARY
5
1A
330
C
100
AcDbDictionary
0
DICTIONARY
5
17
100
AcDbDictionary
0
ENDSEC
0
EOF
