0
SECTION
2
HEADER
9
$INSUNITS
70
4
9
$ACADVER
1
AC1014
9
$HANDSEED
5
FFFF
0
ENDSEC
0
SECTION
2
TABLES
0
TABLE
2
VPORT
5
8
100
AcDbSymbolTable
0
ENDTAB
0
TABLE
2
LTYPE
5
5
100
AcDbSymbolTable
0
LTYPE
5
14
100
AcDbSymbolTableRecord
100
AcDbLinetypeTableRecord
2
BYBLOCK
70
0
0
LTYPE
5
15
100
AcDbSymbolTableRecord
100
AcDbLinetypeTableRecord
2
BYLAYER
70
0
0
ENDTAB
0
TABLE
2
LAYER
5
2
100
AcDbSymbolTable
70
2
0
LAYER
5
50
100
AcDbSymbolTableRecord
100
AcDbLayerTableRecord
2
0
70
0
6
CONTINUOUS
0
ENDTAB
0
TABLE
2
STYLE
5
3
100
AcDbSymbolTable
70
1
0
STYLE
5
11
100
AcDbSymbolTableRecord
100
AcDbTextStyleTableRecord
2
STANDARD
70
0
0
ENDTAB
0
TABLE
2
VIEW
5
6
100
AcDbSymbolTable
70
0
0
ENDTAB
0
TABLE
2
UCS
5
7
100
AcDbSymbolTable
70
0
0
ENDTAB
0
TABLE
2
APPID
5
9
100
AcDbSymbolTable
70
2
0
APPID
5
12
100
AcDbSymbolTableRecord
100
AcDbRegAppTableRecord
2
ACAD
70
0
0
ENDTAB
0
TABLE
2
DIMSTYLE
5
A
100
AcDbSymbolTable
70
1
0
ENDTAB
0
TABLE
2
BLOCK_RECORD
5
1
100
AcDbSymbolTable
70
1
0
BLOCK_RECORD
5
1F
100
AcDbSymbolTableRecord
100
AcDbBlockTableRecord
2
*MODEL_SPACE
0
BLOCK_RECORD
5
1B
100
AcDbSymbolTableRecord
100
AcDbBlockTableRecord
2
*PAPER_SPACE
0
ENDTAB
0
ENDSEC
0
SECTION
2
BLOCKS
0
BLOCK
5
20
100
AcDbEntity
100
AcDbBlockBegin
2
*MODEL_SPACE
0
ENDBLK
5
21
100
AcDbEntity
100
AcDbBlockEnd
0
BLOCK
5
1C
100
AcDbEntity
100
AcDbBlockBegin
2
*PAPER_SPACE
0
ENDBLK
5
1D
100
AcDbEntity
100
AcDbBlockEnd
0
ENDSEC
0
SECTION
2
ENTITIES
0
LWPOLYLINE
5
100
100
AcDbEntity
8
0
100
AcDbPolyline
90
22
70
1
43
0.0
10
18.099999999999991
20
153.80000000000001
10
18.100000000000001
20
117.60000000000004
10
126.70000000000002
20
117.59999999999994
10
126.70000000000009
20
153.79999999999995
10
112.50000000000007
20
153.79999999999998
10
110.50000000000006
20
151.80000000000001
10
110.5
20
135.69999999999999
10
106.70000000000009
20
135.69999999999999
10
106.7000000000001
20
151.80000000000001
10
104.7000000000001
20
153.79999999999998
10
76.300000000000068
20
153.80000000000007
10
74.300000000000054
20
151.80000000000007
10
74.299999999999983
20
135.70000000000007
10
70.500000000000057
20
135.70000000000007
10
70.500000000000028
20
151.80000000000007
10
68.500000000000014
20
153.80000000000007
10
40.099999999999973
20
153.80000000000001
10
38.099999999999966
20
151.80000000000004
10
38.099999999999966
20
135.70000000000005
10
34.300000000000054
20
135.70000000000005
10
34.300000000000011
20
151.80000000000004
10
32.300000000000011
20
153.80000000000004
0
LWPOLYLINE
5
101
100
AcDbEntity
8
0
100
AcDbPolyline
90
22
70
1
43
0.0
10
129.70000000000002
20
153.8000000000001
10
129.70000000000002
20
117.60000000000008
10
238.30000000000007
20
117.60000000000002
10
238.30000000000013
20
153.80000000000001
10
224.10000000000011
20
153.80000000000007
10
222.10000000000008
20
151.80000000000004
10
222.10000000000002
20
135.70000000000005
10
218.30000000000013
20
135.70000000000005
10
218.30000000000013
20
151.80000000000007
10
216.3000000000001
20
153.80000000000004
10
187.90000000000006
20
153.80000000000013
10
185.90000000000006
20
151.80000000000013
10
185.90000000000001
20
135.70000000000013
10
182.10000000000008
20
135.70000000000016
10
182.10000000000005
20
151.80000000000013
10
180.10000000000005
20
153.80000000000013
10
151.69999999999999
20
153.8000000000001
10
149.69999999999999
20
151.8000000000001
10
149.69999999999999
20
135.7000000000001
10
145.90000000000006
20
135.7000000000001
10
145.90000000000003
20
151.8000000000001
10
143.90000000000003
20
153.80000000000013
0
LWPOLYLINE
5
102
100
AcDbEntity
8
0
100
AcDbPolyline
90
22
70
1
43
0.0
10
129.70000000000002
20
114.60000000000009
10
129.70000000000002
20
78.400000000000091
10
238.30000000000007
20
78.40000000000002
10
238.30000000000013
20
114.60000000000001
10
224.10000000000011
20
114.60000000000005
10
222.10000000000008
20
112.60000000000005
10
222.10000000000002
20
96.500000000000057
10
218.30000000000013
20
96.500000000000057
10
218.30000000000013
20
112.60000000000005
10
216.3000000000001
20
114.60000000000005
10
187.90000000000006
20
114.60000000000014
10
185.90000000000006
20
112.60000000000012
10
185.90000000000001
20
96.500000000000128
10
182.10000000000008
20
96.500000000000128
10
182.10000000000005
20
112.60000000000014
10
180.10000000000005
20
114.60000000000014
10
151.69999999999999
20
114.60000000000009
10
149.69999999999999
20
112.60000000000011
10
149.69999999999999
20
96.500000000000114
10
145.90000000000006
20
96.500000000000114
10
145.90000000000003
20
112.60000000000012
10
143.90000000000003
20
114.60000000000011
0
LWPOLYLINE
5
103
100
AcDbEntity
8
0
100
AcDbPolyline
90
22
70
1
43
0.0
10
18.099999999999991
20
114.60000000000002
10
18.100000000000001
20
78.40000000000002
10
126.70000000000002
20
78.399999999999949
10
126.70000000000009
20
114.59999999999994
10
112.50000000000007
20
114.59999999999999
10
110.50000000000006
20
112.59999999999998
10
110.5
20
96.499999999999986
10
106.70000000000009
20
96.499999999999986
10
106.7000000000001
20
112.59999999999999
10
104.7000000000001
20
114.59999999999997
10
76.300000000000068
20
114.60000000000007
10
74.300000000000054
20
112.60000000000007
10
74.299999999999983
20
96.500000000000057
10
70.500000000000057
20
96.500000000000071
10
70.500000000000028
20
112.60000000000007
10
68.500000000000014
20
114.60000000000007
10
40.099999999999973
20
114.60000000000002
10
38.099999999999966
20
112.60000000000005
10
38.099999999999966
20
96.500000000000043
10
34.300000000000054
20
96.500000000000043
10
34.300000000000011
20
112.60000000000005
10
32.300000000000011
20
114.60000000000005
0
LWPOLYLINE
5
104
100
AcDbEntity
8
0
100
AcDbPolyline
90
22
70
1
43
0.0
10
18.099999999999991
20
75.40000000000002
10
18.100000000000001
20
39.200000000000017
10
126.70000000000002
20
39.199999999999939
10
126.70000000000009
20
75.399999999999935
10
112.50000000000007
20
75.399999999999977
10
110.50000000000006
20
73.399999999999977
10
110.5
20
57.299999999999983
10
106.70000000000009
20
57.299999999999976
10
106.7000000000001
20
73.399999999999977
10
104.7000000000001
20
75.399999999999977
10
76.300000000000068
20
75.400000000000048
10
74.300000000000054
20
73.400000000000048
10
74.299999999999983
20
57.300000000000054
10
70.500000000000057
20
57.300000000000054
10
70.500000000000028
20
73.400000000000063
10
68.500000000000014
20
75.400000000000063
10
40.099999999999973
20
75.40000000000002
10
38.099999999999966
20
73.400000000000034
10
38.099999999999966
20
57.300000000000033
10
34.300000000000054
20
57.30000000000004
10
34.300000000000011
20
73.400000000000034
10
32.300000000000011
20
75.400000000000034
0
LWPOLYLINE
5
105
100
AcDbEntity
8
0
100
AcDbPolyline
90
22
70
1
43
0.0
10
129.70000000000002
20
75.400000000000077
10
129.70000000000002
20
39.200000000000081
10
238.30000000000007
20
39.200000000000003
10
238.30000000000013
20
75.400000000000006
10
224.10000000000011
20
75.400000000000048
10
222.10000000000008
20
73.400000000000048
10
222.10000000000002
20
57.300000000000047
10
218.30000000000013
20
57.300000000000047
10
218.30000000000013
20
73.400000000000048
10
216.3000000000001
20
75.400000000000034
10
187.90000000000006
20
75.400000000000119
10
185.90000000000006
20
73.400000000000119
10
185.90000000000001
20
57.300000000000125
10
182.10000000000008
20
57.300000000000125
10
182.10000000000005
20
73.400000000000119
10
180.10000000000005
20
75.400000000000119
10
151.69999999999999
20
75.400000000000077
10
149.69999999999999
20
73.400000000000105
10
149.69999999999999
20
57.300000000000104
10
145.90000000000006
20
57.300000000000111
10
145.90000000000003
20
73.400000000000105
10
143.90000000000003
20
75.400000000000091
0
LWPOLYLINE
5
106
100
AcDbEntity
8
0
100
AcDbPolyline
90
22
70
1
43
0.0
10
129.70000000000002
20
36.200000000000074
10
129.70000000000002
20
7.5495165674510645e-14
10
238.30000000000007
20
-2.6106496419728062e-15
10
238.30000000000013
20
36.199999999999996
10
224.10000000000011
20
36.200000000000038
10
222.10000000000008
20
34.200000000000038
10
222.10000000000002
20
18.100000000000044
10
218.30000000000013
20
18.100000000000041
10
218.30000000000013
20
34.200000000000045
10
216.3000000000001
20
36.200000000000031
10
187.90000000000006
20
36.200000000000109
10
185.90000000000006
20
34.200000000000117
10
185.90000000000001
20
18.100000000000119
10
182.10000000000008
20
18.100000000000122
10
182.10000000000005
20
34.200000000000117
10
180.10000000000005
20
36.200000000000117
10
151.69999999999999
20
36.200000000000074
10
149.69999999999999
20
34.200000000000095
10
149.69999999999999
20
18.10000000000009
10
145.90000000000006
20
18.100000000000097
10
145.90000000000003
20
34.200000000000095
10
143.90000000000003
20
36.200000000000095
0
LWPOLYLINE
5
107
100
AcDbEntity
8
0
100
AcDbPolyline
90
22
70
1
43
0.0
10
18.099999999999991
20
36.20000000000001
10
18.100000000000001
20
8.8817841970012523e-15
10
126.70000000000002
20
-7.1052355904613226e-14
10
126.70000000000009
20
36.199999999999932
10
112.50000000000007
20
36.199999999999967
10
110.50000000000006
20
34.199999999999974
10
110.5
20
18.099999999999973
10
106.70000000000009
20
18.099999999999973
10
106.7000000000001
20
34.199999999999974
10
104.7000000000001
20
36.19999999999996
10
76.300000000000068
20
36.200000000000045
10
74.300000000000054
20
34.200000000000045
10
74.299999999999983
20
18.100000000000051
10
70.500000000000057
20
18.100000000000051
10
70.500000000000028
20
34.200000000000053
10
68.500000000000014
20
36.200000000000053
10
40.099999999999973
20
36.20000000000001
10
38.099999999999966
20
34.200000000000024
10
38.099999999999966
20
18.100000000000023
10
34.300000000000054
20
18.10000000000003
10
34.300000000000011
20
34.200000000000031
10
32.300000000000011
20
36.200000000000031
0
ENDSEC
0
SECTION
2
OBJECTS
0
DICTIONARY
5
C
100
AcDbDictionary
3
ACAD_GROUP
350
D
3
ACAD_MLINESTYLE
350
17
0
DICTIONARY
5
D
100
AcDbDictionary
0
DICTIONARY
5
1A
330
C
100
AcDbDictionary
0
DICTIONARY
5
17
100
AcDbDictionary
0
ENDSEC
0
EOF
