0
SECTION
2
HEADER
9
$INSUNITS
70
4
9
$ACADVER
1
AC1014
9
$HANDSEED
5
FFFF
0
ENDSEC
0
SECTION
2
TABLES
0
TABLE
2
VPORT
5
8
100
AcDbSymbolTable
0
ENDTAB
0
TABLE
2
LTYPE
5
5
100
AcDbSymbolTable
0
LTYPE
5
14
100
AcDbSymbolTableRecord
100
AcDbLinetypeTableRecord
2
BYBLOCK
70
0
0
LTYPE
5
15
100
AcDbSymbolTableRecord
100
AcDbLinetypeTableRecord
2
BYLAYER
70
0
0
ENDTAB
0
TABLE
2
LAYER
5
2
100
AcDbSymbolTable
70
2
0
LAYER
5
50
100
AcDbSymbolTableRecord
100
AcDbLayerTableRecord
2
0
70
0
6
CONTINUOUS
0
ENDTAB
0
TABLE
2
STYLE
5
3
100
AcDbSymbolTable
70
1
0
STYLE
5
11
100
AcDbSymbolTableRecord
100
AcDbTextStyleTableRecord
2
STANDARD
70
0
0
ENDTAB
0
TABLE
2
VIEW
5
6
100
AcDbSymbolTable
70
0
0
ENDTAB
0
TABLE
2
UCS
5
7
100
AcDbSymbolTable
70
0
0
ENDTAB
0
TABLE
2
APPID
5
9
100
AcDbSymbolTable
70
2
0
APPID
5
12
100
AcDbSymbolTableRecord
100
AcDbRegAppTableRecord
2
ACAD
70
0
0
ENDTAB
0
TABLE
2
DIMSTYLE
5
A
100
AcDbSymbolTable
70
1
0
ENDTAB
0
TABLE
2
BLOCK_RECORD
5
1
100
AcDbSymbolTable
70
1
0
BLOCK_RECORD
5
1F
100
AcDbSymbolTableRecord
100
AcDbBlockTableRecord
2
*MODEL_SPACE
0
BLOCK_RECORD
5
1B
100
AcDbSymbolTableRecord
100
AcDbBlockTableRecord
2
*PAPER_SPACE
0
ENDTAB
0
ENDSEC
0
SECTION
2
BLOCKS
0
BLOCK
5
20
100
AcDbEntity
100
AcDbBlockBegin
2
*MODEL_SPACE
0
ENDBLK
5
21
100
AcDbEntity
100
AcDbBlockEnd
0
BLOCK
5
1C
100
AcDbEntity
100
AcDbBlockBegin
2
*PAPER_SPACE
0
ENDBLK
5
1D
100
AcDbEntity
100
AcDbBlockEnd
0
ENDSEC
0
SECTION
2
ENTITIES
0
LWPOLYLINE
5
100
100
AcDbEntity
8
0
100
AcDbPolyline
90
41
70
1
43
0.0
10
14.999999999999993
20
59
10
13.999999999999989
20
60
10
-4.4408920985006262e-15
20
59.999999999999943
10
-4.9303806576313238e-31
20
0
10
128.75000000000023
20
-4.1024877443469673e-15
10
128.7500000000002
20
59
10
127.75000000000021
20
60
10
114.7500000000002
20
60.000000000000014
10
113.7500000000002
20
59.000000000000021
10
113.75000000000013
20
30.000000000000014
10
109.75000000000011
20
29.999999999999982
10
109.75000000000011
20
58.999999999999986
10
108.75000000000011
20
59.999999999999986
10
95.750000000000114
20
60
10
94.750000000000114
20
59
10
94.750000000000071
20
30.000000000000004
10
90.250000000000071
20
29.999999999999993
10
90.250000000000057
20
58.999999999999993
10
89.250000000000085
20
59.999999999999993
10
76.250000000000057
20
60.000000000000014
10
75.250000000000071
20
59.000000000000021
10
75.250000000000028
20
30.000000000000021
10
70.500000000000028
20
29.999999999999996
10
70.5
20
59
10
69.500000000000014
20
60
10
56.499999999999993
20
60
10
55.5
20
59
10
55.500000000000014
20
30
10
51.750000000000014
20
29.999999999999993
10
51.749999999999986
20
59
10
50.749999999999993
20
60
10
37.749999999999993
20
60.000000000000007
10
36.749999999999986
20
59.000000000000014
10
36.749999999999986
20
30.000000000000014
10
33.249999999999986
20
30.000000000000014
10
33.25
20
59.000000000000014
10
32.25
20
60.000000000000007
10
19.25
20
60
10
18.249999999999996
20
59.000000000000014
10
18.249999999999989
20
29.999999999999993
10
14.999999999999986
20
29.999999999999996
0
ENDSEC
0
SECTION
2
OBJECTS
0
DICTIONARY
5
C
100
AcDbDictionary
3
ACAD_GROUP
350
D
3
ACAD_MLINESTYLE
350
17
0
DICTIONARY
5
D
100
AcDbDictionary
0
DICTIONARY
5
1A
330
C
100
AcDbDictionary
0
DICTIONARY
5
17
100
AcDbDictionary
0
ENDSEC
0
EOF
