0
SECTION
2
HEADER
9
$INSUNITS
70
4
9
$ACADVER
1
AC1014
9
$HANDSEED
5
FFFF
0
ENDSEC
0
SECTION
2
TABLES
0
TABLE
2
VPORT
5
8
100
AcDbSymbolTable
0
ENDTAB
0
TABLE
2
LTYPE
5
5
100
AcDbSymbolTable
0
LTYPE
5
14
100
AcDbSymbolTableRecord
100
AcDbLinetypeTableRecord
2
BYBLOCK
70
0
0
LTYPE
5
15
100
AcDbSymbolTableRecord
100
AcDbLinetypeTableRecord
2
BYLAYER
70
0
0
ENDTAB
0
TABLE
2
LAYER
5
2
100
AcDbSymbolTable
70
2
0
LAYER
5
50
100
AcDbSymbolTableRecord
100
AcDbLayerTableRecord
2
0
70
0
6
CONTINUOUS
0
ENDTAB
0
TABLE
2
STYLE
5
3
100
AcDbSymbolTable
70
1
0
STYLE
5
11
100
AcDbSymbolTableRecord
100
AcDbTextStyleTableRecord
2
STANDARD
70
0
0
ENDTAB
0
TABLE
2
VIEW
5
6
100
AcDbSymbolTable
70
0
0
ENDTAB
0
TABLE
2
UCS
5
7
100
AcDbSymbolTable
70
0
0
ENDTAB
0
TABLE
2
APPID
5
9
100
AcDbSymbolTable
70
2
0
APPID
5
12
100
AcDbSymbolTableRecord
100
AcDbRegAppTableRecord
2
ACAD
70
0
0
ENDTAB
0
TABLE
2
DIMSTYLE
5
A
100
AcDbSymbolTable
70
1
0
ENDTAB
0
TABLE
2
BLOCK_RECORD
5
1
100
AcDbSymbolTable
70
1
0
BLOCK_RECORD
5
1F
100
AcDbSymbolTableRecord
100
AcDbBlockTableRecord
2
*MODEL_SPACE
0
BLOCK_RECORD
5
1B
100
AcDbSymbolTableRecord
100
AcDbBlockTableRecord
2
*PAPER_SPACE
0
ENDTAB
0
ENDSEC
0
SECTION
2
BLOCKS
0
BLOCK
5
20
100
AcDbEntity
100
AcDbBlockBegin
2
*MODEL_SPACE
0
ENDBLK
5
21
100
AcDbEntity
100
AcDbBlockEnd
0
BLOCK
5
1C
100
AcDbEntity
100
AcDbBlockBegin
2
*PAPER_SPACE
0
ENDBLK
5
1D
100
AcDbEntity
100
AcDbBlockEnd
0
ENDSEC
0
SECTION
2
ENTITIES
0
LWPOLYLINE
5
100
100
AcDbEntity
8
0
100
AcDbPolyline
90
28
70
1
43
0.0
10
369.24375420739352
20
475.6254846648676
10
369.24375420741546
20
500.12548466486771
10
368.74375420741592
20
500.62548466486766
10
342.94375420741596
20
500.62548466486766
10
342.4437542074146
20
500.12548466486771
10
342.44375420734877
20
475.6254846648676
10
338.44375420734872
20
475.62548466487476
10
338.44375420737072
20
500.12548466487482
10
337.94375420737117
20
500.62548466487476
10
312.14375420737122
20
500.62548466487476
10
311.64375420736985
20
500.12548466487482
10
311.64375420730391
20
475.62548466487476
10
307.64375420730391
20
475.62548466487476
10
307.64375420732586
20
500.12548466487482
10
307.14375420732631
20
500.62548466487567
10
281.3437542073263
20
500.62548466492217
10
280.84375420732493
20
500.12548466492308
10
280.84375420725905
20
475.62548466492279
10
276.84375420725905
20
475.62548466493001
10
276.84375420725905
20
500.12548466493001
10
276.34375420725905
20
500.62548466493092
10
250.04375420725907
20
500.6254846649781
10
250.04375420740698
20
440.6254846648676
10
400.04375420740701
20
440.6254846648676
10
400.04375420746078
20
500.6254846648676
10
373.74375420746082
20
500.62548466486766
10
373.24375420745946
20
500.12548466486771
10
373.24375420739352
20
475.6254846648676
0
LWPOLYLINE
5
101
100
AcDbEntity
8
0
100
AcDbPolyline
90
28
70
1
43
0.0
10
368.78300364146537
20
544.44489426484347
10
368.78300364148737
20
568.94489426484347
10
368.28300364148782
20
569.44489426484347
10
342.48300364148781
20
569.44489426484347
10
341.98300364148645
20
568.94489426484347
10
341.98300364142057
20
544.44489426484347
10
337.98300364142057
20
544.44489426485063
10
337.98300364144262
20
568.94489426485063
10
337.48300364144308
20
569.44489426485063
10
311.68300364144307
20
569.44489426485063
10
311.1830036414417
20
568.94489426485063
10
311.18300364137576
20
544.44489426485063
10
307.18300364137576
20
544.44489426485063
10
307.1830036413977
20
568.94489426485063
10
306.68300364139816
20
569.44489426485154
10
280.88300364139815
20
569.44489426489804
10
280.38300364139678
20
568.94489426489895
10
280.3830036413309
20
544.44489426489872
10
276.3830036413309
20
544.44489426490577
10
276.3830036413309
20
568.94489426490577
10
275.8830036413309
20
569.44489426490668
10
249.58300364164018
20
569.44489426484347
10
249.5830036414788
20
509.44489426484353
10
399.5830036414788
20
509.44489426484353
10
399.58300364153268
20
569.44489426484347
10
373.28300364153273
20
569.44489426484347
10
372.78300364153131
20
568.94489426484347
10
372.78300364146537
20
544.44489426484347
0
LINE
5
102
100
AcDbEntity
8
0
100
AcDbLine
10
408.56044093364835
20
483.39587896981357
30
0
11
408.98928498064407
21
483.13879380229832
31
0
0
LWPOLYLINE
5
103
100
AcDbEntity
8
0
100
AcDbPolyline
90
28
70
1
43
0.0
10
88.154143533859951
20
500.93685839154159
10
88.154143533698587
20
440.93685839154159
10
238.1541435336986
20
440.93685839154159
10
238.15414353375243
20
500.93685839154159
10
211.85414353375248
20
500.9368583915417
10
211.35414353375111
20
500.43685839154165
10
211.35414353368517
20
475.93685839154159
10
207.35414353368515
20
475.93685839154159
10
207.35414353370712
20
500.43685839154165
10
206.85414353370757
20
500.9368583915417
10
181.05414353370759
20
500.9368583915417
10
180.55414353370622
20
500.43685839154165
10
180.55414353364034
20
475.93685839154159
10
176.55414353364034
20
475.93685839154881
10
176.55414353366237
20
500.43685839154875
10
176.05414353366282
20
500.93685839154881
10
150.25414353366284
20
500.93685839154881
10
149.75414353366148
20
500.43685839154875
10
149.75414353359554
20
475.93685839154881
10
145.75414353359554
20
475.93685839154881
10
145.75414353361748
20
500.43685839154875
10
145.25414353361793
20
500.93685839154972
10
119.45414353361792
20
500.9368583915961
10
118.95414353361657
20
500.43685839159707
10
118.95414353355068
20
475.93685839159684
10
114.95414353355068
20
475.93685839160401
10
114.95414353355068
20
500.43685839160395
10
114.45414353355069
20
500.93685839160486
0
LWPOLYLINE
5
104
100
AcDbEntity
8
0
100
AcDbPolyline
90
28
70
1
43
0.0
10
176.09339296771222
20
544.75626799152462
10
176.09339296773419
20
569.25626799152474
10
175.59339296773464
20
569.75626799152462
10
149.79339296773469
20
569.75626799152462
10
149.29339296773333
20
569.25626799152474
10
149.29339296766739
20
544.75626799152462
10
145.29339296766739
20
544.75626799152462
10
145.29339296768933
20
569.25626799152474
10
144.79339296768978
20
569.75626799152553
10
118.99339296768979
20
569.75626799157203
10
118.49339296768841
20
569.25626799157294
10
118.49339296762253
20
544.75626799157271
10
114.49339296762254
20
544.75626799157976
10
114.49339296762254
20
569.25626799157976
10
113.99339296762253
20
569.75626799158067
10
87.693392967622529
20
569.75626799162796
10
87.693392967770421
20
509.75626799151746
10
237.69339296777045
20
509.75626799151746
10
237.69339296782425
20
569.75626799151746
10
211.3933929678243
20
569.75626799151746
10
210.89339296782296
20
569.25626799151746
10
210.89339296775702
20
544.75626799151746
10
206.89339296775699
20
544.75626799151746
10
206.89339296777894
20
569.25626799151746
10
206.39339296777939
20
569.75626799151746
10
180.59339296777947
20
569.75626799151746
10
180.09339296777807
20
569.25626799151746
10
180.09339296771219
20
544.75626799151746
0
LWPOLYLINE
5
105
100
AcDbEntity
8
0
100
AcDbPolyline
90
28
70
1
43
0.0
10
250.82572771645218
20
581.27641521992484
10
400.82572771645221
20
581.27641521992484
10
400.82572771650604
20
641.27641521992484
10
374.52572771650603
20
641.27641521992496
10
374.02572771650466
20
640.77641521992507
10
374.02572771643872
20
616.27641521992484
10
370.02572771643878
20
616.27641521992484
10
370.02572771646066
20
640.77641521992507
10
369.52572771646112
20
641.27641521992496
10
343.72572771646117
20
641.27641521992496
10
343.2257277164598
20
640.77641521992507
10
343.22572771639392
20
616.27641521992484
10
339.22572771639398
20
616.27641521993201
10
339.22572771641592
20
640.77641521993201
10
338.72572771641637
20
641.27641521993201
10
312.92572771641642
20
641.27641521993201
10
312.42572771641505
20
640.77641521993201
10
312.42572771634912
20
616.27641521993201
10
308.42572771634912
20
616.27641521993201
10
308.42572771637106
20
640.77641521993201
10
307.92572771637151
20
641.27641521993291
10
282.1257277163715
20
641.2764152199793
10
281.62572771637019
20
640.77641521998021
10
281.62572771630425
20
616.27641521997998
10
277.62572771630425
20
616.27641521998726
10
277.62572771630425
20
640.77641521998726
10
277.12572771630425
20
641.27641521998828
10
250.82572771661353
20
641.27641521992484
0
LINE
5
106
100
AcDbEntity
8
0
100
AcDbLine
10
246.67083025994
20
483.70725269648756
30
0
11
247.0996743069357
21
483.45016752897237
31
0
0
LWPOLYLINE
5
107
100
AcDbEntity
8
0
100
AcDbPolyline
90
28
70
1
43
0.0
10
400.36497715057783
20
710.09582481990083
10
374.06497715057787
20
710.09582481990083
10
373.56497715057651
20
709.59582481990071
10
373.56497715051057
20
685.09582481990083
10
369.56497715051057
20
685.09582481990083
10
369.56497715053251
20
709.59582481990071
10
369.06497715053297
20
710.09582481990083
10
343.26497715053301
20
710.09582481990083
10
342.76497715053165
20
709.59582481990071
10
342.76497715046582
20
685.09582481990083
10
338.76497715046577
20
685.09582481990788
10
338.76497715048777
20
709.59582481990788
10
338.26497715048822
20
710.09582481990788
10
312.46497715048827
20
710.09582481990788
10
311.9649771504869
20
709.59582481990788
10
311.96497715042096
20
685.09582481990788
10
307.96497715042096
20
685.09582481990788
10
307.96497715044291
20
709.59582481990788
10
307.46497715044336
20
710.09582481990878
10
281.66497715044335
20
710.0958248199554
10
281.16497715044198
20
709.59582481995631
10
281.1649771503761
20
685.09582481995596
10
277.1649771503761
20
685.09582481996301
10
277.1649771503761
20
709.59582481996313
10
276.6649771503761
20
710.09582481996392
10
250.36497715037612
20
710.09582482001122
10
250.36497715052403
20
650.09582481990083
10
400.36497715052406
20
650.09582481990083
0
LWPOLYLINE
5
108
100
AcDbEntity
8
0
100
AcDbPolyline
90
28
70
1
43
0.0
10
88.936117042743788
20
581.58778894659895
10
238.93611704274377
20
581.58778894659895
10
238.93611704279763
20
641.58778894659895
10
212.63611704279768
20
641.58778894659906
10
212.13611704279629
20
641.08778894659895
10
212.13611704273035
20
616.58778894659895
10
208.13611704273035
20
616.58778894659895
10
208.13611704275232
20
641.08778894659895
10
207.63611704275277
20
641.58778894659906
10
181.83611704275279
20
641.58778894659906
10
181.33611704275143
20
641.08778894659895
10
181.33611704268557
20
616.58778894659895
10
177.33611704268554
20
616.587788946606
10
177.33611704270754
20
641.087788946606
10
176.836117042708
20
641.587788946606
10
151.03611704270804
20
641.587788946606
10
150.53611704270668
20
641.087788946606
10
150.53611704264074
20
616.587788946606
10
146.53611704264074
20
616.587788946606
10
146.53611704266268
20
641.087788946606
10
146.03611704266314
20
641.58778894660702
10
120.23611704266315
20
641.58778894665329
10
119.73611704266177
20
641.0877889466542
10
119.73611704259589
20
616.58778894665397
10
115.73611704259591
20
616.58778894666125
10
115.73611704259591
20
641.08778894666125
10
115.23611704259591
20
641.58778894666216
10
88.936117042905181
20
641.58778894659895
0
LWPOLYLINE
5
109
100
AcDbEntity
8
0
100
AcDbPolyline
90
22
70
1
43
0.0
10
-46.042724129287592
20
649.2857448321605
10
-46.042724129233761
20
709.2857448321605
10
-72.342724129233716
20
709.2857448321605
10
-72.84272412923508
20
708.78574483216062
10
-72.842724129301018
20
684.2857448321605
10
-76.842724129301033
20
684.2857448321605
10
-76.842724129279091
20
708.78574483216062
10
-77.342724129278636
20
709.2857448321605
10
-103.14272412927861
20
709.2857448321605
10
-103.64272412927996
20
708.78574483216062
10
-103.64272412934584
20
684.2857448321605
10
-107.64272412934585
20
684.28574483216767
10
-107.64272412932385
20
708.78574483216767
10
-108.1427241293234
20
709.28574483216767
10
-133.94272412932332
20
709.28574483216767
10
-134.44272412932469
20
708.78574483216767
10
-134.44272412939063
20
684.28574483216767
10
-138.44272412939063
20
684.28574483216767
10
-138.44272412936868
20
708.78574483216767
10
-138.94272412936823
20
709.28574483216858
10
-164.74272412936824
20
709.28574483221507
10
-164.74272412936824
20
649.2857448321605
0
LWPOLYLINE
5
110
100
AcDbEntity
8
0
100
AcDbPolyline
90
28
70
1
43
0.0
10
88.475366476815637
20
650.4071985465747
10
238.47536647681565
20
650.4071985465747
10
238.47536647686948
20
710.4071985465747
10
212.17536647686953
20
710.4071985465747
10
211.67536647686816
20
709.9071985465747
10
211.67536647680222
20
685.4071985465747
10
207.6753664768022
20
685.4071985465747
10
207.67536647682417
20
709.9071985465747
10
207.17536647682462
20
710.4071985465747
10
181.37536647682464
20
710.4071985465747
10
180.87536647682327
20
709.9071985465747
10
180.87536647675739
20
685.4071985465747
10
176.87536647675739
20
685.40719854658187
10
176.87536647677942
20
709.90719854658198
10
176.37536647677987
20
710.40719854658187
10
150.57536647677989
20
710.40719854658187
10
150.07536647677853
20
709.90719854658198
10
150.07536647671259
20
685.40719854658187
10
146.07536647671259
20
685.40719854658187
10
146.07536647673453
20
709.90719854658198
10
145.57536647673498
20
710.40719854658278
10
119.775366476735
20
710.40719854662927
10
119.27536647673364
20
709.9071985466303
10
119.27536647666776
20
685.40719854662996
10
115.27536647666776
20
685.40719854663712
10
115.27536647666776
20
709.90719854663712
10
114.77536647666774
20
710.40719854663791
10
88.475366476977015
20
710.4071985465747
0
LWPOLYLINE
5
111
100
AcDbEntity
8
0
100
AcDbPolyline
90
22
70
1
43
0.0
10
19.681422682140735
20
684.79698751693036
10
19.681422682162733
20
709.29698751693036
10
19.181422682163188
20
709.79698751693036
10
-6.6185773178367668
20
709.79698751693036
10
-7.118577317838132
20
709.29698751693036
10
-7.1185773179040703
20
684.79698751693036
10
-11.118577317904069
20
684.79698751693036
10
-11.118577317882128
20
709.29698751693036
10
-11.618577317881673
20
709.79698751693138
10
-37.41857731788167
20
709.79698751697788
10
-37.418577317881677
20
649.79698751692331
10
81.281422682198979
20
649.79698751692331
10
81.28142268225281
20
709.79698751692331
10
54.981422682252862
20
709.79698751692331
10
54.481422682251491
20
709.29698751692331
10
54.481422682185553
20
684.79698751692331
10
50.481422682185546
20
684.79698751692331
10
50.48142268220748
20
709.29698751692331
10
49.981422682207935
20
709.79698751692331
10
24.18142268220798
20
709.79698751692331
10
23.68142268220662
20
709.29698751692331
10
23.681422682140735
20
684.79698751692331
0
LINE
5
112
100
AcDbEntity
8
0
100
AcDbLine
10
247.45280376898521
20
624.35818325154492
30
0
11
247.8816478159809
21
624.10109808402956
31
0
0
LWPOLYLINE
5
113
100
AcDbEntity
8
0
100
AcDbPolyline
90
22
70
1
43
0.0
10
-73.762469921491544
20
639.50020855702439
10
-73.762469921557482
20
615.00020855702451
10
-77.762469921557496
20
615.00020855702451
10
-77.762469921535569
20
639.50020855702439
10
-78.262469921535114
20
640.00020855702451
10
-104.06246992153505
20
640.00020855702451
10
-104.56246992153643
20
639.50020855702439
10
-104.56246992160231
20
615.00020855702451
10
-108.5624699216023
20
615.00020855703156
10
-108.56246992158032
20
639.50020855703156
10
-109.06246992157986
20
640.00020855703156
10
-134.86246992157982
20
640.00020855703156
10
-135.36246992158115
20
639.50020855703156
10
-135.36246992164709
20
615.00020855703156
10
-139.36246992164709
20
615.00020855703156
10
-139.36246992162518
20
639.50020855703156
10
-139.86246992162472
20
640.00020855703258
10
-165.66246992162473
20
640.00020855707908
10
-165.66246992162473
20
580.00020855702451
10
-46.96246992154407
20
580.00020855702451
10
-46.962469921490225
20
640.00020855702451
10
-73.26246992149018
20
640.00020855702451
0
LWPOLYLINE
5
114
100
AcDbEntity
8
0
100
AcDbPolyline
90
22
70
1
43
0.0
10
-38.338323110138134
20
580.51145124178709
10
80.361676889942487
20
580.51145124178709
10
80.361676889996389
20
640.5114512417872
10
54.061676889996392
20
640.5114512417872
10
53.561676889995027
20
640.01145124178709
10
53.561676889929089
20
615.51145124178709
10
49.561676889929061
20
615.51145124178709
10
49.561676889951009
20
640.01145124178709
10
49.061676889951464
20
640.5114512417872
10
23.261676889951502
20
640.5114512417872
10
22.761676889950138
20
640.01145124178709
10
22.76167688988426
20
615.51145124178709
10
18.761676889884257
20
615.51145124179425
10
18.761676889906255
20
640.01145124179425
10
18.26167688990671
20
640.51145124179425
10
-7.5383231100932457
20
640.51145124179425
10
-8.0383231100946091
20
640.01145124179425
10
-8.0383231101605475
20
615.51145124179425
10
-12.038323110160549
20
615.51145124179425
10
-12.038323110138606
20
640.01145124179425
10
-12.538323110138151
20
640.51145124179516
10
-38.338323110138134
20
640.51145124184177
0
LWPOLYLINE
5
115
100
AcDbEntity
8
0
100
AcDbPolyline
90
22
70
1
43
0.0
10
-41.132192890187241
20
508.77789661843906
10
77.567807109893408
20
508.77789661843906
10
77.567807109947239
20
568.77789661843906
10
51.267807109947292
20
568.77789661843906
10
50.76780710994592
20
568.27789661843906
10
50.767807109879982
20
543.77789661843906
10
46.767807109879982
20
543.77789661843906
10
46.767807109901931
20
568.27789661843906
10
46.267807109902385
20
568.77789661843906
10
20.467807109902424
20
568.77789661843906
10
19.967807109901059
20
568.27789661843906
10
19.967807109835178
20
543.77789661843906
10
15.96780710983518
20
543.77789661844622
10
15.967807109857176
20
568.27789661844622
10
15.467807109857631
20
568.77789661844622
10
-10.332192890142323
20
568.77789661844622
10
-10.832192890143688
20
568.27789661844622
10
-10.832192890209626
20
543.77789661844622
10
-14.832192890209628
20
543.77789661844622
10
-14.832192890187684
20
568.27789661844622
10
-15.33219289018723
20
568.77789661844713
10
-41.132192890187241
20
568.77789661849363
0
LWPOLYLINE
5
116
100
AcDbEntity
8
0
100
AcDbPolyline
90
22
70
1
43
0.0
10
-107.35633970158553
20
567.76665393367637
10
-107.35633970165141
20
543.26665393367637
10
-111.35633970165142
20
543.26665393368353
10
-111.35633970162942
20
567.76665393368353
10
-111.85633970162897
20
568.26665393368353
10
-137.65633970162889
20
568.26665393368353
10
-138.15633970163026
20
567.76665393368353
10
-138.1563397016962
20
543.26665393368353
10
-142.1563397016962
20
543.26665393368353
10
-142.15633970167426
20
567.76665393368353
10
-142.6563397016738
20
568.26665393368444
10
-168.45633970167381
20
568.26665393373094
10
-168.45633970167381
20
508.26665393373099
10
-49.756339701593163
20
508.26665393367642
10
-49.756339701539332
20
568.26665393367637
10
-76.056339701539287
20
568.26665393367637
10
-76.556339701540651
20
567.76665393367637
10
-76.556339701606589
20
543.26665393367637
10
-80.556339701606618
20
543.26665393367637
10
-80.556339701584662
20
567.76665393367637
10
-81.056339701584207
20
568.26665393367637
10
-106.85633970158418
20
568.26665393367637
0
LWPOLYLINE
5
117
100
AcDbEntity
8
0
100
AcDbPolyline
90
22
70
1
43
0.0
10
-42.051938682443712
20
439.49236034330295
10
76.648061317636916
20
439.49236034330295
10
76.648061317690804
20
499.49236034330295
10
50.348061317690821
20
499.49236034330295
10
49.848061317689456
20
498.99236034330301
10
49.848061317623518
20
474.49236034330295
10
45.84806131762349
20
474.49236034330295
10
45.848061317645438
20
498.99236034330301
10
45.348061317645893
20
499.49236034330295
10
19.548061317645935
20
499.49236034330295
10
19.048061317644567
20
498.99236034330301
10
19.048061317578686
20
474.49236034330295
10
15.048061317578687
20
474.49236034331017
10
15.048061317600684
20
498.99236034331011
10
14.548061317601139
20
499.49236034331017
10
-11.251938682398816
20
499.49236034331017
10
-11.75193868240018
20
498.99236034331011
10
-11.751938682466118
20
474.49236034331017
10
-15.75193868246612
20
474.49236034331017
10
-15.751938682444177
20
498.99236034331011
10
-16.251938682443722
20
499.49236034331108
10
-42.051938682443712
20
499.49236034335752
0
LWPOLYLINE
5
118
100
AcDbEntity
8
0
100
AcDbPolyline
90
16
70
1
43
0.0
10
-358.67197616391059
20
649.11269656663421
10
-270.77197616371353
20
649.11269656663421
10
-270.7719761636597
20
709.11269656663421
10
-297.07197616365966
20
709.11269656663421
10
-297.57197616366102
20
708.61269656663421
10
-297.57197616372696
20
684.11269656663421
10
-301.57197616372696
20
684.11269656663421
10
-301.57197616370502
20
708.61269656663421
10
-302.07197616370456
20
709.11269656663421
10
-327.87197616370457
20
709.11269656663421
10
-328.37197616370588
20
708.61269656663421
10
-328.37197616377182
20
684.11269656663421
10
-332.37197616377182
20
684.11269656664149
10
-332.37197616374976
20
708.61269656664138
10
-332.87197616374931
20
709.11269656664149
10
-358.67197616374932
20
709.11269656664149
0
LWPOLYLINE
5
119
100
AcDbEntity
8
0
100
AcDbPolyline
90
22
70
1
43
0.0
10
-112.77608549388543
20
498.98111765854742
10
-112.27608549388589
20
498.48111765854748
10
-112.27608549390787
20
473.98111765854742
10
-108.27608549390789
20
473.98111765854026
10
-108.276085493842
20
498.48111765854026
10
-107.77608549384063
20
498.98111765854026
10
-81.976085493840685
20
498.98111765854026
10
-81.47608549384114
20
498.48111765854026
10
-81.476085493863067
20
473.98111765854026
10
-77.476085493863053
20
473.98111765854026
10
-77.476085493797115
20
498.48111765854026
10
-76.97608549379575
20
498.98111765854026
10
-50.676085493795796
20
498.98111765854026
10
-50.676085493849641
20
438.98111765854026
10
-169.3760854939303
20
438.98111765859483
10
-169.3760854939303
20
498.98111765859483
10
-143.57608549393029
20
498.98111765854833
10
-143.07608549393075
20
498.48111765854748
10
-143.07608549395266
20
473.98111765854742
10
-139.07608549395266
20
473.98111765854742
10
-139.07608549388672
20
498.48111765854748
10
-138.57608549388539
20
498.98111765854742
0
LWPOLYLINE
5
120
100
AcDbEntity
8
0
100
AcDbPolyline
90
16
70
1
43
0.0
10
-261.43177485809304
20
709.50566698783632
10
-261.43177485825436
20
649.50566698783632
10
-173.5317748580573
20
649.50566698782927
10
-173.53177485800347
20
709.50566698782927
10
-199.83177485800343
20
709.50566698782927
10
-200.33177485800479
20
709.00566698782927
10
-200.33177485807073
20
684.50566698782927
10
-204.33177485807079
20
684.50566698782927
10
-204.33177485804885
20
709.00566698782927
10
-204.83177485804839
20
709.50566698782927
10
-230.63177485804832
20
709.50566698782927
10
-231.13177485804968
20
709.00566698782927
10
-231.13177485811559
20
684.50566698782927
10
-235.13177485811556
20
684.50566698783632
10
-235.13177485809359
20
709.00566698783632
10
-235.63177485809314
20
709.50566698783632
0
LWPOLYLINE
5
121
100
AcDbEntity
8
0
100
AcDbPolyline
90
16
70
1
43
0.0
10
-260.43295776669413
20
578.47176853204712
10
-172.53295776649705
20
578.47176853204712
10
-172.53295776644319
20
638.47176853204712
10
-198.83295776644317
20
638.47176853204712
10
-199.33295776644454
20
637.97176853204724
10
-199.33295776651048
20
613.47176853204712
10
-203.33295776651053
20
613.47176853204712
10
-203.33295776648856
20
637.97176853204724
10
-203.83295776648811
20
638.47176853204712
10
-229.63295776648806
20
638.47176853204712
10
-230.13295776648945
20
637.97176853204724
10
-230.13295776655525
20
613.47176853204712
10
-234.13295776655528
20
613.47176853205428
10
-234.13295776653331
20
637.97176853205428
10
-234.63295776653285
20
638.47176853205428
10
-260.43295776653275
20
638.47176853205428
0
LWPOLYLINE
5
122
100
AcDbEntity
8
0
100
AcDbPolyline
90
16
70
1
43
0.0
10
-235.5774709195413
20
567.19055805898893
10
-235.57747091960721
20
542.69055805898893
10
-239.57747091960721
20
542.69055805899609
10
-239.57747091958521
20
567.1905580589962
10
-240.07747091958475
20
567.69055805899609
10
-265.87747091958465
20
567.69055805899609
10
-265.87747091974597
20
507.69055805898893
10
-177.97747091954892
20
507.69055805898893
10
-177.97747091949509
20
567.69055805898893
10
-204.27747091949504
20
567.69055805898893
10
-204.77747091949641
20
567.19055805898893
10
-204.77747091956235
20
542.69055805898893
10
-208.77747091956238
20
542.69055805898893
10
-208.77747091954046
20
567.19055805898893
10
-209.27747091954001
20
567.69055805898893
10
-235.07747091953996
20
567.69055805898893
0
LWPOLYLINE
5
123
100
AcDbEntity
8
0
100
AcDbPolyline
90
16
70
1
43
0.0
10
-300.57315907216667
20
613.07879811085218
10
-300.57315907214473
20
637.57879811085218
10
-301.07315907214428
20
638.07879811085218
10
-326.87315907214429
20
638.07879811085218
10
-327.3731590721456
20
637.57879811085218
10
-327.37315907221154
20
613.07879811085218
10
-331.37315907221159
20
613.07879811085945
10
-331.37315907218948
20
637.57879811085934
10
-331.87315907218903
20
638.07879811085945
10
-357.67315907218904
20
638.07879811085945
10
-357.6731590723503
20
578.07879811085945
10
-269.77315907215325
20
578.07879811085218
10
-269.77315907209942
20
638.07879811085218
10
-296.07315907209937
20
638.07879811085218
10
-296.57315907210079
20
637.57879811085218
10
-296.57315907216673
20
613.07879811085218
0
LWPOLYLINE
5
124
100
AcDbEntity
8
0
100
AcDbPolyline
90
16
70
1
43
0.0
10
-302.01767222521858
20
542.29758763779398
10
-306.01767222521858
20
542.29758763779398
10
-306.01767222519663
20
566.79758763779409
10
-306.51767222519618
20
567.29758763779398
10
-332.31767222519613
20
567.29758763779398
10
-332.81767222519755
20
566.79758763779409
10
-332.81767222526349
20
542.29758763779398
10
-336.81767222526344
20
542.29758763780114
10
-336.81767222524138
20
566.79758763780114
10
-337.31767222524093
20
567.29758763780114
10
-363.11767222524088
20
567.29758763780114
10
-363.1176722254022
20
507.29758763779398
10
-275.21767222520515
20
507.29758763779398
10
-275.21767222515132
20
567.29758763779398
10
-301.51767222515127
20
567.29758763779398
10
-302.01767222515264
20
566.79758763779409
0
LWPOLYLINE
5
125
100
AcDbEntity
8
0
100
AcDbPolyline
90
16
70
1
43
0.0
10
-176.97865382798864
20
436.65665960320695
10
-176.97865382793481
20
496.65665960320695
10
-203.27865382793476
20
496.65665960320695
10
-203.77865382793615
20
496.15665960320689
10
-203.77865382800209
20
471.65665960320695
10
-207.77865382800215
20
471.65665960320695
10
-207.77865382798018
20
496.15665960320689
10
-208.27865382797972
20
496.65665960320695
10
-234.07865382797968
20
496.65665960320695
10
-234.57865382798104
20
496.15665960320689
10
-234.57865382804687
20
471.65665960320695
10
-238.5786538280469
20
471.65665960321405
10
-238.57865382802493
20
496.15665960321405
10
-239.07865382802447
20
496.65665960321405
10
-264.87865382802443
20
496.65665960321405
10
-264.87865382818569
20
436.65665960320695
0
LWPOLYLINE
5
126
100
AcDbEntity
8
0
100
AcDbPolyline
90
16
70
1
43
0.0
10
-274.21885513359103
20
496.26368918201194
10
-300.51885513359099
20
496.26368918201194
10
-301.01885513359235
20
495.76368918201194
10
-301.01885513365829
20
471.26368918201194
10
-305.01885513365829
20
471.26368918201194
10
-305.01885513363635
20
495.76368918201194
10
-305.5188551336359
20
496.26368918201194
10
-331.31885513363585
20
496.26368918201194
10
-331.81885513363727
20
495.76368918201194
10
-331.81885513370321
20
471.26368918201194
10
-335.81885513370315
20
471.26368918201911
10
-335.81885513368115
20
495.76368918201916
10
-336.3188551336807
20
496.26368918201911
10
-362.1188551336806
20
496.26368918201911
10
-362.11885513384198
20
436.26368918201194
10
-274.21885513364487
20
436.26368918201194
0
ENDSEC
0
SECTION
2
OBJECTS
0
DICTIONARY
5
C
100
AcDbDictionary
3
ACAD_GROUP
350
D
3
ACAD_MLINESTYLE
350
17
0
DICTIONARY
5
D
100
AcDbDictionary
0
DICTIONARY
5
1A
330
C
100
AcDbDictionary
0
DICTIONARY
5
17
100
AcDbDictionary
0
ENDSEC
0
EOF
