0
SECTION
2
HEADER
9
$INSUNITS
70
4
9
$ACADVER
1
AC1014
9
$HANDSEED
5
FFFF
0
ENDSEC
0
SECTION
2
TABLES
0
TABLE
2
VPORT
5
8
100
AcDbSymbolTable
0
ENDTAB
0
TABLE
2
LTYPE
5
5
100
AcDbSymbolTable
0
LTYPE
5
14
100
AcDbSymbolTableRecord
100
AcDbLinetypeTableRecord
2
BYBLOCK
70
0
0
LTYPE
5
15
100
AcDbSymbolTableRecord
100
AcDbLinetypeTableRecord
2
BYLAYER
70
0
0
ENDTAB
0
TABLE
2
LAYER
5
2
100
AcDbSymbolTable
70
2
0
LAYER
5
50
100
AcDbSymbolTableRecord
100
AcDbLayerTableRecord
2
0
70
0
6
CONTINUOUS
0
ENDTAB
0
TABLE
2
STYLE
5
3
100
AcDbSymbolTable
70
1
0
STYLE
5
11
100
AcDbSymbolTableRecord
100
AcDbTextStyleTableRecord
2
STANDARD
70
0
0
ENDTAB
0
TABLE
2
VIEW
5
6
100
AcDbSymbolTable
70
0
0
ENDTAB
0
TABLE
2
UCS
5
7
100
AcDbSymbolTable
70
0
0
ENDTAB
0
TABLE
2
APPID
5
9
100
AcDbSymbolTable
70
2
0
APPID
5
12
100
AcDbSymbolTableRecord
100
AcDbRegAppTableRecord
2
ACAD
70
0
0
ENDTAB
0
TABLE
2
DIMSTYLE
5
A
100
AcDbSymbolTable
70
1
0
ENDTAB
0
TABLE
2
BLOCK_RECORD
5
1
100
AcDbSymbolTable
70
1
0
BLOCK_RECORD
5
1F
100
AcDbSymbolTableRecord
100
AcDbBlockTableRecord
2
*MODEL_SPACE
0
BLOCK_RECORD
5
1B
100
AcDbSymbolTableRecord
100
AcDbBlockTableRecord
2
*PAPER_SPACE
0
ENDTAB
0
ENDSEC
0
SECTION
2
BLOCKS
0
BLOCK
5
20
100
AcDbEntity
100
AcDbBlockBegin
2
*MODEL_SPACE
0
ENDBLK
5
21
100
AcDbEntity
100
AcDbBlockEnd
0
BLOCK
5
1C
100
AcDbEntity
100
AcDbBlockBegin
2
*PAPER_SPACE
0
ENDBLK
5
1D
100
AcDbEntity
100
AcDbBlockEnd
0
ENDSEC
0
SECTION
2
ENTITIES
0
LINE
5
100
100
AcDbEntity
8
0
100
AcDbLine
10
0
20
0
30
0
11
7.1525573104043109e-07
21
15
31
0
0
LINE
5
101
100
AcDbEntity
8
0
100
AcDbLine
10
7.1525573104043109e-07
20
15
30
0
11
15.000000715255732
21
15
31
0
0
LINE
5
102
100
AcDbEntity
8
0
100
AcDbLine
10
15.000000715255732
20
15
30
0
11
15.000000727176602
21
10.250000977516173
31
0
0
LINE
5
103
100
AcDbEntity
8
0
100
AcDbLine
10
15.000000727176602
20
10.250000977516173
30
0
11
4.750000715255732
21
10.249999999999996
31
0
0
LINE
5
104
100
AcDbEntity
8
0
100
AcDbLine
10
4.750000715255732
20
10.249999999999996
30
0
11
4.7500007152557338
21
-6.7029039660059801e-16
31
0
0
LINE
5
105
100
AcDbEntity
8
0
100
AcDbLine
10
4.7500007152557338
20
-6.7029039660059801e-16
30
0
11
0
21
0
31
0
0
LWPOLYLINE
5
106
100
AcDbEntity
8
0
100
AcDbPolyline
90
6
70
1
43
0.0
10
5.2500007152557329
20
-0.99999999999999445
10
15.000000715255732
20
-0.99999999999999922
10
15.000000715255732
20
-15.999999999999998
10
7.1525573232866476e-07
20
-16.000000000000007
10
7.1525572653917614e-07
20
-10.750000000000007
10
5.2500007152557258
20
-10.749999999999995
0
LINE
5
107
100
AcDbEntity
8
0
100
AcDbLine
10
30.000000715255734
20
15
30
0
11
15.000000715255732
21
15
31
0
0
LINE
5
108
100
AcDbEntity
8
0
100
AcDbLine
10
30.000001430511464
20
0
30
0
11
30.000000715255734
21
15
31
0
0
LINE
5
109
100
AcDbEntity
8
0
100
AcDbLine
10
15.000000703334864
20
10.250000000000005
30
0
11
25.250000715255734
21
10.249999999999996
31
0
0
LINE
5
110
100
AcDbEntity
8
0
100
AcDbLine
10
25.250000715255734
20
10.249999999999996
30
0
11
25.250000715255734
21
-6.7029039073572799e-16
31
0
0
LINE
5
111
100
AcDbEntity
8
0
100
AcDbLine
10
25.250000715255734
20
-6.7029039073572799e-16
30
0
11
30.000001430511464
21
1.8369702863145944e-15
31
0
0
LINE
5
112
100
AcDbEntity
8
0
100
AcDbLine
10
24.75000071525573
20
-0.999999999999998
30
0
11
15.000000715255732
21
-0.99999999999999922
31
0
0
LINE
5
113
100
AcDbEntity
8
0
100
AcDbLine
10
24.750000715255741
20
-10.749999999999996
30
0
11
24.75000071525573
21
-0.999999999999998
31
0
0
LINE
5
114
100
AcDbEntity
8
0
100
AcDbLine
10
30.000000715255737
20
-10.750000000000007
30
0
11
24.750000715255741
21
-10.749999999999996
31
0
0
LINE
5
115
100
AcDbEntity
8
0
100
AcDbLine
10
30.00000071525573
20
-16.000000000000007
30
0
11
30.000000715255737
21
-10.750000000000007
31
0
0
LINE
5
116
100
AcDbEntity
8
0
100
AcDbLine
10
15.000000715255732
20
-15.999999999999998
30
0
11
30.00000071525573
21
-16.000000000000007
31
0
0
LINE
5
117
100
AcDbEntity
8
0
100
AcDbLine
10
33.00000071525573
20
15
30
0
11
48.000000715255737
21
15
31
0
0
LINE
5
118
100
AcDbEntity
8
0
100
AcDbLine
10
63.000000715255737
20
15
30
0
11
48.000000715255737
21
15
31
0
0
LINE
5
119
100
AcDbEntity
8
0
100
AcDbLine
10
48.000000715255737
20
15
30
0
11
48.000000727176598
21
10.250000977516173
31
0
0
LINE
5
120
100
AcDbEntity
8
0
100
AcDbLine
10
33
20
0
30
0
11
33.00000071525573
21
15
31
0
0
LINE
5
121
100
AcDbEntity
8
0
100
AcDbLine
10
48.000000715255737
20
-15.999999999999998
30
0
11
33.00000071525573
21
-16.000000000000007
31
0
0
LINE
5
122
100
AcDbEntity
8
0
100
AcDbLine
10
48.000000715255737
20
-15.999999999999998
30
0
11
63.000000715255737
21
-16.000000000000007
31
0
0
LINE
5
123
100
AcDbEntity
8
0
100
AcDbLine
10
63.000001430511468
20
0
30
0
11
63.000000715255737
21
15
31
0
0
LINE
5
124
100
AcDbEntity
8
0
100
AcDbLine
10
66.000000715255737
20
15
30
0
11
81.000000715255737
21
15
31
0
0
LINE
5
125
100
AcDbEntity
8
0
100
AcDbLine
10
96.000000715255737
20
15
30
0
11
81.000000715255737
21
15
31
0
0
LINE
5
126
100
AcDbEntity
8
0
100
AcDbLine
10
81.000000715255737
20
15
30
0
11
81.000000727176612
21
10.250000977516173
31
0
0
LINE
5
127
100
AcDbEntity
8
0
100
AcDbLine
10
66
20
0
30
0
11
66.000000715255737
21
15
31
0
0
LINE
5
128
100
AcDbEntity
8
0
100
AcDbLine
10
81.000000715255737
20
-15.999999999999998
30
0
11
66.000000715255737
21
-16.000000000000007
31
0
0
LINE
5
129
100
AcDbEntity
8
0
100
AcDbLine
10
81.000000715255737
20
-15.999999999999998
30
0
11
96.000000715255737
21
-16.000000000000007
31
0
0
LINE
5
130
100
AcDbEntity
8
0
100
AcDbLine
10
96.000001430511475
20
0
30
0
11
96.000000715255737
21
15
31
0
0
LINE
5
131
100
AcDbEntity
8
0
100
AcDbLine
10
99.000000715255737
20
15
30
0
11
114.00000071525574
21
15
31
0
0
LINE
5
132
100
AcDbEntity
8
0
100
AcDbLine
10
129.00000071525574
20
15
30
0
11
114.00000071525574
21
15
31
0
0
LINE
5
133
100
AcDbEntity
8
0
100
AcDbLine
10
114.00000071525574
20
15
30
0
11
114.0000007271766
21
10.250000977516173
31
0
0
LINE
5
134
100
AcDbEntity
8
0
100
AcDbLine
10
99
20
0
30
0
11
99.000000715255737
21
15
31
0
0
LINE
5
135
100
AcDbEntity
8
0
100
AcDbLine
10
114.00000071525574
20
-15.999999999999998
30
0
11
99.000000715255737
21
-16.000000000000007
31
0
0
LINE
5
136
100
AcDbEntity
8
0
100
AcDbLine
10
114.00000071525574
20
-15.999999999999998
30
0
11
129.00000071525574
21
-16.000000000000007
31
0
0
LINE
5
137
100
AcDbEntity
8
0
100
AcDbLine
10
129.00000143051147
20
0
30
0
11
129.00000071525574
21
15
31
0
0
LINE
5
138
100
AcDbEntity
8
0
100
AcDbLine
10
132.00000071525574
20
15
30
0
11
147.00000071525574
21
15
31
0
0
LINE
5
139
100
AcDbEntity
8
0
100
AcDbLine
10
162.00000071525577
20
15
30
0
11
147.00000071525574
21
15
31
0
0
LINE
5
140
100
AcDbEntity
8
0
100
AcDbLine
10
147.00000071525574
20
15
30
0
11
147.0000007271766
21
10.250000977516173
31
0
0
LINE
5
141
100
AcDbEntity
8
0
100
AcDbLine
10
132
20
0
30
0
11
132.00000071525574
21
15
31
0
0
LINE
5
142
100
AcDbEntity
8
0
100
AcDbLine
10
147.00000071525574
20
-15.999999999999998
30
0
11
132.00000071525574
21
-16.000000000000007
31
0
0
LINE
5
143
100
AcDbEntity
8
0
100
AcDbLine
10
147.00000071525574
20
-15.999999999999998
30
0
11
162.00000071525577
21
-16.000000000000007
31
0
0
LINE
5
144
100
AcDbEntity
8
0
100
AcDbLine
10
162.00000143051147
20
0
30
0
11
162.00000071525577
21
15
31
0
0
LINE
5
145
100
AcDbEntity
8
0
100
AcDbLine
10
165.00000071525574
20
15
30
0
11
180.00000071525574
21
15
31
0
0
LINE
5
146
100
AcDbEntity
8
0
100
AcDbLine
10
195.00000071525574
20
15
30
0
11
180.00000071525574
21
15
31
0
0
LINE
5
147
100
AcDbEntity
8
0
100
AcDbLine
10
180.00000071525574
20
15
30
0
11
180.0000007271766
21
10.250000977516173
31
0
0
LINE
5
148
100
AcDbEntity
8
0
100
AcDbLine
10
165
20
0
30
0
11
165.00000071525574
21
15
31
0
0
LINE
5
149
100
AcDbEntity
8
0
100
AcDbLine
10
180.00000071525574
20
-15.999999999999998
30
0
11
165.00000071525574
21
-16.000000000000007
31
0
0
LINE
5
150
100
AcDbEntity
8
0
100
AcDbLine
10
180.00000071525574
20
-15.999999999999998
30
0
11
195.00000071525574
21
-16.000000000000007
31
0
0
LINE
5
151
100
AcDbEntity
8
0
100
AcDbLine
10
195.00000143051147
20
0
30
0
11
195.00000071525574
21
15
31
0
0
LINE
5
152
100
AcDbEntity
8
0
100
AcDbLine
10
198.00000071525574
20
15
30
0
11
213.00000071525574
21
15
31
0
0
LINE
5
153
100
AcDbEntity
8
0
100
AcDbLine
10
228.00000071525574
20
15
30
0
11
213.00000071525574
21
15
31
0
0
LINE
5
154
100
AcDbEntity
8
0
100
AcDbLine
10
213.00000071525574
20
15
30
0
11
213.00000072717663
21
10.250000977516173
31
0
0
LINE
5
155
100
AcDbEntity
8
0
100
AcDbLine
10
198
20
0
30
0
11
198.00000071525574
21
15
31
0
0
LINE
5
156
100
AcDbEntity
8
0
100
AcDbLine
10
213.00000071525574
20
-15.999999999999998
30
0
11
198.00000071525574
21
-16.000000000000007
31
0
0
LINE
5
157
100
AcDbEntity
8
0
100
AcDbLine
10
213.00000071525574
20
-15.999999999999998
30
0
11
228.00000071525574
21
-16.000000000000007
31
0
0
LINE
5
158
100
AcDbEntity
8
0
100
AcDbLine
10
228.00000143051147
20
0
30
0
11
228.00000071525574
21
15
31
0
0
LINE
5
159
100
AcDbEntity
8
0
100
AcDbLine
10
231.00000071525574
20
15
30
0
11
246.00000071525574
21
15
31
0
0
LINE
5
160
100
AcDbEntity
8
0
100
AcDbLine
10
261.00000071525574
20
15
30
0
11
246.00000071525574
21
15
31
0
0
LINE
5
161
100
AcDbEntity
8
0
100
AcDbLine
10
246.00000071525574
20
15
30
0
11
246.00000072717663
21
10.250000977516173
31
0
0
LINE
5
162
100
AcDbEntity
8
0
100
AcDbLine
10
231
20
0
30
0
11
231.00000071525574
21
15
31
0
0
LINE
5
163
100
AcDbEntity
8
0
100
AcDbLine
10
246.00000071525574
20
-15.999999999999998
30
0
11
231.00000071525574
21
-16.000000000000007
31
0
0
LINE
5
164
100
AcDbEntity
8
0
100
AcDbLine
10
246.00000071525574
20
-15.999999999999998
30
0
11
261.00000071525574
21
-16.000000000000007
31
0
0
LINE
5
165
100
AcDbEntity
8
0
100
AcDbLine
10
261.00000143051147
20
0
30
0
11
261.00000071525574
21
15
31
0
0
LINE
5
166
100
AcDbEntity
8
0
100
AcDbLine
10
264.00000071525574
20
15
30
0
11
279.00000071525574
21
15
31
0
0
LINE
5
167
100
AcDbEntity
8
0
100
AcDbLine
10
294.00000071525574
20
15
30
0
11
279.00000071525574
21
15
31
0
0
LINE
5
168
100
AcDbEntity
8
0
100
AcDbLine
10
279.00000071525574
20
15
30
0
11
279.00000072717665
21
10.250000977516173
31
0
0
LINE
5
169
100
AcDbEntity
8
0
100
AcDbLine
10
264
20
0
30
0
11
264.00000071525574
21
15
31
0
0
LINE
5
170
100
AcDbEntity
8
0
100
AcDbLine
10
279.00000071525574
20
-15.999999999999998
30
0
11
264.00000071525574
21
-16.000000000000007
31
0
0
LINE
5
171
100
AcDbEntity
8
0
100
AcDbLine
10
279.00000071525574
20
-15.999999999999998
30
0
11
294.00000071525574
21
-16.000000000000007
31
0
0
LINE
5
172
100
AcDbEntity
8
0
100
AcDbLine
10
294.00000143051147
20
0
30
0
11
294.00000071525574
21
15
31
0
0
LINE
5
173
100
AcDbEntity
8
0
100
AcDbLine
10
297.00000071525574
20
15
30
0
11
312.00000071525574
21
15
31
0
0
LINE
5
174
100
AcDbEntity
8
0
100
AcDbLine
10
327.00000071525579
20
15
30
0
11
312.00000071525574
21
15
31
0
0
LINE
5
175
100
AcDbEntity
8
0
100
AcDbLine
10
312.00000071525574
20
15
30
0
11
312.00000072717665
21
10.250000977516173
31
0
0
LINE
5
176
100
AcDbEntity
8
0
100
AcDbLine
10
297
20
0
30
0
11
297.00000071525574
21
15
31
0
0
LINE
5
177
100
AcDbEntity
8
0
100
AcDbLine
10
312.00000071525574
20
-15.999999999999998
30
0
11
297.00000071525574
21
-16.000000000000007
31
0
0
LINE
5
178
100
AcDbEntity
8
0
100
AcDbLine
10
312.00000071525574
20
-15.999999999999998
30
0
11
327.00000071525579
21
-16.000000000000007
31
0
0
LINE
5
179
100
AcDbEntity
8
0
100
AcDbLine
10
327.00000143051147
20
0
30
0
11
327.00000071525579
21
15
31
0
0
LINE
5
180
100
AcDbEntity
8
0
100
AcDbLine
10
33.00000071525573
20
-16.000000000000007
30
0
11
33.000000715255709
21
-10.800000000000017
31
0
0
LINE
5
181
100
AcDbEntity
8
0
100
AcDbLine
10
33.000000715255709
20
-10.800000000000017
30
0
11
38.20000071525574
21
-10.800000000000001
31
0
0
LINE
5
182
100
AcDbEntity
8
0
100
AcDbLine
10
38.20000071525574
20
-10.800000000000001
30
0
11
38.200000715255733
21
-0.999999999999998
31
0
0
LINE
5
183
100
AcDbEntity
8
0
100
AcDbLine
10
38.200000715255733
20
-0.999999999999998
30
0
11
48.000000715255737
21
-0.999999999999997
31
0
0
LINE
5
184
100
AcDbEntity
8
0
100
AcDbLine
10
33
20
0
30
0
11
37.850000243186983
21
-2.3126602983924607e-07
31
0
0
LINE
5
185
100
AcDbEntity
8
0
100
AcDbLine
10
37.850000243186983
20
-2.3126602983924607e-07
30
0
11
37.850000727176692
21
10.149999768733956
31
0
0
LINE
5
186
100
AcDbEntity
8
0
100
AcDbLine
10
37.850000727176692
20
10.149999768733956
30
0
11
48.000000727176698
21
10.149999284744251
31
0
0
LINE
5
187
100
AcDbEntity
8
0
100
AcDbLine
10
58.150000727176703
20
10.149999768733956
30
0
11
48.000000727176698
21
10.149999284744251
31
0
0
LINE
5
188
100
AcDbEntity
8
0
100
AcDbLine
10
58.150001211166412
20
-2.3126602983924607e-07
30
0
11
58.150000727176703
21
10.149999768733956
31
0
0
LINE
5
189
100
AcDbEntity
8
0
100
AcDbLine
10
63.000001454353395
20
0
30
0
11
58.150001211166412
21
-2.3126602983924607e-07
31
0
0
LINE
5
190
100
AcDbEntity
8
0
100
AcDbLine
10
57.800000715255742
20
-0.999999999999998
30
0
11
48.000000715255737
21
-0.999999999999997
31
0
0
LINE
5
191
100
AcDbEntity
8
0
100
AcDbLine
10
57.800000715255734
20
-10.800000000000001
30
0
11
57.800000715255742
21
-0.999999999999998
31
0
0
LINE
5
192
100
AcDbEntity
8
0
100
AcDbLine
10
63.000000739097686
20
-10.800000000000017
30
0
11
57.800000715255734
21
-10.800000000000001
31
0
0
LINE
5
193
100
AcDbEntity
8
0
100
AcDbLine
10
63.000000739097658
20
-16.000000000000007
30
0
11
63.000000739097686
21
-10.800000000000017
31
0
0
LINE
5
194
100
AcDbEntity
8
0
100
AcDbLine
10
66
20
0
30
0
11
70.85000071525586
21
-2.3126603077017194e-07
31
0
0
LINE
5
195
100
AcDbEntity
8
0
100
AcDbLine
10
70.85000071525586
20
-2.3126603077017194e-07
30
0
11
70.85000071525586
21
10.149999768733956
31
0
0
LINE
5
196
100
AcDbEntity
8
0
100
AcDbLine
10
70.85000071525586
20
10.149999768733956
30
0
11
81.000000715255851
21
10.149999768733956
31
0
0
LINE
5
197
100
AcDbEntity
8
0
100
AcDbLine
10
66.000000715255737
20
-16.000000000000007
30
0
11
66.000000715255737
21
-10.849999999999994
31
0
0
LINE
5
198
100
AcDbEntity
8
0
100
AcDbLine
10
66.000000715255737
20
-10.849999999999994
30
0
11
71.150000715256098
21
-10.849999999999991
31
0
0
LINE
5
199
100
AcDbEntity
8
0
100
AcDbLine
10
71.150000715256098
20
-10.849999999999991
30
0
11
71.15000071525607
21
-0.9999999999999909
31
0
0
LINE
5
200
100
AcDbEntity
8
0
100
AcDbLine
10
71.15000071525607
20
-0.9999999999999909
30
0
11
81.000000715256064
21
-0.99999999999998479
31
0
0
LINE
5
201
100
AcDbEntity
8
0
100
AcDbLine
10
103.90000071525574
20
10.099999756813041
30
0
11
114.00000071734233
21
10.099999756813041
31
0
0
LINE
5
202
100
AcDbEntity
8
0
100
AcDbLine
10
103.90000071525574
20
-2.4318695945879654e-07
30
0
11
103.90000071525574
21
10.099999756813041
31
0
0
LINE
5
203
100
AcDbEntity
8
0
100
AcDbLine
10
99
20
-2.4318695945879654e-07
30
0
11
103.90000071525574
21
-2.4318695945879654e-07
31
0
0
LINE
5
204
100
AcDbEntity
8
0
100
AcDbLine
10
104.10000071525573
20
-0.99999999999996758
30
0
11
114.00000072206765
21
-0.99999999999996037
31
0
0
LINE
5
205
100
AcDbEntity
8
0
100
AcDbLine
10
104.10000071525573
20
-10.899999999999967
30
0
11
104.10000071525573
21
-0.99999999999996758
31
0
0
LINE
5
206
100
AcDbEntity
8
0
100
AcDbLine
10
99.000000715255709
20
-10.899999999999967
30
0
11
104.10000071525573
21
-10.899999999999967
31
0
0
LINE
5
207
100
AcDbEntity
8
0
100
AcDbLine
10
99.000000715255737
20
-16.000000000000007
30
0
11
99.000000715255709
21
-10.899999999999967
31
0
0
LINE
5
208
100
AcDbEntity
8
0
100
AcDbLine
10
132
20
-2.3603440091335415e-07
30
0
11
136.95000071525601
21
-2.3603440091335415e-07
31
0
0
LINE
5
209
100
AcDbEntity
8
0
100
AcDbLine
10
136.95000071525601
20
-2.3603440091335415e-07
30
0
11
136.95000071525601
21
10.049999763965564
31
0
0
LINE
5
210
100
AcDbEntity
8
0
100
AcDbLine
10
136.95000071525601
20
10.049999763965564
30
0
11
147.00000071525599
21
10.049999763965564
31
0
0
LINE
5
211
100
AcDbEntity
8
0
100
AcDbLine
10
137.05000071525649
20
-0.99999999999996003
30
0
11
147.00000071525648
21
-0.99999999999995814
31
0
0
LINE
5
212
100
AcDbEntity
8
0
100
AcDbLine
10
137.05000071525649
20
-10.94999999999996
30
0
11
137.05000071525649
21
-0.99999999999996003
31
0
0
LINE
5
213
100
AcDbEntity
8
0
100
AcDbLine
10
132.00000071525574
20
-10.94999999999996
30
0
11
137.05000071525649
21
-10.94999999999996
31
0
0
LINE
5
214
100
AcDbEntity
8
0
100
AcDbLine
10
132.00000071525574
20
-16.000000000000007
30
0
11
132.00000071525574
21
-10.94999999999996
31
0
0
LINE
5
215
100
AcDbEntity
8
0
100
AcDbLine
10
169.9500008627449
20
10.049999763965577
30
0
11
180.00000072767853
21
10.049999284744239
31
0
0
LINE
5
216
100
AcDbEntity
8
0
100
AcDbLine
10
169.95000038352359
20
-2.3603440849252206e-07
30
0
11
169.9500008627449
21
10.049999763965577
31
0
0
LINE
5
217
100
AcDbEntity
8
0
100
AcDbLine
10
165
20
0
30
0
11
169.95000038352359
21
-2.3603440849252206e-07
31
0
0
LINE
5
218
100
AcDbEntity
8
0
100
AcDbLine
10
170.05000071525572
20
-0.99999999999954103
30
0
11
180.00000075540879
21
-0.99999999999936184
31
0
0
LINE
5
219
100
AcDbEntity
8
0
100
AcDbLine
10
170.05000071525572
20
-10.949999999999541
30
0
11
170.05000071525572
21
-0.99999999999954103
31
0
0
LINE
5
220
100
AcDbEntity
8
0
100
AcDbLine
10
165.00000071525568
20
-10.949999999999548
30
0
11
170.05000071525572
21
-10.949999999999541
31
0
0
LINE
5
221
100
AcDbEntity
8
0
100
AcDbLine
10
165.00000071525574
20
-16.000000000000007
30
0
11
165.00000071525568
21
-10.949999999999548
31
0
0
LINE
5
222
100
AcDbEntity
8
0
100
AcDbLine
10
202.90000072754967
20
10.09999976634975
30
0
11
213.0000007275531
21
10.09999976634975
31
0
0
LINE
5
223
100
AcDbEntity
8
0
100
AcDbLine
10
202.90000072754967
20
-2.3365021695198607e-07
30
0
11
202.90000072754967
21
10.09999976634975
31
0
0
LINE
5
224
100
AcDbEntity
8
0
100
AcDbLine
10
198
20
-2.3365021695198607e-07
30
0
11
202.90000072754967
21
-2.3365021695198607e-07
31
0
0
LINE
5
225
100
AcDbEntity
8
0
100
AcDbLine
10
198.00000071525574
20
-16.000000000000007
30
0
11
198.00000071525574
21
-10.899999999999451
31
0
0
LINE
5
226
100
AcDbEntity
8
0
100
AcDbLine
10
198.00000071525574
20
-10.899999999999451
30
0
11
203.10000075541029
21
-10.89999999999945
31
0
0
LINE
5
227
100
AcDbEntity
8
0
100
AcDbLine
10
203.10000075541029
20
-10.89999999999945
30
0
11
203.10000075541035
21
-0.99999999999945011
31
0
0
LINE
5
228
100
AcDbEntity
8
0
100
AcDbLine
10
203.10000075541035
20
-0.99999999999945011
30
0
11
213.00000075541033
21
-0.99999999999943634
31
0
0
LINE
5
229
100
AcDbEntity
8
0
100
AcDbLine
10
235.85000098278013
20
10.149999768733943
30
0
11
246.00000071525574
21
10.149999284744196
31
0
0
LINE
5
230
100
AcDbEntity
8
0
100
AcDbLine
10
235.85000049878948
20
-2.3126604291825584e-07
30
0
11
235.85000098278013
21
10.149999768733943
31
0
0
LINE
5
231
100
AcDbEntity
8
0
100
AcDbLine
10
231
20
0
30
0
11
235.85000049878948
21
-2.3126604291825584e-07
31
0
0
LINE
5
232
100
AcDbEntity
8
0
100
AcDbLine
10
236.15000071525574
20
-0.99999999999938538
30
0
11
246.00000071525574
21
-0.99999999999936307
31
0
0
LINE
5
233
100
AcDbEntity
8
0
100
AcDbLine
10
236.15000071525583
20
-10.84999999999938
30
0
11
236.15000071525574
21
-0.99999999999938538
31
0
0
LINE
5
234
100
AcDbEntity
8
0
100
AcDbLine
10
231.00000071525574
20
-10.849999999999383
30
0
11
236.15000071525583
21
-10.84999999999938
31
0
0
LINE
5
235
100
AcDbEntity
8
0
100
AcDbLine
10
231.00000071525574
20
-16.000000000000007
30
0
11
231.00000071525574
21
-10.849999999999383
31
0
0
LINE
5
236
100
AcDbEntity
8
0
100
AcDbLine
10
268.80000070687794
20
10.199999771118142
30
0
11
279.00000072730211
21
10.199999284744244
31
0
0
LINE
5
237
100
AcDbEntity
8
0
100
AcDbLine
10
268.80000022050399
20
-2.2888184417821604e-07
30
0
11
268.80000070687794
21
10.199999771118142
31
0
0
LINE
5
238
100
AcDbEntity
8
0
100
AcDbLine
10
264
20
0
30
0
11
268.80000022050399
21
-2.2888184417821604e-07
31
0
0
LINE
5
239
100
AcDbEntity
8
0
100
AcDbLine
10
269.20000075540878
20
-0.99999999999938582
30
0
11
279.00000075540879
21
-0.9999999999993856
31
0
0
LINE
5
240
100
AcDbEntity
8
0
100
AcDbLine
10
269.20000075540878
20
-10.799999999999386
30
0
11
269.20000075540878
21
-0.99999999999938582
31
0
0
LINE
5
241
100
AcDbEntity
8
0
100
AcDbLine
10
264.00000071525574
20
-10.799999999999393
30
0
11
269.20000075540878
21
-10.799999999999386
31
0
0
LINE
5
242
100
AcDbEntity
8
0
100
AcDbLine
10
264.00000071525574
20
-16.000000000000007
30
0
11
264.00000071525574
21
-10.799999999999393
31
0
0
LINE
5
243
100
AcDbEntity
8
0
100
AcDbLine
10
301.75000098130499
20
10.249999773502317
30
0
11
312.00000072717665
21
10.249999284744229
31
0
0
LINE
5
244
100
AcDbEntity
8
0
100
AcDbLine
10
301.75000049254686
20
-2.2649767109204627e-07
30
0
11
301.75000098130499
21
10.249999773502317
31
0
0
LINE
5
245
100
AcDbEntity
8
0
100
AcDbLine
10
297
20
0
30
0
11
301.75000049254686
21
-2.2649767109204627e-07
31
0
0
LINE
5
246
100
AcDbEntity
8
0
100
AcDbLine
10
297.00000071525574
20
-16.000000000000007
30
0
11
297.00000071525568
21
-10.749999999999387
31
0
0
LINE
5
247
100
AcDbEntity
8
0
100
AcDbLine
10
297.00000071525568
20
-10.749999999999387
30
0
11
302.25000075540868
21
-10.749999999999385
31
0
0
LINE
5
248
100
AcDbEntity
8
0
100
AcDbLine
10
302.25000075540879
20
-0.99999999999938638
30
0
11
312.00000075540879
21
-0.99999999999938582
31
0
0
LINE
5
249
100
AcDbEntity
8
0
100
AcDbLine
10
302.25000075540868
20
-10.749999999999385
30
0
11
302.25000075540879
21
-0.99999999999938638
31
0
0
LINE
5
250
100
AcDbEntity
8
0
100
AcDbLine
10
91.150000739599307
20
10.149999819679977
30
0
11
81.000000739599315
21
10.149999768733956
31
0
0
LINE
5
251
100
AcDbEntity
8
0
100
AcDbLine
10
91.15000079054532
20
-1.8032001003476239e-07
30
0
11
91.150000739599307
21
10.149999819679977
31
0
0
LINE
5
252
100
AcDbEntity
8
0
100
AcDbLine
10
96.000001505801166
20
7.528968781755907e-08
30
0
11
91.15000079054532
21
-1.8032001003476239e-07
31
0
0
LINE
5
253
100
AcDbEntity
8
0
100
AcDbLine
10
90.850000795564426
20
-0.99999995055976454
30
0
11
81.000000795564432
21
-0.99999999999998535
31
0
0
LINE
5
254
100
AcDbEntity
8
0
100
AcDbLine
10
90.850000845004615
20
-10.849999950559766
30
0
11
90.850000795564426
21
-0.99999995055976454
31
0
0
LINE
5
255
100
AcDbEntity
8
0
100
AcDbLine
10
96.000000845004962
20
-10.84999992471031
30
0
11
90.850000845004615
21
-10.849999950559766
31
0
0
LINE
5
256
100
AcDbEntity
8
0
100
AcDbLine
10
96.00000087085445
20
-15.99999992471032
30
0
11
96.000000845004962
21
-10.84999992471031
31
0
0
LINE
5
257
100
AcDbEntity
8
0
100
AcDbLine
10
124.10000073985037
20
10.099999807508095
30
0
11
114.00000073776377
21
10.099999756813041
31
0
0
LINE
5
258
100
AcDbEntity
8
0
100
AcDbLine
10
124.10000079054541
20
-1.9249190463810351e-07
30
0
11
124.10000073985037
21
10.099999807508095
31
0
0
LINE
5
259
100
AcDbEntity
8
0
100
AcDbLine
10
129.00000150580115
20
-1.6789727164123747e-07
30
0
11
124.10000079054541
21
-1.9249190463810351e-07
31
0
0
LINE
5
260
100
AcDbEntity
8
0
100
AcDbLine
10
123.90000079556474
20
-0.99999995030877642
30
0
11
114.00000078875281
21
-0.99999999999996092
31
0
0
LINE
5
261
100
AcDbEntity
8
0
100
AcDbLine
10
123.90000084525593
20
-10.899999950308775
30
0
11
123.90000079556474
21
-0.99999995030877642
31
0
0
LINE
5
262
100
AcDbEntity
8
0
100
AcDbLine
10
129.00000084525595
20
-10.899999924710283
30
0
11
123.90000084525593
21
-10.899999950308775
31
0
0
LINE
5
263
100
AcDbEntity
8
0
100
AcDbLine
10
129.00000087085442
20
-15.99999992471032
30
0
11
129.00000084525595
21
-10.899999924710283
31
0
0
LINE
5
264
100
AcDbEntity
8
0
100
AcDbLine
10
157.0500007401011
20
10.049999814409654
30
0
11
147.00000074010109
21
10.049999763965564
31
0
0
LINE
5
265
100
AcDbEntity
8
0
100
AcDbLine
10
157.05000079054517
20
-1.8559031200737763e-07
30
0
11
157.0500007401011
21
10.049999814409654
31
0
0
LINE
5
266
100
AcDbEntity
8
0
100
AcDbLine
10
162.00000150580115
20
-1.6074471309579508e-07
30
0
11
157.05000079054517
21
-1.8559031200737763e-07
31
0
0
LINE
5
267
100
AcDbEntity
8
0
100
AcDbLine
10
156.95000079556399
20
-0.99999995005780384
30
0
11
147.00000079556401
21
-0.9999999999999587
31
0
0
LINE
5
268
100
AcDbEntity
8
0
100
AcDbLine
10
156.95000084550614
20
-10.949999950057805
30
0
11
156.95000079556399
21
-0.99999995005780384
31
0
0
LINE
5
269
100
AcDbEntity
8
0
100
AcDbLine
10
162.00000084550692
20
-10.949999924710276
30
0
11
156.95000084550614
21
-10.949999950057805
31
0
0
LINE
5
270
100
AcDbEntity
8
0
100
AcDbLine
10
162.00000087085442
20
-15.99999992471032
30
0
11
162.00000084550692
21
-10.949999924710276
31
0
0
LINE
5
271
100
AcDbEntity
8
0
100
AcDbLine
10
190.05000059261218
20
10.049999814409741
30
0
11
180.00000072767853
21
10.049999284744239
31
0
0
LINE
5
272
100
AcDbEntity
8
0
100
AcDbLine
10
190.05000112227765
20
-1.8559024095310406e-07
30
0
11
190.05000059261218
21
10.049999814409741
31
0
0
LINE
5
273
100
AcDbEntity
8
0
100
AcDbLine
10
195.00000150580124
20
7.5289801060307582e-08
30
0
11
190.05000112227765
21
-1.8559024095310406e-07
31
0
0
LINE
5
274
100
AcDbEntity
8
0
100
AcDbLine
10
189.95000079556488
20
-0.99999995005730868
30
0
11
180.0000007554118
21
-0.9999999999993614
31
0
0
LINE
5
275
100
AcDbEntity
8
0
100
AcDbLine
10
189.95000084550711
20
-10.949999950057308
30
0
11
189.95000079556488
21
-0.99999995005730868
31
0
0
LINE
5
276
100
AcDbEntity
8
0
100
AcDbLine
10
195.00000084550715
20
-10.949999924709752
30
0
11
189.95000084550711
21
-10.949999950057308
31
0
0
LINE
5
277
100
AcDbEntity
8
0
100
AcDbLine
10
195.00000087085465
20
-15.99999992471021
30
0
11
195.00000084550715
21
-10.949999924709752
31
0
0
LINE
5
278
100
AcDbEntity
8
0
100
AcDbLine
10
223.10000072755645
20
10.09999981704488
30
0
11
213.00000072755302
21
10.09999976634975
31
0
0
LINE
5
279
100
AcDbEntity
8
0
100
AcDbLine
10
223.10000077825157
20
-1.8295508663612736e-07
30
0
11
223.10000072755645
21
10.09999981704488
31
0
0
LINE
5
280
100
AcDbEntity
8
0
100
AcDbLine
10
228.00000150580127
20
-1.5836041589167849e-07
30
0
11
223.10000077825157
21
-1.8295508663612736e-07
31
0
0
LINE
5
281
100
AcDbEntity
8
0
100
AcDbLine
10
222.90000075541028
20
-0.99999995030818356
30
0
11
213.00000075541027
21
-0.99999999999943689
31
0
0
LINE
5
282
100
AcDbEntity
8
0
100
AcDbLine
10
222.90000080510154
20
-10.899999950308183
30
0
11
222.90000075541028
21
-0.99999995030818356
31
0
0
LINE
5
283
100
AcDbEntity
8
0
100
AcDbLine
10
228.00000084525612
20
-10.899999924709656
30
0
11
222.90000080510154
21
-10.899999950308183
31
0
0
LINE
5
284
100
AcDbEntity
8
0
100
AcDbLine
10
228.00000087085465
20
-15.99999992471021
30
0
11
228.00000084525612
21
-10.899999924709656
31
0
0
LINE
5
285
100
AcDbEntity
8
0
100
AcDbLine
10
256.15000047207508
20
10.149999819680037
30
0
11
246.00000073959944
21
10.149999284744196
31
0
0
LINE
5
286
100
AcDbEntity
8
0
100
AcDbLine
10
256.15000100701178
20
-1.8031994564182696e-07
30
0
11
256.15000047207508
21
10.149999819680037
31
0
0
LINE
5
287
100
AcDbEntity
8
0
100
AcDbLine
10
261.00000150580127
20
7.5289801060307582e-08
30
0
11
256.15000100701178
21
-1.8031994564182696e-07
31
0
0
LINE
5
288
100
AcDbEntity
8
0
100
AcDbLine
10
255.85000079556488
20
-0.99999995055908508
30
0
11
246.00000079556486
21
-0.99999999999936362
31
0
0
LINE
5
289
100
AcDbEntity
8
0
100
AcDbLine
10
255.85000084500507
20
-10.849999950559077
30
0
11
255.85000079556488
21
-0.99999995055908508
31
0
0
LINE
5
290
100
AcDbEntity
8
0
100
AcDbLine
10
261.00000084500516
20
-10.849999924709586
30
0
11
255.85000084500507
21
-10.849999950559077
31
0
0
LINE
5
291
100
AcDbEntity
8
0
100
AcDbLine
10
261.00000087085465
20
-15.99999992471021
30
0
11
261.00000084500516
21
-10.849999924709586
31
0
0
LINE
5
292
100
AcDbEntity
8
0
100
AcDbLine
10
289.20000074772634
20
10.199999822315204
30
0
11
279.00000072730211
21
10.199999284744244
31
0
0
LINE
5
293
100
AcDbEntity
8
0
100
AcDbLine
10
289.20000128529728
20
-1.7768478022262002e-07
30
0
11
289.20000074772634
21
10.199999822315204
31
0
0
LINE
5
294
100
AcDbEntity
8
0
100
AcDbLine
10
294.00000150580127
20
7.5289801060307582e-08
30
0
11
289.20000128529728
21
-1.7768478022262002e-07
31
0
0
LINE
5
295
100
AcDbEntity
8
0
100
AcDbLine
10
288.80000075541182
20
-0.999999950810051
30
0
11
279.0000007554118
21
-0.99999999999938582
31
0
0
LINE
5
296
100
AcDbEntity
8
0
100
AcDbLine
10
288.80000080460115
20
-10.799999950810054
30
0
11
288.80000075541182
21
-0.999999950810051
31
0
0
LINE
5
297
100
AcDbEntity
8
0
100
AcDbLine
10
294.0000008447542
20
-10.799999924709596
30
0
11
288.80000080460115
21
-10.799999950810054
31
0
0
LINE
5
298
100
AcDbEntity
8
0
100
AcDbLine
10
294.00000087085465
20
-15.99999992471021
30
0
11
294.0000008447542
21
-10.799999924709596
31
0
0
LINE
5
299
100
AcDbEntity
8
0
100
AcDbLine
10
322.25000047304832
20
10.249999824950342
30
0
11
312.00000072717665
21
10.249999284744229
31
0
0
LINE
5
300
100
AcDbEntity
8
0
100
AcDbLine
10
322.2500010132544
20
-1.7504964144876567e-07
30
0
11
322.25000047304832
21
10.249999824950342
31
0
0
LINE
5
301
100
AcDbEntity
8
0
100
AcDbLine
10
327.00000150580132
20
7.5289801060307582e-08
30
0
11
322.2500010132544
21
-1.7504964144876567e-07
31
0
0
LINE
5
302
100
AcDbEntity
8
0
100
AcDbLine
10
321.75000075541186
20
-0.99999995106101691
30
0
11
312.00000075541186
21
-0.99999999999938582
31
0
0
LINE
5
303
100
AcDbEntity
8
0
100
AcDbLine
10
321.75000080435035
20
-10.749999951061016
30
0
11
321.75000075541186
21
-0.99999995106101691
31
0
0
LINE
5
304
100
AcDbEntity
8
0
100
AcDbLine
10
327.00000084450329
20
-10.749999924709591
30
0
11
321.75000080435035
21
-10.749999951061016
31
0
0
LINE
5
305
100
AcDbEntity
8
0
100
AcDbLine
10
327.00000087085471
20
-15.99999992471021
30
0
11
327.00000084450329
21
-10.749999924709591
31
0
0
LINE
5
306
100
AcDbEntity
8
0
100
AcDbLine
10
12.732322294497468
20
-11.500000119209288
30
0
11
12.363972965860345
21
-11.500000119209288
31
0
0
LINE
5
307
100
AcDbEntity
8
0
100
AcDbLine
10
12.363972965860345
20
-11.500000119209288
30
0
11
12.363972965860345
21
-9.1527967751026136
31
0
0
SPLINE
5
308
100
AcDbEntity
8
0
100
AcDbSpline
70
0
71
2
72
6
73
3
74
0
42
0.000000001
43
0.0000000001
44
0.0000000001
40
0
40
0
40
0
40
1
40
1
40
1
10
12.363972965860345
20
-9.1527967751026136
30
0
10
12.230957973980882
20
-9.2796727120876294
30
0
10
12.015064362668969
20
-9.4065485000610334
30
0
0
SPLINE
5
309
100
AcDbEntity
8
0
100
AcDbSpline
70
0
71
2
72
6
73
3
74
0
42
0.000000001
43
0.0000000001
44
0.0000000001
40
0
40
0
40
0
40
1
40
1
40
1
10
12.015064362668969
20
-9.4065485000610334
30
0
10
11.799170751357057
20
-9.5334244370460492
30
0
10
11.627274457597711
20
-9.5968622565269452
30
0
0
LINE
5
310
100
AcDbEntity
8
0
100
AcDbLine
10
11.627274457597711
20
-9.5968622565269452
30
0
11
11.627274457597711
21
-9.2407914102077466
31
0
0
SPLINE
5
311
100
AcDbEntity
8
0
100
AcDbSpline
70
0
71
2
72
6
73
3
74
0
42
0.000000001
43
0.0000000001
44
0.0000000001
40
0
40
0
40
0
40
1
40
1
40
1
10
11.627274457597711
20
-9.2407914102077466
30
0
10
11.936278570675828
20
-9.0954980850219709
30
0
10
12.167520005488374
20
-8.8888130187988263
30
0
0
SPLINE
5
312
100
AcDbEntity
8
0
100
AcDbSpline
70
0
71
2
72
6
73
3
74
0
42
0.000000001
43
0.0000000001
44
0.0000000001
40
0
40
0
40
0
40
1
40
1
40
1
10
12.167520005488374
20
-8.8888130187988263
30
0
10
12.398761514806726
20
-8.6821282505989057
30
0
10
12.494941581273057
20
-8.4877217411994916
30
0
0
LINE
5
313
100
AcDbEntity
8
0
100
AcDbLine
10
12.494941581273057
20
-8.4877217411994916
30
0
11
12.732322294497468
21
-8.4877217411994916
31
0
0
LINE
5
314
100
AcDbEntity
8
0
100
AcDbLine
10
12.732322294497468
20
-8.4877217411994916
30
0
11
12.732322294497468
21
-11.500000119209288
31
0
0
LINE
5
315
100
AcDbEntity
8
0
100
AcDbLine
10
310.81854205515435
20
-11.500000119209288
30
0
11
310.45019272651723
21
-11.500000119209288
31
0
0
LINE
5
316
100
AcDbEntity
8
0
100
AcDbLine
10
310.45019272651723
20
-11.500000119209288
30
0
11
310.45019272651723
21
-9.1527967751026136
31
0
0
SPLINE
5
317
100
AcDbEntity
8
0
100
AcDbSpline
70
0
71
2
72
6
73
3
74
0
42
0.000000001
43
0.0000000001
44
0.0000000001
40
0
40
0
40
0
40
1
40
1
40
1
10
310.45019272651723
20
-9.1527967751026136
30
0
10
310.31717773463777
20
-9.2796727120876294
30
0
10
310.10128412332585
20
-9.4065485000610334
30
0
0
SPLINE
5
318
100
AcDbEntity
8
0
100
AcDbSpline
70
0
71
2
72
6
73
3
74
0
42
0.000000001
43
0.0000000001
44
0.0000000001
40
0
40
0
40
0
40
1
40
1
40
1
10
310.10128412332585
20
-9.4065485000610334
30
0
10
309.88539051201394
20
-9.5334244370460492
30
0
10
309.7134942182546
20
-9.5968622565269452
30
0
0
LINE
5
319
100
AcDbEntity
8
0
100
AcDbLine
10
309.7134942182546
20
-9.5968622565269452
30
0
11
309.7134942182546
21
-9.2407914102077466
31
0
0
SPLINE
5
320
100
AcDbEntity
8
0
100
AcDbSpline
70
0
71
2
72
6
73
3
74
0
42
0.000000001
43
0.0000000001
44
0.0000000001
40
0
40
0
40
0
40
1
40
1
40
1
10
309.7134942182546
20
-9.2407914102077466
30
0
10
310.02249833133271
20
-9.0954980850219709
30
0
10
310.25373976614526
20
-8.8888130187988263
30
0
0
SPLINE
5
321
100
AcDbEntity
8
0
100
AcDbSpline
70
0
71
2
72
6
73
3
74
0
42
0.000000001
43
0.0000000001
44
0.0000000001
40
0
40
0
40
0
40
1
40
1
40
1
10
310.25373976614526
20
-8.8888130187988263
30
0
10
310.48498127546361
20
-8.6821282505989057
30
0
10
310.58116134192994
20
-8.4877217411994916
30
0
0
LINE
5
322
100
AcDbEntity
8
0
100
AcDbLine
10
310.58116134192994
20
-8.4877217411994916
30
0
11
310.81854205515435
21
-8.4877217411994916
31
0
0
LINE
5
323
100
AcDbEntity
8
0
100
AcDbLine
10
310.81854205515435
20
-8.4877217411994916
30
0
11
310.81854205515435
21
-11.500000119209288
31
0
0
SPLINE
5
324
100
AcDbEntity
8
0
100
AcDbSpline
70
0
71
2
72
6
73
3
74
0
42
0.000000001
43
0.0000000001
44
0.0000000001
40
0
40
0
40
0
40
1
40
1
40
1
10
311.76192533161691
20
-10.020463824272154
30
0
10
311.76192533161691
20
-9.4884038567543012
30
0
10
311.87140684511712
20
-9.1640519201755506
30
0
0
SPLINE
5
325
100
AcDbEntity
8
0
100
AcDbSpline
70
0
71
2
72
6
73
3
74
0
42
0.000000001
43
0.0000000001
44
0.0000000001
40
0
40
0
40
0
40
1
40
1
40
1
10
311.87140684511712
20
-9.1640519201755506
30
0
10
311.98088835861734
20
-8.8396999835968
30
0
10
312.19678204443505
20
-8.6637107133865339
30
0
0
SPLINE
5
326
100
AcDbEntity
8
0
100
AcDbSpline
70
0
71
2
72
6
73
3
74
0
42
0.000000001
43
0.0000000001
44
0.0000000001
40
0
40
0
40
0
40
1
40
1
40
1
10
312.19678204443505
20
-8.6637107133865339
30
0
10
312.41267573025277
20
-8.4877217411994916
30
0
10
312.74009715702584
20
-8.4877217411994916
30
0
0
SPLINE
5
327
100
AcDbEntity
8
0
100
AcDbSpline
70
0
71
2
72
6
73
3
74
0
42
0.000000001
43
0.0000000001
44
0.0000000001
40
0
40
0
40
0
40
1
40
1
40
1
10
312.74009715702584
20
-8.4877217411994916
30
0
10
312.98157047417214
20
-8.4877217411994916
30
0
10
313.16369902279428
20
-8.5849249958991987
30
0
0
SPLINE
5
328
100
AcDbEntity
8
0
100
AcDbSpline
70
0
71
2
72
6
73
3
74
0
42
0.000000001
43
0.0000000001
44
0.0000000001
40
0
40
0
40
0
40
1
40
1
40
1
10
313.16369902279428
20
-8.5849249958991987
30
0
10
313.34582697536996
20
-8.6821282505989057
30
0
10
313.46451740648797
20
-8.8652796149253827
30
0
0
SPLINE
5
329
100
AcDbEntity
8
0
100
AcDbSpline
70
0
71
2
72
6
73
3
74
0
42
0.000000001
43
0.0000000001
44
0.0000000001
40
0
40
0
40
0
40
1
40
1
40
1
10
313.46451740648797
20
-8.8652796149253827
30
0
10
313.58320783760598
20
-9.0484309792518598
30
0
10
313.65073841002038
20
-9.3113916218280774
30
0
0
SPLINE
5
330
100
AcDbEntity
8
0
100
AcDbSpline
70
0
71
2
72
6
73
3
74
0
42
0.000000001
43
0.0000000001
44
0.0000000001
40
0
40
0
40
0
40
1
40
1
40
1
10
313.65073841002038
20
-9.3113916218280774
30
0
10
313.71826898243478
20
-9.5743519663810712
30
0
10
313.71826898243478
20
-10.020463824272154
30
0
0
SPLINE
5
331
100
AcDbEntity
8
0
100
AcDbSpline
70
0
71
2
72
6
73
3
74
0
42
0.000000001
43
0.0000000001
44
0.0000000001
40
0
40
0
40
0
40
1
40
1
40
1
10
313.71826898243478
20
-10.020463824272154
30
0
10
313.71826898243478
20
-10.548431336879728
30
0
10
313.60981058266213
20
-10.872783124446867
30
0
0
SPLINE
5
332
100
AcDbEntity
8
0
100
AcDbSpline
70
0
71
2
72
6
73
3
74
0
42
0.000000001
43
0.0000000001
44
0.0000000001
40
0
40
0
40
0
40
1
40
1
40
1
10
313.60981058266213
20
-10.872783124446867
30
0
10
313.50135218288949
20
-11.19713521003723
30
0
10
313.285458795095
20
-11.374147593975065
30
0
0
SPLINE
5
333
100
AcDbEntity
8
0
100
AcDbSpline
70
0
71
2
72
6
73
3
74
0
42
0.000000001
43
0.0000000001
44
0.0000000001
40
0
40
0
40
0
40
1
40
1
40
1
10
313.285458795095
20
-11.374147593975065
30
0
10
313.0695654073005
20
-11.551159679889677
30
0
10
312.74009715702584
20
-11.551159679889677
30
0
0
SPLINE
5
334
100
AcDbEntity
8
0
100
AcDbSpline
70
0
71
2
72
6
73
3
74
0
42
0.000000001
43
0.0000000001
44
0.0000000001
40
0
40
0
40
0
40
1
40
1
40
1
10
312.74009715702584
20
-11.551159679889677
30
0
10
312.30626355793527
20
-11.551159679889677
30
0
10
312.05865126040032
20
-11.240109264850615
30
0
0
SPLINE
5
335
100
AcDbEntity
8
0
100
AcDbSpline
70
0
71
2
72
6
73
3
74
0
42
0.000000001
43
0.0000000001
44
0.0000000001
40
0
40
0
40
0
40
1
40
1
40
1
10
312.05865126040032
20
-11.240109264850615
30
0
10
311.76192533161691
20
-10.865621030330656
30
0
10
311.76192533161691
20
-10.020463824272154
30
0
0
SPLINE
5
336
100
AcDbEntity
8
0
100
AcDbSpline
70
0
71
2
72
6
73
3
74
0
42
0.000000001
43
0.0000000001
44
0.0000000001
40
0
40
0
40
0
40
1
40
1
40
1
10
312.14050661709359
20
-10.020463824272154
30
0
10
312.14050661709359
20
-10.759208858013151
30
0
10
312.3134259500747
20
-11.003751814365385
30
0
0
SPLINE
5
337
100
AcDbEntity
8
0
100
AcDbSpline
70
0
71
2
72
6
73
3
74
0
42
0.000000001
43
0.0000000001
44
0.0000000001
40
0
40
0
40
0
40
1
40
1
40
1
10
312.3134259500747
20
-11.003751814365385
30
0
10
312.48634558107904
20
-11.248294770717619
30
0
10
312.74009715702584
20
-11.248294770717619
30
0
0
SPLINE
5
338
100
AcDbEntity
8
0
100
AcDbSpline
70
0
71
2
72
6
73
3
74
0
42
0.000000001
43
0.0000000001
44
0.0000000001
40
0
40
0
40
0
40
1
40
1
40
1
10
312.74009715702584
20
-11.248294770717619
30
0
10
312.99384903099588
20
-11.248294770717619
30
0
10
313.16676866200021
20
-11.002728700637816
30
0
0
SPLINE
5
339
100
AcDbEntity
8
0
100
AcDbSpline
70
0
71
2
72
6
73
3
74
0
42
0.000000001
43
0.0000000001
44
0.0000000001
40
0
40
0
40
0
40
1
40
1
40
1
10
313.16676866200021
20
-11.002728700637816
30
0
10
313.33968799498132
20
-10.757162630558012
30
0
10
313.33968799498132
20
-10.020463824272154
30
0
0
SPLINE
5
340
100
AcDbEntity
8
0
100
AcDbSpline
70
0
71
2
72
6
73
3
74
0
42
0.000000001
43
0.0000000001
44
0.0000000001
40
0
40
0
40
0
40
1
40
1
40
1
10
313.33968799498132
20
-10.020463824272154
30
0
10
313.33968799498132
20
-9.2796725630760175
30
0
10
313.16676866200021
20
-9.0361527204513532
30
0
0
SPLINE
5
341
100
AcDbEntity
8
0
100
AcDbSpline
70
0
71
2
72
6
73
3
74
0
42
0.000000001
43
0.0000000001
44
0.0000000001
40
0
40
0
40
0
40
1
40
1
40
1
10
313.16676866200021
20
-9.0361527204513532
30
0
10
312.99384903099588
20
-8.7926328778266889
30
0
10
312.73600440409234
20
-8.7926328778266889
30
0
0
SPLINE
5
342
100
AcDbEntity
8
0
100
AcDbSpline
70
0
71
2
72
6
73
3
74
0
42
0.000000001
43
0.0000000001
44
0.0000000001
40
0
40
0
40
0
40
1
40
1
40
1
10
312.73600440409234
20
-8.7926328778266889
30
0
10
312.48225282814553
20
-8.7926328778266889
30
0
10
312.3308203735595
20
-9.0075034499168378
30
0
0
SPLINE
5
343
100
AcDbEntity
8
0
100
AcDbSpline
70
0
71
2
72
6
73
3
74
0
42
0.000000001
43
0.0000000001
44
0.0000000001
40
0
40
0
40
0
40
1
40
1
40
1
10
312.3308203735595
20
-9.0075034499168378
30
0
10
312.14050661709359
20
-9.2817189395427686
30
0
10
312.14050661709359
20
-10.020463824272154
30
0
0
LINE
5
344
100
AcDbEntity
8
0
100
AcDbLine
10
310.81854205515435
20
11.499999880790714
30
0
11
310.45019272651723
21
11.499999880790714
31
0
0
LINE
5
345
100
AcDbEntity
8
0
100
AcDbLine
10
310.45019272651723
20
11.499999880790714
30
0
11
310.45019272651723
21
13.847203224897388
31
0
0
SPLINE
5
346
100
AcDbEntity
8
0
100
AcDbSpline
70
0
71
2
72
6
73
3
74
0
42
0.000000001
43
0.0000000001
44
0.0000000001
40
0
40
0
40
0
40
1
40
1
40
1
10
310.45019272651723
20
13.847203224897388
30
0
10
310.31717773463777
20
13.720327287912372
30
0
10
310.10128412332585
20
13.593451499938968
30
0
0
SPLINE
5
347
100
AcDbEntity
8
0
100
AcDbSpline
70
0
71
2
72
6
73
3
74
0
42
0.000000001
43
0.0000000001
44
0.0000000001
40
0
40
0
40
0
40
1
40
1
40
1
10
310.10128412332585
20
13.593451499938968
30
0
10
309.88539051201394
20
13.466575562953953
30
0
10
309.7134942182546
20
13.403137743473057
30
0
0
LINE
5
348
100
AcDbEntity
8
0
100
AcDbLine
10
309.7134942182546
20
13.403137743473057
30
0
11
309.7134942182546
21
13.759208589792255
31
0
0
SPLINE
5
349
100
AcDbEntity
8
0
100
AcDbSpline
70
0
71
2
72
6
73
3
74
0
42
0.000000001
43
0.0000000001
44
0.0000000001
40
0
40
0
40
0
40
1
40
1
40
1
10
309.7134942182546
20
13.759208589792255
30
0
10
310.02249833133271
20
13.904501914978031
30
0
10
310.25373976614526
20
14.111186981201175
30
0
0
SPLINE
5
350
100
AcDbEntity
8
0
100
AcDbSpline
70
0
71
2
72
6
73
3
74
0
42
0.000000001
43
0.0000000001
44
0.0000000001
40
0
40
0
40
0
40
1
40
1
40
1
10
310.25373976614526
20
14.111186981201175
30
0
10
310.48498127546361
20
14.317871749401096
30
0
10
310.58116134192994
20
14.51227825880051
30
0
0
LINE
5
351
100
AcDbEntity
8
0
100
AcDbLine
10
310.58116134192994
20
14.51227825880051
30
0
11
310.81854205515435
21
14.51227825880051
31
0
0
LINE
5
352
100
AcDbEntity
8
0
100
AcDbLine
10
310.81854205515435
20
14.51227825880051
30
0
11
310.81854205515435
21
11.499999880790714
31
0
0
SPLINE
5
353
100
AcDbEntity
8
0
100
AcDbSpline
70
0
71
2
72
6
73
3
74
0
42
0.000000001
43
0.0000000001
44
0.0000000001
40
0
40
0
40
0
40
1
40
1
40
1
10
311.76192533161691
20
12.979536175727848
30
0
10
311.76192533161691
20
13.511596143245701
30
0
10
311.87140684511712
20
13.835948079824451
30
0
0
SPLINE
5
354
100
AcDbEntity
8
0
100
AcDbSpline
70
0
71
2
72
6
73
3
74
0
42
0.000000001
43
0.0000000001
44
0.0000000001
40
0
40
0
40
0
40
1
40
1
40
1
10
311.87140684511712
20
13.835948079824451
30
0
10
311.98088835861734
20
14.160300016403202
30
0
10
312.19678204443505
20
14.336289286613468
30
0
0
SPLINE
5
355
100
AcDbEntity
8
0
100
AcDbSpline
70
0
71
2
72
6
73
3
74
0
42
0.000000001
43
0.0000000001
44
0.0000000001
40
0
40
0
40
0
40
1
40
1
40
1
10
312.19678204443505
20
14.336289286613468
30
0
10
312.41267573025277
20
14.51227825880051
30
0
10
312.74009715702584
20
14.51227825880051
30
0
0
SPLINE
5
356
100
AcDbEntity
8
0
100
AcDbSpline
70
0
71
2
72
6
73
3
74
0
42
0.000000001
43
0.0000000001
44
0.0000000001
40
0
40
0
40
0
40
1
40
1
40
1
10
312.74009715702584
20
14.51227825880051
30
0
10
312.98157047417214
20
14.51227825880051
30
0
10
313.16369902279428
20
14.415075004100803
30
0
0
SPLINE
5
357
100
AcDbEntity
8
0
100
AcDbSpline
70
0
71
2
72
6
73
3
74
0
42
0.000000001
43
0.0000000001
44
0.0000000001
40
0
40
0
40
0
40
1
40
1
40
1
10
313.16369902279428
20
14.415075004100803
30
0
10
313.34582697536996
20
14.317871749401096
30
0
10
313.46451740648797
20
14.134720385074619
30
0
0
SPLINE
5
358
100
AcDbEntity
8
0
100
AcDbSpline
70
0
71
2
72
6
73
3
74
0
42
0.000000001
43
0.0000000001
44
0.0000000001
40
0
40
0
40
0
40
1
40
1
40
1
10
313.46451740648797
20
14.134720385074619
30
0
10
313.58320783760598
20
13.951569020748142
30
0
10
313.65073841002038
20
13.688608378171924
30
0
0
SPLINE
5
359
100
AcDbEntity
8
0
100
AcDbSpline
70
0
71
2
72
6
73
3
74
0
42
0.000000001
43
0.0000000001
44
0.0000000001
40
0
40
0
40
0
40
1
40
1
40
1
10
313.65073841002038
20
13.688608378171924
30
0
10
313.71826898243478
20
13.425648033618931
30
0
10
313.71826898243478
20
12.979536175727848
30
0
0
SPLINE
5
360
100
AcDbEntity
8
0
100
AcDbSpline
70
0
71
2
72
6
73
3
74
0
42
0.000000001
43
0.0000000001
44
0.0000000001
40
0
40
0
40
0
40
1
40
1
40
1
10
313.71826898243478
20
12.979536175727848
30
0
10
313.71826898243478
20
12.451568663120273
30
0
10
313.60981058266213
20
12.127216875553135
30
0
0
SPLINE
5
361
100
AcDbEntity
8
0
100
AcDbSpline
70
0
71
2
72
6
73
3
74
0
42
0.000000001
43
0.0000000001
44
0.0000000001
40
0
40
0
40
0
40
1
40
1
40
1
10
313.60981058266213
20
12.127216875553135
30
0
10
313.50135218288949
20
11.802864789962772
30
0
10
313.285458795095
20
11.625852406024936
30
0
0
SPLINE
5
362
100
AcDbEntity
8
0
100
AcDbSpline
70
0
71
2
72
6
73
3
74
0
42
0.000000001
43
0.0000000001
44
0.0000000001
40
0
40
0
40
0
40
1
40
1
40
1
10
313.285458795095
20
11.625852406024936
30
0
10
313.0695654073005
20
11.448840320110325
30
0
10
312.74009715702584
20
11.448840320110325
30
0
0
SPLINE
5
363
100
AcDbEntity
8
0
100
AcDbSpline
70
0
71
2
72
6
73
3
74
0
42
0.000000001
43
0.0000000001
44
0.0000000001
40
0
40
0
40
0
40
1
40
1
40
1
10
312.74009715702584
20
11.448840320110325
30
0
10
312.30626355793527
20
11.448840320110325
30
0
10
312.05865126040032
20
11.759890735149387
30
0
0
SPLINE
5
364
100
AcDbEntity
8
0
100
AcDbSpline
70
0
71
2
72
6
73
3
74
0
42
0.000000001
43
0.0000000001
44
0.0000000001
40
0
40
0
40
0
40
1
40
1
40
1
10
312.05865126040032
20
11.759890735149387
30
0
10
311.76192533161691
20
12.134378969669346
30
0
10
311.76192533161691
20
12.979536175727848
30
0
0
SPLINE
5
365
100
AcDbEntity
8
0
100
AcDbSpline
70
0
71
2
72
6
73
3
74
0
42
0.000000001
43
0.0000000001
44
0.0000000001
40
0
40
0
40
0
40
1
40
1
40
1
10
312.14050661709359
20
12.979536175727848
30
0
10
312.14050661709359
20
12.24079114198685
30
0
10
312.3134259500747
20
11.996248185634617
30
0
0
SPLINE
5
366
100
AcDbEntity
8
0
100
AcDbSpline
70
0
71
2
72
6
73
3
74
0
42
0.000000001
43
0.0000000001
44
0.0000000001
40
0
40
0
40
0
40
1
40
1
40
1
10
312.3134259500747
20
11.996248185634617
30
0
10
312.48634558107904
20
11.751705229282383
30
0
10
312.74009715702584
20
11.751705229282383
30
0
0
SPLINE
5
367
100
AcDbEntity
8
0
100
AcDbSpline
70
0
71
2
72
6
73
3
74
0
42
0.000000001
43
0.0000000001
44
0.0000000001
40
0
40
0
40
0
40
1
40
1
40
1
10
312.74009715702584
20
11.751705229282383
30
0
10
312.99384903099588
20
11.751705229282383
30
0
10
313.16676866200021
20
11.997271299362186
30
0
0
SPLINE
5
368
100
AcDbEntity
8
0
100
AcDbSpline
70
0
71
2
72
6
73
3
74
0
42
0.000000001
43
0.0000000001
44
0.0000000001
40
0
40
0
40
0
40
1
40
1
40
1
10
313.16676866200021
20
11.997271299362186
30
0
10
313.33968799498132
20
12.24283736944199
30
0
10
313.33968799498132
20
12.979536175727848
30
0
0
SPLINE
5
369
100
AcDbEntity
8
0
100
AcDbSpline
70
0
71
2
72
6
73
3
74
0
42
0.000000001
43
0.0000000001
44
0.0000000001
40
0
40
0
40
0
40
1
40
1
40
1
10
313.33968799498132
20
12.979536175727848
30
0
10
313.33968799498132
20
13.720327436923984
30
0
10
313.16676866200021
20
13.963847279548649
30
0
0
SPLINE
5
370
100
AcDbEntity
8
0
100
AcDbSpline
70
0
71
2
72
6
73
3
74
0
42
0.000000001
43
0.0000000001
44
0.0000000001
40
0
40
0
40
0
40
1
40
1
40
1
10
313.16676866200021
20
13.963847279548649
30
0
10
312.99384903099588
20
14.207367122173313
30
0
10
312.73600440409234
20
14.207367122173313
30
0
0
SPLINE
5
371
100
AcDbEntity
8
0
100
AcDbSpline
70
0
71
2
72
6
73
3
74
0
42
0.000000001
43
0.0000000001
44
0.0000000001
40
0
40
0
40
0
40
1
40
1
40
1
10
312.73600440409234
20
14.207367122173313
30
0
10
312.48225282814553
20
14.207367122173313
30
0
10
312.3308203735595
20
13.992496550083164
30
0
0
SPLINE
5
372
100
AcDbEntity
8
0
100
AcDbSpline
70
0
71
2
72
6
73
3
74
0
42
0.000000001
43
0.0000000001
44
0.0000000001
40
0
40
0
40
0
40
1
40
1
40
1
10
312.3308203735595
20
13.992496550083164
30
0
10
312.14050661709359
20
13.718281060457233
30
0
10
312.14050661709359
20
12.979536175727848
30
0
0
LINE
5
373
100
AcDbEntity
8
0
100
AcDbLine
10
275.05525648593903
20
12.193724334239963
30
0
11
275.40928106755018
21
12.226466357707981
31
0
0
SPLINE
5
374
100
AcDbEntity
8
0
100
AcDbSpline
70
0
71
2
72
6
73
3
74
0
42
0.000000001
43
0.0000000001
44
0.0000000001
40
0
40
0
40
0
40
1
40
1
40
1
10
275.40928106755018
20
12.226466357707981
30
0
10
275.45430149883032
20
11.976807534694675
30
0
10
275.58117736130953
20
11.864256381988529
30
0
0
SPLINE
5
375
100
AcDbEntity
8
0
100
AcDbSpline
70
0
71
2
72
6
73
3
74
0
42
0.000000001
43
0.0000000001
44
0.0000000001
40
0
40
0
40
0
40
1
40
1
40
1
10
275.58117736130953
20
11.864256381988529
30
0
10
275.70805322378874
20
11.751705229282383
30
0
10
275.90655248612165
20
11.751705229282383
30
0
0
SPLINE
5
376
100
AcDbEntity
8
0
100
AcDbSpline
70
0
71
2
72
6
73
3
74
0
42
0.000000001
43
0.0000000001
44
0.0000000001
40
0
40
0
40
0
40
1
40
1
40
1
10
275.90655248612165
20
11.751705229282383
30
0
10
276.07640247792006
20
11.751705229282383
30
0
10
276.20430152863264
20
11.829467833042148
30
0
0
SPLINE
5
377
100
AcDbEntity
8
0
100
AcDbSpline
70
0
71
2
72
6
73
3
74
0
42
0.000000001
43
0.0000000001
44
0.0000000001
40
0
40
0
40
0
40
1
40
1
40
1
10
276.20430152863264
20
11.829467833042148
30
0
10
276.33220057934523
20
11.907230436801914
30
0
10
276.41405593603849
20
12.037175714969639
30
0
0
SPLINE
5
378
100
AcDbEntity
8
0
100
AcDbSpline
70
0
71
2
72
6
73
3
74
0
42
0.000000001
43
0.0000000001
44
0.0000000001
40
0
40
0
40
0
40
1
40
1
40
1
10
276.41405593603849
20
12.037175714969639
30
0
10
276.49591144174337
20
12.167121291160587
30
0
10
276.55116375535727
20
12.388130843639377
30
0
0
SPLINE
5
379
100
AcDbEntity
8
0
100
AcDbSpline
70
0
71
2
72
6
73
3
74
0
42
0.000000001
43
0.0000000001
44
0.0000000001
40
0
40
0
40
0
40
1
40
1
40
1
10
276.55116375535727
20
12.388130843639377
30
0
10
276.60641621798277
20
12.609140396118168
30
0
10
276.60641621798277
20
12.838335603475574
30
0
0
SPLINE
5
380
100
AcDbEntity
8
0
100
AcDbSpline
70
0
71
2
72
6
73
3
74
0
42
0.000000001
43
0.0000000001
44
0.0000000001
40
0
40
0
40
0
40
1
40
1
40
1
10
276.60641621798277
20
12.838335603475574
30
0
10
276.60641621798277
20
12.862892121076587
30
0
10
276.60436984151602
20
12.912005454301838
30
0
0
SPLINE
5
381
100
AcDbEntity
8
0
100
AcDbSpline
70
0
71
2
72
6
73
3
74
0
42
0.000000001
43
0.0000000001
44
0.0000000001
40
0
40
0
40
0
40
1
40
1
40
1
10
276.60436984151602
20
12.912005454301838
30
0
10
276.49386506527662
20
12.736016333103183
30
0
10
276.30252804607153
20
12.626534521579746
30
0
0
SPLINE
5
382
100
AcDbEntity
8
0
100
AcDbSpline
70
0
71
2
72
6
73
3
74
0
42
0.000000001
43
0.0000000001
44
0.0000000001
40
0
40
0
40
0
40
1
40
1
40
1
10
276.30252804607153
20
12.626534521579746
30
0
10
276.11119102686644
20
12.517053008079532
30
0
10
275.88813509792089
20
12.517053008079532
30
0
0
SPLINE
5
383
100
AcDbEntity
8
0
100
AcDbSpline
70
0
71
2
72
6
73
3
74
0
42
0.000000001
43
0.0000000001
44
0.0000000001
40
0
40
0
40
0
40
1
40
1
40
1
10
275.88813509792089
20
12.517053008079532
30
0
10
275.51569309085608
20
12.517053008079532
30
0
10
275.25784857571125
20
12.787175893783573
30
0
0
SPLINE
5
384
100
AcDbEntity
8
0
100
AcDbSpline
70
0
71
2
72
6
73
3
74
0
42
0.000000001
43
0.0000000001
44
0.0000000001
40
0
40
0
40
0
40
1
40
1
40
1
10
275.25784857571125
20
12.787175893783573
30
0
10
275.00000409781933
20
13.057298779487613
30
0
10
275.00000409781933
20
13.499317884445194
30
0
0
SPLINE
5
385
100
AcDbEntity
8
0
100
AcDbSpline
70
0
71
2
72
6
73
3
74
0
42
0.000000001
43
0.0000000001
44
0.0000000001
40
0
40
0
40
0
40
1
40
1
40
1
10
275.00000409781933
20
13.499317884445194
30
0
10
275.00000409781933
20
13.955661773681644
30
0
10
275.26910368353128
20
14.233969867229465
30
0
0
SPLINE
5
386
100
AcDbEntity
8
0
100
AcDbSpline
70
0
71
2
72
6
73
3
74
0
42
0.000000001
43
0.0000000001
44
0.0000000001
40
0
40
0
40
0
40
1
40
1
40
1
10
275.26910368353128
20
14.233969867229465
30
0
10
275.53820330649614
20
14.51227825880051
30
0
10
275.94338741153479
20
14.51227825880051
30
0
0
SPLINE
5
387
100
AcDbEntity
8
0
100
AcDbSpline
70
0
71
2
72
6
73
3
74
0
42
0.000000001
43
0.0000000001
44
0.0000000001
40
0
40
0
40
0
40
1
40
1
40
1
10
275.94338741153479
20
14.51227825880051
30
0
10
276.23602043837309
20
14.51227825880051
30
0
10
276.47851716727018
20
14.35470682382584
30
0
0
SPLINE
5
388
100
AcDbEntity
8
0
100
AcDbSpline
70
0
71
2
72
6
73
3
74
0
42
0.000000001
43
0.0000000001
44
0.0000000001
40
0
40
0
40
0
40
1
40
1
40
1
10
276.47851716727018
20
14.35470682382584
30
0
10
276.72101374715567
20
14.197135090827945
30
0
10
276.8468664214015
20
13.905525177717212
30
0
0
SPLINE
5
389
100
AcDbEntity
8
0
100
AcDbSpline
70
0
71
2
72
6
73
3
74
0
42
0.000000001
43
0.0000000001
44
0.0000000001
40
0
40
0
40
0
40
1
40
1
40
1
10
276.8468664214015
20
13.905525177717212
30
0
10
276.97271909564734
20
13.613915413618091
30
0
10
276.97271909564734
20
13.061391532421116
30
0
0
SPLINE
5
390
100
AcDbEntity
8
0
100
AcDbSpline
70
0
71
2
72
6
73
3
74
0
42
0.000000001
43
0.0000000001
44
0.0000000001
40
0
40
0
40
0
40
1
40
1
40
1
10
276.97271909564734
20
13.061391532421116
30
0
10
276.97271909564734
20
12.486357212066654
30
0
10
276.84788953512907
20
12.145634114742283
30
0
0
SPLINE
5
391
100
AcDbEntity
8
0
100
AcDbSpline
70
0
71
2
72
6
73
3
74
0
42
0.000000001
43
0.0000000001
44
0.0000000001
40
0
40
0
40
0
40
1
40
1
40
1
10
276.84788953512907
20
12.145634114742283
30
0
10
276.72306012362242
20
11.804911315441135
30
0
10
276.47647079080343
20
11.62687581777573
30
0
0
SPLINE
5
392
100
AcDbEntity
8
0
100
AcDbSpline
70
0
71
2
72
6
73
3
74
0
42
0.000000001
43
0.0000000001
44
0.0000000001
40
0
40
0
40
0
40
1
40
1
40
1
10
276.47647079080343
20
11.62687581777573
30
0
10
276.22988130897284
20
11.448840320110325
30
0
10
275.89836698025465
20
11.448840320110325
30
0
0
SPLINE
5
393
100
AcDbEntity
8
0
100
AcDbSpline
70
0
71
2
72
6
73
3
74
0
42
0.000000001
43
0.0000000001
44
0.0000000001
40
0
40
0
40
0
40
1
40
1
40
1
10
275.89836698025465
20
11.448840320110325
30
0
10
275.54638881236315
20
11.448840320110325
30
0
10
275.32333288341761
20
11.644269943237308
30
0
0
SPLINE
5
394
100
AcDbEntity
8
0
100
AcDbSpline
70
0
71
2
72
6
73
3
74
0
42
0.000000001
43
0.0000000001
44
0.0000000001
40
0
40
0
40
0
40
1
40
1
40
1
10
275.32333288341761
20
11.644269943237308
30
0
10
275.10027695447206
20
11.839699864387516
30
0
10
275.05525648593903
20
12.193724334239963
30
0
0
SPLINE
5
395
100
AcDbEntity
8
0
100
AcDbSpline
70
0
71
2
72
6
73
3
74
0
42
0.000000001
43
0.0000000001
44
0.0000000001
40
0
40
0
40
0
40
1
40
1
40
1
10
276.56344216316938
20
13.517735272645954
30
0
10
276.56344216316938
20
13.834924966096882
30
0
10
276.39461528509855
20
14.021145820617679
30
0
0
SPLINE
5
396
100
AcDbEntity
8
0
100
AcDbSpline
70
0
71
2
72
6
73
3
74
0
42
0.000000001
43
0.0000000001
44
0.0000000001
40
0
40
0
40
0
40
1
40
1
40
1
10
276.39461528509855
20
14.021145820617679
30
0
10
276.22578855603933
20
14.207367122173313
30
0
10
275.98840799182653
20
14.207367122173313
30
0
0
SPLINE
5
397
100
AcDbEntity
8
0
100
AcDbSpline
70
0
71
2
72
6
73
3
74
0
42
0.000000001
43
0.0000000001
44
0.0000000001
40
0
40
0
40
0
40
1
40
1
40
1
10
275.98840799182653
20
14.207367122173313
30
0
10
275.74284177273512
20
14.207367122173313
30
0
10
275.56071352213621
20
14.006821334362034
30
0
0
SPLINE
5
398
100
AcDbEntity
8
0
100
AcDbSpline
70
0
71
2
72
6
73
3
74
0
42
0.000000001
43
0.0000000001
44
0.0000000001
40
0
40
0
40
0
40
1
40
1
40
1
10
275.56071352213621
20
14.006821334362034
30
0
10
275.3785852715373
20
13.806275546550754
30
0
10
275.3785852715373
20
13.487039476633075
30
0
0
SPLINE
5
399
100
AcDbEntity
8
0
100
AcDbSpline
70
0
71
2
72
6
73
3
74
0
42
0.000000001
43
0.0000000001
44
0.0000000001
40
0
40
0
40
0
40
1
40
1
40
1
10
275.3785852715373
20
13.487039476633075
30
0
10
275.3785852715373
20
13.200545728206638
30
0
10
275.55150475353003
20
13.021486967802051
30
0
0
SPLINE
5
400
100
AcDbEntity
8
0
100
AcDbSpline
70
0
71
2
72
6
73
3
74
0
42
0.000000001
43
0.0000000001
44
0.0000000001
40
0
40
0
40
0
40
1
40
1
40
1
10
275.55150475353003
20
13.021486967802051
30
0
10
275.72442423552275
20
12.842428356409076
30
0
10
275.97817596048117
20
12.842428356409076
30
0
0
SPLINE
5
401
100
AcDbEntity
8
0
100
AcDbSpline
70
0
71
2
72
6
73
3
74
0
42
0.000000001
43
0.0000000001
44
0.0000000001
40
0
40
0
40
0
40
1
40
1
40
1
10
275.97817596048117
20
12.842428356409076
30
0
10
276.23397406190634
20
12.842428356409076
30
0
10
276.39870818704367
20
13.021486967802051
30
0
0
SPLINE
5
402
100
AcDbEntity
8
0
100
AcDbSpline
70
0
71
2
72
6
73
3
74
0
42
0.000000001
43
0.0000000001
44
0.0000000001
40
0
40
0
40
0
40
1
40
1
40
1
10
276.39870818704367
20
13.021486967802051
30
0
10
276.56344216316938
20
13.200545728206638
30
0
10
276.56344216316938
20
13.517735272645954
30
0
0
LINE
5
403
100
AcDbEntity
8
0
100
AcDbLine
10
275.05525648593903
20
-10.806275665760039
30
0
11
275.40928106755018
21
-10.773533642292021
31
0
0
SPLINE
5
404
100
AcDbEntity
8
0
100
AcDbSpline
70
0
71
2
72
6
73
3
74
0
42
0.000000001
43
0.0000000001
44
0.0000000001
40
0
40
0
40
0
40
1
40
1
40
1
10
275.40928106755018
20
-10.773533642292021
30
0
10
275.45430149883032
20
-11.023192465305327
30
0
10
275.58117736130953
20
-11.135743618011473
30
0
0
SPLINE
5
405
100
AcDbEntity
8
0
100
AcDbSpline
70
0
71
2
72
6
73
3
74
0
42
0.000000001
43
0.0000000001
44
0.0000000001
40
0
40
0
40
0
40
1
40
1
40
1
10
275.58117736130953
20
-11.135743618011473
30
0
10
275.70805322378874
20
-11.248294770717619
30
0
10
275.90655248612165
20
-11.248294770717619
30
0
0
SPLINE
5
406
100
AcDbEntity
8
0
100
AcDbSpline
70
0
71
2
72
6
73
3
74
0
42
0.000000001
43
0.0000000001
44
0.0000000001
40
0
40
0
40
0
40
1
40
1
40
1
10
275.90655248612165
20
-11.248294770717619
30
0
10
276.07640247792006
20
-11.248294770717619
30
0
10
276.20430152863264
20
-11.170532166957853
30
0
0
SPLINE
5
407
100
AcDbEntity
8
0
100
AcDbSpline
70
0
71
2
72
6
73
3
74
0
42
0.000000001
43
0.0000000001
44
0.0000000001
40
0
40
0
40
0
40
1
40
1
40
1
10
276.20430152863264
20
-11.170532166957853
30
0
10
276.33220057934523
20
-11.092769563198088
30
0
10
276.41405593603849
20
-10.962824285030363
30
0
0
SPLINE
5
408
100
AcDbEntity
8
0
100
AcDbSpline
70
0
71
2
72
6
73
3
74
0
42
0.000000001
43
0.0000000001
44
0.0000000001
40
0
40
0
40
0
40
1
40
1
40
1
10
276.41405593603849
20
-10.962824285030363
30
0
10
276.49591144174337
20
-10.832878708839415
30
0
10
276.55116375535727
20
-10.611869156360624
30
0
0
SPLINE
5
409
100
AcDbEntity
8
0
100
AcDbSpline
70
0
71
2
72
6
73
3
74
0
42
0.000000001
43
0.0000000001
44
0.0000000001
40
0
40
0
40
0
40
1
40
1
40
1
10
276.55116375535727
20
-10.611869156360624
30
0
10
276.60641621798277
20
-10.390859603881834
30
0
10
276.60641621798277
20
-10.161664396524428
30
0
0
SPLINE
5
410
100
AcDbEntity
8
0
100
AcDbSpline
70
0
71
2
72
6
73
3
74
0
42
0.000000001
43
0.0000000001
44
0.0000000001
40
0
40
0
40
0
40
1
40
1
40
1
10
276.60641621798277
20
-10.161664396524428
30
0
10
276.60641621798277
20
-10.137107878923414
30
0
10
276.60436984151602
20
-10.087994545698164
30
0
0
SPLINE
5
411
100
AcDbEntity
8
0
100
AcDbSpline
70
0
71
2
72
6
73
3
74
0
42
0.000000001
43
0.0000000001
44
0.0000000001
40
0
40
0
40
0
40
1
40
1
40
1
10
276.60436984151602
20
-10.087994545698164
30
0
10
276.49386506527662
20
-10.263983666896818
30
0
10
276.30252804607153
20
-10.373465478420256
30
0
0
SPLINE
5
412
100
AcDbEntity
8
0
100
AcDbSpline
70
0
71
2
72
6
73
3
74
0
42
0.000000001
43
0.0000000001
44
0.0000000001
40
0
40
0
40
0
40
1
40
1
40
1
10
276.30252804607153
20
-10.373465478420256
30
0
10
276.11119102686644
20
-10.482946991920469
30
0
10
275.88813509792089
20
-10.482946991920469
30
0
0
SPLINE
5
413
100
AcDbEntity
8
0
100
AcDbSpline
70
0
71
2
72
6
73
3
74
0
42
0.000000001
43
0.0000000001
44
0.0000000001
40
0
40
0
40
0
40
1
40
1
40
1
10
275.88813509792089
20
-10.482946991920469
30
0
10
275.51569309085608
20
-10.482946991920469
30
0
10
275.25784857571125
20
-10.212824106216429
30
0
0
SPLINE
5
414
100
AcDbEntity
8
0
100
AcDbSpline
70
0
71
2
72
6
73
3
74
0
42
0.000000001
43
0.0000000001
44
0.0000000001
40
0
40
0
40
0
40
1
40
1
40
1
10
275.25784857571125
20
-10.212824106216429
30
0
10
275.00000409781933
20
-9.9427012205123884
30
0
10
275.00000409781933
20
-9.5006821155548078
30
0
0
SPLINE
5
415
100
AcDbEntity
8
0
100
AcDbSpline
70
0
71
2
72
6
73
3
74
0
42
0.000000001
43
0.0000000001
44
0.0000000001
40
0
40
0
40
0
40
1
40
1
40
1
10
275.00000409781933
20
-9.5006821155548078
30
0
10
275.00000409781933
20
-9.0443382263183576
30
0
10
275.26910368353128
20
-8.7660301327705366
30
0
0
SPLINE
5
416
100
AcDbEntity
8
0
100
AcDbSpline
70
0
71
2
72
6
73
3
74
0
42
0.000000001
43
0.0000000001
44
0.0000000001
40
0
40
0
40
0
40
1
40
1
40
1
10
275.26910368353128
20
-8.7660301327705366
30
0
10
275.53820330649614
20
-8.4877217411994916
30
0
10
275.94338741153479
20
-8.4877217411994916
30
0
0
SPLINE
5
417
100
AcDbEntity
8
0
100
AcDbSpline
70
0
71
2
72
6
73
3
74
0
42
0.000000001
43
0.0000000001
44
0.0000000001
40
0
40
0
40
0
40
1
40
1
40
1
10
275.94338741153479
20
-8.4877217411994916
30
0
10
276.23602043837309
20
-8.4877217411994916
30
0
10
276.47851716727018
20
-8.645293176174162
30
0
0
SPLINE
5
418
100
AcDbEntity
8
0
100
AcDbSpline
70
0
71
2
72
6
73
3
74
0
42
0.000000001
43
0.0000000001
44
0.0000000001
40
0
40
0
40
0
40
1
40
1
40
1
10
276.47851716727018
20
-8.645293176174162
30
0
10
276.72101374715567
20
-8.8028649091720563
30
0
10
276.8468664214015
20
-9.0944748222827894
30
0
0
SPLINE
5
419
100
AcDbEntity
8
0
100
AcDbSpline
70
0
71
2
72
6
73
3
74
0
42
0.000000001
43
0.0000000001
44
0.0000000001
40
0
40
0
40
0
40
1
40
1
40
1
10
276.8468664214015
20
-9.0944748222827894
30
0
10
276.97271909564734
20
-9.3860845863819105
30
0
10
276.97271909564734
20
-9.9386084675788862
30
0
0
SPLINE
5
420
100
AcDbEntity
8
0
100
AcDbSpline
70
0
71
2
72
6
73
3
74
0
42
0.000000001
43
0.0000000001
44
0.0000000001
40
0
40
0
40
0
40
1
40
1
40
1
10
276.97271909564734
20
-9.9386084675788862
30
0
10
276.97271909564734
20
-10.513642787933348
30
0
10
276.84788953512907
20
-10.854365885257719
30
0
0
SPLINE
5
421
100
AcDbEntity
8
0
100
AcDbSpline
70
0
71
2
72
6
73
3
74
0
42
0.000000001
43
0.0000000001
44
0.0000000001
40
0
40
0
40
0
40
1
40
1
40
1
10
276.84788953512907
20
-10.854365885257719
30
0
10
276.72306012362242
20
-11.195088684558867
30
0
10
276.47647079080343
20
-11.373124182224272
30
0
0
SPLINE
5
422
100
AcDbEntity
8
0
100
AcDbSpline
70
0
71
2
72
6
73
3
74
0
42
0.000000001
43
0.0000000001
44
0.0000000001
40
0
40
0
40
0
40
1
40
1
40
1
10
276.47647079080343
20
-11.373124182224272
30
0
10
276.22988130897284
20
-11.551159679889677
30
0
10
275.89836698025465
20
-11.551159679889677
30
0
0
SPLINE
5
423
100
AcDbEntity
8
0
100
AcDbSpline
70
0
71
2
72
6
73
3
74
0
42
0.000000001
43
0.0000000001
44
0.0000000001
40
0
40
0
40
0
40
1
40
1
40
1
10
275.89836698025465
20
-11.551159679889677
30
0
10
275.54638881236315
20
-11.551159679889677
30
0
10
275.32333288341761
20
-11.355730056762694
30
0
0
SPLINE
5
424
100
AcDbEntity
8
0
100
AcDbSpline
70
0
71
2
72
6
73
3
74
0
42
0.000000001
43
0.0000000001
44
0.0000000001
40
0
40
0
40
0
40
1
40
1
40
1
10
275.32333288341761
20
-11.355730056762694
30
0
10
275.10027695447206
20
-11.160300135612486
30
0
10
275.05525648593903
20
-10.806275665760039
30
0
0
SPLINE
5
425
100
AcDbEntity
8
0
100
AcDbSpline
70
0
71
2
72
6
73
3
74
0
42
0.000000001
43
0.0000000001
44
0.0000000001
40
0
40
0
40
0
40
1
40
1
40
1
10
276.56344216316938
20
-9.4822647273540479
30
0
10
276.56344216316938
20
-9.1650750339031202
30
0
10
276.39461528509855
20
-8.9788541793823224
30
0
0
SPLINE
5
426
100
AcDbEntity
8
0
100
AcDbSpline
70
0
71
2
72
6
73
3
74
0
42
0.000000001
43
0.0000000001
44
0.0000000001
40
0
40
0
40
0
40
1
40
1
40
1
10
276.39461528509855
20
-8.9788541793823224
30
0
10
276.22578855603933
20
-8.7926328778266889
30
0
10
275.98840799182653
20
-8.7926328778266889
30
0
0
SPLINE
5
427
100
AcDbEntity
8
0
100
AcDbSpline
70
0
71
2
72
6
73
3
74
0
42
0.000000001
43
0.0000000001
44
0.0000000001
40
0
40
0
40
0
40
1
40
1
40
1
10
275.98840799182653
20
-8.7926328778266889
30
0
10
275.74284177273512
20
-8.7926328778266889
30
0
10
275.56071352213621
20
-8.9931786656379682
30
0
0
SPLINE
5
428
100
AcDbEntity
8
0
100
AcDbSpline
70
0
71
2
72
6
73
3
74
0
42
0.000000001
43
0.0000000001
44
0.0000000001
40
0
40
0
40
0
40
1
40
1
40
1
10
275.56071352213621
20
-8.9931786656379682
30
0
10
275.3785852715373
20
-9.1937244534492475
30
0
10
275.3785852715373
20
-9.5129605233669263
30
0
0
SPLINE
5
429
100
AcDbEntity
8
0
100
AcDbSpline
70
0
71
2
72
6
73
3
74
0
42
0.000000001
43
0.0000000001
44
0.0000000001
40
0
40
0
40
0
40
1
40
1
40
1
10
275.3785852715373
20
-9.5129605233669263
30
0
10
275.3785852715373
20
-9.7994542717933637
30
0
10
275.55150475353003
20
-9.9785130321979505
30
0
0
SPLINE
5
430
100
AcDbEntity
8
0
100
AcDbSpline
70
0
71
2
72
6
73
3
74
0
42
0.000000001
43
0.0000000001
44
0.0000000001
40
0
40
0
40
0
40
1
40
1
40
1
10
275.55150475353003
20
-9.9785130321979505
30
0
10
275.72442423552275
20
-10.157571643590925
30
0
10
275.97817596048117
20
-10.157571643590925
30
0
0
SPLINE
5
431
100
AcDbEntity
8
0
100
AcDbSpline
70
0
71
2
72
6
73
3
74
0
42
0.000000001
43
0.0000000001
44
0.0000000001
40
0
40
0
40
0
40
1
40
1
40
1
10
275.97817596048117
20
-10.157571643590925
30
0
10
276.23397406190634
20
-10.157571643590925
30
0
10
276.39870818704367
20
-9.9785130321979505
30
0
0
SPLINE
5
432
100
AcDbEntity
8
0
100
AcDbSpline
70
0
71
2
72
6
73
3
74
0
42
0.000000001
43
0.0000000001
44
0.0000000001
40
0
40
0
40
0
40
1
40
1
40
1
10
276.39870818704367
20
-9.9785130321979505
30
0
10
276.56344216316938
20
-9.7994542717933637
30
0
10
276.56344216316938
20
-9.4822647273540479
30
0
0
SPLINE
5
433
100
AcDbEntity
8
0
100
AcDbSpline
70
0
71
2
72
6
73
3
74
0
42
0.000000001
43
0.0000000001
44
0.0000000001
40
0
40
0
40
0
40
1
40
1
40
1
10
244.31280316295243
20
-9.8731241226196271
30
0
10
244.08360810460664
20
-9.7892223894596082
30
0
10
243.97310332836724
20
-9.633697181940077
30
0
0
SPLINE
5
434
100
AcDbEntity
8
0
100
AcDbSpline
70
0
71
2
72
6
73
3
74
0
42
0.000000001
43
0.0000000001
44
0.0000000001
40
0
40
0
40
0
40
1
40
1
40
1
10
243.97310332836724
20
-9.633697181940077
30
0
10
243.86259855212785
20
-9.4781719744205457
30
0
10
243.86259855212785
20
-9.2612551748752576
30
0
0
SPLINE
5
435
100
AcDbEntity
8
0
100
AcDbSpline
70
0
71
2
72
6
73
3
74
0
42
0.000000001
43
0.0000000001
44
0.0000000001
40
0
40
0
40
0
40
1
40
1
40
1
10
243.86259855212785
20
-9.2612551748752576
30
0
10
243.86259855212785
20
-8.9338335990905744
30
0
10
244.0979328143797
20
-8.7107775211334211
30
0
0
SPLINE
5
436
100
AcDbEntity
8
0
100
AcDbSpline
70
0
71
2
72
6
73
3
74
0
42
0.000000001
43
0.0000000001
44
0.0000000001
40
0
40
0
40
0
40
1
40
1
40
1
10
244.0979328143797
20
-8.7107775211334211
30
0
10
244.33326700212575
20
-8.4877217411994916
30
0
10
244.72412647189714
20
-8.4877217411994916
30
0
0
SPLINE
5
437
100
AcDbEntity
8
0
100
AcDbSpline
70
0
71
2
72
6
73
3
74
0
42
0.000000001
43
0.0000000001
44
0.0000000001
40
0
40
0
40
0
40
1
40
1
40
1
10
244.72412647189714
20
-8.4877217411994916
30
0
10
245.11703239264108
20
-8.4877217411994916
30
0
10
245.35645948233224
20
-8.7158936858177167
30
0
0
SPLINE
5
438
100
AcDbEntity
8
0
100
AcDbSpline
70
0
71
2
72
6
73
3
74
0
42
0.000000001
43
0.0000000001
44
0.0000000001
40
0
40
0
40
0
40
1
40
1
40
1
10
245.35645948233224
20
-8.7158936858177167
30
0
10
245.59588642301179
20
-8.9440656304359418
30
0
10
245.59588642301179
20
-9.2714870572090131
30
0
0
SPLINE
5
439
100
AcDbEntity
8
0
100
AcDbSpline
70
0
71
2
72
6
73
3
74
0
42
0.000000001
43
0.0000000001
44
0.0000000001
40
0
40
0
40
0
40
1
40
1
40
1
10
245.59588642301179
20
-9.2714870572090131
30
0
10
245.59588642301179
20
-9.4802183508872968
30
0
10
245.48640490951158
20
-9.6347202956676465
30
0
0
SPLINE
5
440
100
AcDbEntity
8
0
100
AcDbSpline
70
0
71
2
72
6
73
3
74
0
42
0.000000001
43
0.0000000001
44
0.0000000001
40
0
40
0
40
0
40
1
40
1
40
1
10
245.48640490951158
20
-9.6347202956676465
30
0
10
245.37692324699975
20
-9.7892223894596082
30
0
10
245.15386731805421
20
-9.8731241226196271
30
0
0
SPLINE
5
441
100
AcDbEntity
8
0
100
AcDbSpline
70
0
71
2
72
6
73
3
74
0
42
0.000000001
43
0.0000000001
44
0.0000000001
40
0
40
0
40
0
40
1
40
1
40
1
10
245.15386731805421
20
-9.8731241226196271
30
0
10
245.4301293331585
20
-9.9631651341915113
30
0
10
245.5743993956051
20
-10.163710772991179
30
0
0
SPLINE
5
442
100
AcDbEntity
8
0
100
AcDbSpline
70
0
71
2
72
6
73
3
74
0
42
0.000000001
43
0.0000000001
44
0.0000000001
40
0
40
0
40
0
40
1
40
1
40
1
10
245.5743993956051
20
-10.163710772991179
30
0
10
245.7186696070633
20
-10.364256560802458
30
0
10
245.7186696070633
20
-10.642564952373503
30
0
0
SPLINE
5
443
100
AcDbEntity
8
0
100
AcDbSpline
70
0
71
2
72
6
73
3
74
0
42
0.000000001
43
0.0000000001
44
0.0000000001
40
0
40
0
40
0
40
1
40
1
40
1
10
245.7186696070633
20
-10.642564952373503
30
0
10
245.7186696070633
20
-11.027285218238829
30
0
10
245.44650034489251
20
-11.289222598075865
30
0
0
SPLINE
5
444
100
AcDbEntity
8
0
100
AcDbSpline
70
0
71
2
72
6
73
3
74
0
42
0.000000001
43
0.0000000001
44
0.0000000001
40
0
40
0
40
0
40
1
40
1
40
1
10
245.44650034489251
20
-11.289222598075865
30
0
10
245.17433123173333
20
-11.551159679889677
30
0
10
244.7302656758032
20
-11.551159679889677
30
0
0
SPLINE
5
445
100
AcDbEntity
8
0
100
AcDbSpline
70
0
71
2
72
6
73
3
74
0
42
0.000000001
43
0.0000000001
44
0.0000000001
40
0
40
0
40
0
40
1
40
1
40
1
10
244.7302656758032
20
-11.551159679889677
30
0
10
244.28620019437886
20
-11.551159679889677
30
0
10
244.01403100671388
20
-11.288199186325071
30
0
0
SPLINE
5
446
100
AcDbEntity
8
0
100
AcDbSpline
70
0
71
2
72
6
73
3
74
0
42
0.000000001
43
0.0000000001
44
0.0000000001
40
0
40
0
40
0
40
1
40
1
40
1
10
244.01403100671388
20
-11.288199186325071
30
0
10
243.74186183767534
20
-11.02523899078369
30
0
10
243.74186183767534
20
-10.632332921028135
30
0
0
SPLINE
5
447
100
AcDbEntity
8
0
100
AcDbSpline
70
0
71
2
72
6
73
3
74
0
42
0.000000001
43
0.0000000001
44
0.0000000001
40
0
40
0
40
0
40
1
40
1
40
1
10
243.74186183767534
20
-10.632332921028135
30
0
10
243.74186183767534
20
-10.339700043201445
30
0
10
243.8902247461877
20
-10.142223745584486
30
0
0
SPLINE
5
448
100
AcDbEntity
8
0
100
AcDbSpline
70
0
71
2
72
6
73
3
74
0
42
0.000000001
43
0.0000000001
44
0.0000000001
40
0
40
0
40
0
40
1
40
1
40
1
10
243.8902247461877
20
-10.142223745584486
30
0
10
244.0385876360736
20
-9.9447475969791395
30
0
10
244.31280316295243
20
-9.8731241226196271
30
0
0
SPLINE
5
449
100
AcDbEntity
8
0
100
AcDbSpline
70
0
71
2
72
6
73
3
74
0
42
0.000000001
43
0.0000000001
44
0.0000000001
40
0
40
0
40
0
40
1
40
1
40
1
10
244.23913331212617
20
-9.2489767670631391
30
0
10
244.23913331212617
20
-9.461800813674925
30
0
10
244.37624113144494
20
-9.5968622565269452
30
0
0
SPLINE
5
450
100
AcDbEntity
8
0
100
AcDbSpline
70
0
71
2
72
6
73
3
74
0
42
0.000000001
43
0.0000000001
44
0.0000000001
40
0
40
0
40
0
40
1
40
1
40
1
10
244.37624113144494
20
-9.5968622565269452
30
0
10
244.51334887625791
20
-9.7319236993789655
30
0
10
244.73231205226995
20
-9.7319236993789655
30
0
0
SPLINE
5
451
100
AcDbEntity
8
0
100
AcDbSpline
70
0
71
2
72
6
73
3
74
0
42
0.000000001
43
0.0000000001
44
0.0000000001
40
0
40
0
40
0
40
1
40
1
40
1
10
244.73231205226995
20
-9.7319236993789655
30
0
10
244.94513602437593
20
-9.7319236993789655
30
0
10
245.08122072996713
20
-9.5978853702545148
30
0
0
SPLINE
5
452
100
AcDbEntity
8
0
100
AcDbSpline
70
0
71
2
72
6
73
3
74
0
42
0.000000001
43
0.0000000001
44
0.0000000001
40
0
40
0
40
0
40
1
40
1
40
1
10
245.08122072996713
20
-9.5978853702545148
30
0
10
245.21730528654672
20
-9.4638471901416761
30
0
10
245.21730528654672
20
-9.269440680742262
30
0
0
SPLINE
5
453
100
AcDbEntity
8
0
100
AcDbSpline
70
0
71
2
72
6
73
3
74
0
42
0.000000001
43
0.0000000001
44
0.0000000001
40
0
40
0
40
0
40
1
40
1
40
1
10
245.21730528654672
20
-9.269440680742262
30
0
10
245.21730528654672
20
-9.0668485164642316
30
0
10
245.07712797703363
20
-8.9287177324295026
30
0
0
SPLINE
5
454
100
AcDbEntity
8
0
100
AcDbSpline
70
0
71
2
72
6
73
3
74
0
42
0.000000001
43
0.0000000001
44
0.0000000001
40
0
40
0
40
0
40
1
40
1
40
1
10
245.07712797703363
20
-8.9287177324295026
30
0
10
244.93695051850892
20
-8.7905866503715497
30
0
10
244.72821929933644
20
-8.7905866503715497
30
0
0
SPLINE
5
455
100
AcDbEntity
8
0
100
AcDbSpline
70
0
71
2
72
6
73
3
74
0
42
0.000000001
43
0.0000000001
44
0.0000000001
40
0
40
0
40
0
40
1
40
1
40
1
10
244.72821929933644
20
-8.7905866503715497
30
0
10
244.51744162919141
20
-8.7905866503715497
30
0
10
244.37828750791169
20
-8.92564809322357
30
0
0
SPLINE
5
456
100
AcDbEntity
8
0
100
AcDbSpline
70
0
71
2
72
6
73
3
74
0
42
0.000000001
43
0.0000000001
44
0.0000000001
40
0
40
0
40
0
40
1
40
1
40
1
10
244.37828750791169
20
-8.92564809322357
30
0
10
244.23913331212617
20
-9.0607093870639783
30
0
10
244.23913331212617
20
-9.2489767670631391
30
0
0
SPLINE
5
457
100
AcDbEntity
8
0
100
AcDbSpline
70
0
71
2
72
6
73
3
74
0
42
0.000000001
43
0.0000000001
44
0.0000000001
40
0
40
0
40
0
40
1
40
1
40
1
10
244.12044303001977
20
-10.634379446506498
30
0
10
244.12044303001977
20
-10.791950881481169
30
0
10
244.19513606907941
20
-10.939290583133696
30
0
0
SPLINE
5
458
100
AcDbEntity
8
0
100
AcDbSpline
70
0
71
2
72
6
73
3
74
0
42
0.000000001
43
0.0000000001
44
0.0000000001
40
0
40
0
40
0
40
1
40
1
40
1
10
244.19513606907941
20
-10.939290583133696
30
0
10
244.26982910813905
20
-11.086630284786223
30
0
10
244.41716880979158
20
-11.167462527751921
30
0
0
SPLINE
5
459
100
AcDbEntity
8
0
100
AcDbSpline
70
0
71
2
72
6
73
3
74
0
42
0.000000001
43
0.0000000001
44
0.0000000001
40
0
40
0
40
0
40
1
40
1
40
1
10
244.41716880979158
20
-11.167462527751921
30
0
10
244.5645085114441
20
-11.248294770717619
30
0
10
244.7343584287367
20
-11.248294770717619
30
0
0
SPLINE
5
460
100
AcDbEntity
8
0
100
AcDbSpline
70
0
71
2
72
6
73
3
74
0
42
0.000000001
43
0.0000000001
44
0.0000000001
40
0
40
0
40
0
40
1
40
1
40
1
10
244.7343584287367
20
-11.248294770717619
30
0
10
244.99834211053468
20
-11.248294770717619
30
0
10
245.17023847879983
20
-11.078444778919218
30
0
0
SPLINE
5
461
100
AcDbEntity
8
0
100
AcDbSpline
70
0
71
2
72
6
73
3
74
0
42
0.000000001
43
0.0000000001
44
0.0000000001
40
0
40
0
40
0
40
1
40
1
40
1
10
245.17023847879983
20
-11.078444778919218
30
0
10
245.34213484706498
20
-10.908594787120817
30
0
10
245.34213484706498
20
-10.646657705307005
30
0
0
SPLINE
5
462
100
AcDbEntity
8
0
100
AcDbSpline
70
0
71
2
72
6
73
3
74
0
42
0.000000001
43
0.0000000001
44
0.0000000001
40
0
40
0
40
0
40
1
40
1
40
1
10
245.34213484706498
20
-10.646657705307005
30
0
10
245.34213484706498
20
-10.380627572536467
30
0
10
245.16512246312715
20
-10.206684827804564
30
0
0
SPLINE
5
463
100
AcDbEntity
8
0
100
AcDbSpline
70
0
71
2
72
6
73
3
74
0
42
0.000000001
43
0.0000000001
44
0.0000000001
40
0
40
0
40
0
40
1
40
1
40
1
10
245.16512246312715
20
-10.206684827804564
30
0
10
244.98811022820092
20
-10.032742232084273
30
0
10
244.72208009543039
20
-10.032742232084273
30
0
0
SPLINE
5
464
100
AcDbEntity
8
0
100
AcDbSpline
70
0
71
2
72
6
73
3
74
0
42
0.000000001
43
0.0000000001
44
0.0000000001
40
0
40
0
40
0
40
1
40
1
40
1
10
244.72208009543039
20
-10.032742232084273
30
0
10
244.46218924107171
20
-10.032742232084273
30
0
10
244.29131613554574
20
-10.204638451337813
30
0
0
SPLINE
5
465
100
AcDbEntity
8
0
100
AcDbSpline
70
0
71
2
72
6
73
3
74
0
42
0.000000001
43
0.0000000001
44
0.0000000001
40
0
40
0
40
0
40
1
40
1
40
1
10
244.29131613554574
20
-10.204638451337813
30
0
10
244.12044303001977
20
-10.376534819602965
30
0
10
244.12044303001977
20
-10.634379446506498
30
0
0
SPLINE
5
466
100
AcDbEntity
8
0
100
AcDbSpline
70
0
71
2
72
6
73
3
74
0
42
0.000000001
43
0.0000000001
44
0.0000000001
40
0
40
0
40
0
40
1
40
1
40
1
10
244.31280316295243
20
13.126875877380375
30
0
10
244.08360810460664
20
13.210777610540394
30
0
10
243.97310332836724
20
13.366302818059925
30
0
0
SPLINE
5
467
100
AcDbEntity
8
0
100
AcDbSpline
70
0
71
2
72
6
73
3
74
0
42
0.000000001
43
0.0000000001
44
0.0000000001
40
0
40
0
40
0
40
1
40
1
40
1
10
243.97310332836724
20
13.366302818059925
30
0
10
243.86259855212785
20
13.521828025579456
30
0
10
243.86259855212785
20
13.738744825124744
30
0
0
SPLINE
5
468
100
AcDbEntity
8
0
100
AcDbSpline
70
0
71
2
72
6
73
3
74
0
42
0.000000001
43
0.0000000001
44
0.0000000001
40
0
40
0
40
0
40
1
40
1
40
1
10
243.86259855212785
20
13.738744825124744
30
0
10
243.86259855212785
20
14.066166400909427
30
0
10
244.0979328143797
20
14.289222478866581
30
0
0
SPLINE
5
469
100
AcDbEntity
8
0
100
AcDbSpline
70
0
71
2
72
6
73
3
74
0
42
0.000000001
43
0.0000000001
44
0.0000000001
40
0
40
0
40
0
40
1
40
1
40
1
10
244.0979328143797
20
14.289222478866581
30
0
10
244.33326700212575
20
14.51227825880051
30
0
10
244.72412647189714
20
14.51227825880051
30
0
0
SPLINE
5
470
100
AcDbEntity
8
0
100
AcDbSpline
70
0
71
2
72
6
73
3
74
0
42
0.000000001
43
0.0000000001
44
0.0000000001
40
0
40
0
40
0
40
1
40
1
40
1
10
244.72412647189714
20
14.51227825880051
30
0
10
245.11703239264108
20
14.51227825880051
30
0
10
245.35645948233224
20
14.284106314182285
30
0
0
SPLINE
5
471
100
AcDbEntity
8
0
100
AcDbSpline
70
0
71
2
72
6
73
3
74
0
42
0.000000001
43
0.0000000001
44
0.0000000001
40
0
40
0
40
0
40
1
40
1
40
1
10
245.35645948233224
20
14.284106314182285
30
0
10
245.59588642301179
20
14.05593436956406
30
0
10
245.59588642301179
20
13.728512942790989
30
0
0
SPLINE
5
472
100
AcDbEntity
8
0
100
AcDbSpline
70
0
71
2
72
6
73
3
74
0
42
0.000000001
43
0.0000000001
44
0.0000000001
40
0
40
0
40
0
40
1
40
1
40
1
10
245.59588642301179
20
13.728512942790989
30
0
10
245.59588642301179
20
13.519781649112705
30
0
10
245.48640490951158
20
13.365279704332355
30
0
0
SPLINE
5
473
100
AcDbEntity
8
0
100
AcDbSpline
70
0
71
2
72
6
73
3
74
0
42
0.000000001
43
0.0000000001
44
0.0000000001
40
0
40
0
40
0
40
1
40
1
40
1
10
245.48640490951158
20
13.365279704332355
30
0
10
245.37692324699975
20
13.210777610540394
30
0
10
245.15386731805421
20
13.126875877380375
30
0
0
SPLINE
5
474
100
AcDbEntity
8
0
100
AcDbSpline
70
0
71
2
72
6
73
3
74
0
42
0.000000001
43
0.0000000001
44
0.0000000001
40
0
40
0
40
0
40
1
40
1
40
1
10
245.15386731805421
20
13.126875877380375
30
0
10
245.4301293331585
20
13.03683486580849
30
0
10
245.5743993956051
20
12.836289227008823
30
0
0
SPLINE
5
475
100
AcDbEntity
8
0
100
AcDbSpline
70
0
71
2
72
6
73
3
74
0
42
0.000000001
43
0.0000000001
44
0.0000000001
40
0
40
0
40
0
40
1
40
1
40
1
10
245.5743993956051
20
12.836289227008823
30
0
10
245.7186696070633
20
12.635743439197544
30
0
10
245.7186696070633
20
12.357435047626499
30
0
0
SPLINE
5
476
100
AcDbEntity
8
0
100
AcDbSpline
70
0
71
2
72
6
73
3
74
0
42
0.000000001
43
0.0000000001
44
0.0000000001
40
0
40
0
40
0
40
1
40
1
40
1
10
245.7186696070633
20
12.357435047626499
30
0
10
245.7186696070633
20
11.972714781761173
30
0
10
245.44650034489251
20
11.710777401924137
30
0
0
SPLINE
5
477
100
AcDbEntity
8
0
100
AcDbSpline
70
0
71
2
72
6
73
3
74
0
42
0.000000001
43
0.0000000001
44
0.0000000001
40
0
40
0
40
0
40
1
40
1
40
1
10
245.44650034489251
20
11.710777401924137
30
0
10
245.17433123173333
20
11.448840320110325
30
0
10
244.7302656758032
20
11.448840320110325
30
0
0
SPLINE
5
478
100
AcDbEntity
8
0
100
AcDbSpline
70
0
71
2
72
6
73
3
74
0
42
0.000000001
43
0.0000000001
44
0.0000000001
40
0
40
0
40
0
40
1
40
1
40
1
10
244.7302656758032
20
11.448840320110325
30
0
10
244.28620019437886
20
11.448840320110325
30
0
10
244.01403100671388
20
11.71180081367493
30
0
0
SPLINE
5
479
100
AcDbEntity
8
0
100
AcDbSpline
70
0
71
2
72
6
73
3
74
0
42
0.000000001
43
0.0000000001
44
0.0000000001
40
0
40
0
40
0
40
1
40
1
40
1
10
244.01403100671388
20
11.71180081367493
30
0
10
243.74186183767534
20
11.974761009216312
30
0
10
243.74186183767534
20
12.367667078971866
30
0
0
SPLINE
5
480
100
AcDbEntity
8
0
100
AcDbSpline
70
0
71
2
72
6
73
3
74
0
42
0.000000001
43
0.0000000001
44
0.0000000001
40
0
40
0
40
0
40
1
40
1
40
1
10
243.74186183767534
20
12.367667078971866
30
0
10
243.74186183767534
20
12.660299956798557
30
0
10
243.8902247461877
20
12.857776254415516
30
0
0
SPLINE
5
481
100
AcDbEntity
8
0
100
AcDbSpline
70
0
71
2
72
6
73
3
74
0
42
0.000000001
43
0.0000000001
44
0.0000000001
40
0
40
0
40
0
40
1
40
1
40
1
10
243.8902247461877
20
12.857776254415516
30
0
10
244.0385876360736
20
13.055252403020862
30
0
10
244.31280316295243
20
13.126875877380375
30
0
0
SPLINE
5
482
100
AcDbEntity
8
0
100
AcDbSpline
70
0
71
2
72
6
73
3
74
0
42
0.000000001
43
0.0000000001
44
0.0000000001
40
0
40
0
40
0
40
1
40
1
40
1
10
244.23913331212617
20
13.751023232936863
30
0
10
244.23913331212617
20
13.538199186325077
30
0
10
244.37624113144494
20
13.403137743473057
30
0
0
SPLINE
5
483
100
AcDbEntity
8
0
100
AcDbSpline
70
0
71
2
72
6
73
3
74
0
42
0.000000001
43
0.0000000001
44
0.0000000001
40
0
40
0
40
0
40
1
40
1
40
1
10
244.37624113144494
20
13.403137743473057
30
0
10
244.51334887625791
20
13.268076300621036
30
0
10
244.73231205226995
20
13.268076300621036
30
0
0
SPLINE
5
484
100
AcDbEntity
8
0
100
AcDbSpline
70
0
71
2
72
6
73
3
74
0
42
0.000000001
43
0.0000000001
44
0.0000000001
40
0
40
0
40
0
40
1
40
1
40
1
10
244.73231205226995
20
13.268076300621036
30
0
10
244.94513602437593
20
13.268076300621036
30
0
10
245.08122072996713
20
13.402114629745487
30
0
0
SPLINE
5
485
100
AcDbEntity
8
0
100
AcDbSpline
70
0
71
2
72
6
73
3
74
0
42
0.000000001
43
0.0000000001
44
0.0000000001
40
0
40
0
40
0
40
1
40
1
40
1
10
245.08122072996713
20
13.402114629745487
30
0
10
245.21730528654672
20
13.536152809858326
30
0
10
245.21730528654672
20
13.73055931925774
30
0
0
SPLINE
5
486
100
AcDbEntity
8
0
100
AcDbSpline
70
0
71
2
72
6
73
3
74
0
42
0.000000001
43
0.0000000001
44
0.0000000001
40
0
40
0
40
0
40
1
40
1
40
1
10
245.21730528654672
20
13.73055931925774
30
0
10
245.21730528654672
20
13.93315148353577
30
0
10
245.07712797703363
20
14.071282267570499
30
0
0
SPLINE
5
487
100
AcDbEntity
8
0
100
AcDbSpline
70
0
71
2
72
6
73
3
74
0
42
0.000000001
43
0.0000000001
44
0.0000000001
40
0
40
0
40
0
40
1
40
1
40
1
10
245.07712797703363
20
14.071282267570499
30
0
10
244.93695051850892
20
14.209413349628452
30
0
10
244.72821929933644
20
14.209413349628452
30
0
0
SPLINE
5
488
100
AcDbEntity
8
0
100
AcDbSpline
70
0
71
2
72
6
73
3
74
0
42
0.000000001
43
0.0000000001
44
0.0000000001
40
0
40
0
40
0
40
1
40
1
40
1
10
244.72821929933644
20
14.209413349628452
30
0
10
244.51744162919141
20
14.209413349628452
30
0
10
244.37828750791169
20
14.074351906776432
30
0
0
SPLINE
5
489
100
AcDbEntity
8
0
100
AcDbSpline
70
0
71
2
72
6
73
3
74
0
42
0.000000001
43
0.0000000001
44
0.0000000001
40
0
40
0
40
0
40
1
40
1
40
1
10
244.37828750791169
20
14.074351906776432
30
0
10
244.23913331212617
20
13.939290612936023
30
0
10
244.23913331212617
20
13.751023232936863
30
0
0
SPLINE
5
490
100
AcDbEntity
8
0
100
AcDbSpline
70
0
71
2
72
6
73
3
74
0
42
0.000000001
43
0.0000000001
44
0.0000000001
40
0
40
0
40
0
40
1
40
1
40
1
10
244.12044303001977
20
12.365620553493503
30
0
10
244.12044303001977
20
12.208049118518833
30
0
10
244.19513606907941
20
12.060709416866306
30
0
0
SPLINE
5
491
100
AcDbEntity
8
0
100
AcDbSpline
70
0
71
2
72
6
73
3
74
0
42
0.000000001
43
0.0000000001
44
0.0000000001
40
0
40
0
40
0
40
1
40
1
40
1
10
244.19513606907941
20
12.060709416866306
30
0
10
244.26982910813905
20
11.913369715213779
30
0
10
244.41716880979158
20
11.832537472248081
30
0
0
SPLINE
5
492
100
AcDbEntity
8
0
100
AcDbSpline
70
0
71
2
72
6
73
3
74
0
42
0.000000001
43
0.0000000001
44
0.0000000001
40
0
40
0
40
0
40
1
40
1
40
1
10
244.41716880979158
20
11.832537472248081
30
0
10
244.5645085114441
20
11.751705229282383
30
0
10
244.7343584287367
20
11.751705229282383
30
0
0
SPLINE
5
493
100
AcDbEntity
8
0
100
AcDbSpline
70
0
71
2
72
6
73
3
74
0
42
0.000000001
43
0.0000000001
44
0.0000000001
40
0
40
0
40
0
40
1
40
1
40
1
10
244.7343584287367
20
11.751705229282383
30
0
10
244.99834211053468
20
11.751705229282383
30
0
10
245.17023847879983
20
11.921555221080784
30
0
0
SPLINE
5
494
100
AcDbEntity
8
0
100
AcDbSpline
70
0
71
2
72
6
73
3
74
0
42
0.000000001
43
0.0000000001
44
0.0000000001
40
0
40
0
40
0
40
1
40
1
40
1
10
245.17023847879983
20
11.921555221080784
30
0
10
245.34213484706498
20
12.091405212879184
30
0
10
245.34213484706498
20
12.353342294692997
30
0
0
SPLINE
5
495
100
AcDbEntity
8
0
100
AcDbSpline
70
0
71
2
72
6
73
3
74
0
42
0.000000001
43
0.0000000001
44
0.0000000001
40
0
40
0
40
0
40
1
40
1
40
1
10
245.34213484706498
20
12.353342294692997
30
0
10
245.34213484706498
20
12.619372427463535
30
0
10
245.16512246312715
20
12.793315172195438
30
0
0
SPLINE
5
496
100
AcDbEntity
8
0
100
AcDbSpline
70
0
71
2
72
6
73
3
74
0
42
0.000000001
43
0.0000000001
44
0.0000000001
40
0
40
0
40
0
40
1
40
1
40
1
10
245.16512246312715
20
12.793315172195438
30
0
10
244.98811022820092
20
12.967257767915729
30
0
10
244.72208009543039
20
12.967257767915729
30
0
0
SPLINE
5
497
100
AcDbEntity
8
0
100
AcDbSpline
70
0
71
2
72
6
73
3
74
0
42
0.000000001
43
0.0000000001
44
0.0000000001
40
0
40
0
40
0
40
1
40
1
40
1
10
244.72208009543039
20
12.967257767915729
30
0
10
244.46218924107171
20
12.967257767915729
30
0
10
244.29131613554574
20
12.795361548662189
30
0
0
SPLINE
5
498
100
AcDbEntity
8
0
100
AcDbSpline
70
0
71
2
72
6
73
3
74
0
42
0.000000001
43
0.0000000001
44
0.0000000001
40
0
40
0
40
0
40
1
40
1
40
1
10
244.29131613554574
20
12.795361548662189
30
0
10
244.12044303001977
20
12.623465180397037
30
0
10
244.12044303001977
20
12.365620553493503
30
0
0
LINE
5
499
100
AcDbEntity
8
0
100
AcDbLine
10
209.59297251550285
20
-8.8540247678756696
30
0
11
209.59297251550285
21
-8.4999999999999982
31
0
0
LINE
5
500
100
AcDbEntity
8
0
100
AcDbLine
10
209.59297251550285
20
-8.4999999999999982
30
0
11
211.53499162418572
21
-8.4999999999999982
31
0
0
LINE
5
501
100
AcDbEntity
8
0
100
AcDbLine
10
211.53499162418572
20
-8.4999999999999982
30
0
11
211.53499162418572
21
-8.7864938974380475
31
0
0
SPLINE
5
502
100
AcDbEntity
8
0
100
AcDbSpline
70
0
71
2
72
6
73
3
74
0
42
0.000000001
43
0.0000000001
44
0.0000000001
40
0
40
0
40
0
40
1
40
1
40
1
10
211.53499162418572
20
-8.7864938974380475
30
0
10
211.24849772674767
20
-9.0914053320884687
30
0
10
210.96711984498231
20
-9.5968622565269452
30
0
0
SPLINE
5
503
100
AcDbEntity
8
0
100
AcDbSpline
70
0
71
2
72
6
73
3
74
0
42
0.000000001
43
0.0000000001
44
0.0000000001
40
0
40
0
40
0
40
1
40
1
40
1
10
210.96711984498231
20
-9.5968622565269452
30
0
10
210.68574196321694
20
-10.102319329977034
30
0
10
210.53226313216416
20
-10.636425673961638
30
0
0
SPLINE
5
504
100
AcDbEntity
8
0
100
AcDbSpline
70
0
71
2
72
6
73
3
74
0
42
0.000000001
43
0.0000000001
44
0.0000000001
40
0
40
0
40
0
40
1
40
1
40
1
10
210.53226313216416
20
-10.636425673961638
30
0
10
210.42175835592477
20
-11.012960433959959
30
0
10
210.39106255991189
20
-11.461118817329405
30
0
0
LINE
5
505
100
AcDbEntity
8
0
100
AcDbLine
10
210.39106255991189
20
-11.461118817329405
30
0
11
210.01248142344681
21
-11.461118817329405
31
0
0
SPLINE
5
506
100
AcDbEntity
8
0
100
AcDbSpline
70
0
71
2
72
6
73
3
74
0
42
0.000000001
43
0.0000000001
44
0.0000000001
40
0
40
0
40
0
40
1
40
1
40
1
10
210.01248142344681
20
-11.461118817329405
30
0
10
210.01862055284707
20
-11.107094347476957
30
0
10
210.15163554472653
20
-10.605729877948759
30
0
0
SPLINE
5
507
100
AcDbEntity
8
0
100
AcDbSpline
70
0
71
2
72
6
73
3
74
0
42
0.000000001
43
0.0000000001
44
0.0000000001
40
0
40
0
40
0
40
1
40
1
40
1
10
210.15163554472653
20
-10.605729877948759
30
0
10
210.2846506111118
20
-10.104365706443785
30
0
10
210.53328632039754
20
-9.6388131976127607
30
0
0
SPLINE
5
508
100
AcDbEntity
8
0
100
AcDbSpline
70
0
71
2
72
6
73
3
74
0
42
0.000000001
43
0.0000000001
44
0.0000000001
40
0
40
0
40
0
40
1
40
1
40
1
10
210.53328632039754
20
-9.6388131976127607
30
0
10
210.78192210418908
20
-9.1732606887817365
30
0
10
211.06227672321526
20
-8.8540247678756696
30
0
0
LINE
5
509
100
AcDbEntity
8
0
100
AcDbLine
10
211.06227672321526
20
-8.8540247678756696
30
0
11
209.59297251550285
21
-8.8540247678756696
31
0
0
LINE
5
510
100
AcDbEntity
8
0
100
AcDbLine
10
209.59297251550285
20
14.145975232124332
30
0
11
209.59297251550285
21
14.500000000000004
31
0
0
LINE
5
511
100
AcDbEntity
8
0
100
AcDbLine
10
209.59297251550285
20
14.500000000000004
30
0
11
211.53499162418572
21
14.500000000000004
31
0
0
LINE
5
512
100
AcDbEntity
8
0
100
AcDbLine
10
211.53499162418572
20
14.500000000000004
30
0
11
211.53499162418572
21
14.213506102561954
31
0
0
SPLINE
5
513
100
AcDbEntity
8
0
100
AcDbSpline
70
0
71
2
72
6
73
3
74
0
42
0.000000001
43
0.0000000001
44
0.0000000001
40
0
40
0
40
0
40
1
40
1
40
1
10
211.53499162418572
20
14.213506102561954
30
0
10
211.24849772674767
20
13.908594667911533
30
0
10
210.96711984498231
20
13.403137743473057
30
0
0
SPLINE
5
514
100
AcDbEntity
8
0
100
AcDbSpline
70
0
71
2
72
6
73
3
74
0
42
0.000000001
43
0.0000000001
44
0.0000000001
40
0
40
0
40
0
40
1
40
1
40
1
10
210.96711984498231
20
13.403137743473057
30
0
10
210.68574196321694
20
12.897680670022968
30
0
10
210.53226313216416
20
12.363574326038364
30
0
0
SPLINE
5
515
100
AcDbEntity
8
0
100
AcDbSpline
70
0
71
2
72
6
73
3
74
0
42
0.000000001
43
0.0000000001
44
0.0000000001
40
0
40
0
40
0
40
1
40
1
40
1
10
210.53226313216416
20
12.363574326038364
30
0
10
210.42175835592477
20
11.987039566040043
30
0
10
210.39106255991189
20
11.538881182670597
30
0
0
LINE
5
516
100
AcDbEntity
8
0
100
AcDbLine
10
210.39106255991189
20
11.538881182670597
30
0
11
210.01248142344681
21
11.538881182670597
31
0
0
SPLINE
5
517
100
AcDbEntity
8
0
100
AcDbSpline
70
0
71
2
72
6
73
3
74
0
42
0.000000001
43
0.0000000001
44
0.0000000001
40
0
40
0
40
0
40
1
40
1
40
1
10
210.01248142344681
20
11.538881182670597
30
0
10
210.01862055284707
20
11.892905652523044
30
0
10
210.15163554472653
20
12.394270122051243
30
0
0
SPLINE
5
518
100
AcDbEntity
8
0
100
AcDbSpline
70
0
71
2
72
6
73
3
74
0
42
0.000000001
43
0.0000000001
44
0.0000000001
40
0
40
0
40
0
40
1
40
1
40
1
10
210.15163554472653
20
12.394270122051243
30
0
10
210.2846506111118
20
12.895634293556217
30
0
10
210.53328632039754
20
13.361186802387241
30
0
0
SPLINE
5
519
100
AcDbEntity
8
0
100
AcDbSpline
70
0
71
2
72
6
73
3
74
0
42
0.000000001
43
0.0000000001
44
0.0000000001
40
0
40
0
40
0
40
1
40
1
40
1
10
210.53328632039754
20
13.361186802387241
30
0
10
210.78192210418908
20
13.826739311218265
30
0
10
211.06227672321526
20
14.145975232124332
30
0
0
LINE
5
520
100
AcDbEntity
8
0
100
AcDbLine
10
211.06227672321526
20
14.145975232124336
30
0
11
209.59297251550285
21
14.145975232124332
31
0
0
LINE
5
521
100
AcDbEntity
8
0
100
AcDbLine
10
177.92769696563482
20
-9.2346521317958814
30
0
11
177.56139408797026
21
-9.2633015513420087
31
0
0
SPLINE
5
522
100
AcDbEntity
8
0
100
AcDbSpline
70
0
71
2
72
6
73
3
74
0
42
0.000000001
43
0.0000000001
44
0.0000000001
40
0
40
0
40
0
40
1
40
1
40
1
10
177.56139408797026
20
-9.2633015513420087
30
0
10
177.51228090375662
20
-9.0463847517967206
30
0
10
177.42224004119635
20
-8.948158383369444
30
0
0
SPLINE
5
523
100
AcDbEntity
8
0
100
AcDbSpline
70
0
71
2
72
6
73
3
74
0
42
0.000000001
43
0.0000000001
44
0.0000000001
40
0
40
0
40
0
40
1
40
1
40
1
10
177.42224004119635
20
-8.948158383369444
30
0
10
177.27285396307707
20
-8.7905866503715497
30
0
10
177.05389078706503
20
-8.7905866503715497
30
0
0
SPLINE
5
524
100
AcDbEntity
8
0
100
AcDbSpline
70
0
71
2
72
6
73
3
74
0
42
0.000000001
43
0.0000000001
44
0.0000000001
40
0
40
0
40
0
40
1
40
1
40
1
10
177.05389078706503
20
-8.7905866503715497
30
0
10
176.87790166586637
20
-8.7905866503715497
30
0
10
176.74488674849272
20
-8.8888130187988263
30
0
0
SPLINE
5
525
100
AcDbEntity
8
0
100
AcDbSpline
70
0
71
2
72
6
73
3
74
0
42
0.000000001
43
0.0000000001
44
0.0000000001
40
0
40
0
40
0
40
1
40
1
40
1
10
176.74488674849272
20
-8.8888130187988263
30
0
10
176.57094400376081
20
-9.0156889557838422
30
0
10
176.47067110985518
20
-9.2592087984085065
30
0
0
SPLINE
5
526
100
AcDbEntity
8
0
100
AcDbSpline
70
0
71
2
72
6
73
3
74
0
42
0.000000001
43
0.0000000001
44
0.0000000001
40
0
40
0
40
0
40
1
40
1
40
1
10
176.47067110985518
20
-9.2592087984085065
30
0
10
176.37039825320244
20
-9.5027284920215589
30
0
10
176.36630550026894
20
-9.9529332518577558
30
0
0
SPLINE
5
527
100
AcDbEntity
8
0
100
AcDbSpline
70
0
71
2
72
6
73
3
74
0
42
0.000000001
43
0.0000000001
44
0.0000000001
40
0
40
0
40
0
40
1
40
1
40
1
10
176.36630550026894
20
-9.9529332518577558
30
0
10
176.4993205294013
20
-9.7503410875797254
30
0
10
176.69168066233397
20
-9.6521145701408368
30
0
0
SPLINE
5
528
100
AcDbEntity
8
0
100
AcDbSpline
70
0
71
2
72
6
73
3
74
0
42
0.000000001
43
0.0000000001
44
0.0000000001
40
0
40
0
40
0
40
1
40
1
40
1
10
176.69168066233397
20
-9.6521145701408368
30
0
10
176.88404079526663
20
-9.5538882017135602
30
0
10
177.09481846541166
20
-9.5538882017135602
30
0
0
SPLINE
5
529
100
AcDbEntity
8
0
100
AcDbSpline
70
0
71
2
72
6
73
3
74
0
42
0.000000001
43
0.0000000001
44
0.0000000001
40
0
40
0
40
0
40
1
40
1
40
1
10
177.09481846541166
20
-9.5538882017135602
30
0
10
177.46316771954298
20
-9.5538882017135602
30
0
10
177.72203531116247
20
-9.8250342011451703
30
0
0
SPLINE
5
530
100
AcDbEntity
8
0
100
AcDbSpline
70
0
71
2
72
6
73
3
74
0
42
0.000000001
43
0.0000000001
44
0.0000000001
40
0
40
0
40
0
40
1
40
1
40
1
10
177.72203531116247
20
-9.8250342011451703
30
0
10
177.98090305179358
20
-10.096180051565169
30
0
10
177.98090305179358
20
-10.525921046733854
30
0
0
SPLINE
5
531
100
AcDbEntity
8
0
100
AcDbSpline
70
0
71
2
72
6
73
3
74
0
42
0.000000001
43
0.0000000001
44
0.0000000001
40
0
40
0
40
0
40
1
40
1
40
1
10
177.98090305179358
20
-10.525921046733854
30
0
10
177.98090305179358
20
-10.808322191238402
30
0
10
177.85914313048124
20
-11.050818622112272
30
0
0
SPLINE
5
532
100
AcDbEntity
8
0
100
AcDbSpline
70
0
71
2
72
6
73
3
74
0
42
0.000000001
43
0.0000000001
44
0.0000000001
40
0
40
0
40
0
40
1
40
1
40
1
10
177.85914313048124
20
-11.050818622112272
30
0
10
177.73738320916891
20
-11.293315351009367
30
0
10
177.52455916255713
20
-11.422237515449522
30
0
0
SPLINE
5
533
100
AcDbEntity
8
0
100
AcDbSpline
70
0
71
2
72
6
73
3
74
0
42
0.000000001
43
0.0000000001
44
0.0000000001
40
0
40
0
40
0
40
1
40
1
40
1
10
177.52455916255713
20
-11.422237515449522
30
0
10
177.31173526495695
20
-11.551159679889677
30
0
10
177.04161252826452
20
-11.551159679889677
30
0
0
SPLINE
5
534
100
AcDbEntity
8
0
100
AcDbSpline
70
0
71
2
72
6
73
3
74
0
42
0.000000001
43
0.0000000001
44
0.0000000001
40
0
40
0
40
0
40
1
40
1
40
1
10
177.04161252826452
20
-11.551159679889677
30
0
10
176.58117588609457
20
-11.551159679889677
30
0
10
176.29058923572302
20
-11.212483108043669
30
0
0
SPLINE
5
535
100
AcDbEntity
8
0
100
AcDbSpline
70
0
71
2
72
6
73
3
74
0
42
0.000000001
43
0.0000000001
44
0.0000000001
40
0
40
0
40
0
40
1
40
1
40
1
10
176.29058923572302
20
-11.212483108043669
30
0
10
176.00000262260437
20
-10.873806536197661
30
0
10
176.00000262260437
20
-10.096180051565169
30
0
0
SPLINE
5
536
100
AcDbEntity
8
0
100
AcDbSpline
70
0
71
2
72
6
73
3
74
0
42
0.000000001
43
0.0000000001
44
0.0000000001
40
0
40
0
40
0
40
1
40
1
40
1
10
176.00000262260437
20
-10.096180051565169
30
0
10
176.00000262260437
20
-9.226466625928877
30
0
10
176.3212850317359
20
-8.8315144777297956
30
0
0
SPLINE
5
537
100
AcDbEntity
8
0
100
AcDbSpline
70
0
71
2
72
6
73
3
74
0
42
0.000000001
43
0.0000000001
44
0.0000000001
40
0
40
0
40
0
40
1
40
1
40
1
10
176.3212850317359
20
-8.8315144777297956
30
0
10
176.60163972526789
20
-8.4877217411994916
30
0
10
177.0764010772109
20
-8.4877217411994916
30
0
0
SPLINE
5
538
100
AcDbEntity
8
0
100
AcDbSpline
70
0
71
2
72
6
73
3
74
0
42
0.000000001
43
0.0000000001
44
0.0000000001
40
0
40
0
40
0
40
1
40
1
40
1
10
177.0764010772109
20
-8.4877217411994916
30
0
10
177.43042554706335
20
-8.4877217411994916
30
0
10
177.65655111521482
20
-8.6862210035324079
30
0
0
SPLINE
5
539
100
AcDbEntity
8
0
100
AcDbSpline
70
0
71
2
72
6
73
3
74
0
42
0.000000001
43
0.0000000001
44
0.0000000001
40
0
40
0
40
0
40
1
40
1
40
1
10
177.65655111521482
20
-8.6862210035324079
30
0
10
177.88267653435469
20
-8.8847202658653242
30
0
10
177.92769696563482
20
-9.2346521317958814
30
0
0
SPLINE
5
540
100
AcDbEntity
8
0
100
AcDbSpline
70
0
71
2
72
6
73
3
74
0
42
0.000000001
43
0.0000000001
44
0.0000000001
40
0
40
0
40
0
40
1
40
1
40
1
10
176.42360426485538
20
-10.527967274188994
30
0
10
176.42360426485538
20
-10.718281328678129
30
0
10
176.50443647056818
20
-10.892223775386809
30
0
0
SPLINE
5
541
100
AcDbEntity
8
0
100
AcDbSpline
70
0
71
2
72
6
73
3
74
0
42
0.000000001
43
0.0000000001
44
0.0000000001
40
0
40
0
40
0
40
1
40
1
40
1
10
176.50443647056818
20
-10.892223775386809
30
0
10
176.58526863902807
20
-11.066166520118712
30
0
10
176.73056196421385
20
-11.157230794429777
30
0
0
SPLINE
5
542
100
AcDbEntity
8
0
100
AcDbSpline
70
0
71
2
72
6
73
3
74
0
42
0.000000001
43
0.0000000001
44
0.0000000001
40
0
40
0
40
0
40
1
40
1
40
1
10
176.73056196421385
20
-11.157230794429777
30
0
10
176.87585528939962
20
-11.248294770717619
30
0
10
177.03547324985266
20
-11.248294770717619
30
0
0
SPLINE
5
543
100
AcDbEntity
8
0
100
AcDbSpline
70
0
71
2
72
6
73
3
74
0
42
0.000000001
43
0.0000000001
44
0.0000000001
40
0
40
0
40
0
40
1
40
1
40
1
10
177.03547324985266
20
-11.248294770717619
30
0
10
177.26876121014357
20
-11.248294770717619
30
0
10
177.4365646764636
20
-11.06002753973007
30
0
0
SPLINE
5
544
100
AcDbEntity
8
0
100
AcDbSpline
70
0
71
2
72
6
73
3
74
0
42
0.000000001
43
0.0000000001
44
0.0000000001
40
0
40
0
40
0
40
1
40
1
40
1
10
177.4365646764636
20
-11.06002753973007
30
0
10
177.60436829179525
20
-10.871760010719298
30
0
10
177.60436829179525
20
-10.548431336879728
30
0
0
SPLINE
5
545
100
AcDbEntity
8
0
100
AcDbSpline
70
0
71
2
72
6
73
3
74
0
42
0.000000001
43
0.0000000001
44
0.0000000001
40
0
40
0
40
0
40
1
40
1
40
1
10
177.60436829179525
20
-10.548431336879728
30
0
10
177.60436829179525
20
-10.237380623817442
30
0
10
177.43861105293036
20
-10.058322012424467
30
0
0
SPLINE
5
546
100
AcDbEntity
8
0
100
AcDbSpline
70
0
71
2
72
6
73
3
74
0
42
0.000000001
43
0.0000000001
44
0.0000000001
40
0
40
0
40
0
40
1
40
1
40
1
10
177.43861105293036
20
-10.058322012424467
30
0
10
177.27285396307707
20
-9.8792634010314924
30
0
10
177.0211486145854
20
-9.8792634010314924
30
0
0
SPLINE
5
547
100
AcDbEntity
8
0
100
AcDbSpline
70
0
71
2
72
6
73
3
74
0
42
0.000000001
43
0.0000000001
44
0.0000000001
40
0
40
0
40
0
40
1
40
1
40
1
10
177.0211486145854
20
-9.8792634010314924
30
0
10
176.77148964256048
20
-9.8792634010314924
30
0
10
176.59754697233438
20
-10.058322012424467
30
0
0
SPLINE
5
548
100
AcDbEntity
8
0
100
AcDbSpline
70
0
71
2
72
6
73
3
74
0
42
0.000000001
43
0.0000000001
44
0.0000000001
40
0
40
0
40
0
40
1
40
1
40
1
10
176.59754697233438
20
-10.058322012424467
30
0
10
176.42360426485538
20
-10.237380623817442
30
0
10
176.42360426485538
20
-10.527967274188994
30
0
0
LINE
5
549
100
AcDbEntity
8
0
100
AcDbLine
10
177.92769696563482
20
13.76534786820412
30
0
11
177.56139408797026
21
13.736698448657993
31
0
0
SPLINE
5
550
100
AcDbEntity
8
0
100
AcDbSpline
70
0
71
2
72
6
73
3
74
0
42
0.000000001
43
0.0000000001
44
0.0000000001
40
0
40
0
40
0
40
1
40
1
40
1
10
177.56139408797026
20
13.736698448657993
30
0
10
177.51228090375662
20
13.953615248203281
30
0
10
177.42224004119635
20
14.051841616630558
30
0
0
SPLINE
5
551
100
AcDbEntity
8
0
100
AcDbSpline
70
0
71
2
72
6
73
3
74
0
42
0.000000001
43
0.0000000001
44
0.0000000001
40
0
40
0
40
0
40
1
40
1
40
1
10
177.42224004119635
20
14.051841616630558
30
0
10
177.27285396307707
20
14.209413349628452
30
0
10
177.05389078706503
20
14.209413349628452
30
0
0
SPLINE
5
552
100
AcDbEntity
8
0
100
AcDbSpline
70
0
71
2
72
6
73
3
74
0
42
0.000000001
43
0.0000000001
44
0.0000000001
40
0
40
0
40
0
40
1
40
1
40
1
10
177.05389078706503
20
14.209413349628452
30
0
10
176.87790166586637
20
14.209413349628452
30
0
10
176.74488674849272
20
14.111186981201175
30
0
0
SPLINE
5
553
100
AcDbEntity
8
0
100
AcDbSpline
70
0
71
2
72
6
73
3
74
0
42
0.000000001
43
0.0000000001
44
0.0000000001
40
0
40
0
40
0
40
1
40
1
40
1
10
176.74488674849272
20
14.111186981201175
30
0
10
176.57094400376081
20
13.98431104421616
30
0
10
176.47067110985518
20
13.740791201591495
30
0
0
SPLINE
5
554
100
AcDbEntity
8
0
100
AcDbSpline
70
0
71
2
72
6
73
3
74
0
42
0.000000001
43
0.0000000001
44
0.0000000001
40
0
40
0
40
0
40
1
40
1
40
1
10
176.47067110985518
20
13.740791201591495
30
0
10
176.37039825320244
20
13.497271507978443
30
0
10
176.36630550026894
20
13.047066748142246
30
0
0
SPLINE
5
555
100
AcDbEntity
8
0
100
AcDbSpline
70
0
71
2
72
6
73
3
74
0
42
0.000000001
43
0.0000000001
44
0.0000000001
40
0
40
0
40
0
40
1
40
1
40
1
10
176.36630550026894
20
13.047066748142246
30
0
10
176.4993205294013
20
13.249658912420276
30
0
10
176.69168066233397
20
13.347885429859165
30
0
0
SPLINE
5
556
100
AcDbEntity
8
0
100
AcDbSpline
70
0
71
2
72
6
73
3
74
0
42
0.000000001
43
0.0000000001
44
0.0000000001
40
0
40
0
40
0
40
1
40
1
40
1
10
176.69168066233397
20
13.347885429859165
30
0
10
176.88404079526663
20
13.446111798286442
30
0
10
177.09481846541166
20
13.446111798286442
30
0
0
SPLINE
5
557
100
AcDbEntity
8
0
100
AcDbSpline
70
0
71
2
72
6
73
3
74
0
42
0.000000001
43
0.0000000001
44
0.0000000001
40
0
40
0
40
0
40
1
40
1
40
1
10
177.09481846541166
20
13.446111798286442
30
0
10
177.46316771954298
20
13.446111798286442
30
0
10
177.72203531116247
20
13.174965798854831
30
0
0
SPLINE
5
558
100
AcDbEntity
8
0
100
AcDbSpline
70
0
71
2
72
6
73
3
74
0
42
0.000000001
43
0.0000000001
44
0.0000000001
40
0
40
0
40
0
40
1
40
1
40
1
10
177.72203531116247
20
13.174965798854831
30
0
10
177.98090305179358
20
12.903819948434833
30
0
10
177.98090305179358
20
12.474078953266147
30
0
0
SPLINE
5
559
100
AcDbEntity
8
0
100
AcDbSpline
70
0
71
2
72
6
73
3
74
0
42
0.000000001
43
0.0000000001
44
0.0000000001
40
0
40
0
40
0
40
1
40
1
40
1
10
177.98090305179358
20
12.474078953266147
30
0
10
177.98090305179358
20
12.1916778087616
30
0
10
177.85914313048124
20
11.949181377887729
30
0
0
SPLINE
5
560
100
AcDbEntity
8
0
100
AcDbSpline
70
0
71
2
72
6
73
3
74
0
42
0.000000001
43
0.0000000001
44
0.0000000001
40
0
40
0
40
0
40
1
40
1
40
1
10
177.85914313048124
20
11.949181377887729
30
0
10
177.73738320916891
20
11.706684648990635
30
0
10
177.52455916255713
20
11.57776248455048
30
0
0
SPLINE
5
561
100
AcDbEntity
8
0
100
AcDbSpline
70
0
71
2
72
6
73
3
74
0
42
0.000000001
43
0.0000000001
44
0.0000000001
40
0
40
0
40
0
40
1
40
1
40
1
10
177.52455916255713
20
11.57776248455048
30
0
10
177.31173526495695
20
11.448840320110325
30
0
10
177.04161252826452
20
11.448840320110325
30
0
0
SPLINE
5
562
100
AcDbEntity
8
0
100
AcDbSpline
70
0
71
2
72
6
73
3
74
0
42
0.000000001
43
0.0000000001
44
0.0000000001
40
0
40
0
40
0
40
1
40
1
40
1
10
177.04161252826452
20
11.448840320110325
30
0
10
176.58117588609457
20
11.448840320110325
30
0
10
176.29058923572302
20
11.787516891956333
30
0
0
SPLINE
5
563
100
AcDbEntity
8
0
100
AcDbSpline
70
0
71
2
72
6
73
3
74
0
42
0.000000001
43
0.0000000001
44
0.0000000001
40
0
40
0
40
0
40
1
40
1
40
1
10
176.29058923572302
20
11.787516891956333
30
0
10
176.00000262260437
20
12.126193463802341
30
0
10
176.00000262260437
20
12.903819948434833
30
0
0
SPLINE
5
564
100
AcDbEntity
8
0
100
AcDbSpline
70
0
71
2
72
6
73
3
74
0
42
0.000000001
43
0.0000000001
44
0.0000000001
40
0
40
0
40
0
40
1
40
1
40
1
10
176.00000262260437
20
12.903819948434833
30
0
10
176.00000262260437
20
13.773533374071125
30
0
10
176.3212850317359
20
14.168485522270206
30
0
0
SPLINE
5
565
100
AcDbEntity
8
0
100
AcDbSpline
70
0
71
2
72
6
73
3
74
0
42
0.000000001
43
0.0000000001
44
0.0000000001
40
0
40
0
40
0
40
1
40
1
40
1
10
176.3212850317359
20
14.168485522270206
30
0
10
176.60163972526789
20
14.51227825880051
30
0
10
177.0764010772109
20
14.51227825880051
30
0
0
SPLINE
5
566
100
AcDbEntity
8
0
100
AcDbSpline
70
0
71
2
72
6
73
3
74
0
42
0.000000001
43
0.0000000001
44
0.0000000001
40
0
40
0
40
0
40
1
40
1
40
1
10
177.0764010772109
20
14.51227825880051
30
0
10
177.43042554706335
20
14.51227825880051
30
0
10
177.65655111521482
20
14.313778996467594
30
0
0
SPLINE
5
567
100
AcDbEntity
8
0
100
AcDbSpline
70
0
71
2
72
6
73
3
74
0
42
0.000000001
43
0.0000000001
44
0.0000000001
40
0
40
0
40
0
40
1
40
1
40
1
10
177.65655111521482
20
14.313778996467594
30
0
10
177.88267653435469
20
14.115279734134678
30
0
10
177.92769696563482
20
13.76534786820412
30
0
0
SPLINE
5
568
100
AcDbEntity
8
0
100
AcDbSpline
70
0
71
2
72
6
73
3
74
0
42
0.000000001
43
0.0000000001
44
0.0000000001
40
0
40
0
40
0
40
1
40
1
40
1
10
176.42360426485538
20
12.472032725811008
30
0
10
176.42360426485538
20
12.281718671321872
30
0
10
176.50443647056818
20
12.107776224613193
30
0
0
SPLINE
5
569
100
AcDbEntity
8
0
100
AcDbSpline
70
0
71
2
72
6
73
3
74
0
42
0.000000001
43
0.0000000001
44
0.0000000001
40
0
40
0
40
0
40
1
40
1
40
1
10
176.50443647056818
20
12.107776224613193
30
0
10
176.58526863902807
20
11.93383347988129
30
0
10
176.73056196421385
20
11.842769205570224
30
0
0
SPLINE
5
570
100
AcDbEntity
8
0
100
AcDbSpline
70
0
71
2
72
6
73
3
74
0
42
0.000000001
43
0.0000000001
44
0.0000000001
40
0
40
0
40
0
40
1
40
1
40
1
10
176.73056196421385
20
11.842769205570224
30
0
10
176.87585528939962
20
11.751705229282383
30
0
10
177.03547324985266
20
11.751705229282383
30
0
0
SPLINE
5
571
100
AcDbEntity
8
0
100
AcDbSpline
70
0
71
2
72
6
73
3
74
0
42
0.000000001
43
0.0000000001
44
0.0000000001
40
0
40
0
40
0
40
1
40
1
40
1
10
177.03547324985266
20
11.751705229282383
30
0
10
177.26876121014357
20
11.751705229282383
30
0
10
177.4365646764636
20
11.939972460269932
30
0
0
SPLINE
5
572
100
AcDbEntity
8
0
100
AcDbSpline
70
0
71
2
72
6
73
3
74
0
42
0.000000001
43
0.0000000001
44
0.0000000001
40
0
40
0
40
0
40
1
40
1
40
1
10
177.4365646764636
20
11.939972460269932
30
0
10
177.60436829179525
20
12.128239989280704
30
0
10
177.60436829179525
20
12.451568663120273
30
0
0
SPLINE
5
573
100
AcDbEntity
8
0
100
AcDbSpline
70
0
71
2
72
6
73
3
74
0
42
0.000000001
43
0.0000000001
44
0.0000000001
40
0
40
0
40
0
40
1
40
1
40
1
10
177.60436829179525
20
12.451568663120273
30
0
10
177.60436829179525
20
12.76261937618256
30
0
10
177.43861105293036
20
12.941677987575535
30
0
0
SPLINE
5
574
100
AcDbEntity
8
0
100
AcDbSpline
70
0
71
2
72
6
73
3
74
0
42
0.000000001
43
0.0000000001
44
0.0000000001
40
0
40
0
40
0
40
1
40
1
40
1
10
177.43861105293036
20
12.941677987575535
30
0
10
177.27285396307707
20
13.120736598968509
30
0
10
177.0211486145854
20
13.120736598968509
30
0
0
SPLINE
5
575
100
AcDbEntity
8
0
100
AcDbSpline
70
0
71
2
72
6
73
3
74
0
42
0.000000001
43
0.0000000001
44
0.0000000001
40
0
40
0
40
0
40
1
40
1
40
1
10
177.0211486145854
20
13.120736598968509
30
0
10
176.77148964256048
20
13.120736598968509
30
0
10
176.59754697233438
20
12.941677987575535
30
0
0
SPLINE
5
576
100
AcDbEntity
8
0
100
AcDbSpline
70
0
71
2
72
6
73
3
74
0
42
0.000000001
43
0.0000000001
44
0.0000000001
40
0
40
0
40
0
40
1
40
1
40
1
10
176.59754697233438
20
12.941677987575535
30
0
10
176.42360426485538
20
12.76261937618256
30
0
10
176.42360426485538
20
12.472032725811008
30
0
0
LINE
5
577
100
AcDbEntity
8
0
100
AcDbLine
10
144.00000214576721
20
-10.673260450363157
30
0
11
144.38676886260509
21
-10.64051842689514
31
0
0
SPLINE
5
578
100
AcDbEntity
8
0
100
AcDbSpline
70
0
71
2
72
6
73
3
74
0
42
0.000000001
43
0.0000000001
44
0.0000000001
40
0
40
0
40
0
40
1
40
1
40
1
10
144.38676886260509
20
-10.64051842689514
30
0
10
144.42974295467138
20
-10.922919571399687
30
0
10
144.58629135042429
20
-11.065143108367918
30
0
0
SPLINE
5
579
100
AcDbEntity
8
0
100
AcDbSpline
70
0
71
2
72
6
73
3
74
0
42
0.000000001
43
0.0000000001
44
0.0000000001
40
0
40
0
40
0
40
1
40
1
40
1
10
144.58629135042429
20
-11.065143108367918
30
0
10
144.742839820683
20
-11.207366943359373
30
0
10
144.96384937316179
20
-11.207366943359373
30
0
0
SPLINE
5
580
100
AcDbEntity
8
0
100
AcDbSpline
70
0
71
2
72
6
73
3
74
0
42
0.000000001
43
0.0000000001
44
0.0000000001
40
0
40
0
40
0
40
1
40
1
40
1
10
144.96384937316179
20
-11.207366943359373
30
0
10
145.22987935692072
20
-11.207366943359373
30
0
10
145.41405398398638
20
-11.006821155548094
30
0
0
SPLINE
5
581
100
AcDbEntity
8
0
100
AcDbSpline
70
0
71
2
72
6
73
3
74
0
42
0.000000001
43
0.0000000001
44
0.0000000001
40
0
40
0
40
0
40
1
40
1
40
1
10
145.41405398398638
20
-11.006821155548094
30
0
10
145.59822861105204
20
-10.806275665760039
30
0
10
145.59822861105204
20
-10.474761486053465
30
0
0
SPLINE
5
582
100
AcDbEntity
8
0
100
AcDbSpline
70
0
71
2
72
6
73
3
74
0
42
0.000000001
43
0.0000000001
44
0.0000000001
40
0
40
0
40
0
40
1
40
1
40
1
10
145.59822861105204
20
-10.474761486053465
30
0
10
145.59822861105204
20
-10.159618020057676
30
0
10
145.42121637612581
20
-9.977489769458769
30
0
0
SPLINE
5
583
100
AcDbEntity
8
0
100
AcDbSpline
70
0
71
2
72
6
73
3
74
0
42
0.000000001
43
0.0000000001
44
0.0000000001
40
0
40
0
40
0
40
1
40
1
40
1
10
145.42121637612581
20
-9.977489769458769
30
0
10
145.24420414119959
20
-9.7953615188598615
30
0
10
144.95771024376154
20
-9.7953615188598615
30
0
0
SPLINE
5
584
100
AcDbEntity
8
0
100
AcDbSpline
70
0
71
2
72
6
73
3
74
0
42
0.000000001
43
0.0000000001
44
0.0000000001
40
0
40
0
40
0
40
1
40
1
40
1
10
144.95771024376154
20
-9.7953615188598615
30
0
10
144.77967474609613
20
-9.7953615188598615
30
0
10
144.63642779737711
20
-9.8761937618255597
30
0
0
SPLINE
5
585
100
AcDbEntity
8
0
100
AcDbSpline
70
0
71
2
72
6
73
3
74
0
42
0.000000001
43
0.0000000001
44
0.0000000001
40
0
40
0
40
0
40
1
40
1
40
1
10
144.63642779737711
20
-9.8761937618255597
30
0
10
144.49318084865808
20
-9.9570258557796461
30
0
10
144.41132549196482
20
-10.085948169231413
30
0
0
LINE
5
586
100
AcDbEntity
8
0
100
AcDbLine
10
144.41132549196482
20
-10.085948169231413
30
0
11
144.06548645347357
21
-10.040927737951277
31
0
0
LINE
5
587
100
AcDbEntity
8
0
100
AcDbLine
10
144.06548645347357
20
-10.040927737951277
30
0
11
144.35607310384512
21
-8.4999999999999982
31
0
0
LINE
5
588
100
AcDbEntity
8
0
100
AcDbLine
10
144.35607310384512
20
-8.4999999999999982
30
0
11
145.84788758307695
21
-8.4999999999999982
31
0
0
LINE
5
589
100
AcDbEntity
8
0
100
AcDbLine
10
145.84788758307695
20
-8.4999999999999982
30
0
11
145.84788758307695
21
-8.8519782423973066
31
0
0
LINE
5
590
100
AcDbEntity
8
0
100
AcDbLine
10
145.84788758307695
20
-8.8519782423973066
30
0
11
144.65075243264437
21
-8.8519782423973066
31
0
0
LINE
5
591
100
AcDbEntity
8
0
100
AcDbLine
10
144.65075243264437
20
-8.8519782423973066
30
0
11
144.48908809572458
21
-9.6582538485527021
31
0
0
SPLINE
5
592
100
AcDbEntity
8
0
100
AcDbSpline
70
0
71
2
72
6
73
3
74
0
42
0.000000001
43
0.0000000001
44
0.0000000001
40
0
40
0
40
0
40
1
40
1
40
1
10
144.48908809572458
20
-9.6582538485527021
30
0
10
144.75921083241701
20
-9.4699863195419294
30
0
10
145.05593661218882
20
-9.4699863195419294
30
0
0
SPLINE
5
593
100
AcDbEntity
8
0
100
AcDbSpline
70
0
71
2
72
6
73
3
74
0
42
0.000000001
43
0.0000000001
44
0.0000000001
40
0
40
0
40
0
40
1
40
1
40
1
10
145.05593661218882
20
-9.4699863195419294
30
0
10
145.44884253293276
20
-9.4699863195419294
30
0
10
145.7189654186368
20
-9.742155581712721
30
0
0
SPLINE
5
594
100
AcDbEntity
8
0
100
AcDbSpline
70
0
71
2
72
6
73
3
74
0
42
0.000000001
43
0.0000000001
44
0.0000000001
40
0
40
0
40
0
40
1
40
1
40
1
10
145.7189654186368
20
-9.742155581712721
30
0
10
145.98908815532923
20
-10.014324694871901
30
0
10
145.98908815532923
20
-10.442019164562224
30
0
0
SPLINE
5
595
100
AcDbEntity
8
0
100
AcDbSpline
70
0
71
2
72
6
73
3
74
0
42
0.000000001
43
0.0000000001
44
0.0000000001
40
0
40
0
40
0
40
1
40
1
40
1
10
145.98908815532923
20
-10.442019164562224
30
0
10
145.98908815532923
20
-10.849249720573424
30
0
10
145.75170759111643
20
-11.145975351333616
30
0
0
SPLINE
5
596
100
AcDbEntity
8
0
100
AcDbSpline
70
0
71
2
72
6
73
3
74
0
42
0.000000001
43
0.0000000001
44
0.0000000001
40
0
40
0
40
0
40
1
40
1
40
1
10
145.75170759111643
20
-11.145975351333616
30
0
10
145.46316731721163
20
-11.510231852531431
30
0
10
144.96384937316179
20
-11.510231852531431
30
0
0
SPLINE
5
597
100
AcDbEntity
8
0
100
AcDbSpline
70
0
71
2
72
6
73
3
74
0
42
0.000000001
43
0.0000000001
44
0.0000000001
40
0
40
0
40
0
40
1
40
1
40
1
10
144.96384937316179
20
-11.510231852531431
30
0
10
144.55457244068384
20
-11.510231852531431
30
0
10
144.29570473730564
20
-11.281036794185637
30
0
0
SPLINE
5
598
100
AcDbEntity
8
0
100
AcDbSpline
70
0
71
2
72
6
73
3
74
0
42
0.000000001
43
0.0000000001
44
0.0000000001
40
0
40
0
40
0
40
1
40
1
40
1
10
144.29570473730564
20
-11.281036794185637
30
0
10
144.03683707118034
20
-11.051841735839842
30
0
10
144.00000214576721
20
-10.673260450363157
30
0
0
LINE
5
599
100
AcDbEntity
8
0
100
AcDbLine
10
144.00000214576721
20
12.326739549636844
30
0
11
144.38676886260509
21
12.359481573104862
31
0
0
SPLINE
5
600
100
AcDbEntity
8
0
100
AcDbSpline
70
0
71
2
72
6
73
3
74
0
42
0.000000001
43
0.0000000001
44
0.0000000001
40
0
40
0
40
0
40
1
40
1
40
1
10
144.38676886260509
20
12.359481573104862
30
0
10
144.42974295467138
20
12.077080428600315
30
0
10
144.58629135042429
20
11.934856891632084
30
0
0
SPLINE
5
601
100
AcDbEntity
8
0
100
AcDbSpline
70
0
71
2
72
6
73
3
74
0
42
0.000000001
43
0.0000000001
44
0.0000000001
40
0
40
0
40
0
40
1
40
1
40
1
10
144.58629135042429
20
11.934856891632084
30
0
10
144.742839820683
20
11.792633056640629
30
0
10
144.96384937316179
20
11.792633056640629
30
0
0
SPLINE
5
602
100
AcDbEntity
8
0
100
AcDbSpline
70
0
71
2
72
6
73
3
74
0
42
0.000000001
43
0.0000000001
44
0.0000000001
40
0
40
0
40
0
40
1
40
1
40
1
10
144.96384937316179
20
11.792633056640629
30
0
10
145.22987935692072
20
11.792633056640629
30
0
10
145.41405398398638
20
11.993178844451908
30
0
0
SPLINE
5
603
100
AcDbEntity
8
0
100
AcDbSpline
70
0
71
2
72
6
73
3
74
0
42
0.000000001
43
0.0000000001
44
0.0000000001
40
0
40
0
40
0
40
1
40
1
40
1
10
145.41405398398638
20
11.993178844451908
30
0
10
145.59822861105204
20
12.193724334239963
30
0
10
145.59822861105204
20
12.525238513946537
30
0
0
SPLINE
5
604
100
AcDbEntity
8
0
100
AcDbSpline
70
0
71
2
72
6
73
3
74
0
42
0.000000001
43
0.0000000001
44
0.0000000001
40
0
40
0
40
0
40
1
40
1
40
1
10
145.59822861105204
20
12.525238513946537
30
0
10
145.59822861105204
20
12.840381979942325
30
0
10
145.42121637612581
20
13.022510230541233
30
0
0
SPLINE
5
605
100
AcDbEntity
8
0
100
AcDbSpline
70
0
71
2
72
6
73
3
74
0
42
0.000000001
43
0.0000000001
44
0.0000000001
40
0
40
0
40
0
40
1
40
1
40
1
10
145.42121637612581
20
13.022510230541233
30
0
10
145.24420414119959
20
13.20463848114014
30
0
10
144.95771024376154
20
13.20463848114014
30
0
0
SPLINE
5
606
100
AcDbEntity
8
0
100
AcDbSpline
70
0
71
2
72
6
73
3
74
0
42
0.000000001
43
0.0000000001
44
0.0000000001
40
0
40
0
40
0
40
1
40
1
40
1
10
144.95771024376154
20
13.20463848114014
30
0
10
144.77967474609613
20
13.20463848114014
30
0
10
144.63642779737711
20
13.123806238174442
30
0
0
SPLINE
5
607
100
AcDbEntity
8
0
100
AcDbSpline
70
0
71
2
72
6
73
3
74
0
42
0.000000001
43
0.0000000001
44
0.0000000001
40
0
40
0
40
0
40
1
40
1
40
1
10
144.63642779737711
20
13.123806238174442
30
0
10
144.49318084865808
20
13.042974144220356
30
0
10
144.41132549196482
20
12.914051830768589
30
0
0
LINE
5
608
100
AcDbEntity
8
0
100
AcDbLine
10
144.41132549196482
20
12.914051830768589
30
0
11
144.06548645347357
21
12.959072262048725
31
0
0
LINE
5
609
100
AcDbEntity
8
0
100
AcDbLine
10
144.06548645347357
20
12.959072262048725
30
0
11
144.35607310384512
21
14.500000000000004
31
0
0
LINE
5
610
100
AcDbEntity
8
0
100
AcDbLine
10
144.35607310384512
20
14.500000000000004
30
0
11
145.84788758307695
21
14.500000000000004
31
0
0
LINE
5
611
100
AcDbEntity
8
0
100
AcDbLine
10
145.84788758307695
20
14.500000000000004
30
0
11
145.84788758307695
21
14.148021757602695
31
0
0
LINE
5
612
100
AcDbEntity
8
0
100
AcDbLine
10
145.84788758307695
20
14.148021757602695
30
0
11
144.65075243264437
21
14.148021757602695
31
0
0
LINE
5
613
100
AcDbEntity
8
0
100
AcDbLine
10
144.65075243264437
20
14.148021757602695
30
0
11
144.48908809572458
21
13.3417461514473
31
0
0
SPLINE
5
614
100
AcDbEntity
8
0
100
AcDbSpline
70
0
71
2
72
6
73
3
74
0
42
0.000000001
43
0.0000000001
44
0.0000000001
40
0
40
0
40
0
40
1
40
1
40
1
10
144.48908809572458
20
13.3417461514473
30
0
10
144.75921083241701
20
13.530013680458072
30
0
10
145.05593661218882
20
13.530013680458072
30
0
0
SPLINE
5
615
100
AcDbEntity
8
0
100
AcDbSpline
70
0
71
2
72
6
73
3
74
0
42
0.000000001
43
0.0000000001
44
0.0000000001
40
0
40
0
40
0
40
1
40
1
40
1
10
145.05593661218882
20
13.530013680458072
30
0
10
145.44884253293276
20
13.530013680458072
30
0
10
145.7189654186368
20
13.257844418287281
30
0
0
SPLINE
5
616
100
AcDbEntity
8
0
100
AcDbSpline
70
0
71
2
72
6
73
3
74
0
42
0.000000001
43
0.0000000001
44
0.0000000001
40
0
40
0
40
0
40
1
40
1
40
1
10
145.7189654186368
20
13.257844418287281
30
0
10
145.98908815532923
20
12.985675305128101
30
0
10
145.98908815532923
20
12.557980835437778
30
0
0
SPLINE
5
617
100
AcDbEntity
8
0
100
AcDbSpline
70
0
71
2
72
6
73
3
74
0
42
0.000000001
43
0.0000000001
44
0.0000000001
40
0
40
0
40
0
40
1
40
1
40
1
10
145.98908815532923
20
12.557980835437778
30
0
10
145.98908815532923
20
12.150750279426578
30
0
10
145.75170759111643
20
11.854024648666385
30
0
0
SPLINE
5
618
100
AcDbEntity
8
0
100
AcDbSpline
70
0
71
2
72
6
73
3
74
0
42
0.000000001
43
0.0000000001
44
0.0000000001
40
0
40
0
40
0
40
1
40
1
40
1
10
145.75170759111643
20
11.854024648666385
30
0
10
145.46316731721163
20
11.48976814746857
30
0
10
144.96384937316179
20
11.48976814746857
30
0
0
SPLINE
5
619
100
AcDbEntity
8
0
100
AcDbSpline
70
0
71
2
72
6
73
3
74
0
42
0.000000001
43
0.0000000001
44
0.0000000001
40
0
40
0
40
0
40
1
40
1
40
1
10
144.96384937316179
20
11.48976814746857
30
0
10
144.55457244068384
20
11.48976814746857
30
0
10
144.29570473730564
20
11.718963205814365
30
0
0
SPLINE
5
620
100
AcDbEntity
8
0
100
AcDbSpline
70
0
71
2
72
6
73
3
74
0
42
0.000000001
43
0.0000000001
44
0.0000000001
40
0
40
0
40
0
40
1
40
1
40
1
10
144.29570473730564
20
11.718963205814365
30
0
10
144.03683707118034
20
11.94815826416016
30
0
10
144.00000214576721
20
12.326739549636844
30
0
0
LWPOLYLINE
5
621
100
AcDbEntity
8
0
100
AcDbPolyline
90
11
70
1
43
0.0
10
112.30150223709643
20
11.499999880790714
10
112.30150223709643
20
12.218280851840976
10
111.00000165402889
20
12.218280851840976
10
111.00000165402889
20
12.555934309959415
10
112.36903295852244
20
14.500000000000004
10
112.66985149122775
20
14.500000000000004
10
112.66985149122775
20
12.555934309959415
10
113.07503567077219
20
12.555934309959415
10
113.07503567077219
20
12.218280851840976
10
112.66985149122775
20
12.218280851840976
10
112.66985149122775
20
11.499999880790714
0
LWPOLYLINE
5
622
100
AcDbEntity
8
0
100
AcDbPolyline
90
3
70
1
43
0.0
10
112.30150223709643
20
12.555934309959415
10
112.30150223709643
20
13.908594816923145
10
111.36221175082028
20
12.555934309959415
0
LWPOLYLINE
5
623
100
AcDbEntity
8
0
100
AcDbPolyline
90
11
70
1
43
0.0
10
112.30150223709643
20
-11.500000119209288
10
112.30150223709643
20
-10.781719148159025
10
111.00000165402889
20
-10.781719148159025
10
111.00000165402889
20
-10.444065690040587
10
112.36903295852244
20
-8.4999999999999982
10
112.66985149122775
20
-8.4999999999999982
10
112.66985149122775
20
-10.444065690040587
10
113.07503567077219
20
-10.444065690040587
10
113.07503567077219
20
-10.781719148159025
10
112.66985149122775
20
-10.781719148159025
10
112.66985149122775
20
-11.500000119209288
0
LWPOLYLINE
5
624
100
AcDbEntity
8
0
100
AcDbPolyline
90
3
70
1
43
0.0
10
112.30150223709643
20
-10.444065690040587
10
112.30150223709643
20
-9.0914051830768567
10
111.36221175082028
20
-10.444065690040587
0
LINE
5
625
100
AcDbEntity
8
0
100
AcDbLine
10
79.000001177191734
20
12.29195070266724
30
0
11
79.368350431323051
21
12.34106403589249
31
0
0
SPLINE
5
626
100
AcDbEntity
8
0
100
AcDbSpline
70
0
71
2
72
6
73
3
74
0
42
0.000000001
43
0.0000000001
44
0.0000000001
40
0
40
0
40
0
40
1
40
1
40
1
10
79.368350431323051
20
12.34106403589249
30
0
10
79.431788362562656
20
12.027967095375065
30
0
10
79.584244005382061
20
11.889836013317112
30
0
0
SPLINE
5
627
100
AcDbEntity
8
0
100
AcDbSpline
70
0
71
2
72
6
73
3
74
0
42
0.000000001
43
0.0000000001
44
0.0000000001
40
0
40
0
40
0
40
1
40
1
40
1
10
79.584244005382061
20
11.889836013317112
30
0
10
79.736699722707272
20
11.751705229282383
30
0
10
79.955662898719311
20
11.751705229282383
30
0
0
SPLINE
5
628
100
AcDbEntity
8
0
100
AcDbSpline
70
0
71
2
72
6
73
3
74
0
42
0.000000001
43
0.0000000001
44
0.0000000001
40
0
40
0
40
0
40
1
40
1
40
1
10
79.955662898719311
20
11.751705229282383
30
0
10
80.215553753077984
20
11.751705229282383
30
0
10
80.394612364470959
20
11.931786954402927
30
0
0
SPLINE
5
629
100
AcDbEntity
8
0
100
AcDbSpline
70
0
71
2
72
6
73
3
74
0
42
0.000000001
43
0.0000000001
44
0.0000000001
40
0
40
0
40
0
40
1
40
1
40
1
10
80.394612364470959
20
11.931786954402927
30
0
10
80.573671124875546
20
12.111868977546695
30
0
10
80.573671124875546
20
12.377899110317234
30
0
0
SPLINE
5
630
100
AcDbEntity
8
0
100
AcDbSpline
70
0
71
2
72
6
73
3
74
0
42
0.000000001
43
0.0000000001
44
0.0000000001
40
0
40
0
40
0
40
1
40
1
40
1
10
80.573671124875546
20
12.377899110317234
30
0
10
80.573671124875546
20
12.631650686264042
30
0
10
80.407913886010647
20
12.796384662389759
30
0
0
SPLINE
5
631
100
AcDbEntity
8
0
100
AcDbSpline
70
0
71
2
72
6
73
3
74
0
42
0.000000001
43
0.0000000001
44
0.0000000001
40
0
40
0
40
0
40
1
40
1
40
1
10
80.407913886010647
20
12.796384662389759
30
0
10
80.24215679615736
20
12.961118638515476
30
0
10
79.986358694732189
20
12.961118638515476
30
0
0
SPLINE
5
632
100
AcDbEntity
8
0
100
AcDbSpline
70
0
71
2
72
6
73
3
74
0
42
0.000000001
43
0.0000000001
44
0.0000000001
40
0
40
0
40
0
40
1
40
1
40
1
10
79.986358694732189
20
12.961118638515476
30
0
10
79.881993047893047
20
12.961118638515476
30
0
10
79.726467840373516
20
12.920190960168842
30
0
0
LINE
5
633
100
AcDbEntity
8
0
100
AcDbLine
10
79.726467840373502
20
12.920190960168842
30
0
11
79.76739551872015
21
13.243519783020023
31
0
0
SPLINE
5
634
100
AcDbEntity
8
0
100
AcDbSpline
70
0
71
2
72
6
73
3
74
0
42
0.000000001
43
0.0000000001
44
0.0000000001
40
0
40
0
40
0
40
1
40
1
40
1
10
79.76739551872015
20
13.243519783020023
30
0
10
79.804230444133282
20
13.239427030086521
30
0
10
79.826740585267544
20
13.239427030086521
30
0
0
SPLINE
5
635
100
AcDbEntity
8
0
100
AcDbSpline
70
0
71
2
72
6
73
3
74
0
42
0.000000001
43
0.0000000001
44
0.0000000001
40
0
40
0
40
0
40
1
40
1
40
1
10
79.826740585267544
20
13.239427030086521
30
0
10
80.062074922025204
20
13.239427030086521
30
0
10
80.250342302024364
20
13.362210065126423
30
0
0
SPLINE
5
636
100
AcDbEntity
8
0
100
AcDbSpline
70
0
71
2
72
6
73
3
74
0
42
0.000000001
43
0.0000000001
44
0.0000000001
40
0
40
0
40
0
40
1
40
1
40
1
10
80.250342302024364
20
13.362210065126423
30
0
10
80.438609682023525
20
13.484993100166324
30
0
10
80.438609682023525
20
13.740791201591495
30
0
0
SPLINE
5
637
100
AcDbEntity
8
0
100
AcDbSpline
70
0
71
2
72
6
73
3
74
0
42
0.000000001
43
0.0000000001
44
0.0000000001
40
0
40
0
40
0
40
1
40
1
40
1
10
80.438609682023525
20
13.740791201591495
30
0
10
80.438609682023525
20
13.943383365869526
30
0
10
80.301501862704754
20
14.076398134231571
30
0
0
SPLINE
5
638
100
AcDbEntity
8
0
100
AcDbSpline
70
0
71
2
72
6
73
3
74
0
42
0.000000001
43
0.0000000001
44
0.0000000001
40
0
40
0
40
0
40
1
40
1
40
1
10
80.301501862704754
20
14.076398134231571
30
0
10
80.164394043385983
20
14.209413349628452
30
0
10
79.947477392852306
20
14.209413349628452
30
0
0
SPLINE
5
639
100
AcDbEntity
8
0
100
AcDbSpline
70
0
71
2
72
6
73
3
74
0
42
0.000000001
43
0.0000000001
44
0.0000000001
40
0
40
0
40
0
40
1
40
1
40
1
10
79.947477392852306
20
14.209413349628452
30
0
10
79.732606969773769
20
14.209413349628452
30
0
10
79.589360021054745
20
14.074351906776432
30
0
0
SPLINE
5
640
100
AcDbEntity
8
0
100
AcDbSpline
70
0
71
2
72
6
73
3
74
0
42
0.000000001
43
0.0000000001
44
0.0000000001
40
0
40
0
40
0
40
1
40
1
40
1
10
79.589360021054745
20
14.074351906776432
30
0
10
79.44611307233572
20
13.939290612936023
30
0
10
79.405185356736183
20
13.669167727231983
30
0
0
LINE
5
641
100
AcDbEntity
8
0
100
AcDbLine
10
79.405185356736183
20
13.669167727231983
30
0
11
79.036836102604866
21
13.734652072191242
31
0
0
SPLINE
5
642
100
AcDbEntity
8
0
100
AcDbSpline
70
0
71
2
72
6
73
3
74
0
42
0.000000001
43
0.0000000001
44
0.0000000001
40
0
40
0
40
0
40
1
40
1
40
1
10
79.036836102604866
20
13.734652072191242
30
0
10
79.104366786777973
20
14.10504770278931
30
0
10
79.343793801963329
20
14.308662831783298
30
0
0
SPLINE
5
643
100
AcDbEntity
8
0
100
AcDbSpline
70
0
71
2
72
6
73
3
74
0
42
0.000000001
43
0.0000000001
44
0.0000000001
40
0
40
0
40
0
40
1
40
1
40
1
10
79.343793801963329
20
14.308662831783298
30
0
10
79.583220817148685
20
14.51227825880051
30
0
10
79.93929173797369
20
14.51227825880051
30
0
0
SPLINE
5
644
100
AcDbEntity
8
0
100
AcDbSpline
70
0
71
2
72
6
73
3
74
0
42
0.000000001
43
0.0000000001
44
0.0000000001
40
0
40
0
40
0
40
1
40
1
40
1
10
79.93929173797369
20
14.51227825880051
30
0
10
80.184857957065105
20
14.51227825880051
30
0
10
80.391542874276638
20
14.406889498233799
30
0
0
SPLINE
5
645
100
AcDbEntity
8
0
100
AcDbSpline
70
0
71
2
72
6
73
3
74
0
42
0.000000001
43
0.0000000001
44
0.0000000001
40
0
40
0
40
0
40
1
40
1
40
1
10
80.391542874276638
20
14.406889498233799
30
0
10
80.598227642476559
20
14.301500439643863
30
0
10
80.707709304988384
20
14.119372189044956
30
0
0
SPLINE
5
646
100
AcDbEntity
8
0
100
AcDbSpline
70
0
71
2
72
6
73
3
74
0
42
0.000000001
43
0.0000000001
44
0.0000000001
40
0
40
0
40
0
40
1
40
1
40
1
10
80.707709304988384
20
14.119372189044956
30
0
10
80.817190818488598
20
13.937244236469272
30
0
10
80.817190818488598
20
13.732605695724491
30
0
0
SPLINE
5
647
100
AcDbEntity
8
0
100
AcDbSpline
70
0
71
2
72
6
73
3
74
0
42
0.000000001
43
0.0000000001
44
0.0000000001
40
0
40
0
40
0
40
1
40
1
40
1
10
80.817190818488598
20
13.732605695724491
30
0
10
80.817190818488598
20
13.538199186325077
30
0
10
80.712825320661068
20
13.378581225872043
30
0
0
SPLINE
5
648
100
AcDbEntity
8
0
100
AcDbSpline
70
0
71
2
72
6
73
3
74
0
42
0.000000001
43
0.0000000001
44
0.0000000001
40
0
40
0
40
0
40
1
40
1
40
1
10
80.712825320661068
20
13.378581225872043
30
0
10
80.608459673821926
20
13.218963116407398
30
0
10
80.403821133077145
20
13.124829500913624
30
0
0
SPLINE
5
649
100
AcDbEntity
8
0
100
AcDbSpline
70
0
71
2
72
6
73
3
74
0
42
0.000000001
43
0.0000000001
44
0.0000000001
40
0
40
0
40
0
40
1
40
1
40
1
10
80.403821133077145
20
13.124829500913624
30
0
10
80.669851116836071
20
13.063437908887867
30
0
10
80.817190818488598
20
12.870054513216022
30
0
0
SPLINE
5
650
100
AcDbEntity
8
0
100
AcDbSpline
70
0
71
2
72
6
73
3
74
0
42
0.000000001
43
0.0000000001
44
0.0000000001
40
0
40
0
40
0
40
1
40
1
40
1
10
80.817190818488598
20
12.870054513216022
30
0
10
80.964530520141125
20
12.676670968532566
30
0
10
80.964530520141125
20
12.386084616184238
30
0
0
SPLINE
5
651
100
AcDbEntity
8
0
100
AcDbSpline
70
0
71
2
72
6
73
3
74
0
42
0.000000001
43
0.0000000001
44
0.0000000001
40
0
40
0
40
0
40
1
40
1
40
1
10
80.964530520141125
20
12.386084616184238
30
0
10
80.964530520141125
20
11.993178546428684
30
0
10
80.678036771714687
20
11.719986319541935
30
0
0
SPLINE
5
652
100
AcDbEntity
8
0
100
AcDbSpline
70
0
71
2
72
6
73
3
74
0
42
0.000000001
43
0.0000000001
44
0.0000000001
40
0
40
0
40
0
40
1
40
1
40
1
10
80.678036771714687
20
11.719986319541935
30
0
10
80.391542874276638
20
11.446793794631962
30
0
10
79.95361652225256
20
11.446793794631962
30
0
0
SPLINE
5
653
100
AcDbEntity
8
0
100
AcDbSpline
70
0
71
2
72
6
73
3
74
0
42
0.000000001
43
0.0000000001
44
0.0000000001
40
0
40
0
40
0
40
1
40
1
40
1
10
79.95361652225256
20
11.446793794631962
30
0
10
79.558664225041866
20
11.446793794631962
30
0
10
79.297750182449818
20
11.682128131389621
30
0
0
SPLINE
5
654
100
AcDbEntity
8
0
100
AcDbSpline
70
0
71
2
72
6
73
3
74
0
42
0.000000001
43
0.0000000001
44
0.0000000001
40
0
40
0
40
0
40
1
40
1
40
1
10
79.297750182449818
20
11.682128131389621
30
0
10
79.036836102604866
20
11.917462468147281
30
0
10
79.000001177191734
20
12.29195070266724
30
0
0
LINE
5
655
100
AcDbEntity
8
0
100
AcDbLine
10
79.000001177191734
20
-10.708049297332762
30
0
11
79.368350431323051
21
-10.658935964107512
31
0
0
SPLINE
5
656
100
AcDbEntity
8
0
100
AcDbSpline
70
0
71
2
72
6
73
3
74
0
42
0.000000001
43
0.0000000001
44
0.0000000001
40
0
40
0
40
0
40
1
40
1
40
1
10
79.368350431323051
20
-10.658935964107512
30
0
10
79.431788362562656
20
-10.972032904624937
30
0
10
79.584244005382061
20
-11.11016398668289
30
0
0
SPLINE
5
657
100
AcDbEntity
8
0
100
AcDbSpline
70
0
71
2
72
6
73
3
74
0
42
0.000000001
43
0.0000000001
44
0.0000000001
40
0
40
0
40
0
40
1
40
1
40
1
10
79.584244005382061
20
-11.11016398668289
30
0
10
79.736699722707272
20
-11.248294770717619
30
0
10
79.955662898719311
20
-11.248294770717619
30
0
0
SPLINE
5
658
100
AcDbEntity
8
0
100
AcDbSpline
70
0
71
2
72
6
73
3
74
0
42
0.000000001
43
0.0000000001
44
0.0000000001
40
0
40
0
40
0
40
1
40
1
40
1
10
79.955662898719311
20
-11.248294770717619
30
0
10
80.215553753077984
20
-11.248294770717619
30
0
10
80.394612364470959
20
-11.068213045597075
30
0
0
SPLINE
5
659
100
AcDbEntity
8
0
100
AcDbSpline
70
0
71
2
72
6
73
3
74
0
42
0.000000001
43
0.0000000001
44
0.0000000001
40
0
40
0
40
0
40
1
40
1
40
1
10
80.394612364470959
20
-11.068213045597075
30
0
10
80.573671124875546
20
-10.888131022453306
30
0
10
80.573671124875546
20
-10.622100889682768
30
0
0
SPLINE
5
660
100
AcDbEntity
8
0
100
AcDbSpline
70
0
71
2
72
6
73
3
74
0
42
0.000000001
43
0.0000000001
44
0.0000000001
40
0
40
0
40
0
40
1
40
1
40
1
10
80.573671124875546
20
-10.622100889682768
30
0
10
80.573671124875546
20
-10.36834931373596
30
0
10
80.407913886010647
20
-10.203615337610243
30
0
0
SPLINE
5
661
100
AcDbEntity
8
0
100
AcDbSpline
70
0
71
2
72
6
73
3
74
0
42
0.000000001
43
0.0000000001
44
0.0000000001
40
0
40
0
40
0
40
1
40
1
40
1
10
80.407913886010647
20
-10.203615337610243
30
0
10
80.24215679615736
20
-10.038881361484526
30
0
10
79.986358694732189
20
-10.038881361484526
30
0
0
SPLINE
5
662
100
AcDbEntity
8
0
100
AcDbSpline
70
0
71
2
72
6
73
3
74
0
42
0.000000001
43
0.0000000001
44
0.0000000001
40
0
40
0
40
0
40
1
40
1
40
1
10
79.986358694732189
20
-10.038881361484526
30
0
10
79.881993047893047
20
-10.038881361484526
30
0
10
79.726467840373516
20
-10.07980903983116
30
0
0
LINE
5
663
100
AcDbEntity
8
0
100
AcDbLine
10
79.726467840373502
20
-10.07980903983116
30
0
11
79.76739551872015
21
-9.7564802169799787
31
0
0
SPLINE
5
664
100
AcDbEntity
8
0
100
AcDbSpline
70
0
71
2
72
6
73
3
74
0
42
0.000000001
43
0.0000000001
44
0.0000000001
40
0
40
0
40
0
40
1
40
1
40
1
10
79.76739551872015
20
-9.7564802169799787
30
0
10
79.804230444133282
20
-9.7605729699134809
30
0
10
79.826740585267544
20
-9.7605729699134809
30
0
0
SPLINE
5
665
100
AcDbEntity
8
0
100
AcDbSpline
70
0
71
2
72
6
73
3
74
0
42
0.000000001
43
0.0000000001
44
0.0000000001
40
0
40
0
40
0
40
1
40
1
40
1
10
79.826740585267544
20
-9.7605729699134809
30
0
10
80.062074922025204
20
-9.7605729699134809
30
0
10
80.250342302024364
20
-9.6377899348735792
30
0
0
SPLINE
5
666
100
AcDbEntity
8
0
100
AcDbSpline
70
0
71
2
72
6
73
3
74
0
42
0.000000001
43
0.0000000001
44
0.0000000001
40
0
40
0
40
0
40
1
40
1
40
1
10
80.250342302024364
20
-9.6377899348735792
30
0
10
80.438609682023525
20
-9.5150068998336774
30
0
10
80.438609682023525
20
-9.2592087984085065
30
0
0
SPLINE
5
667
100
AcDbEntity
8
0
100
AcDbSpline
70
0
71
2
72
6
73
3
74
0
42
0.000000001
43
0.0000000001
44
0.0000000001
40
0
40
0
40
0
40
1
40
1
40
1
10
80.438609682023525
20
-9.2592087984085065
30
0
10
80.438609682023525
20
-9.0566166341304761
30
0
10
80.301501862704754
20
-8.9236018657684308
30
0
0
SPLINE
5
668
100
AcDbEntity
8
0
100
AcDbSpline
70
0
71
2
72
6
73
3
74
0
42
0.000000001
43
0.0000000001
44
0.0000000001
40
0
40
0
40
0
40
1
40
1
40
1
10
80.301501862704754
20
-8.9236018657684308
30
0
10
80.164394043385983
20
-8.7905866503715497
30
0
10
79.947477392852306
20
-8.7905866503715497
30
0
0
SPLINE
5
669
100
AcDbEntity
8
0
100
AcDbSpline
70
0
71
2
72
6
73
3
74
0
42
0.000000001
43
0.0000000001
44
0.0000000001
40
0
40
0
40
0
40
1
40
1
40
1
10
79.947477392852306
20
-8.7905866503715497
30
0
10
79.732606969773769
20
-8.7905866503715497
30
0
10
79.589360021054745
20
-8.92564809322357
30
0
0
SPLINE
5
670
100
AcDbEntity
8
0
100
AcDbSpline
70
0
71
2
72
6
73
3
74
0
42
0.000000001
43
0.0000000001
44
0.0000000001
40
0
40
0
40
0
40
1
40
1
40
1
10
79.589360021054745
20
-8.92564809322357
30
0
10
79.44611307233572
20
-9.0607093870639783
30
0
10
79.405185356736183
20
-9.3308322727680189
30
0
0
LINE
5
671
100
AcDbEntity
8
0
100
AcDbLine
10
79.405185356736183
20
-9.3308322727680189
30
0
11
79.036836102604866
21
-9.2653479278087598
31
0
0
SPLINE
5
672
100
AcDbEntity
8
0
100
AcDbSpline
70
0
71
2
72
6
73
3
74
0
42
0.000000001
43
0.0000000001
44
0.0000000001
40
0
40
0
40
0
40
1
40
1
40
1
10
79.036836102604866
20
-9.2653479278087598
30
0
10
79.104366786777973
20
-8.8949522972106916
30
0
10
79.343793801963329
20
-8.6913371682167035
30
0
0
SPLINE
5
673
100
AcDbEntity
8
0
100
AcDbSpline
70
0
71
2
72
6
73
3
74
0
42
0.000000001
43
0.0000000001
44
0.0000000001
40
0
40
0
40
0
40
1
40
1
40
1
10
79.343793801963329
20
-8.6913371682167035
30
0
10
79.583220817148685
20
-8.4877217411994916
30
0
10
79.93929173797369
20
-8.4877217411994916
30
0
0
SPLINE
5
674
100
AcDbEntity
8
0
100
AcDbSpline
70
0
71
2
72
6
73
3
74
0
42
0.000000001
43
0.0000000001
44
0.0000000001
40
0
40
0
40
0
40
1
40
1
40
1
10
79.93929173797369
20
-8.4877217411994916
30
0
10
80.184857957065105
20
-8.4877217411994916
30
0
10
80.391542874276638
20
-8.5931105017662031
30
0
0
SPLINE
5
675
100
AcDbEntity
8
0
100
AcDbSpline
70
0
71
2
72
6
73
3
74
0
42
0.000000001
43
0.0000000001
44
0.0000000001
40
0
40
0
40
0
40
1
40
1
40
1
10
80.391542874276638
20
-8.5931105017662031
30
0
10
80.598227642476559
20
-8.6984995603561384
30
0
10
80.707709304988384
20
-8.8806278109550458
30
0
0
SPLINE
5
676
100
AcDbEntity
8
0
100
AcDbSpline
70
0
71
2
72
6
73
3
74
0
42
0.000000001
43
0.0000000001
44
0.0000000001
40
0
40
0
40
0
40
1
40
1
40
1
10
80.707709304988384
20
-8.8806278109550458
30
0
10
80.817190818488598
20
-9.0627557635307294
30
0
10
80.817190818488598
20
-9.2673943042755109
30
0
0
SPLINE
5
677
100
AcDbEntity
8
0
100
AcDbSpline
70
0
71
2
72
6
73
3
74
0
42
0.000000001
43
0.0000000001
44
0.0000000001
40
0
40
0
40
0
40
1
40
1
40
1
10
80.817190818488598
20
-9.2673943042755109
30
0
10
80.817190818488598
20
-9.461800813674925
30
0
10
80.712825320661068
20
-9.6214187741279584
30
0
0
SPLINE
5
678
100
AcDbEntity
8
0
100
AcDbSpline
70
0
71
2
72
6
73
3
74
0
42
0.000000001
43
0.0000000001
44
0.0000000001
40
0
40
0
40
0
40
1
40
1
40
1
10
80.712825320661068
20
-9.6214187741279584
30
0
10
80.608459673821926
20
-9.7810368835926038
30
0
10
80.403821133077145
20
-9.8751704990863782
30
0
0
SPLINE
5
679
100
AcDbEntity
8
0
100
AcDbSpline
70
0
71
2
72
6
73
3
74
0
42
0.000000001
43
0.0000000001
44
0.0000000001
40
0
40
0
40
0
40
1
40
1
40
1
10
80.403821133077145
20
-9.8751704990863782
30
0
10
80.669851116836071
20
-9.9365620911121351
30
0
10
80.817190818488598
20
-10.12994548678398
30
0
0
SPLINE
5
680
100
AcDbEntity
8
0
100
AcDbSpline
70
0
71
2
72
6
73
3
74
0
42
0.000000001
43
0.0000000001
44
0.0000000001
40
0
40
0
40
0
40
1
40
1
40
1
10
80.817190818488598
20
-10.12994548678398
30
0
10
80.964530520141125
20
-10.323329031467436
30
0
10
80.964530520141125
20
-10.613915383815764
30
0
0
SPLINE
5
681
100
AcDbEntity
8
0
100
AcDbSpline
70
0
71
2
72
6
73
3
74
0
42
0.000000001
43
0.0000000001
44
0.0000000001
40
0
40
0
40
0
40
1
40
1
40
1
10
80.964530520141125
20
-10.613915383815764
30
0
10
80.964530520141125
20
-11.006821453571318
30
0
10
80.678036771714687
20
-11.280013680458067
30
0
0
SPLINE
5
682
100
AcDbEntity
8
0
100
AcDbSpline
70
0
71
2
72
6
73
3
74
0
42
0.000000001
43
0.0000000001
44
0.0000000001
40
0
40
0
40
0
40
1
40
1
40
1
10
80.678036771714687
20
-11.280013680458067
30
0
10
80.391542874276638
20
-11.55320620536804
30
0
10
79.95361652225256
20
-11.55320620536804
30
0
0
SPLINE
5
683
100
AcDbEntity
8
0
100
AcDbSpline
70
0
71
2
72
6
73
3
74
0
42
0.000000001
43
0.0000000001
44
0.0000000001
40
0
40
0
40
0
40
1
40
1
40
1
10
79.95361652225256
20
-11.55320620536804
30
0
10
79.558664225041866
20
-11.55320620536804
30
0
10
79.297750182449818
20
-11.31787186861038
30
0
0
SPLINE
5
684
100
AcDbEntity
8
0
100
AcDbSpline
70
0
71
2
72
6
73
3
74
0
42
0.000000001
43
0.0000000001
44
0.0000000001
40
0
40
0
40
0
40
1
40
1
40
1
10
79.297750182449818
20
-11.31787186861038
30
0
10
79.036836102604866
20
-11.08253753185272
30
0
10
79.000001177191734
20
-10.708049297332762
30
0
0
LINE
5
685
100
AcDbEntity
8
0
100
AcDbLine
10
48.987040249630809
20
-11.14597564935684
30
0
11
48.987040249630809
21
-11.500000119209288
31
0
0
LINE
5
686
100
AcDbEntity
8
0
100
AcDbLine
10
48.987040249630809
20
-11.500000119209288
30
0
11
47.00409347191453
21
-11.500000119209288
31
0
0
SPLINE
5
687
100
AcDbEntity
8
0
100
AcDbSpline
70
0
71
2
72
6
73
3
74
0
42
0.000000001
43
0.0000000001
44
0.0000000001
40
0
40
0
40
0
40
1
40
1
40
1
10
47.00409347191453
20
-11.500000119209288
30
0
10
47.000000700354576
20
-11.366985201835631
30
0
10
47.047067554667592
20
-11.244202017784117
30
0
0
SPLINE
5
688
100
AcDbEntity
8
0
100
AcDbSpline
70
0
71
2
72
6
73
3
74
0
42
0.000000001
43
0.0000000001
44
0.0000000001
40
0
40
0
40
0
40
1
40
1
40
1
10
47.047067554667592
20
-11.244202017784117
30
0
10
47.122783781960607
20
-11.041610002517698
30
0
10
47.289564153179526
20
-10.845156967639921
30
0
0
SPLINE
5
689
100
AcDbEntity
8
0
100
AcDbSpline
70
0
71
2
72
6
73
3
74
0
42
0.000000001
43
0.0000000001
44
0.0000000001
40
0
40
0
40
0
40
1
40
1
40
1
10
47.289564153179526
20
-10.845156967639921
30
0
10
47.456344505771995
20
-10.648704230785368
30
0
10
47.771487785503268
20
-10.390859603881834
30
0
0
SPLINE
5
690
100
AcDbEntity
8
0
100
AcDbSpline
70
0
71
2
72
6
73
3
74
0
42
0.000000001
43
0.0000000001
44
0.0000000001
40
0
40
0
40
0
40
1
40
1
40
1
10
47.771487785503268
20
-10.390859603881834
30
0
10
48.26057362370193
20
-9.9897681772708875
30
0
10
48.432469991967082
20
-9.7554571032524091
30
0
0
SPLINE
5
691
100
AcDbEntity
8
0
100
AcDbSpline
70
0
71
2
72
6
73
3
74
0
42
0.000000001
43
0.0000000001
44
0.0000000001
40
0
40
0
40
0
40
1
40
1
40
1
10
48.432469991967082
20
-9.7554571032524091
30
0
10
48.604366360232234
20
-9.5211460292339307
30
0
10
48.604366360232234
20
-9.312414735555647
30
0
0
SPLINE
5
692
100
AcDbEntity
8
0
100
AcDbSpline
70
0
71
2
72
6
73
3
74
0
42
0.000000001
43
0.0000000001
44
0.0000000001
40
0
40
0
40
0
40
1
40
1
40
1
10
48.604366360232234
20
-9.312414735555647
30
0
10
48.604366360232234
20
-9.0934517085552198
30
0
10
48.447817889973521
20
-8.9430422186851484
30
0
0
SPLINE
5
693
100
AcDbEntity
8
0
100
AcDbSpline
70
0
71
2
72
6
73
3
74
0
42
0.000000001
43
0.0000000001
44
0.0000000001
40
0
40
0
40
0
40
1
40
1
40
1
10
48.447817889973521
20
-8.9430422186851484
30
0
10
48.291269419714808
20
-8.7926331758499128
30
0
10
48.039564220234752
20
-8.7926331758499128
30
0
0
SPLINE
5
694
100
AcDbEntity
8
0
100
AcDbSpline
70
0
71
2
72
6
73
3
74
0
42
0.000000001
43
0.0000000001
44
0.0000000001
40
0
40
0
40
0
40
1
40
1
40
1
10
48.039564220234752
20
-8.7926331758499128
30
0
10
47.773534161970019
20
-8.7926331758499128
30
0
10
47.61391612701118
20
-8.9522511363029462
30
0
0
SPLINE
5
695
100
AcDbEntity
8
0
100
AcDbSpline
70
0
71
2
72
6
73
3
74
0
42
0.000000001
43
0.0000000001
44
0.0000000001
40
0
40
0
40
0
40
1
40
1
40
1
10
47.61391612701118
20
-8.9522511363029462
30
0
10
47.454298092052341
20
-9.1118690967559797
30
0
10
47.452251715585589
20
-9.3942702412605268
30
0
0
LINE
5
696
100
AcDbEntity
8
0
100
AcDbLine
10
47.452251715585589
20
-9.3942702412605268
30
0
11
47.073670541867614
21
-9.355388939380644
31
0
0
SPLINE
5
697
100
AcDbEntity
8
0
100
AcDbSpline
70
0
71
2
72
6
73
3
74
0
42
0.000000001
43
0.0000000001
44
0.0000000001
40
0
40
0
40
0
40
1
40
1
40
1
10
47.073670541867614
20
-9.355388939380644
30
0
10
47.112551862373948
20
-8.9317873716354352
30
0
10
47.366303568705916
20
-8.7097544074058515
30
0
0
SPLINE
5
698
100
AcDbEntity
8
0
100
AcDbSpline
70
0
71
2
72
6
73
3
74
0
42
0.000000001
43
0.0000000001
44
0.0000000001
40
0
40
0
40
0
40
1
40
1
40
1
10
47.366303568705916
20
-8.7097544074058515
30
0
10
47.620055256411433
20
-8.4877217411994916
30
0
10
48.047749726101756
20
-8.4877217411994916
30
0
0
SPLINE
5
699
100
AcDbEntity
8
0
100
AcDbSpline
70
0
71
2
72
6
73
3
74
0
42
0.000000001
43
0.0000000001
44
0.0000000001
40
0
40
0
40
0
40
1
40
1
40
1
10
48.047749726101756
20
-8.4877217411994916
30
0
10
48.479536799713969
20
-8.4877217411994916
30
0
10
48.731242148205638
20
-8.7271488308906537
30
0
0
SPLINE
5
700
100
AcDbEntity
8
0
100
AcDbSpline
70
0
71
2
72
6
73
3
74
0
42
0.000000001
43
0.0000000001
44
0.0000000001
40
0
40
0
40
0
40
1
40
1
40
1
10
48.731242148205638
20
-8.7271488308906537
30
0
10
48.982947496697307
20
-8.9665759205818159
30
0
10
48.982947496697307
20
-9.3206003904342634
30
0
0
SPLINE
5
701
100
AcDbEntity
8
0
100
AcDbSpline
70
0
71
2
72
6
73
3
74
0
42
0.000000001
43
0.0000000001
44
0.0000000001
40
0
40
0
40
0
40
1
40
1
40
1
10
48.982947496697307
20
-9.3206003904342634
30
0
10
48.982947496697307
20
-9.5006822645664197
30
0
10
48.909277645871043
20
-9.6746248602867109
30
0
0
SPLINE
5
702
100
AcDbEntity
8
0
100
AcDbSpline
70
0
71
2
72
6
73
3
74
0
42
0.000000001
43
0.0000000001
44
0.0000000001
40
0
40
0
40
0
40
1
40
1
40
1
10
48.909277645871043
20
-9.6746248602867109
30
0
10
48.83560779504478
20
-9.8485676050186139
30
0
10
48.664734689518809
20
-10.040927737951277
30
0
0
SPLINE
5
703
100
AcDbEntity
8
0
100
AcDbSpline
70
0
71
2
72
6
73
3
74
0
42
0.000000001
43
0.0000000001
44
0.0000000001
40
0
40
0
40
0
40
1
40
1
40
1
10
48.664734689518809
20
-10.040927737951277
30
0
10
48.493861583992839
20
-10.23328787088394
30
0
10
48.0968629848212
20
-10.568895101547239
30
0
0
SPLINE
5
704
100
AcDbEntity
8
0
100
AcDbSpline
70
0
71
2
72
6
73
3
74
0
42
0.000000001
43
0.0000000001
44
0.0000000001
40
0
40
0
40
0
40
1
40
1
40
1
10
48.0968629848212
20
-10.568895101547239
30
0
10
47.765348656103015
20
-10.84720319509506
30
0
10
47.671214966103435
20
-10.946452975273131
30
0
0
SPLINE
5
705
100
AcDbEntity
8
0
100
AcDbSpline
70
0
71
2
72
6
73
3
74
0
42
0.000000001
43
0.0000000001
44
0.0000000001
40
0
40
0
40
0
40
1
40
1
40
1
10
47.671214966103435
20
-10.946452975273131
30
0
10
47.577081201598048
20
-11.045702755451201
30
0
10
47.515689684078097
20
-11.14597564935684
30
0
0
LINE
5
706
100
AcDbEntity
8
0
100
AcDbLine
10
47.515689684078097
20
-11.14597564935684
30
0
11
48.987040249630809
21
-11.14597564935684
31
0
0
LINE
5
707
100
AcDbEntity
8
0
100
AcDbLine
10
48.987040249630809
20
11.854024350643162
30
0
11
48.987040249630809
21
11.499999880790714
31
0
0
LINE
5
708
100
AcDbEntity
8
0
100
AcDbLine
10
48.987040249630809
20
11.499999880790714
30
0
11
47.00409347191453
21
11.499999880790714
31
0
0
SPLINE
5
709
100
AcDbEntity
8
0
100
AcDbSpline
70
0
71
2
72
6
73
3
74
0
42
0.000000001
43
0.0000000001
44
0.0000000001
40
0
40
0
40
0
40
1
40
1
40
1
10
47.00409347191453
20
11.499999880790714
30
0
10
47.000000700354576
20
11.633014798164371
30
0
10
47.047067554667592
20
11.755797982215885
30
0
0
SPLINE
5
710
100
AcDbEntity
8
0
100
AcDbSpline
70
0
71
2
72
6
73
3
74
0
42
0.000000001
43
0.0000000001
44
0.0000000001
40
0
40
0
40
0
40
1
40
1
40
1
10
47.047067554667592
20
11.755797982215885
30
0
10
47.122783781960607
20
11.958389997482303
30
0
10
47.289564153179526
20
12.15484303236008
30
0
0
SPLINE
5
711
100
AcDbEntity
8
0
100
AcDbSpline
70
0
71
2
72
6
73
3
74
0
42
0.000000001
43
0.0000000001
44
0.0000000001
40
0
40
0
40
0
40
1
40
1
40
1
10
47.289564153179526
20
12.15484303236008
30
0
10
47.456344505771995
20
12.351295769214634
30
0
10
47.771487785503268
20
12.609140396118168
30
0
0
SPLINE
5
712
100
AcDbEntity
8
0
100
AcDbSpline
70
0
71
2
72
6
73
3
74
0
42
0.000000001
43
0.0000000001
44
0.0000000001
40
0
40
0
40
0
40
1
40
1
40
1
10
47.771487785503268
20
12.609140396118168
30
0
10
48.26057362370193
20
13.010231822729114
30
0
10
48.432469991967082
20
13.244542896747593
30
0
0
SPLINE
5
713
100
AcDbEntity
8
0
100
AcDbSpline
70
0
71
2
72
6
73
3
74
0
42
0.000000001
43
0.0000000001
44
0.0000000001
40
0
40
0
40
0
40
1
40
1
40
1
10
48.432469991967082
20
13.244542896747593
30
0
10
48.604366360232234
20
13.478853970766071
30
0
10
48.604366360232234
20
13.687585264444355
30
0
0
SPLINE
5
714
100
AcDbEntity
8
0
100
AcDbSpline
70
0
71
2
72
6
73
3
74
0
42
0.000000001
43
0.0000000001
44
0.0000000001
40
0
40
0
40
0
40
1
40
1
40
1
10
48.604366360232234
20
13.687585264444355
30
0
10
48.604366360232234
20
13.906548291444782
30
0
10
48.447817889973521
20
14.056957781314853
30
0
0
SPLINE
5
715
100
AcDbEntity
8
0
100
AcDbSpline
70
0
71
2
72
6
73
3
74
0
42
0.000000001
43
0.0000000001
44
0.0000000001
40
0
40
0
40
0
40
1
40
1
40
1
10
48.447817889973521
20
14.056957781314853
30
0
10
48.291269419714808
20
14.207366824150089
30
0
10
48.039564220234752
20
14.207366824150089
30
0
0
SPLINE
5
716
100
AcDbEntity
8
0
100
AcDbSpline
70
0
71
2
72
6
73
3
74
0
42
0.000000001
43
0.0000000001
44
0.0000000001
40
0
40
0
40
0
40
1
40
1
40
1
10
48.039564220234752
20
14.207366824150089
30
0
10
47.773534161970019
20
14.207366824150089
30
0
10
47.61391612701118
20
14.047748863697056
30
0
0
SPLINE
5
717
100
AcDbEntity
8
0
100
AcDbSpline
70
0
71
2
72
6
73
3
74
0
42
0.000000001
43
0.0000000001
44
0.0000000001
40
0
40
0
40
0
40
1
40
1
40
1
10
47.61391612701118
20
14.047748863697056
30
0
10
47.454298092052341
20
13.888130903244022
30
0
10
47.452251715585589
20
13.605729758739475
30
0
0
LINE
5
718
100
AcDbEntity
8
0
100
AcDbLine
10
47.452251715585589
20
13.605729758739475
30
0
11
47.073670541867614
21
13.644611060619358
31
0
0
SPLINE
5
719
100
AcDbEntity
8
0
100
AcDbSpline
70
0
71
2
72
6
73
3
74
0
42
0.000000001
43
0.0000000001
44
0.0000000001
40
0
40
0
40
0
40
1
40
1
40
1
10
47.073670541867614
20
13.644611060619358
30
0
10
47.112551862373948
20
14.068212628364567
30
0
10
47.366303568705916
20
14.29024559259415
30
0
0
SPLINE
5
720
100
AcDbEntity
8
0
100
AcDbSpline
70
0
71
2
72
6
73
3
74
0
42
0.000000001
43
0.0000000001
44
0.0000000001
40
0
40
0
40
0
40
1
40
1
40
1
10
47.366303568705916
20
14.29024559259415
30
0
10
47.620055256411433
20
14.51227825880051
30
0
10
48.047749726101756
20
14.51227825880051
30
0
0
SPLINE
5
721
100
AcDbEntity
8
0
100
AcDbSpline
70
0
71
2
72
6
73
3
74
0
42
0.000000001
43
0.0000000001
44
0.0000000001
40
0
40
0
40
0
40
1
40
1
40
1
10
48.047749726101756
20
14.51227825880051
30
0
10
48.479536799713969
20
14.51227825880051
30
0
10
48.731242148205638
20
14.272851169109348
30
0
0
SPLINE
5
722
100
AcDbEntity
8
0
100
AcDbSpline
70
0
71
2
72
6
73
3
74
0
42
0.000000001
43
0.0000000001
44
0.0000000001
40
0
40
0
40
0
40
1
40
1
40
1
10
48.731242148205638
20
14.272851169109348
30
0
10
48.982947496697307
20
14.033424079418186
30
0
10
48.982947496697307
20
13.679399609565738
30
0
0
SPLINE
5
723
100
AcDbEntity
8
0
100
AcDbSpline
70
0
71
2
72
6
73
3
74
0
42
0.000000001
43
0.0000000001
44
0.0000000001
40
0
40
0
40
0
40
1
40
1
40
1
10
48.982947496697307
20
13.679399609565738
30
0
10
48.982947496697307
20
13.499317735433582
30
0
10
48.909277645871043
20
13.325375139713291
30
0
0
SPLINE
5
724
100
AcDbEntity
8
0
100
AcDbSpline
70
0
71
2
72
6
73
3
74
0
42
0.000000001
43
0.0000000001
44
0.0000000001
40
0
40
0
40
0
40
1
40
1
40
1
10
48.909277645871043
20
13.325375139713291
30
0
10
48.83560779504478
20
13.151432394981388
30
0
10
48.664734689518809
20
12.959072262048725
30
0
0
SPLINE
5
725
100
AcDbEntity
8
0
100
AcDbSpline
70
0
71
2
72
6
73
3
74
0
42
0.000000001
43
0.0000000001
44
0.0000000001
40
0
40
0
40
0
40
1
40
1
40
1
10
48.664734689518809
20
12.959072262048725
30
0
10
48.493861583992839
20
12.766712129116062
30
0
10
48.0968629848212
20
12.431104898452762
30
0
0
SPLINE
5
726
100
AcDbEntity
8
0
100
AcDbSpline
70
0
71
2
72
6
73
3
74
0
42
0.000000001
43
0.0000000001
44
0.0000000001
40
0
40
0
40
0
40
1
40
1
40
1
10
48.0968629848212
20
12.431104898452762
30
0
10
47.765348656103015
20
12.152796804904941
30
0
10
47.671214966103435
20
12.053547024726871
30
0
0
SPLINE
5
727
100
AcDbEntity
8
0
100
AcDbSpline
70
0
71
2
72
6
73
3
74
0
42
0.000000001
43
0.0000000001
44
0.0000000001
40
0
40
0
40
0
40
1
40
1
40
1
10
47.671214966103435
20
12.053547024726871
30
0
10
47.577081201598048
20
11.954297244548801
30
0
10
47.515689684078097
20
11.854024350643162
30
0
0
LINE
5
728
100
AcDbEntity
8
0
100
AcDbLine
10
47.515689684078097
20
11.854024350643162
30
0
11
48.987040249630809
21
11.854024350643162
31
0
0
LINE
5
729
100
AcDbEntity
8
0
100
AcDbLine
10
12.732322294497468
20
11.499999880790714
30
0
11
12.363972965860345
21
11.499999880790714
31
0
0
LINE
5
730
100
AcDbEntity
8
0
100
AcDbLine
10
12.363972965860345
20
11.499999880790714
30
0
11
12.363972965860345
21
13.847203224897388
31
0
0
SPLINE
5
731
100
AcDbEntity
8
0
100
AcDbSpline
70
0
71
2
72
6
73
3
74
0
42
0.000000001
43
0.0000000001
44
0.0000000001
40
0
40
0
40
0
40
1
40
1
40
1
10
12.363972965860345
20
13.847203224897388
30
0
10
12.230957973980882
20
13.720327287912372
30
0
10
12.015064362668969
20
13.593451499938968
30
0
0
SPLINE
5
732
100
AcDbEntity
8
0
100
AcDbSpline
70
0
71
2
72
6
73
3
74
0
42
0.000000001
43
0.0000000001
44
0.0000000001
40
0
40
0
40
0
40
1
40
1
40
1
10
12.015064362668969
20
13.593451499938968
30
0
10
11.799170751357057
20
13.466575562953953
30
0
10
11.627274457597711
20
13.403137743473057
30
0
0
LINE
5
733
100
AcDbEntity
8
0
100
AcDbLine
10
11.627274457597711
20
13.403137743473057
30
0
11
11.627274457597711
21
13.759208589792255
31
0
0
SPLINE
5
734
100
AcDbEntity
8
0
100
AcDbSpline
70
0
71
2
72
6
73
3
74
0
42
0.000000001
43
0.0000000001
44
0.0000000001
40
0
40
0
40
0
40
1
40
1
40
1
10
11.627274457597711
20
13.759208589792255
30
0
10
11.936278570675828
20
13.904501914978031
30
0
10
12.167520005488374
20
14.111186981201175
30
0
0
SPLINE
5
735
100
AcDbEntity
8
0
100
AcDbSpline
70
0
71
2
72
6
73
3
74
0
42
0.000000001
43
0.0000000001
44
0.0000000001
40
0
40
0
40
0
40
1
40
1
40
1
10
12.167520005488374
20
14.111186981201175
30
0
10
12.398761514806726
20
14.317871749401096
30
0
10
12.494941581273057
20
14.51227825880051
30
0
0
LINE
5
736
100
AcDbEntity
8
0
100
AcDbLine
10
12.494941581273057
20
14.51227825880051
30
0
11
12.732322294497468
21
14.51227825880051
31
0
0
LINE
5
737
100
AcDbEntity
8
0
100
AcDbLine
10
12.732322294497468
20
14.51227825880051
30
0
11
12.732322294497468
21
11.499999880790714
31
0
0
ENDSEC
0
SECTION
2
OBJECTS
0
DICTIONARY
5
C
100
AcDbDictionary
3
ACAD_GROUP
350
D
3
ACAD_MLINESTYLE
350
17
0
DICTIONARY
5
D
100
AcDbDictionary
0
DICTIONARY
5
1A
330
C
100
AcDbDictionary
0
DICTIONARY
5
17
100
AcDbDictionary
0
ENDSEC
0
EOF
