0
SECTION
2
HEADER
9
$INSUNITS
70
4
9
$ACADVER
1
AC1014
9
$HANDSEED
5
FFFF
0
ENDSEC
0
SECTION
2
TABLES
0
TABLE
2
VPORT
5
8
100
AcDbSymbolTable
0
ENDTAB
0
TABLE
2
LTYPE
5
5
100
AcDbSymbolTable
0
LTYPE
5
14
100
AcDbSymbolTableRecord
100
AcDbLinetypeTableRecord
2
BYBLOCK
70
0
0
LTYPE
5
15
100
AcDbSymbolTableRecord
100
AcDbLinetypeTableRecord
2
BYLAYER
70
0
0
ENDTAB
0
TABLE
2
LAYER
5
2
100
AcDbSymbolTable
70
2
0
LAYER
5
50
100
AcDbSymbolTableRecord
100
AcDbLayerTableRecord
2
0
70
0
6
CONTINUOUS
0
ENDTAB
0
TABLE
2
STYLE
5
3
100
AcDbSymbolTable
70
1
0
STYLE
5
11
100
AcDbSymbolTableRecord
100
AcDbTextStyleTableRecord
2
STANDARD
70
0
0
ENDTAB
0
TABLE
2
VIEW
5
6
100
AcDbSymbolTable
70
0
0
ENDTAB
0
TABLE
2
UCS
5
7
100
AcDbSymbolTable
70
0
0
ENDTAB
0
TABLE
2
APPID
5
9
100
AcDbSymbolTable
70
2
0
APPID
5
12
100
AcDbSymbolTableRecord
100
AcDbRegAppTableRecord
2
ACAD
70
0
0
ENDTAB
0
TABLE
2
DIMSTYLE
5
A
100
AcDbSymbolTable
70
1
0
ENDTAB
0
TABLE
2
BLOCK_RECORD
5
1
100
AcDbSymbolTable
70
1
0
BLOCK_RECORD
5
1F
100
AcDbSymbolTableRecord
100
AcDbBlockTableRecord
2
*MODEL_SPACE
0
BLOCK_RECORD
5
1B
100
AcDbSymbolTableRecord
100
AcDbBlockTableRecord
2
*PAPER_SPACE
0
ENDTAB
0
ENDSEC
0
SECTION
2
BLOCKS
0
BLOCK
5
20
100
AcDbEntity
100
AcDbBlockBegin
2
*MODEL_SPACE
0
ENDBLK
5
21
100
AcDbEntity
100
AcDbBlockEnd
0
BLOCK
5
1C
100
AcDbEntity
100
AcDbBlockBegin
2
*PAPER_SPACE
0
ENDBLK
5
1D
100
AcDbEntity
100
AcDbBlockEnd
0
ENDSEC
0
SECTION
2
ENTITIES
0
SPLINE
5
100
100
AcDbEntity
8
0
100
AcDbSpline
70
0
71
3
72
10
73
6
74
0
42
0.000000001
43
0.0000000001
44
0.0000000001
40
-0.051741739348743945
40
-0.051741739348743945
40
-0.051741739348743945
40
-0.051741739348743945
40
-0.023560817341501353
40
-0.023560817341501353
40
-0
40
-0
40
-0
40
-0
10
12.167520005488374
20
14.111186981201175
30
0
10
12.23748687871449
20
14.173723707488081
30
0
10
12.305622084887418
20
14.242068977620297
30
0
10
12.414636176483047
20
14.375611188971622
30
0
10
12.460115888852057
20
14.441885904649306
30
0
10
12.494941581273057
20
14.51227825880051
30
0
0
LINE
5
101
100
AcDbEntity
8
0
100
AcDbLine
10
12.494941581273061
20
14.51227825880051
30
0
11
12.732322294497468
21
14.51227825880051
31
0
0
LINE
5
102
100
AcDbEntity
8
0
100
AcDbLine
10
12.732322294497468
20
14.51227825880051
30
0
11
12.732322294497468
21
11.499999880790714
31
0
0
LINE
5
103
100
AcDbEntity
8
0
100
AcDbLine
10
12.732322294497468
20
11.499999880790714
30
0
11
12.363972965860345
21
11.499999880790714
31
0
0
LINE
5
104
100
AcDbEntity
8
0
100
AcDbLine
10
12.363972965860345
20
11.499999880790714
30
0
11
12.363972965860345
21
13.847203224897388
31
0
0
SPLINE
5
105
100
AcDbEntity
8
0
100
AcDbSpline
70
0
71
3
72
10
73
6
74
0
42
0.000000001
43
0.0000000001
44
0.0000000001
40
-0.042946819197799732
40
-0.042946819197799732
40
-0.042946819197799732
40
-0.042946819197799732
40
-0.023140097865640412
40
-0.023140097865640412
40
-0
40
-0
40
-0
40
-0
10
12.363972965860345
20
13.847203224897388
30
0
10
12.316167168961856
20
13.801603813965517
30
0
10
12.263648775478966
20
13.75917129549801
30
0
10
12.147839138238442
20
13.674946100281273
30
0
10
12.081564711801459
20
13.632532249690756
30
0
10
12.015064362668969
20
13.593451499938968
30
0
0
SPLINE
5
106
100
AcDbEntity
8
0
100
AcDbSpline
70
0
71
3
72
10
73
6
74
0
42
0.000000001
43
0.0000000001
44
0.0000000001
40
-0.042967420856222918
40
-0.042967420856222918
40
-0.042967420856222918
40
-0.042967420856222918
40
-0.01979506566024735
40
-0.01979506566024735
40
-0
40
-0
40
-0
40
-0
10
12.015064362668969
20
13.593451499938968
30
0
10
11.948516742554112
20
13.554342924169225
30
0
10
11.879483589771823
20
13.516451744399012
30
0
10
11.750958772670547
20
13.453376248049659
30
0
10
11.689177089892819
20
13.425982727079436
30
0
10
11.627274457597711
20
13.403137743473057
30
0
0
LINE
5
107
100
AcDbEntity
8
0
100
AcDbLine
10
11.627274457597711
20
13.403137743473057
30
0
11
11.627274457597711
21
13.759208589792255
31
0
0
SPLINE
5
108
100
AcDbEntity
8
0
100
AcDbSpline
70
0
71
3
72
10
73
6
74
0
42
0.000000001
43
0.0000000001
44
0.0000000001
40
-0.064771147636538809
40
-0.064771147636538809
40
-0.064771147636538809
40
-0.064771147636538809
40
-0.031612343512720381
40
-0.031612343512720381
40
-0
40
-0
40
-0
40
-0
10
11.627274457597711
20
13.759208589792255
30
0
10
11.727296217660113
20
13.806238689054158
30
0
10
11.824229957808134
20
13.859514332356387
30
0
10
12.005126794300985
20
13.977371439681594
30
0
10
12.088954274423502
20
14.040964430726273
30
0
10
12.167520005488374
20
14.111186981201175
30
0
0
LWPOLYLINE
5
109
100
AcDbEntity
8
0
100
AcDbPolyline
90
10
70
1
43
0.0
10
4.975000249712064
20
10.025000258684225
10
14.999999750288001
20
10.025001692771973
10
25.0249997502879
20
10.025000258684225
10
25.024998316200158
20
2.5868432729225788e-07
10
30.000001430511464
20
1.836970286314594e-15
10
30.000000715255734
20
15
10
14.999999999999982
20
15.000000715255732
10
7.1525573019926014e-07
20
15
10
0
20
0
10
4.9750016837998077
20
2.5868432812461238e-07
0
SPLINE
5
110
100
AcDbEntity
8
0
100
AcDbSpline
70
0
71
3
72
10
73
6
74
0
42
0.000000001
43
0.0000000001
44
0.0000000001
40
-0.051741739348743945
40
-0.051741739348743945
40
-0.051741739348743945
40
-0.051741739348743945
40
-0.023560817341501353
40
-0.023560817341501353
40
-0
40
-0
40
-0
40
-0
10
12.167520005488374
20
-8.8888130187988263
30
0
10
12.23748687871449
20
-8.8262762925119205
30
0
10
12.305622084887418
20
-8.7579310223797044
30
0
10
12.414636176483047
20
-8.624388811028382
30
0
10
12.460115888852057
20
-8.5581140953506978
30
0
10
12.494941581273057
20
-8.4877217411994916
30
0
0
LINE
5
111
100
AcDbEntity
8
0
100
AcDbLine
10
12.494941581273061
20
-8.4877217411994916
30
0
11
12.732322294497468
21
-8.4877217411994916
31
0
0
LINE
5
112
100
AcDbEntity
8
0
100
AcDbLine
10
12.732322294497468
20
-8.4877217411994916
30
0
11
12.732322294497468
21
-11.500000119209288
31
0
0
LINE
5
113
100
AcDbEntity
8
0
100
AcDbLine
10
12.732322294497468
20
-11.500000119209288
30
0
11
12.363972965860345
21
-11.500000119209288
31
0
0
LINE
5
114
100
AcDbEntity
8
0
100
AcDbLine
10
12.363972965860345
20
-11.500000119209288
30
0
11
12.363972965860345
21
-9.1527967751026136
31
0
0
SPLINE
5
115
100
AcDbEntity
8
0
100
AcDbSpline
70
0
71
3
72
10
73
6
74
0
42
0.000000001
43
0.0000000001
44
0.0000000001
40
-0.042946819197799732
40
-0.042946819197799732
40
-0.042946819197799732
40
-0.042946819197799732
40
-0.023140097865640412
40
-0.023140097865640412
40
-0
40
-0
40
-0
40
-0
10
12.363972965860345
20
-9.1527967751026136
30
0
10
12.316167168961856
20
-9.1983961860344863
30
0
10
12.263648775478966
20
-9.240828704501995
30
0
10
12.147839138238442
20
-9.3250538997187284
30
0
10
12.081564711801459
20
-9.3674677503092454
30
0
10
12.015064362668969
20
-9.4065485000610334
30
0
0
SPLINE
5
116
100
AcDbEntity
8
0
100
AcDbSpline
70
0
71
3
72
10
73
6
74
0
42
0.000000001
43
0.0000000001
44
0.0000000001
40
-0.042967420856222918
40
-0.042967420856222918
40
-0.042967420856222918
40
-0.042967420856222918
40
-0.01979506566024735
40
-0.01979506566024735
40
-0
40
-0
40
-0
40
-0
10
12.015064362668969
20
-9.4065485000610334
30
0
10
11.948516742554112
20
-9.445657075830777
30
0
10
11.879483589771823
20
-9.48354825560099
30
0
10
11.750958772670547
20
-9.5466237519503441
30
0
10
11.689177089892819
20
-9.5740172729205693
30
0
10
11.627274457597711
20
-9.5968622565269452
30
0
0
LINE
5
117
100
AcDbEntity
8
0
100
AcDbLine
10
11.627274457597711
20
-9.5968622565269452
30
0
11
11.627274457597711
21
-9.2407914102077466
31
0
0
SPLINE
5
118
100
AcDbEntity
8
0
100
AcDbSpline
70
0
71
3
72
10
73
6
74
0
42
0.000000001
43
0.0000000001
44
0.0000000001
40
-0.064771147636538809
40
-0.064771147636538809
40
-0.064771147636538809
40
-0.064771147636538809
40
-0.031612343512720381
40
-0.031612343512720381
40
-0
40
-0
40
-0
40
-0
10
11.627274457597711
20
-9.2407914102077466
30
0
10
11.727296217660113
20
-9.1937613109458454
30
0
10
11.824229957808134
20
-9.140485667643615
30
0
10
12.005126794300985
20
-9.0226285603184095
30
0
10
12.088954274423502
20
-8.9590355692737305
30
0
10
12.167520005488374
20
-8.8888130187988263
30
0
0
LWPOLYLINE
5
119
100
AcDbEntity
8
0
100
AcDbPolyline
90
8
70
1
43
0.0
10
-2.5820795265958155e-14
20
-10.974999642372216
10
7.1525573232866476e-07
20
-16.000000000000007
10
30.00000071525573
20
-16.000000000000007
10
29.999999999999993
20
-10.974999642372216
10
24.974999999999991
20
-10.974999642372204
10
24.974999999999984
20
-0.99999964237220129
10
5.0249999999999817
20
-0.99999964237220129
10
5.0249999999999755
20
-10.974999642372204
0
SPLINE
5
120
100
AcDbEntity
8
0
100
AcDbSpline
70
0
71
3
72
10
73
6
74
0
42
0.000000001
43
0.0000000001
44
0.0000000001
40
-0.044094157244099152
40
-0.044094157244099152
40
-0.044094157244099152
40
-0.044094157244099152
40
-0.016883131770962949
40
-0.016883131770962949
40
-0
40
-0
40
-0
40
-0
10
48.0968629848212
20
-10.568895101547239
30
0
10
48.010627349717709
20
-10.64129038923914
30
0
10
47.909504474949031
20
-10.727209951902722
30
0
10
47.772072883296993
20
-10.849114382900002
30
0
10
47.709942563820874
20
-10.905620563834699
30
0
10
47.671214966103435
20
-10.946452975273131
30
0
0
SPLINE
5
121
100
AcDbEntity
8
0
100
AcDbSpline
70
0
71
3
72
10
73
6
74
0
42
0.000000001
43
0.0000000001
44
0.0000000001
40
-0.025322306704970477
40
-0.025322306704970477
40
-0.025322306704970477
40
-0.025322306704970477
40
-0.012182895916153385
40
-0.012182895916153385
40
-0
40
-0
40
-0
40
-0
10
47.671214966103435
20
-10.946452975273131
30
0
10
47.641077320032565
20
-10.978228552966584
30
0
10
47.612191969398253
20
-11.011416309994097
30
0
10
47.560301642141702
20
-11.077986173867549
30
0
10
47.536894158552848
20
-11.111341646073891
30
0
10
47.515689684078097
20
-11.14597564935684
30
0
0
LINE
5
122
100
AcDbEntity
8
0
100
AcDbLine
10
47.515689684078097
20
-11.145975649356842
30
0
11
48.987040249630809
21
-11.14597564935684
31
0
0
LINE
5
123
100
AcDbEntity
8
0
100
AcDbLine
10
48.987040249630809
20
-11.14597564935684
30
0
11
48.987040249630809
21
-11.500000119209288
31
0
0
LINE
5
124
100
AcDbEntity
8
0
100
AcDbLine
10
48.987040249630809
20
-11.500000119209288
30
0
11
47.00409347191453
21
-11.500000119209288
31
0
0
SPLINE
5
125
100
AcDbEntity
8
0
100
AcDbSpline
70
0
71
3
72
10
73
6
74
0
42
0.000000001
43
0.0000000001
44
0.0000000001
40
-0.026194291034055864
40
-0.026194291034055864
40
-0.026194291034055864
40
-0.026194291034055864
40
-0.013058551578365206
40
-0.013058551578365206
40
-0
40
-0
40
-0
40
-0
10
47.00409347191453
20
-11.500000119209288
30
0
10
47.002746854091093
20
-11.456235092040117
30
0
10
47.005536251765996
20
-11.412723818306358
30
0
10
47.020002334034444
20
-11.326616189189711
30
0
10
47.031487144599495
20
-11.284846594204421
30
0
10
47.047067554667592
20
-11.244202017784117
30
0
0
SPLINE
5
126
100
AcDbEntity
8
0
100
AcDbSpline
70
0
71
3
72
10
73
6
74
0
42
0.000000001
43
0.0000000001
44
0.0000000001
40
-0.046926610397149432
40
-0.046926610397149432
40
-0.046926610397149432
40
-0.046926610397149432
40
-0.024482606591912329
40
-0.024482606591912329
40
-0
40
-0
40
-0
40
-0
10
47.047067554667592
20
-11.244202017784117
30
0
10
47.073262021916058
20
-11.174114137042782
30
0
10
47.106694298855601
20
-11.107084211745038
30
0
10
47.187934607927595
20
-10.973397622298851
30
0
10
47.236748060108987
20
-10.907369814980781
30
0
10
47.289564153179526
20
-10.845156967639921
30
0
0
SPLINE
5
127
100
AcDbEntity
8
0
100
AcDbSpline
70
0
71
3
72
10
73
6
74
0
42
0.000000001
43
0.0000000001
44
0.0000000001
40
-0.065225644701652444
40
-0.065225644701652444
40
-0.065225644701652444
40
-0.065225644701652444
40
-0.036407072865883759
40
-0.036407072865883759
40
-0
40
-0
40
-0
40
-0
10
47.289564153179526
20
-10.845156967639921
30
0
10
47.351869455935791
20
-10.771766744770391
30
0
10
47.42348073787835
20
-10.699300616788285
30
0
10
47.581810143211278
20
-10.550047443414519
30
0
10
47.677562737849186
20
-10.467707407490135
30
0
10
47.771487785503268
20
-10.390859603881834
30
0
0
SPLINE
5
128
100
AcDbEntity
8
0
100
AcDbSpline
70
0
71
3
72
10
73
6
74
0
42
0.000000001
43
0.0000000001
44
0.0000000001
40
-0.088511074464458578
40
-0.088511074464458578
40
-0.088511074464458578
40
-0.088511074464458578
40
-0.035183248076048196
40
-0.035183248076048196
40
-0
40
-0
40
-0
40
-0
10
47.771487785503268
20
-10.390859603881834
30
0
10
47.9073123928641
20
-10.279472028776663
30
0
10
48.054263651443193
20
-10.153560541104357
30
0
10
48.26507333337765
20
-9.9509090964086404
30
0
10
48.363098434481657
20
-9.8500171239485503
30
0
10
48.432469991967082
20
-9.7554571032524091
30
0
0
SPLINE
5
129
100
AcDbEntity
8
0
100
AcDbSpline
70
0
71
3
72
10
73
6
74
0
42
0.000000001
43
0.0000000001
44
0.0000000001
40
-0.048254746592371958
40
-0.048254746592371958
40
-0.048254746592371958
40
-0.048254746592371958
40
-0.020904186135988774
40
-0.020904186135988774
40
-0
40
-0
40
-0
40
-0
10
48.432469991967082
20
-9.7554571032524091
30
0
10
48.48634464276909
20
-9.6820208380235968
30
0
10
48.534442583354604
20
-9.6010813260374359
30
0
10
48.589996167576786
20
-9.4501565834300223
30
0
10
48.604366360232234
20
-9.3820953560089428
30
0
10
48.604366360232234
20
-9.312414735555647
30
0
0
SPLINE
5
130
100
AcDbEntity
8
0
100
AcDbSpline
70
0
71
3
72
12
73
8
74
0
42
0.000000001
43
0.0000000001
44
0.0000000001
40
-0.04158166433035565
40
-0.04158166433035565
40
-0.04158166433035565
40
-0.04158166433035565
40
-0.030763627710815301
40
-0.030763627710815301
40
-0.020402999471812431
40
-0.020402999471812431
40
-0
40
-0
40
-0
40
-0
10
48.604366360232234
20
-9.312414735555647
30
0
10
48.604366360232234
20
-9.2763538994315056
30
0
10
48.601181868691015
20
-9.2404663937007481
30
0
10
48.587445794198473
20
-9.1712169364816631
30
0
10
48.577324841091823
20
-9.1383836954307807
30
0
10
48.536461793316064
20
-9.0443266890253362
30
0
10
48.496860192612985
20
-8.9901613486892007
30
0
10
48.447817889973521
20
-8.9430422186851484
30
0
0
SPLINE
5
131
100
AcDbEntity
8
0
100
AcDbSpline
70
0
71
3
72
12
73
8
74
0
42
0.000000001
43
0.0000000001
44
0.0000000001
40
-0.044794772966402878
40
-0.044794772966402878
40
-0.044794772966402878
40
-0.044794772966402878
40
-0.03405392674535479
40
-0.03405392674535479
40
-0.023302266723392188
40
-0.023302266723392188
40
-0
40
-0
40
-0
40
-0
10
48.447817889973521
20
-8.9430422186851484
30
0
10
48.421993148863649
20
-8.9182302573457317
30
0
10
48.393958258832512
20
-8.8962305701544118
30
0
10
48.333203891577469
20
-8.8582268334265244
30
0
10
48.301118683199135
20
-8.8426285313640332
30
0
10
48.194575027018715
20
-8.8033756586182257
30
0
10
48.117238442646055
20
-8.7926331758499128
30
0
10
48.039564220234752
20
-8.7926331758499128
30
0
0
SPLINE
5
132
100
AcDbEntity
8
0
100
AcDbSpline
70
0
71
3
72
10
73
6
74
0
42
0.000000001
43
0.0000000001
44
0.0000000001
40
-0.047100898029860963
40
-0.047100898029860963
40
-0.047100898029860963
40
-0.047100898029860963
40
-0.021107434524451931
40
-0.021107434524451931
40
-0
40
-0
40
-0
40
-0
10
48.039564220234752
20
-8.7926331758499128
30
0
10
47.952952779199755
20
-8.7926331758499128
30
0
10
47.866609102479501
20
-8.8053223141356369
30
0
10
47.721146698223194
20
-8.8644038585520413
30
0
10
47.663666838908021
20
-8.9025004476285208
30
0
10
47.61391612701118
20
-8.9522511363029462
30
0
0
SPLINE
5
133
100
AcDbEntity
8
0
100
AcDbSpline
70
0
71
3
72
12
73
8
74
0
42
0.000000001
43
0.0000000001
44
0.0000000001
40
-0.048371951376434394
40
-0.048371951376434394
40
-0.048371951376434394
40
-0.048371951376434394
40
-0.037107077693390743
40
-0.037107077693390743
40
-0.025609521829079506
40
-0.025609521829079506
40
-0
40
-0
40
-0
40
-0
10
47.61391612701118
20
-8.9522511363029462
30
0
10
47.587350096022341
20
-8.9788171548914093
30
0
10
47.564020688526568
20
-9.0079710513875391
30
0
10
47.523475526966251
20
-9.072153162260097
30
0
10
47.506862314286835
20
-9.1065522072915677
30
0
10
47.464353389726668
20
-9.2227791283628093
30
0
10
47.452870284217994
20
-9.3089074096487465
30
0
10
47.452251715585589
20
-9.3942702412605268
30
0
0
LINE
5
134
100
AcDbEntity
8
0
100
AcDbLine
10
47.452251715585589
20
-9.3942702412605268
30
0
11
47.073670541867614
21
-9.355388939380644
31
0
0
SPLINE
5
135
100
AcDbEntity
8
0
100
AcDbSpline
70
0
71
3
72
10
73
6
74
0
42
0.000000001
43
0.0000000001
44
0.0000000001
40
-0.073052811656718217
40
-0.073052811656718217
40
-0.073052811656718217
40
-0.073052811656718217
40
-0.030752194771697102
40
-0.030752194771697102
40
-0
40
-0
40
-0
40
-0
10
47.073670541867614
20
-9.355388939380644
30
0
10
47.086550002262186
20
-9.2150706697384148
30
0
10
47.118616894487417
20
-9.0749480224457475
30
0
10
47.228280014493635
20
-8.8575307411412112
30
0
10
47.289158985043343
20
-8.7772559853556356
30
0
10
47.366303568705916
20
-8.7097544074058515
30
0
0
SPLINE
5
136
100
AcDbEntity
8
0
100
AcDbSpline
70
0
71
3
72
12
73
8
74
0
42
0.000000001
43
0.0000000001
44
0.0000000001
40
-0.073298480321725534
40
-0.073298480321725534
40
-0.073298480321725534
40
-0.073298480321725534
40
-0.056360480122598353
40
-0.056360480122598353
40
-0.038906623455030667
40
-0.038906623455030667
40
-0
40
-0
40
-0
40
-0
10
47.366303568705916
20
-8.7097544074058515
30
0
10
47.408815379766061
20
-8.6725565828700049
30
0
10
47.454769486791704
20
-8.6402245370802806
30
0
10
47.554833077718968
20
-8.5841648341138015
30
0
10
47.608196581646482
20
-8.5612625255231993
30
0
10
47.786909821901162
20
-8.503033160239573
30
0
10
47.918060981251649
20
-8.4877217411994916
30
0
10
48.047749726101756
20
-8.4877217411994916
30
0
0
SPLINE
5
137
100
AcDbEntity
8
0
100
AcDbSpline
70
0
71
3
72
10
73
6
74
0
42
0.000000001
43
0.0000000001
44
0.0000000001
40
-0.074694886918561715
40
-0.074694886918561715
40
-0.074694886918561715
40
-0.074694886918561715
40
-0.032066327874302213
40
-0.032066327874302213
40
-0
40
-0
40
-0
40
-0
10
48.047749726101756
20
-8.4877217411994916
30
0
10
48.189762695794059
20
-8.4877217411994916
30
0
10
48.33287138881478
20
-8.5071463058910126
30
0
10
48.564719822764523
20
-8.5979124071126893
30
0
10
48.653795768123345
20
-8.653480307351785
30
0
10
48.731242148205638
20
-8.7271488308906537
30
0
0
SPLINE
5
138
100
AcDbEntity
8
0
100
AcDbSpline
70
0
71
3
72
12
73
8
74
0
42
0.000000001
43
0.0000000001
44
0.0000000001
40
-0.066824983160664764
40
-0.066824983160664764
40
-0.066824983160664764
40
-0.066824983160664764
40
-0.049750417064803834
40
-0.049750417064803834
40
-0.033292874196216161
40
-0.033292874196216161
40
-0
40
-0
40
-0
40
-0
10
48.731242148205638
20
-8.7271488308906537
30
0
10
48.772482819453032
20
-8.7663777704139676
30
0
10
48.809921790311563
20
-8.8091183495231373
30
0
10
48.874038754889142
20
-8.900683716630196
30
0
10
48.90047929825333
20
-8.9484079636397702
30
0
10
48.964397355693379
20
-9.1014429785688993
30
0
10
48.982947496697307
20
-9.2096241431135422
30
0
10
48.982947496697307
20
-9.3206003904342634
30
0
0
SPLINE
5
139
100
AcDbEntity
8
0
100
AcDbSpline
70
0
71
3
72
10
73
6
74
0
42
0.000000001
43
0.0000000001
44
0.0000000001
40
-0.036518110652536531
40
-0.036518110652536531
40
-0.036518110652536531
40
-0.036518110652536531
40
-0.018474038863521648
40
-0.018474038863521648
40
-0
40
-0
40
-0
40
-0
10
48.982947496697307
20
-9.3206003904342634
30
0
10
48.982947496697307
20
-9.3807477611790127
30
0
10
48.976783756159243
20
-9.4402615174671052
30
0
10
48.951984321348348
20
-9.5594365485428536
30
0
10
48.933293500393056
20
-9.6179207944151592
30
0
10
48.909277645871043
20
-9.6746248602867109
30
0
0
SPLINE
5
140
100
AcDbEntity
8
0
100
AcDbSpline
70
0
71
3
72
10
73
6
74
0
42
0.000000001
43
0.0000000001
44
0.0000000001
40
-0.043984563749343383
40
-0.043984563749343383
40
-0.043984563749343383
40
-0.043984563749343383
40
-0.023689944715821701
40
-0.023689944715821701
40
-0
40
-0
40
-0
40
-0
10
48.909277645871043
20
-9.6746248602867109
30
0
10
48.882877807545469
20
-9.7369578267217545
30
0
10
48.848880570043185
20
-9.7968901688576633
30
0
10
48.767447264812667
20
-9.9188697772202659
30
0
10
48.717177672024008
20
-9.9818901319158915
30
0
10
48.664734689518809
20
-10.040927737951277
30
0
0
SPLINE
5
141
100
AcDbEntity
8
0
100
AcDbSpline
70
0
71
3
72
10
73
6
74
0
42
0.000000001
43
0.0000000001
44
0.0000000001
40
-0.07449415798532491
40
-0.07449415798532491
40
-0.07449415798532491
40
-0.07449415798532491
40
-0.044102949122350694
40
-0.044102949122350694
40
-0
40
-0
40
-0
40
-0
10
48.664734689518809
20
-10.040927737951277
30
0
10
48.596876793754447
20
-10.117318658626502
30
0
10
48.511688706108245
20
-10.199966320800698
30
0
10
48.329423053619678
20
-10.369424167040327
30
0
10
48.209132139747474
20
-10.473987108792775
30
0
10
48.0968629848212
20
-10.568895101547239
30
0
0
LWPOLYLINE
5
142
100
AcDbEntity
8
0
100
AcDbPolyline
90
8
70
1
43
0.0
10
32.999999999999957
20
-10.979999642372302
10
33.00000071525573
20
-16.000000000000007
10
63.000000739097658
20
-16.000000000000007
10
63.000002608047652
20
-10.979999592279452
10
57.980000800102019
20
-10.979999592279462
10
57.980000803093958
20
-0.99999959273120109
10
38.02000080309395
20
-0.99999964237220029
10
38.020000803093964
20
-10.979999642372281
0
SPLINE
5
143
100
AcDbEntity
8
0
100
AcDbSpline
70
0
71
3
72
10
73
6
74
0
42
0.000000001
43
0.0000000001
44
0.0000000001
40
-0.044094157244099152
40
-0.044094157244099152
40
-0.044094157244099152
40
-0.044094157244099152
40
-0.016883131770962949
40
-0.016883131770962949
40
-0
40
-0
40
-0
40
-0
10
48.0968629848212
20
12.431104898452762
30
0
10
48.010627349717709
20
12.358709610760863
30
0
10
47.909504474949031
20
12.27279004809728
30
0
10
47.772072883296993
20
12.1508856171
30
0
10
47.709942563820874
20
12.094379436165303
30
0
10
47.671214966103435
20
12.053547024726871
30
0
0
SPLINE
5
144
100
AcDbEntity
8
0
100
AcDbSpline
70
0
71
3
72
10
73
6
74
0
42
0.000000001
43
0.0000000001
44
0.0000000001
40
-0.025322306704970477
40
-0.025322306704970477
40
-0.025322306704970477
40
-0.025322306704970477
40
-0.012182895916153385
40
-0.012182895916153385
40
-0
40
-0
40
-0
40
-0
10
47.671214966103435
20
12.053547024726871
30
0
10
47.641077320032565
20
12.021771447033418
30
0
10
47.612191969398253
20
11.988583690005905
30
0
10
47.560301642141702
20
11.922013826132453
30
0
10
47.536894158552848
20
11.888658353926111
30
0
10
47.515689684078097
20
11.854024350643162
30
0
0
LINE
5
145
100
AcDbEntity
8
0
100
AcDbLine
10
47.515689684078097
20
11.85402435064316
30
0
11
48.987040249630809
21
11.854024350643162
31
0
0
LINE
5
146
100
AcDbEntity
8
0
100
AcDbLine
10
48.987040249630809
20
11.854024350643162
30
0
11
48.987040249630809
21
11.499999880790714
31
0
0
LINE
5
147
100
AcDbEntity
8
0
100
AcDbLine
10
48.987040249630809
20
11.499999880790714
30
0
11
47.00409347191453
21
11.499999880790714
31
0
0
SPLINE
5
148
100
AcDbEntity
8
0
100
AcDbSpline
70
0
71
3
72
10
73
6
74
0
42
0.000000001
43
0.0000000001
44
0.0000000001
40
-0.026194291034055864
40
-0.026194291034055864
40
-0.026194291034055864
40
-0.026194291034055864
40
-0.013058551578365206
40
-0.013058551578365206
40
-0
40
-0
40
-0
40
-0
10
47.00409347191453
20
11.499999880790714
30
0
10
47.002746854091093
20
11.543764907959886
30
0
10
47.005536251765996
20
11.587276181693644
30
0
10
47.020002334034444
20
11.673383810810291
30
0
10
47.031487144599495
20
11.715153405795583
30
0
10
47.047067554667592
20
11.755797982215885
30
0
0
SPLINE
5
149
100
AcDbEntity
8
0
100
AcDbSpline
70
0
71
3
72
10
73
6
74
0
42
0.000000001
43
0.0000000001
44
0.0000000001
40
-0.046926610397149432
40
-0.046926610397149432
40
-0.046926610397149432
40
-0.046926610397149432
40
-0.024482606591912329
40
-0.024482606591912329
40
-0
40
-0
40
-0
40
-0
10
47.047067554667592
20
11.755797982215885
30
0
10
47.073262021916058
20
11.825885862957222
30
0
10
47.106694298855601
20
11.892915788254966
30
0
10
47.187934607927595
20
12.026602377701153
30
0
10
47.236748060108987
20
12.092630185019221
30
0
10
47.289564153179526
20
12.15484303236008
30
0
0
SPLINE
5
150
100
AcDbEntity
8
0
100
AcDbSpline
70
0
71
3
72
10
73
6
74
0
42
0.000000001
43
0.0000000001
44
0.0000000001
40
-0.065225644701652444
40
-0.065225644701652444
40
-0.065225644701652444
40
-0.065225644701652444
40
-0.036407072865883759
40
-0.036407072865883759
40
-0
40
-0
40
-0
40
-0
10
47.289564153179526
20
12.15484303236008
30
0
10
47.351869455935791
20
12.228233255229613
30
0
10
47.42348073787835
20
12.300699383211718
30
0
10
47.581810143211278
20
12.449952556585483
30
0
10
47.677562737849186
20
12.532292592509869
30
0
10
47.771487785503268
20
12.609140396118168
30
0
0
SPLINE
5
151
100
AcDbEntity
8
0
100
AcDbSpline
70
0
71
3
72
10
73
6
74
0
42
0.000000001
43
0.0000000001
44
0.0000000001
40
-0.088511074464458578
40
-0.088511074464458578
40
-0.088511074464458578
40
-0.088511074464458578
40
-0.035183248076048196
40
-0.035183248076048196
40
-0
40
-0
40
-0
40
-0
10
47.771487785503268
20
12.609140396118168
30
0
10
47.9073123928641
20
12.720527971223339
30
0
10
48.054263651443193
20
12.846439458895647
30
0
10
48.26507333337765
20
13.04909090359136
30
0
10
48.363098434481657
20
13.149982876051451
30
0
10
48.432469991967082
20
13.244542896747593
30
0
0
SPLINE
5
152
100
AcDbEntity
8
0
100
AcDbSpline
70
0
71
3
72
10
73
6
74
0
42
0.000000001
43
0.0000000001
44
0.0000000001
40
-0.048254746592371958
40
-0.048254746592371958
40
-0.048254746592371958
40
-0.048254746592371958
40
-0.020904186135988774
40
-0.020904186135988774
40
-0
40
-0
40
-0
40
-0
10
48.432469991967082
20
13.244542896747593
30
0
10
48.48634464276909
20
13.317979161976405
30
0
10
48.534442583354604
20
13.398918673962566
30
0
10
48.589996167576786
20
13.549843416569979
30
0
10
48.604366360232234
20
13.617904643991059
30
0
10
48.604366360232234
20
13.687585264444355
30
0
0
SPLINE
5
153
100
AcDbEntity
8
0
100
AcDbSpline
70
0
71
3
72
12
73
8
74
0
42
0.000000001
43
0.0000000001
44
0.0000000001
40
-0.04158166433035218
40
-0.04158166433035218
40
-0.04158166433035218
40
-0.04158166433035218
40
-0.03076362771081334
40
-0.03076362771081334
40
-0.02040299947181148
40
-0.02040299947181148
40
-0
40
-0
40
-0
40
-0
10
48.604366360232234
20
13.687585264444355
30
0
10
48.604366360232234
20
13.723646100568496
30
0
10
48.601181868691015
20
13.759533606299254
30
0
10
48.587445794198473
20
13.828783063518342
30
0
10
48.577324841091823
20
13.861616304569221
30
0
10
48.536461793316064
20
13.955673310974667
30
0
10
48.496860192612985
20
14.009838651310805
30
0
10
48.447817889973521
20
14.056957781314853
30
0
0
SPLINE
5
154
100
AcDbEntity
8
0
100
AcDbSpline
70
0
71
3
72
12
73
8
74
0
42
0.000000001
43
0.0000000001
44
0.0000000001
40
-0.044794772966402878
40
-0.044794772966402878
40
-0.044794772966402878
40
-0.044794772966402878
40
-0.03405392674535479
40
-0.03405392674535479
40
-0.023302266723392188
40
-0.023302266723392188
40
-0
40
-0
40
-0
40
-0
10
48.447817889973521
20
14.056957781314853
30
0
10
48.421993148863649
20
14.08176974265427
30
0
10
48.393958258832512
20
14.103769429845592
30
0
10
48.333203891577469
20
14.141773166573479
30
0
10
48.301118683199135
20
14.15737146863597
30
0
10
48.194575027018715
20
14.196624341381776
30
0
10
48.117238442646055
20
14.207366824150089
30
0
10
48.039564220234752
20
14.207366824150089
30
0
0
SPLINE
5
155
100
AcDbEntity
8
0
100
AcDbSpline
70
0
71
3
72
10
73
6
74
0
42
0.000000001
43
0.0000000001
44
0.0000000001
40
-0.047100898029860963
40
-0.047100898029860963
40
-0.047100898029860963
40
-0.047100898029860963
40
-0.021107434524451931
40
-0.021107434524451931
40
-0
40
-0
40
-0
40
-0
10
48.039564220234752
20
14.207366824150089
30
0
10
47.952952779199755
20
14.207366824150089
30
0
10
47.866609102479501
20
14.194677685864365
30
0
10
47.721146698223194
20
14.135596141447962
30
0
10
47.663666838908021
20
14.097499552371481
30
0
10
47.61391612701118
20
14.047748863697056
30
0
0
SPLINE
5
156
100
AcDbEntity
8
0
100
AcDbSpline
70
0
71
3
72
12
73
8
74
0
42
0.000000001
43
0.0000000001
44
0.0000000001
40
-0.048371951376434394
40
-0.048371951376434394
40
-0.048371951376434394
40
-0.048371951376434394
40
-0.037107077693390743
40
-0.037107077693390743
40
-0.025609521829079506
40
-0.025609521829079506
40
-0
40
-0
40
-0
40
-0
10
47.61391612701118
20
14.047748863697056
30
0
10
47.587350096022341
20
14.021182845108594
30
0
10
47.564020688526568
20
13.992028948612463
30
0
10
47.523475526966251
20
13.927846837739907
30
0
10
47.506862314286835
20
13.893447792708436
30
0
10
47.464353389726668
20
13.777220871637192
30
0
10
47.452870284217994
20
13.691092590351257
30
0
10
47.452251715585589
20
13.605729758739475
30
0
0
LINE
5
157
100
AcDbEntity
8
0
100
AcDbLine
10
47.452251715585589
20
13.605729758739479
30
0
11
47.073670541867614
21
13.644611060619358
31
0
0
SPLINE
5
158
100
AcDbEntity
8
0
100
AcDbSpline
70
0
71
3
72
10
73
6
74
0
42
0.000000001
43
0.0000000001
44
0.0000000001
40
-0.073052811656718217
40
-0.073052811656718217
40
-0.073052811656718217
40
-0.073052811656718217
40
-0.030752194771697102
40
-0.030752194771697102
40
-0
40
-0
40
-0
40
-0
10
47.073670541867614
20
13.644611060619358
30
0
10
47.086550002262186
20
13.784929330261589
30
0
10
47.118616894487417
20
13.925051977554254
30
0
10
47.228280014493635
20
14.142469258858789
30
0
10
47.289158985043343
20
14.222744014644368
30
0
10
47.366303568705916
20
14.29024559259415
30
0
0
SPLINE
5
159
100
AcDbEntity
8
0
100
AcDbSpline
70
0
71
3
72
12
73
8
74
0
42
0.000000001
43
0.0000000001
44
0.0000000001
40
-0.073298480321725534
40
-0.073298480321725534
40
-0.073298480321725534
40
-0.073298480321725534
40
-0.056360480122598353
40
-0.056360480122598353
40
-0.038906623455030667
40
-0.038906623455030667
40
-0
40
-0
40
-0
40
-0
10
47.366303568705916
20
14.29024559259415
30
0
10
47.408815379766061
20
14.327443417129997
30
0
10
47.454769486791704
20
14.359775462919725
30
0
10
47.554833077718968
20
14.415835165886202
30
0
10
47.608196581646482
20
14.438737474476804
30
0
10
47.786909821901162
20
14.496966839760429
30
0
10
47.918060981251649
20
14.51227825880051
30
0
10
48.047749726101756
20
14.51227825880051
30
0
0
SPLINE
5
160
100
AcDbEntity
8
0
100
AcDbSpline
70
0
71
3
72
10
73
6
74
0
42
0.000000001
43
0.0000000001
44
0.0000000001
40
-0.074694886918561715
40
-0.074694886918561715
40
-0.074694886918561715
40
-0.074694886918561715
40
-0.032066327874302213
40
-0.032066327874302213
40
-0
40
-0
40
-0
40
-0
10
48.047749726101756
20
14.51227825880051
30
0
10
48.189762695794059
20
14.51227825880051
30
0
10
48.33287138881478
20
14.492853694108989
30
0
10
48.564719822764523
20
14.402087592887314
30
0
10
48.653795768123345
20
14.346519692648219
30
0
10
48.731242148205638
20
14.272851169109348
30
0
0
SPLINE
5
161
100
AcDbEntity
8
0
100
AcDbSpline
70
0
71
3
72
12
73
8
74
0
42
0.000000001
43
0.0000000001
44
0.0000000001
40
-0.066824983160657964
40
-0.066824983160657964
40
-0.066824983160657964
40
-0.066824983160657964
40
-0.04975041706480049
40
-0.04975041706480049
40
-0.033292874196215544
40
-0.033292874196215544
40
-0
40
-0
40
-0
40
-0
10
48.731242148205638
20
14.272851169109348
30
0
10
48.772482819453003
20
14.233622229586063
30
0
10
48.809921790311549
20
14.190881650476882
30
0
10
48.874038754889149
20
14.099316283369795
30
0
10
48.90047929825333
20
14.051592036360226
30
0
10
48.964397355693379
20
13.898557021431102
30
0
10
48.982947496697307
20
13.790375856886456
30
0
10
48.982947496697307
20
13.679399609565738
30
0
0
SPLINE
5
162
100
AcDbEntity
8
0
100
AcDbSpline
70
0
71
3
72
10
73
6
74
0
42
0.000000001
43
0.0000000001
44
0.0000000001
40
-0.036518110652536531
40
-0.036518110652536531
40
-0.036518110652536531
40
-0.036518110652536531
40
-0.018474038863521648
40
-0.018474038863521648
40
-0
40
-0
40
-0
40
-0
10
48.982947496697307
20
13.679399609565738
30
0
10
48.982947496697307
20
13.619252238820989
30
0
10
48.976783756159243
20
13.559738482532897
30
0
10
48.951984321348348
20
13.440563451457148
30
0
10
48.933293500393056
20
13.382079205584844
30
0
10
48.909277645871043
20
13.325375139713291
30
0
0
SPLINE
5
163
100
AcDbEntity
8
0
100
AcDbSpline
70
0
71
3
72
10
73
6
74
0
42
0.000000001
43
0.0000000001
44
0.0000000001
40
-0.043984563749343383
40
-0.043984563749343383
40
-0.043984563749343383
40
-0.043984563749343383
40
-0.023689944715821701
40
-0.023689944715821701
40
-0
40
-0
40
-0
40
-0
10
48.909277645871043
20
13.325375139713291
30
0
10
48.882877807545469
20
13.263042173278247
30
0
10
48.848880570043185
20
13.203109831142338
30
0
10
48.767447264812667
20
13.081130222779738
30
0
10
48.717177672024008
20
13.01810986808411
30
0
10
48.664734689518809
20
12.959072262048725
30
0
0
SPLINE
5
164
100
AcDbEntity
8
0
100
AcDbSpline
70
0
71
3
72
10
73
6
74
0
42
0.000000001
43
0.0000000001
44
0.0000000001
40
-0.07449415798532491
40
-0.07449415798532491
40
-0.07449415798532491
40
-0.07449415798532491
40
-0.044102949122350694
40
-0.044102949122350694
40
-0
40
-0
40
-0
40
-0
10
48.664734689518809
20
12.959072262048725
30
0
10
48.596876793754447
20
12.882681341373502
30
0
10
48.511688706108245
20
12.800033679199306
30
0
10
48.329423053619678
20
12.630575832959677
30
0
10
48.209132139747474
20
12.526012891207227
30
0
10
48.0968629848212
20
12.431104898452762
30
0
0
LWPOLYLINE
5
165
100
AcDbEntity
8
0
100
AcDbPolyline
90
10
70
1
43
0.0
10
63.000001454353395
20
0
10
63.000000715255737
20
15
10
47.999999999999986
20
15.000000715255732
10
33.00000071525573
20
15
10
33
20
0
10
37.985000727766462
20
2.4424906541753444e-14
10
37.98500025021405
20
10.014999999999986
10
48.000000250214008
20
10.015000527820845
10
58.015000250213973
20
10.015000050268403
10
58.014999772661568
20
-1.6241357148061297e-07
0
SPLINE
5
166
100
AcDbEntity
8
0
100
AcDbSpline
70
0
71
3
72
12
73
8
74
0
42
0.000000001
43
0.0000000001
44
0.0000000001
40
-0.0797954188911697
40
-0.0797954188911697
40
-0.0797954188911697
40
-0.0797954188911697
40
-0.060316707466653144
40
-0.060316707466653144
40
-0.041051453150395108
40
-0.041051453150395108
40
-0
40
-0
40
-0
40
-0
10
80.678036771714687
20
11.719986319541935
30
0
10
80.631039397041704
20
11.675170944534418
30
0
10
80.580228193816552
20
11.635146959249393
30
0
10
80.471024047783743
20
11.566162286658068
30
0
10
80.413781612386231
20
11.53775558094444
30
0
10
80.225627115822931
20
11.466798975262231
30
0
10
80.090454699420533
20
11.446793794631962
30
0
10
79.95361652225256
20
11.446793794631962
30
0
0
SPLINE
5
167
100
AcDbEntity
8
0
100
AcDbSpline
70
0
71
3
72
10
73
6
74
0
42
0.000000001
43
0.0000000001
44
0.0000000001
40
-0.071975418662481638
40
-0.071975418662481638
40
-0.071975418662481638
40
-0.071975418662481638
40
-0.034987765222785606
40
-0.034987765222785606
40
-0
40
-0
40
-0
40
-0
10
79.95361652225256
20
11.446793794631962
30
0
10
79.830346058781117
20
11.446793794631962
30
0
10
79.708221635256592
20
11.463987731617372
30
0
10
79.482400541883962
20
11.545015608807596
30
0
10
79.384353016067394
20
11.604015737712929
30
0
10
79.297750182449818
20
11.682128131389621
30
0
0
SPLINE
5
168
100
AcDbEntity
8
0
100
AcDbSpline
70
0
71
3
72
10
73
6
74
0
42
0.000000001
43
0.0000000001
44
0.0000000001
40
-0.07017614521853352
40
-0.07017614521853352
40
-0.07017614521853352
40
-0.07017614521853352
40
-0.035658616888832942
40
-0.035658616888832942
40
-0
40
-0
40
-0
40
-0
10
79.297750182449818
20
11.682128131389621
30
0
10
79.212303121494259
20
11.759198051992673
30
0
10
79.143342850696399
20
11.848848120396816
30
0
10
79.040699921964062
20
12.05907207956254
30
0
10
79.011636383591537
20
12.173659492516302
30
0
10
79.000001177191734
20
12.29195070266724
30
0
0
LINE
5
169
100
AcDbEntity
8
0
100
AcDbLine
10
79.00000117719172
20
12.29195070266724
30
0
11
79.368350431323051
21
12.34106403589249
31
0
0
SPLINE
5
170
100
AcDbEntity
8
0
100
AcDbSpline
70
0
71
3
72
10
73
6
74
0
42
0.000000001
43
0.0000000001
44
0.0000000001
40
-0.050350077756082294
40
-0.050350077756082294
40
-0.050350077756082294
40
-0.050350077756082294
40
-0.01875444589238414
40
-0.01875444589238414
40
-0
40
-0
40
-0
40
-0
10
79.368350431323051
20
12.34106403589249
30
0
10
79.389216017268382
20
12.238082255214469
30
0
10
79.421101527485988
20
12.130555818929231
30
0
10
79.500958984239617
20
11.983006576082008
30
0
10
79.537916525072163
20
11.931810615672795
30
0
10
79.584244005382061
20
11.889836013317112
30
0
0
SPLINE
5
171
100
AcDbEntity
8
0
100
AcDbSpline
70
0
71
3
72
10
73
6
74
0
42
0.000000001
43
0.0000000001
44
0.0000000001
40
-0.040971078580801304
40
-0.040971078580801304
40
-0.040971078580801304
40
-0.040971078580801304
40
-0.020788693003355244
40
-0.020788693003355244
40
-0
40
-0
40
-0
40
-0
10
79.584244005382061
20
11.889836013317112
30
0
10
79.634103096228785
20
11.844661746121703
30
0
10
79.690265707657971
20
11.809690283030641
30
0
10
79.818281905173848
20
11.762081025533995
30
0
10
79.886367255374793
20
11.751705229282383
30
0
10
79.955662898719311
20
11.751705229282383
30
0
0
SPLINE
5
172
100
AcDbEntity
8
0
100
AcDbSpline
70
0
71
3
72
10
73
6
74
0
42
0.000000001
43
0.0000000001
44
0.0000000001
40
-0.049313955321126333
40
-0.049313955321126333
40
-0.049313955321126333
40
-0.049313955321126333
40
-0.024522840541094652
40
-0.024522840541094652
40
-0
40
-0
40
-0
40
-0
10
79.955662898719311
20
11.751705229282383
30
0
10
80.038296660410623
20
11.751705229282383
30
0
10
80.118890281833686
20
11.765359356938978
30
0
10
80.270973749279605
20
11.827752537286241
30
0
10
80.336976371203491
20
11.873821637818061
30
0
10
80.394612364470959
20
11.931786954402927
30
0
0
SPLINE
5
173
100
AcDbEntity
8
0
100
AcDbSpline
70
0
71
3
72
12
73
8
74
0
42
0.000000001
43
0.0000000001
44
0.0000000001
40
-0.049693015361917676
40
-0.049693015361917676
40
-0.049693015361917676
40
-0.049693015361917676
40
-0.03729881620162389
40
-0.03729881620162389
40
-0.025236137109606462
40
-0.025236137109606462
40
-0
40
-0
40
-0
40
-0
10
80.394612364470959
20
11.931786954402927
30
0
10
80.423744874163646
20
11.961085946939566
30
0
10
80.4500416097043
20
11.992814453257752
30
0
10
80.495246765610332
20
12.060665255123959
30
0
10
80.513927547550196
20
12.096037173650808
30
0
10
80.560243524060766
20
12.211430132295913
30
0
10
80.573671124875546
20
12.293778653285212
30
0
10
80.573671124875546
20
12.377899110317234
30
0
0
SPLINE
5
174
100
AcDbEntity
8
0
100
AcDbSpline
70
0
71
3
72
10
73
6
74
0
42
0.000000001
43
0.0000000001
44
0.0000000001
40
-0.046753534560168411
40
-0.046753534560168411
40
-0.046753534560168411
40
-0.046753534560168411
40
-0.022051921032612557
40
-0.022051921032612557
40
-0
40
-0
40
-0
40
-0
10
80.573671124875546
20
12.377899110317234
30
0
10
80.573671124875546
20
12.460225018119457
30
0
10
80.560585654832266
20
12.541107978503659
30
0
10
80.500950966205465
20
12.685092963552442
30
0
10
80.460051442590768
20
12.744568964567208
30
0
10
80.407913886010647
20
12.796384662389759
30
0
0
SPLINE
5
175
100
AcDbEntity
8
0
100
AcDbSpline
70
0
71
3
72
12
73
8
74
0
42
0.000000001
43
0.0000000001
44
0.0000000001
40
-0.04673979080993626
40
-0.04673979080993626
40
-0.04673979080993626
40
-0.04673979080993626
40
-0.035274565044741399
40
-0.035274565044741399
40
-0.023989334629687262
40
-0.023989334629687262
40
-0
40
-0
40
-0
40
-0
10
80.407913886010647
20
12.796384662389759
30
0
10
80.380802228976606
20
12.823328976304344
30
0
10
80.351364624662011
20
12.84748408971045
30
0
10
80.287952629320586
20
12.889098224592857
30
0
10
80.254689540317784
20
12.906241155275994
30
0
10
80.145154649716574
20
12.949044846053727
30
0
10
80.066323143497812
20
12.961118638515476
30
0
10
79.986358694732189
20
12.961118638515476
30
0
0
SPLINE
5
176
100
AcDbEntity
8
0
100
AcDbSpline
70
0
71
3
72
10
73
6
74
0
42
0.000000001
43
0.0000000001
44
0.0000000001
40
-0.026010381211789856
40
-0.026010381211789856
40
-0.026010381211789856
40
-0.026010381211789856
40
-0.014427842887021945
40
-0.014427842887021945
40
-0
40
-0
40
-0
40
-0
10
79.986358694732189
20
12.961118638515476
30
0
10
79.947680258328134
20
12.961118638515476
30
0
10
79.907368927383374
20
12.956897074115684
30
0
10
79.821661788734303
20
12.943399891957059
30
0
10
79.772977172562946
20
12.932430255768089
30
0
10
79.726467840373516
20
12.920190960168842
30
0
0
LINE
5
177
100
AcDbEntity
8
0
100
AcDbLine
10
79.726467840373502
20
12.920190960168842
30
0
11
79.76739551872015
21
13.243519783020023
31
0
0
SPLINE
5
178
100
AcDbEntity
8
0
100
AcDbSpline
70
0
71
3
72
10
73
6
74
0
42
0.000000001
43
0.0000000001
44
0.0000000001
40
-0.0058487784124254963
40
-0.0058487784124254963
40
-0.0058487784124254963
40
-0.0058487784124254963
40
-0.0025514540687003131
40
-0.0025514540687003131
40
-0
40
-0
40
-0
40
-0
10
79.76739551872015
20
13.243519783020023
30
0
10
79.778288223149787
20
13.242309487423977
30
0
10
79.789705204597027
20
13.241204978043122
30
0
10
79.809117697424298
20
13.239866188795965
30
0
10
79.818235738371882
20
13.239427030086521
30
0
10
79.826740585267544
20
13.239427030086521
30
0
0
SPLINE
5
179
100
AcDbEntity
8
0
100
AcDbSpline
70
0
71
3
72
10
73
6
74
0
42
0.000000001
43
0.0000000001
44
0.0000000001
40
-0.045024479300151535
40
-0.045024479300151535
40
-0.045024479300151535
40
-0.045024479300151535
40
-0.02226175326691766
40
-0.02226175326691766
40
-0
40
-0
40
-0
40
-0
10
79.826740585267544
20
13.239427030086521
30
0
10
79.902614487699438
20
13.239427030086521
30
0
10
79.977432023336775
20
13.248999276614716
30
0
10
80.121580449585807
20
13.290781404899249
30
0
10
80.188186694683623
20
13.321673812303032
30
0
10
80.250342302024364
20
13.362210065126423
30
0
0
SPLINE
5
180
100
AcDbEntity
8
0
100
AcDbSpline
70
0
71
3
72
12
73
8
74
0
42
0.000000001
43
0.0000000001
44
0.0000000001
40
-0.044453591360526276
40
-0.044453591360526276
40
-0.044453591360526276
40
-0.044453591360526276
40
-0.032077825303269775
40
-0.032077825303269775
40
-0.019977818230035145
40
-0.019977818230035145
40
-0
40
-0
40
-0
40
-0
10
80.250342302024364
20
13.362210065126423
30
0
10
80.2849115299354
20
13.384755206626362
30
0
10
80.316003410254126
20
13.411500778128545
30
0
10
80.368387071736436
20
13.474099939410515
30
0
10
80.388757598413491
20
13.508393501177755
30
0
10
80.429040048334201
20
13.60749723993152
30
0
10
80.438609682023525
20
13.674198474158047
30
0
10
80.438609682023525
20
13.740791201591495
30
0
0
SPLINE
5
181
100
AcDbEntity
8
0
100
AcDbSpline
70
0
71
3
72
12
73
8
74
0
42
0.000000001
43
0.0000000001
44
0.0000000001
40
-0.037566623331885977
40
-0.037566623331885977
40
-0.037566623331885977
40
-0.037566623331885977
40
-0.027426842253499201
40
-0.027426842253499201
40
-0.017834053410073759
40
-0.017834053410073759
40
-0
40
-0
40
-0
40
-0
10
80.438609682023525
20
13.740791201591495
30
0
10
80.438609682023525
20
13.774589483899328
30
0
10
80.435747696338183
20
13.808294564460548
30
0
10
80.423263704120998
20
13.872874845103713
30
0
10
80.414100235874017
20
13.903362973033364
30
0
10
80.378079446615544
20
13.987391952240905
30
0
10
80.344169174033226
20
14.035004561194036
30
0
10
80.301501862704754
20
14.076398134231571
30
0
0
SPLINE
5
182
100
AcDbEntity
8
0
100
AcDbSpline
70
0
71
3
72
12
73
8
74
0
42
0.000000001
43
0.0000000001
44
0.0000000001
40
-0.038977292225106486
40
-0.038977292225106486
40
-0.038977292225106486
40
-0.038977292225106486
40
-0.029554184383017094
40
-0.029554184383017094
40
-0.020178133282492478
40
-0.020178133282492478
40
-0
40
-0
40
-0
40
-0
10
80.301501862704754
20
14.076398134231571
30
0
10
80.278952296447628
20
14.098274606541473
30
0
10
80.254479936598358
20
14.117747290844914
30
0
10
80.201572300290195
20
14.151353171198135
30
0
10
80.173705183976296
20
14.165164626158306
30
0
10
80.081464390402374
20
14.199821634558688
30
0
10
80.014737837127271
20
14.209413349628452
30
0
10
79.947477392852306
20
14.209413349628452
30
0
0
SPLINE
5
183
100
AcDbEntity
8
0
100
AcDbSpline
70
0
71
3
72
10
73
6
74
0
42
0.000000001
43
0.0000000001
44
0.0000000001
40
-0.039635385492836746
40
-0.039635385492836746
40
-0.039635385492836746
40
-0.039635385492836746
40
-0.019407520682408867
40
-0.019407520682408867
40
-0
40
-0
40
-0
40
-0
10
79.947477392852306
20
14.209413349628452
30
0
10
79.880060418697724
20
14.209413349628452
30
0
10
79.813601545958022
20
14.199441450351276
30
0
10
79.689982702882759
20
14.152819474920047
30
0
10
79.63642903696477
20
14.118731275826041
30
0
10
79.589360021054745
20
14.074351906776432
30
0
0
SPLINE
5
184
100
AcDbEntity
8
0
100
AcDbSpline
70
0
71
3
72
10
73
6
74
0
42
0.000000001
43
0.0000000001
44
0.0000000001
40
-0.045304867918315034
40
-0.045304867918315034
40
-0.045304867918315034
40
-0.045304867918315034
40
-0.024450379694859133
40
-0.024450379694859133
40
-0
40
-0
40
-0
40
-0
10
79.589360021054745
20
14.074351906776432
30
0
10
79.538734772190821
20
14.026619569901557
30
0
10
79.500480308925219
20
13.968857544441104
30
0
10
79.43794170220896
20
13.831272637494543
30
0
10
79.417394686406681
20
13.749749291944219
30
0
10
79.405185356736183
20
13.669167727231983
30
0
0
LINE
5
185
100
AcDbEntity
8
0
100
AcDbLine
10
79.405185356736183
20
13.669167727231983
30
0
11
79.036836102604866
21
13.734652072191242
31
0
0
SPLINE
5
186
100
AcDbEntity
8
0
100
AcDbSpline
70
0
71
3
72
10
73
6
74
0
42
0.000000001
43
0.0000000001
44
0.0000000001
40
-0.066845596525704293
40
-0.066845596525704293
40
-0.066845596525704293
40
-0.066845596525704293
40
-0.031976134427676328
40
-0.031976134427676328
40
-0
40
-0
40
-0
40
-0
10
79.036836102604866
20
13.734652072191242
30
0
10
79.057678008597847
20
13.848966787163594
30
0
10
79.092530118151728
20
13.960856496987626
30
0
10
79.197603645287643
20
14.157343945422237
30
0
10
79.262597988229572
20
14.239611742981268
30
0
10
79.343793801963329
20
14.308662831783298
30
0
0
SPLINE
5
187
100
AcDbEntity
8
0
100
AcDbSpline
70
0
71
3
72
10
73
6
74
0
42
0.000000001
43
0.0000000001
44
0.0000000001
40
-0.064816950365892884
40
-0.064816950365892884
40
-0.064816950365892884
40
-0.064816950365892884
40
-0.033373604725199124
40
-0.033373604725199124
40
-0
40
-0
40
-0
40
-0
10
79.343793801963329
20
14.308662831783298
30
0
10
79.423650152067239
20
14.376574904336417
30
0
10
79.513191032837611
20
14.427458635291954
30
0
10
79.71766172396174
20
14.497372206050361
30
0
10
79.828046388889689
20
14.51227825880051
30
0
10
79.93929173797369
20
14.51227825880051
30
0
0
SPLINE
5
188
100
AcDbEntity
8
0
100
AcDbSpline
70
0
71
3
72
10
73
6
74
0
42
0.000000001
43
0.0000000001
44
0.0000000001
40
-0.047073570428141046
40
-0.047073570428141046
40
-0.047073570428141046
40
-0.047073570428141046
40
-0.023209357897658725
40
-0.023209357897658725
40
-0
40
-0
40
-0
40
-0
10
79.93929173797369
20
14.51227825880051
30
0
10
80.018837833763584
20
14.51227825880051
30
0
10
80.097665948329094
20
14.503984411200257
30
0
10
80.250483424864413
20
14.468373125451707
30
0
10
80.322621038264259
20
14.442032782859124
30
0
10
80.391542874276638
20
14.406889498233799
30
0
0
SPLINE
5
189
100
AcDbEntity
8
0
100
AcDbSpline
70
0
71
3
72
10
73
6
74
0
42
0.000000001
43
0.0000000001
44
0.0000000001
40
-0.043545741403576352
40
-0.043545741403576352
40
-0.043545741403576352
40
-0.043545741403576352
40
-0.02130861102578133
40
-0.02130861102578133
40
-0
40
-0
40
-0
40
-0
10
80.391542874276638
20
14.406889498233799
30
0
10
80.457574231180303
20
14.373219951115743
30
0
10
80.519087774561925
20
14.332185540823581
30
0
10
80.626476131619398
20
14.23452807798078
30
0
10
80.671115038478206
20
14.18024859143542
30
0
10
80.707709304988384
20
14.119372189044956
30
0
0
SPLINE
5
190
100
AcDbEntity
8
0
100
AcDbSpline
70
0
71
3
72
10
73
6
74
0
42
0.000000001
43
0.0000000001
44
0.0000000001
40
-0.040933124394295479
40
-0.040933124394295479
40
-0.040933124394295479
40
-0.040933124394295479
40
-0.020278942442341304
40
-0.020278942442341304
40
-0
40
-0
40
-0
40
-0
10
80.707709304988384
20
14.119372189044956
30
0
10
80.743179155226542
20
14.060366325904148
30
0
10
80.7710687104653
20
13.99786102182361
30
0
10
80.808231493483547
20
13.866575667698825
30
0
10
80.817190818488598
20
13.800202170532296
30
0
10
80.817190818488598
20
13.732605695724491
30
0
0
SPLINE
5
191
100
AcDbEntity
8
0
100
AcDbSpline
70
0
71
3
72
10
73
6
74
0
42
0.000000001
43
0.0000000001
44
0.0000000001
40
-0.037687760131599163
40
-0.037687760131599163
40
-0.037687760131599163
40
-0.037687760131599163
40
-0.018756277766026397
40
-0.018756277766026397
40
-0
40
-0
40
-0
40
-0
10
80.817190818488598
20
13.732605695724491
30
0
10
80.817190818488598
20
13.669501363125677
30
0
10
80.808943458275621
20
13.607426075388069
30
0
10
80.77342057023003
20
13.486926754542125
30
0
10
80.747039836466584
20
13.43090935484615
30
0
10
80.712825320661068
20
13.378581225872043
30
0
0
SPLINE
5
192
100
AcDbEntity
8
0
100
AcDbSpline
70
0
71
3
72
10
73
6
74
0
42
0.000000001
43
0.0000000001
44
0.0000000001
40
-0.040676909354517204
40
-0.040676909354517204
40
-0.040676909354517204
40
-0.040676909354517204
40
-0.02116205367998342
40
-0.02116205367998342
40
-0
40
-0
40
-0
40
-0
10
80.712825320661068
20
13.378581225872043
30
0
10
80.67722127098682
20
13.324127952497062
30
0
10
80.633670395484927
20
13.276622900607183
30
0
10
80.528868590747763
20
13.190560511165971
30
0
10
80.467906225633129
20
13.154308608024101
30
0
10
80.403821133077145
20
13.124829500913624
30
0
0
SPLINE
5
193
100
AcDbEntity
8
0
100
AcDbSpline
70
0
71
3
72
10
73
6
74
0
42
0.000000001
43
0.0000000001
44
0.0000000001
40
-0.049976170586399728
40
-0.049976170586399728
40
-0.049976170586399728
40
-0.049976170586399728
40
-0.024295280774931337
40
-0.024295280774931337
40
-0
40
-0
40
-0
40
-0
10
80.403821133077145
20
13.124829500913624
30
0
10
80.487219834084868
20
13.105583628867922
30
0
10
80.567305060662022
20
13.075354575725424
30
0
10
80.709120152610922
20
12.987948702528287
30
0
10
80.76811085754882
20
12.934471974358706
30
0
10
80.817190818488598
20
12.870054513216022
30
0
0
SPLINE
5
194
100
AcDbEntity
8
0
100
AcDbSpline
70
0
71
3
72
10
73
6
74
0
42
0.000000001
43
0.0000000001
44
0.0000000001
40
-0.051794723715038946
40
-0.051794723715038946
40
-0.051794723715038946
40
-0.051794723715038946
40
-0.02700948653498025
40
-0.02700948653498025
40
-0
40
-0
40
-0
40
-0
10
80.817190818488598
20
12.870054513216022
30
0
10
80.867272728153154
20
12.804321943468542
30
0
10
80.903628188645058
20
12.731424994657313
30
0
10
80.953922831361083
20
12.566221096566569
30
0
10
80.964530520141125
20
12.476116237967505
30
0
10
80.964530520141125
20
12.386084616184238
30
0
0
SPLINE
5
195
100
AcDbEntity
8
0
100
AcDbSpline
70
0
71
3
72
12
73
8
74
0
42
0.000000001
43
0.0000000001
44
0.0000000001
40
-0.075168045613856926
40
-0.075168045613856926
40
-0.075168045613856926
40
-0.075168045613856926
40
-0.055796278328599444
40
-0.055796278328599444
40
-0.037175483196748765
40
-0.037175483196748765
40
-0
40
-0
40
-0
40
-0
10
80.964530520141125
20
12.386084616184238
30
0
10
80.964530520141125
20
12.321509478764179
30
0
10
80.958726490587395
20
12.257286266664778
30
0
10
80.933766447145317
20
12.133120645162238
30
0
10
80.915355022436671
20
12.074193669482083
30
0
10
80.840601262698925
20
11.903877803537577
30
0
10
80.767717365455681
20
11.805503163267822
30
0
10
80.678036771714687
20
11.719986319541935
30
0
0
LWPOLYLINE
5
196
100
AcDbEntity
8
0
100
AcDbPolyline
90
10
70
1
43
0.0
10
96.000001505801166
20
7.528968781755907e-08
10
96.000000715255737
20
15
10
81
20
15.000000715255732
10
66.000000715255737
20
15
10
66
20
0
10
70.985000477552504
20
3.3882604868736584e-10
10
70.985000000000099
20
10.015000000338834
10
81.000000500427817
20
10.015000050607243
10
91.01500050042786
20
10.015000050607243
10
91.01500050042786
20
-1.874349053743174e-07
0
SPLINE
5
197
100
AcDbEntity
8
0
100
AcDbSpline
70
0
71
3
72
12
73
8
74
0
42
0.000000001
43
0.0000000001
44
0.0000000001
40
-0.0797954188911697
40
-0.0797954188911697
40
-0.0797954188911697
40
-0.0797954188911697
40
-0.060316707466653144
40
-0.060316707466653144
40
-0.041051453150395108
40
-0.041051453150395108
40
-0
40
-0
40
-0
40
-0
10
80.678036771714687
20
-11.280013680458067
30
0
10
80.631039397041704
20
-11.324829055465583
30
0
10
80.580228193816552
20
-11.364853040750608
30
0
10
80.471024047783743
20
-11.433837713341934
30
0
10
80.413781612386231
20
-11.462244419055562
30
0
10
80.225627115822931
20
-11.533201024737771
30
0
10
80.090454699420533
20
-11.55320620536804
30
0
10
79.95361652225256
20
-11.55320620536804
30
0
0
SPLINE
5
198
100
AcDbEntity
8
0
100
AcDbSpline
70
0
71
3
72
10
73
6
74
0
42
0.000000001
43
0.0000000001
44
0.0000000001
40
-0.071975418662481638
40
-0.071975418662481638
40
-0.071975418662481638
40
-0.071975418662481638
40
-0.034987765222785606
40
-0.034987765222785606
40
-0
40
-0
40
-0
40
-0
10
79.95361652225256
20
-11.55320620536804
30
0
10
79.830346058781117
20
-11.55320620536804
30
0
10
79.708221635256592
20
-11.536012268382629
30
0
10
79.482400541883962
20
-11.454984391192406
30
0
10
79.384353016067394
20
-11.395984262287072
30
0
10
79.297750182449818
20
-11.31787186861038
30
0
0
SPLINE
5
199
100
AcDbEntity
8
0
100
AcDbSpline
70
0
71
3
72
10
73
6
74
0
42
0.000000001
43
0.0000000001
44
0.0000000001
40
-0.07017614521853352
40
-0.07017614521853352
40
-0.07017614521853352
40
-0.07017614521853352
40
-0.035658616888832942
40
-0.035658616888832942
40
-0
40
-0
40
-0
40
-0
10
79.297750182449818
20
-11.31787186861038
30
0
10
79.212303121494259
20
-11.240801948007331
30
0
10
79.143342850696399
20
-11.151151879603187
30
0
10
79.040699921964062
20
-10.940927920437462
30
0
10
79.011636383591537
20
-10.8263405074837
30
0
10
79.000001177191734
20
-10.708049297332762
30
0
0
LINE
5
200
100
AcDbEntity
8
0
100
AcDbLine
10
79.00000117719172
20
-10.708049297332762
30
0
11
79.368350431323051
21
-10.658935964107512
31
0
0
SPLINE
5
201
100
AcDbEntity
8
0
100
AcDbSpline
70
0
71
3
72
10
73
6
74
0
42
0.000000001
43
0.0000000001
44
0.0000000001
40
-0.050350077756082294
40
-0.050350077756082294
40
-0.050350077756082294
40
-0.050350077756082294
40
-0.01875444589238414
40
-0.01875444589238414
40
-0
40
-0
40
-0
40
-0
10
79.368350431323051
20
-10.658935964107512
30
0
10
79.389216017268382
20
-10.761917744785535
30
0
10
79.421101527485988
20
-10.86944418107077
30
0
10
79.500958984239617
20
-11.016993423917993
30
0
10
79.537916525072163
20
-11.068189384327207
30
0
10
79.584244005382061
20
-11.11016398668289
30
0
0
SPLINE
5
202
100
AcDbEntity
8
0
100
AcDbSpline
70
0
71
3
72
10
73
6
74
0
42
0.000000001
43
0.0000000001
44
0.0000000001
40
-0.040971078580801304
40
-0.040971078580801304
40
-0.040971078580801304
40
-0.040971078580801304
40
-0.020788693003355244
40
-0.020788693003355244
40
-0
40
-0
40
-0
40
-0
10
79.584244005382061
20
-11.11016398668289
30
0
10
79.634103096228785
20
-11.1553382538783
30
0
10
79.690265707657971
20
-11.190309716969363
30
0
10
79.818281905173848
20
-11.237918974466009
30
0
10
79.886367255374793
20
-11.248294770717619
30
0
10
79.955662898719311
20
-11.248294770717619
30
0
0
SPLINE
5
203
100
AcDbEntity
8
0
100
AcDbSpline
70
0
71
3
72
10
73
6
74
0
42
0.000000001
43
0.0000000001
44
0.0000000001
40
-0.049313955321126333
40
-0.049313955321126333
40
-0.049313955321126333
40
-0.049313955321126333
40
-0.024522840541094652
40
-0.024522840541094652
40
-0
40
-0
40
-0
40
-0
10
79.955662898719311
20
-11.248294770717619
30
0
10
80.038296660410623
20
-11.248294770717619
30
0
10
80.118890281833686
20
-11.234640643061024
30
0
10
80.270973749279605
20
-11.172247462713763
30
0
10
80.336976371203491
20
-11.126178362181943
30
0
10
80.394612364470959
20
-11.068213045597075
30
0
0
SPLINE
5
204
100
AcDbEntity
8
0
100
AcDbSpline
70
0
71
3
72
12
73
8
74
0
42
0.000000001
43
0.0000000001
44
0.0000000001
40
-0.049693015361917676
40
-0.049693015361917676
40
-0.049693015361917676
40
-0.049693015361917676
40
-0.03729881620162389
40
-0.03729881620162389
40
-0.025236137109606462
40
-0.025236137109606462
40
-0
40
-0
40
-0
40
-0
10
80.394612364470959
20
-11.068213045597075
30
0
10
80.423744874163646
20
-11.038914053060438
30
0
10
80.4500416097043
20
-11.007185546742251
30
0
10
80.495246765610332
20
-10.939334744876044
30
0
10
80.513927547550196
20
-10.903962826349193
30
0
10
80.560243524060766
20
-10.788569867704091
30
0
10
80.573671124875546
20
-10.706221346714791
30
0
10
80.573671124875546
20
-10.622100889682768
30
0
0
SPLINE
5
205
100
AcDbEntity
8
0
100
AcDbSpline
70
0
71
3
72
10
73
6
74
0
42
0.000000001
43
0.0000000001
44
0.0000000001
40
-0.046753534560168411
40
-0.046753534560168411
40
-0.046753534560168411
40
-0.046753534560168411
40
-0.022051921032612557
40
-0.022051921032612557
40
-0
40
-0
40
-0
40
-0
10
80.573671124875546
20
-10.622100889682768
30
0
10
80.573671124875546
20
-10.539774981880544
30
0
10
80.560585654832266
20
-10.458892021496345
30
0
10
80.500950966205465
20
-10.314907036447561
30
0
10
80.460051442590768
20
-10.255431035432796
30
0
10
80.407913886010647
20
-10.203615337610243
30
0
0
SPLINE
5
206
100
AcDbEntity
8
0
100
AcDbSpline
70
0
71
3
72
12
73
8
74
0
42
0.000000001
43
0.0000000001
44
0.0000000001
40
-0.04673979080993626
40
-0.04673979080993626
40
-0.04673979080993626
40
-0.04673979080993626
40
-0.035274565044741399
40
-0.035274565044741399
40
-0.023989334629687262
40
-0.023989334629687262
40
-0
40
-0
40
-0
40
-0
10
80.407913886010647
20
-10.203615337610243
30
0
10
80.380802228976606
20
-10.176671023695658
30
0
10
80.351364624662011
20
-10.152515910289551
30
0
10
80.287952629320586
20
-10.110901775407147
30
0
10
80.254689540317784
20
-10.093758844724007
30
0
10
80.145154649716574
20
-10.050955153946274
30
0
10
80.066323143497812
20
-10.038881361484526
30
0
10
79.986358694732189
20
-10.038881361484526
30
0
0
SPLINE
5
207
100
AcDbEntity
8
0
100
AcDbSpline
70
0
71
3
72
10
73
6
74
0
42
0.000000001
43
0.0000000001
44
0.0000000001
40
-0.026010381211789856
40
-0.026010381211789856
40
-0.026010381211789856
40
-0.026010381211789856
40
-0.014427842887021945
40
-0.014427842887021945
40
-0
40
-0
40
-0
40
-0
10
79.986358694732189
20
-10.038881361484526
30
0
10
79.947680258328134
20
-10.038881361484526
30
0
10
79.907368927383374
20
-10.04310292588432
30
0
10
79.821661788734303
20
-10.056600108042943
30
0
10
79.772977172562946
20
-10.067569744231912
30
0
10
79.726467840373516
20
-10.07980903983116
30
0
0
LINE
5
208
100
AcDbEntity
8
0
100
AcDbLine
10
79.726467840373502
20
-10.07980903983116
30
0
11
79.76739551872015
21
-9.7564802169799787
31
0
0
SPLINE
5
209
100
AcDbEntity
8
0
100
AcDbSpline
70
0
71
3
72
10
73
6
74
0
42
0.000000001
43
0.0000000001
44
0.0000000001
40
-0.0058487784124254963
40
-0.0058487784124254963
40
-0.0058487784124254963
40
-0.0058487784124254963
40
-0.0025514540687003131
40
-0.0025514540687003131
40
-0
40
-0
40
-0
40
-0
10
79.76739551872015
20
-9.7564802169799787
30
0
10
79.778288223149787
20
-9.7576905125760245
30
0
10
79.789705204597027
20
-9.7587950219568818
30
0
10
79.809117697424298
20
-9.760133811204037
30
0
10
79.818235738371882
20
-9.7605729699134809
30
0
10
79.826740585267544
20
-9.7605729699134809
30
0
0
SPLINE
5
210
100
AcDbEntity
8
0
100
AcDbSpline
70
0
71
3
72
10
73
6
74
0
42
0.000000001
43
0.0000000001
44
0.0000000001
40
-0.045024479300151535
40
-0.045024479300151535
40
-0.045024479300151535
40
-0.045024479300151535
40
-0.02226175326691766
40
-0.02226175326691766
40
-0
40
-0
40
-0
40
-0
10
79.826740585267544
20
-9.7605729699134809
30
0
10
79.902614487699438
20
-9.7605729699134809
30
0
10
79.977432023336775
20
-9.7510007233852853
30
0
10
80.121580449585807
20
-9.7092185951007526
30
0
10
80.188186694683623
20
-9.6783261876969693
30
0
10
80.250342302024364
20
-9.6377899348735792
30
0
0
SPLINE
5
211
100
AcDbEntity
8
0
100
AcDbSpline
70
0
71
3
72
12
73
8
74
0
42
0.000000001
43
0.0000000001
44
0.0000000001
40
-0.044453591360530953
40
-0.044453591360530953
40
-0.044453591360530953
40
-0.044453591360530953
40
-0.03207782530327237
40
-0.03207782530327237
40
-0.019977818230036037
40
-0.019977818230036037
40
-0
40
-0
40
-0
40
-0
10
80.250342302024364
20
-9.6377899348735792
30
0
10
80.2849115299354
20
-9.6152447933736411
30
0
10
80.316003410254126
20
-9.5884992218714569
30
0
10
80.368387071736436
20
-9.525900060589489
30
0
10
80.388757598413477
20
-9.4916064988222502
30
0
10
80.429040048334201
20
-9.3925027600684814
30
0
10
80.438609682023525
20
-9.3258015258419604
30
0
10
80.438609682023525
20
-9.2592087984085065
30
0
0
SPLINE
5
212
100
AcDbEntity
8
0
100
AcDbSpline
70
0
71
3
72
12
73
8
74
0
42
0.000000001
43
0.0000000001
44
0.0000000001
40
-0.037566623331889468
40
-0.037566623331889468
40
-0.037566623331889468
40
-0.037566623331889468
40
-0.027426842253501369
40
-0.027426842253501369
40
-0.017834053410074772
40
-0.017834053410074772
40
-0
40
-0
40
-0
40
-0
10
80.438609682023525
20
-9.2592087984085065
30
0
10
80.438609682023525
20
-9.2254105161006716
30
0
10
80.435747696338183
20
-9.1917054355394541
30
0
10
80.423263704120998
20
-9.1271251548962944
30
0
10
80.414100235874017
20
-9.0966370269666417
30
0
10
80.378079446615544
20
-9.0126080477590982
30
0
10
80.344169174033226
20
-8.9649954388059694
30
0
10
80.301501862704754
20
-8.9236018657684308
30
0
0
SPLINE
5
213
100
AcDbEntity
8
0
100
AcDbSpline
70
0
71
3
72
12
73
8
74
0
42
0.000000001
43
0.0000000001
44
0.0000000001
40
-0.038977292225106486
40
-0.038977292225106486
40
-0.038977292225106486
40
-0.038977292225106486
40
-0.029554184383017094
40
-0.029554184383017094
40
-0.020178133282492478
40
-0.020178133282492478
40
-0
40
-0
40
-0
40
-0
10
80.301501862704754
20
-8.9236018657684308
30
0
10
80.278952296447628
20
-8.9017253934585288
30
0
10
80.254479936598358
20
-8.8822527091550914
30
0
10
80.201572300290195
20
-8.8486468288018685
30
0
10
80.173705183976296
20
-8.8348353738416954
30
0
10
80.081464390402374
20
-8.8001783654413153
30
0
10
80.014737837127271
20
-8.7905866503715497
30
0
10
79.947477392852306
20
-8.7905866503715497
30
0
0
SPLINE
5
214
100
AcDbEntity
8
0
100
AcDbSpline
70
0
71
3
72
10
73
6
74
0
42
0.000000001
43
0.0000000001
44
0.0000000001
40
-0.039635385492836746
40
-0.039635385492836746
40
-0.039635385492836746
40
-0.039635385492836746
40
-0.019407520682408867
40
-0.019407520682408867
40
-0
40
-0
40
-0
40
-0
10
79.947477392852306
20
-8.7905866503715497
30
0
10
79.880060418697724
20
-8.7905866503715497
30
0
10
79.813601545958022
20
-8.8005585496487289
30
0
10
79.689982702882759
20
-8.8471805250799544
30
0
10
79.63642903696477
20
-8.8812687241739603
30
0
10
79.589360021054745
20
-8.92564809322357
30
0
0
SPLINE
5
215
100
AcDbEntity
8
0
100
AcDbSpline
70
0
71
3
72
10
73
6
74
0
42
0.000000001
43
0.0000000001
44
0.0000000001
40
-0.045304867918315034
40
-0.045304867918315034
40
-0.045304867918315034
40
-0.045304867918315034
40
-0.024450379694859133
40
-0.024450379694859133
40
-0
40
-0
40
-0
40
-0
10
79.589360021054745
20
-8.92564809322357
30
0
10
79.538734772190821
20
-8.9733804300984463
30
0
10
79.500480308925219
20
-9.0311424555588999
30
0
10
79.43794170220896
20
-9.1687273625054591
30
0
10
79.417394686406681
20
-9.2502507080557823
30
0
10
79.405185356736183
20
-9.3308322727680189
30
0
0
LINE
5
216
100
AcDbEntity
8
0
100
AcDbLine
10
79.405185356736183
20
-9.3308322727680189
30
0
11
79.036836102604866
21
-9.2653479278087598
31
0
0
SPLINE
5
217
100
AcDbEntity
8
0
100
AcDbSpline
70
0
71
3
72
10
73
6
74
0
42
0.000000001
43
0.0000000001
44
0.0000000001
40
-0.066845596525704293
40
-0.066845596525704293
40
-0.066845596525704293
40
-0.066845596525704293
40
-0.031976134427676328
40
-0.031976134427676328
40
-0
40
-0
40
-0
40
-0
10
79.036836102604866
20
-9.2653479278087598
30
0
10
79.057678008597847
20
-9.1510332128364098
30
0
10
79.092530118151728
20
-9.0391435030123759
30
0
10
79.197603645287643
20
-8.8426560545777644
30
0
10
79.262597988229572
20
-8.7603882570187341
30
0
10
79.343793801963329
20
-8.6913371682167035
30
0
0
SPLINE
5
218
100
AcDbEntity
8
0
100
AcDbSpline
70
0
71
3
72
10
73
6
74
0
42
0.000000001
43
0.0000000001
44
0.0000000001
40
-0.064816950365892884
40
-0.064816950365892884
40
-0.064816950365892884
40
-0.064816950365892884
40
-0.033373604725199124
40
-0.033373604725199124
40
-0
40
-0
40
-0
40
-0
10
79.343793801963329
20
-8.6913371682167035
30
0
10
79.423650152067239
20
-8.6234250956635865
30
0
10
79.513191032837611
20
-8.572541364708048
30
0
10
79.71766172396174
20
-8.5026277939496424
30
0
10
79.828046388889689
20
-8.4877217411994916
30
0
10
79.93929173797369
20
-8.4877217411994916
30
0
0
SPLINE
5
219
100
AcDbEntity
8
0
100
AcDbSpline
70
0
71
3
72
10
73
6
74
0
42
0.000000001
43
0.0000000001
44
0.0000000001
40
-0.047073570428141046
40
-0.047073570428141046
40
-0.047073570428141046
40
-0.047073570428141046
40
-0.023209357897658725
40
-0.023209357897658725
40
-0
40
-0
40
-0
40
-0
10
79.93929173797369
20
-8.4877217411994916
30
0
10
80.018837833763584
20
-8.4877217411994916
30
0
10
80.097665948329094
20
-8.4960155887997448
30
0
10
80.250483424864413
20
-8.5316268745482944
30
0
10
80.322621038264259
20
-8.5579672171408792
30
0
10
80.391542874276638
20
-8.5931105017662031
30
0
0
SPLINE
5
220
100
AcDbEntity
8
0
100
AcDbSpline
70
0
71
3
72
10
73
6
74
0
42
0.000000001
43
0.0000000001
44
0.0000000001
40
-0.043545741403576352
40
-0.043545741403576352
40
-0.043545741403576352
40
-0.043545741403576352
40
-0.02130861102578133
40
-0.02130861102578133
40
-0
40
-0
40
-0
40
-0
10
80.391542874276638
20
-8.5931105017662031
30
0
10
80.457574231180303
20
-8.6267800488842585
30
0
10
80.519087774561925
20
-8.6678144591764212
30
0
10
80.626476131619398
20
-8.7654719220192252
30
0
10
80.671115038478206
20
-8.8197514085645814
30
0
10
80.707709304988384
20
-8.8806278109550458
30
0
0
SPLINE
5
221
100
AcDbEntity
8
0
100
AcDbSpline
70
0
71
3
72
10
73
6
74
0
42
0.000000001
43
0.0000000001
44
0.0000000001
40
-0.040933124394295479
40
-0.040933124394295479
40
-0.040933124394295479
40
-0.040933124394295479
40
-0.020278942442341304
40
-0.020278942442341304
40
-0
40
-0
40
-0
40
-0
10
80.707709304988384
20
-8.8806278109550458
30
0
10
80.743179155226542
20
-8.9396336740958535
30
0
10
80.7710687104653
20
-9.0021389781763936
30
0
10
80.808231493483547
20
-9.1334243323011748
30
0
10
80.817190818488598
20
-9.1997978294677072
30
0
10
80.817190818488598
20
-9.2673943042755109
30
0
0
SPLINE
5
222
100
AcDbEntity
8
0
100
AcDbSpline
70
0
71
3
72
10
73
6
74
0
42
0.000000001
43
0.0000000001
44
0.0000000001
40
-0.037687760131599163
40
-0.037687760131599163
40
-0.037687760131599163
40
-0.037687760131599163
40
-0.018756277766026397
40
-0.018756277766026397
40
-0
40
-0
40
-0
40
-0
10
80.817190818488598
20
-9.2673943042755109
30
0
10
80.817190818488598
20
-9.3304986368743243
30
0
10
80.808943458275621
20
-9.3925739246119324
30
0
10
80.77342057023003
20
-9.5130732454578766
30
0
10
80.747039836466584
20
-9.5690906451538531
30
0
10
80.712825320661068
20
-9.6214187741279584
30
0
0
SPLINE
5
223
100
AcDbEntity
8
0
100
AcDbSpline
70
0
71
3
72
10
73
6
74
0
42
0.000000001
43
0.0000000001
44
0.0000000001
40
-0.040676909354517204
40
-0.040676909354517204
40
-0.040676909354517204
40
-0.040676909354517204
40
-0.02116205367998342
40
-0.02116205367998342
40
-0
40
-0
40
-0
40
-0
10
80.712825320661068
20
-9.6214187741279584
30
0
10
80.67722127098682
20
-9.6758720475029403
30
0
10
80.633670395484927
20
-9.7233770993928221
30
0
10
80.528868590747763
20
-9.8094394888340304
30
0
10
80.467906225633129
20
-9.845691391975901
30
0
10
80.403821133077145
20
-9.8751704990863782
30
0
0
SPLINE
5
224
100
AcDbEntity
8
0
100
AcDbSpline
70
0
71
3
72
10
73
6
74
0
42
0.000000001
43
0.0000000001
44
0.0000000001
40
-0.049976170586399728
40
-0.049976170586399728
40
-0.049976170586399728
40
-0.049976170586399728
40
-0.024295280774931337
40
-0.024295280774931337
40
-0
40
-0
40
-0
40
-0
10
80.403821133077145
20
-9.8751704990863782
30
0
10
80.487219834084868
20
-9.8944163711320812
30
0
10
80.567305060662022
20
-9.9246454242745799
30
0
10
80.709120152610922
20
-10.012051297471716
30
0
10
80.76811085754882
20
-10.065528025641298
30
0
10
80.817190818488598
20
-10.12994548678398
30
0
0
SPLINE
5
225
100
AcDbEntity
8
0
100
AcDbSpline
70
0
71
3
72
10
73
6
74
0
42
0.000000001
43
0.0000000001
44
0.0000000001
40
-0.051794723715038946
40
-0.051794723715038946
40
-0.051794723715038946
40
-0.051794723715038946
40
-0.02700948653498025
40
-0.02700948653498025
40
-0
40
-0
40
-0
40
-0
10
80.817190818488598
20
-10.12994548678398
30
0
10
80.867272728153154
20
-10.195678056531461
30
0
10
80.903628188645058
20
-10.268575005342688
30
0
10
80.953922831361083
20
-10.433778903433435
30
0
10
80.964530520141125
20
-10.523883762032497
30
0
10
80.964530520141125
20
-10.613915383815764
30
0
0
SPLINE
5
226
100
AcDbEntity
8
0
100
AcDbSpline
70
0
71
3
72
12
73
8
74
0
42
0.000000001
43
0.0000000001
44
0.0000000001
40
-0.075168045613859258
40
-0.075168045613859258
40
-0.075168045613859258
40
-0.075168045613859258
40
-0.055796278328600304
40
-0.055796278328600304
40
-0.037175483196748765
40
-0.037175483196748765
40
-0
40
-0
40
-0
40
-0
10
80.964530520141125
20
-10.613915383815764
30
0
10
80.964530520141125
20
-10.678490521235826
30
0
10
80.958726490587395
20
-10.742713733335222
30
0
10
80.933766447145317
20
-10.866879354837756
30
0
10
80.915355022436671
20
-10.925806330517918
30
0
10
80.840601262698925
20
-11.096122196462426
30
0
10
80.767717365455681
20
-11.19449683673218
30
0
10
80.678036771714687
20
-11.280013680458067
30
0
0
LINE
5
227
100
AcDbEntity
8
0
100
AcDbLine
10
65.999999999999986
20
-10.984999593182934
30
0
11
66.000000715255737
21
-16.000000000000007
31
0
0
LINE
5
228
100
AcDbEntity
8
0
100
AcDbLine
10
66.000000715255737
20
-16.000000000000007
30
0
11
96.00000087085445
21
-15.99999992471032
31
0
0
LINE
5
229
100
AcDbEntity
8
0
100
AcDbLine
10
96.00000087085445
20
-15.99999992471032
30
0
11
96.00000260854948
21
-10.984999543065081
31
0
0
LINE
5
230
100
AcDbEntity
8
0
100
AcDbLine
10
96.00000260854948
20
-10.984999543065081
30
0
11
90.985001604975025
21
-10.984999543065081
31
0
0
LINE
5
231
100
AcDbEntity
8
0
100
AcDbLine
10
90.985001604975025
20
-10.984999543065081
30
0
11
90.985001606187495
21
-0.99999954340389108
31
0
0
LINE
5
232
100
AcDbEntity
8
0
100
AcDbLine
10
90.985001606187495
20
-0.99999954340389108
30
0
11
71.015000000000356
21
-0.99999959318292397
31
0
0
LINE
5
233
100
AcDbEntity
8
0
100
AcDbLine
10
71.015000000000356
20
-0.99999959318292397
30
0
11
71.015000000000384
21
-10.984999593182923
31
0
0
LINE
5
234
100
AcDbEntity
8
0
100
AcDbLine
10
71.015000000000384
20
-10.984999593182923
30
0
11
65.999999999999986
21
-10.984999593182934
31
0
0
LWPOLYLINE
5
235
100
AcDbEntity
8
0
100
AcDbPolyline
90
11
70
1
43
0.0
10
113.07503567077219
20
12.218280851840976
10
112.66985149122775
20
12.218280851840976
10
112.66985149122775
20
11.499999880790714
10
112.30150223709643
20
11.499999880790714
10
112.30150223709643
20
12.218280851840976
10
111.00000165402889
20
12.218280851840976
10
111.00000165402889
20
12.555934309959415
10
112.36903295852244
20
14.500000000000004
10
112.66985149122775
20
14.500000000000004
10
112.66985149122775
20
12.555934309959415
10
113.07503567077219
20
12.555934309959415
0
LWPOLYLINE
5
236
100
AcDbEntity
8
0
100
AcDbPolyline
90
10
70
1
43
0.0
10
129.00000150580115
20
-1.6789727164123747e-07
10
129.00000071525574
20
15
10
113.99999999999999
20
15.000000715255732
10
99.000000715255737
20
15
10
99
20
-2.4318695945879654e-07
10
103.99000004488697
20
2.3794174202554677e-07
10
103.99000004488698
20
10.010000237941764
10
114.00000045604286
20
10.010000288185079
10
124.01000045604286
20
10.010000288185079
10
124.01000045604286
20
2.8411942576411775e-07
0
LWPOLYLINE
5
237
100
AcDbEntity
8
0
100
AcDbPolyline
90
11
70
1
43
0.0
10
113.07503567077219
20
-10.781719148159025
10
112.66985149122775
20
-10.781719148159025
10
112.66985149122775
20
-11.500000119209288
10
112.30150223709643
20
-11.500000119209288
10
112.30150223709643
20
-10.781719148159025
10
111.00000165402889
20
-10.781719148159025
10
111.00000165402889
20
-10.444065690040587
10
112.36903295852244
20
-8.4999999999999982
10
112.66985149122775
20
-8.4999999999999982
10
112.66985149122775
20
-10.444065690040587
10
113.07503567077219
20
-10.444065690040587
0
LWPOLYLINE
5
238
100
AcDbEntity
8
0
100
AcDbPolyline
90
9
70
1
43
0.0
10
98.999999999999972
20
-10.989999593182894
10
99.000000715255737
20
-16.000000000000007
10
129.00000087085442
20
-15.99999992471032
10
129.00000260905139
20
-10.989999517893203
10
123.9900024651252
20
-10.989999543039959
10
123.99000146226166
20
-0.99999954326583262
10
114.00000078875281
20
-0.99999999999996092
10
104.01000014392616
20
-0.99999959318289533
10
104.01000014392616
20
-10.989999593182894
0
SPLINE
5
239
100
AcDbEntity
8
0
100
AcDbSpline
70
0
71
3
72
12
73
8
74
0
42
0.000000001
43
0.0000000001
44
0.0000000001
40
-0.090573472700088545
40
-0.090573472700088545
40
-0.090573472700088545
40
-0.090573472700088545
40
-0.066169207007705386
40
-0.066169207007705386
40
-0.042512094799842082
40
-0.042512094799842082
40
-0
40
-0
40
-0
40
-0
10
145.75170759111643
20
11.854024648666385
30
0
10
145.70118656259211
20
11.790246331559596
30
0
10
145.64410688882455
20
11.732681723903173
30
0
10
145.51699734667605
20
11.635110818654535
30
0
10
145.4492643183504
20
11.596038185362303
30
0
10
145.245378809968
20
11.511771898861507
30
0
10
145.10555635582793
20
11.48976814746857
30
0
10
144.96384937316179
20
11.48976814746857
30
0
0
SPLINE
5
240
100
AcDbEntity
8
0
100
AcDbSpline
70
0
71
3
72
10
73
6
74
0
42
0.000000001
43
0.0000000001
44
0.0000000001
40
-0.072804428209853861
40
-0.072804428209853861
40
-0.072804428209853861
40
-0.072804428209853861
40
-0.034668732100485086
40
-0.034668732100485086
40
-0
40
-0
40
-0
40
-0
10
144.96384937316179
20
11.48976814746857
30
0
10
144.83676721208056
20
11.48976814746857
30
0
10
144.70980915842679
20
11.506341148621292
30
0
10
144.48048012728287
20
11.585728652341798
30
0
10
144.3822279724055
20
11.642357674656211
30
0
10
144.29570473730564
20
11.718963205814365
30
0
0
SPLINE
5
241
100
AcDbEntity
8
0
100
AcDbSpline
70
0
71
3
72
10
73
6
74
0
42
0.000000001
43
0.0000000001
44
0.0000000001
40
-0.069929742331915817
40
-0.069929742331915817
40
-0.069929742331915817
40
-0.069929742331915817
40
-0.035755531619011835
40
-0.035755531619011835
40
-0
40
-0
40
-0
40
-0
10
144.29570473730564
20
11.718963205814365
30
0
10
144.21040315971402
20
11.794487122515649
30
0
10
144.14218988282317
20
11.88305598992536
30
0
10
144.04019420208616
20
12.092694199727706
30
0
10
144.01154402768731
20
12.208114618403286
30
0
10
144.00000214576721
20
12.326739549636844
30
0
0
LINE
5
242
100
AcDbEntity
8
0
100
AcDbLine
10
144.00000214576721
20
12.326739549636844
30
0
11
144.38676886260509
21
12.359481573104862
31
0
0
SPLINE
5
243
100
AcDbEntity
8
0
100
AcDbSpline
70
0
71
3
72
10
73
6
74
0
42
0.000000001
43
0.0000000001
44
0.0000000001
40
-0.047878531954757705
40
-0.047878531954757705
40
-0.047878531954757705
40
-0.047878531954757705
40
-0.020198918335428154
40
-0.020198918335428154
40
-0
40
-0
40
-0
40
-0
10
144.38676886260509
20
12.359481573104862
30
0
10
144.40063705711611
20
12.268347733765548
30
0
10
144.42514788442955
20
12.176519887751043
30
0
10
144.49731777998136
20
12.034186483806074
30
0
10
144.53645662424577
20
11.980131523715434
30
0
10
144.58629135042429
20
11.934856891632084
30
0
0
SPLINE
5
244
100
AcDbEntity
8
0
100
AcDbSpline
70
0
71
3
72
10
73
6
74
0
42
0.000000001
43
0.0000000001
44
0.0000000001
40
-0.041726894148988884
40
-0.041726894148988884
40
-0.041726894148988884
40
-0.041726894148988884
40
-0.021080948059935135
40
-0.021080948059935135
40
-0
40
-0
40
-0
40
-0
10
144.58629135042429
20
11.934856891632084
30
0
10
144.6372319457831
20
11.888577507255444
30
0
10
144.69454860337103
20
11.852450551764697
30
0
10
144.82471859849463
20
11.803416297974872
30
0
10
144.89357954629534
20
11.792633056640629
30
0
10
144.96384937316179
20
11.792633056640629
30
0
0
SPLINE
5
245
100
AcDbEntity
8
0
100
AcDbSpline
70
0
71
3
72
12
73
8
74
0
42
0.000000001
43
0.0000000001
44
0.0000000001
40
-0.051156360154506378
40
-0.051156360154506378
40
-0.051156360154506378
40
-0.051156360154506378
40
-0.037858059913946369
40
-0.037858059913946369
40
-0.025047465381122874
40
-0.025047465381122874
40
-0
40
-0
40
-0
40
-0
10
144.96384937316179
20
11.792633056640629
30
0
10
145.00818001607973
20
11.792633056640629
30
0
10
145.05222951151455
20
11.796809645174147
30
0
10
145.13738925691553
20
11.814790357458321
30
0
10
145.1777078446855
20
11.828058249743322
30
0
10
145.29227176941851
20
11.880998954763019
30
0
10
145.35757989393096
20
11.931684809896071
30
0
10
145.41405398398638
20
11.993178844451908
30
0
0
SPLINE
5
246
100
AcDbEntity
8
0
100
AcDbSpline
70
0
71
3
72
12
73
8
74
0
42
0.000000001
43
0.0000000001
44
0.0000000001
40
-0.057772315239068298
40
-0.057772315239068298
40
-0.057772315239068298
40
-0.057772315239068298
40
-0.04419273940830145
40
-0.04419273940830145
40
-0.03038844913155293
40
-0.03038844913155293
40
-0
40
-0
40
-0
40
-0
10
145.41405398398638
20
11.993178844451908
30
0
10
145.44468365810584
20
12.026531120474955
30
0
10
145.4715590355232
20
12.062672222692237
30
0
10
145.51808351515857
20
12.141246832490753
30
0
10
145.53712734942673
20
12.182966789129566
30
0
10
145.58533242149502
20
12.322225790878374
30
0
10
145.59822861105204
20
12.423943683508028
30
0
10
145.59822861105204
20
12.525238513946537
30
0
0
SPLINE
5
247
100
AcDbEntity
8
0
100
AcDbSpline
70
0
71
3
72
10
73
6
74
0
42
0.000000001
43
0.0000000001
44
0.0000000001
40
-0.054494015115444591
40
-0.054494015115444591
40
-0.054494015115444591
40
-0.054494015115444591
40
-0.02317702176297539
40
-0.02317702176297539
40
-0
40
-0
40
-0
40
-0
10
145.59822861105204
20
12.525238513946537
30
0
10
145.59822861105204
20
12.629565958925317
30
0
10
145.58367921126714
20
12.734664298083661
30
0
10
145.51591973804932
20
12.90319936027805
30
0
10
145.47506148154883
20
12.967108891429866
30
0
10
145.42121637612581
20
13.022510230541233
30
0
0
SPLINE
5
248
100
AcDbEntity
8
0
100
AcDbSpline
70
0
71
3
72
12
73
8
74
0
42
0.000000001
43
0.0000000001
44
0.0000000001
40
-0.051461109304368785
40
-0.051461109304368785
40
-0.051461109304368785
40
-0.051461109304368785
40
-0.038973240383823403
40
-0.038973240383823403
40
-0.026606190862574403
40
-0.026606190862574403
40
-0
40
-0
40
-0
40
-0
10
145.42121637612581
20
13.022510230541233
30
0
10
145.39219738396542
20
13.052367930934174
30
0
10
145.36048460169084
20
13.079055604454325
30
0
10
145.29158562475163
20
13.125103239016145
30
0
10
145.25521095557281
20
13.144026622830982
30
0
10
145.13426982021701
20
13.191548750090533
30
0
10
145.0463975466368
20
13.20463848114014
30
0
10
144.95771024376154
20
13.20463848114014
30
0
0
SPLINE
5
249
100
AcDbEntity
8
0
100
AcDbSpline
70
0
71
3
72
10
73
6
74
0
42
0.000000001
43
0.0000000001
44
0.0000000001
40
-0.033662515417516387
40
-0.033662515417516387
40
-0.033662515417516387
40
-0.033662515417516387
40
-0.016506092795941694
40
-0.016506092795941694
40
-0
40
-0
40
-0
40
-0
10
144.95771024376154
20
13.20463848114014
30
0
10
144.90052411899217
20
13.20463848114014
30
0
10
144.84383162103484
20
13.198383672570442
30
0
10
144.73501439750126
20
13.171006078959257
30
0
10
144.68434554086255
20
13.150845548389567
30
0
10
144.63642779737711
20
13.123806238174442
30
0
0
SPLINE
5
250
100
AcDbEntity
8
0
100
AcDbSpline
70
0
71
3
72
10
73
6
74
0
42
0.000000001
43
0.0000000001
44
0.0000000001
40
-0.031221362112100141
40
-0.031221362112100141
40
-0.031221362112100141
40
-0.031221362112100141
40
-0.015327430883361276
40
-0.015327430883361276
40
-0
40
-0
40
-0
40
-0
10
144.63642779737711
20
13.123806238174442
30
0
10
144.59028841630578
20
13.097770480909862
30
0
10
144.54728916840239
20
13.067069252723639
30
0
10
144.47114984545709
20
12.996121251833888
30
0
10
144.43871089834872
20
12.957183888198358
30
0
10
144.41132549196482
20
12.914051830768589
30
0
0
LINE
5
251
100
AcDbEntity
8
0
100
AcDbLine
10
144.41132549196479
20
12.914051830768587
30
0
11
144.06548645347357
21
12.959072262048725
31
0
0
LINE
5
252
100
AcDbEntity
8
0
100
AcDbLine
10
144.06548645347357
20
12.959072262048725
30
0
11
144.35607310384512
21
14.500000000000004
31
0
0
LINE
5
253
100
AcDbEntity
8
0
100
AcDbLine
10
144.35607310384512
20
14.500000000000004
30
0
11
145.84788758307695
21
14.500000000000004
31
0
0
LINE
5
254
100
AcDbEntity
8
0
100
AcDbLine
10
145.84788758307695
20
14.500000000000004
30
0
11
145.84788758307695
21
14.148021757602695
31
0
0
LINE
5
255
100
AcDbEntity
8
0
100
AcDbLine
10
145.84788758307695
20
14.148021757602695
30
0
11
144.65075243264437
21
14.148021757602695
31
0
0
LINE
5
256
100
AcDbEntity
8
0
100
AcDbLine
10
144.65075243264437
20
14.148021757602695
30
0
11
144.48908809572458
21
13.3417461514473
31
0
0
SPLINE
5
257
100
AcDbEntity
8
0
100
AcDbSpline
70
0
71
3
72
10
73
6
74
0
42
0.000000001
43
0.0000000001
44
0.0000000001
40
-0.061071132458212336
40
-0.061071132458212336
40
-0.061071132458212336
40
-0.061071132458212336
40
-0.029768288725355231
40
-0.029768288725355231
40
-0
40
-0
40
-0
40
-0
10
144.48908809572458
20
13.3417461514473
30
0
10
144.57468355919195
20
13.401403648623781
30
0
10
144.66683762953792
20
13.450057946232505
30
0
10
144.86003111867109
20
13.514223344506711
30
0
10
144.95670898310431
20
13.530013680458072
30
0
10
145.05593661218882
20
13.530013680458072
30
0
0
SPLINE
5
258
100
AcDbEntity
8
0
100
AcDbSpline
70
0
71
3
72
10
73
6
74
0
42
0.000000001
43
0.0000000001
44
0.0000000001
40
-0.074500871133979019
40
-0.074500871133979019
40
-0.074500871133979019
40
-0.074500871133979019
40
-0.037037179490679924
40
-0.037037179490679924
40
-0
40
-0
40
-0
40
-0
10
145.05593661218882
20
13.530013680458072
30
0
10
145.18081032808027
20
13.530013680458072
30
0
10
145.30261904131169
20
13.509394791329552
30
0
10
145.53235926072821
20
13.415087839050164
30
0
10
145.6319979915524
20
13.345470686608667
30
0
10
145.7189654186368
20
13.257844418287281
30
0
0
SPLINE
5
259
100
AcDbEntity
8
0
100
AcDbSpline
70
0
71
3
72
12
73
8
74
0
42
0.000000001
43
0.0000000001
44
0.0000000001
40
-0.077428136174151244
40
-0.077428136174151244
40
-0.077428136174151244
40
-0.077428136174151244
40
-0.058571395704122488
40
-0.058571395704122488
40
-0.039918278301016352
40
-0.039918278301016352
40
-0
40
-0
40
-0
40
-0
10
145.7189654186368
20
13.257844418287281
30
0
10
145.76325194324102
20
13.213222391004356
30
0
10
145.80283281197572
20
13.164719513547947
30
0
10
145.87108491191725
20
13.059928401099587
30
0
10
145.89916451785061
20
13.00481208295537
30
0
10
145.96947911999982
20
12.822633307524004
30
0
10
145.98908815532923
20
12.691041763107833
30
0
10
145.98908815532923
20
12.557980835437778
30
0
0
SPLINE
5
260
100
AcDbEntity
8
0
100
AcDbSpline
70
0
71
3
72
10
73
6
74
0
42
0.000000001
43
0.0000000001
44
0.0000000001
40
-0.07639831331188851
40
-0.07639831331188851
40
-0.07639831331188851
40
-0.07639831331188851
40
-0.037566172559010194
40
-0.037566172559010194
40
-0
40
-0
40
-0
40
-0
10
145.98908815532923
20
12.557980835437778
30
0
10
145.98908815532923
20
12.428549306552823
30
0
10
145.97110334470958
20
12.301031289120841
30
0
10
145.88973107365058
20
12.059720405756876
30
0
10
145.82993227627037
20
11.951805480556693
30
0
10
145.75170759111643
20
11.854024648666385
30
0
0
LWPOLYLINE
5
261
100
AcDbEntity
8
0
100
AcDbPolyline
90
10
70
1
43
0.0
10
162.00000150580115
20
-1.6074471309579508e-07
10
162.00000071525577
20
15
10
147
20
15.000000715255732
10
132.00000071525574
20
15
10
132
20
-2.3603440091335415e-07
10
136.99500047707576
20
2.3818018121095504e-07
10
136.9950000000002
20
10.005000238180182
10
147.00000050143154
20
10.005000288398403
10
157.0050005014316
20
10.005000288398403
10
157.0050005014316
20
2.8636558013772628e-07
0
SPLINE
5
262
100
AcDbEntity
8
0
100
AcDbSpline
70
0
71
3
72
12
73
8
74
0
42
0.000000001
43
0.0000000001
44
0.0000000001
40
-0.090573472700074403
40
-0.090573472700074403
40
-0.090573472700074403
40
-0.090573472700074403
40
-0.066169207007697128
40
-0.066169207007697128
40
-0.042512094799838689
40
-0.042512094799838689
40
-0
40
-0
40
-0
40
-0
10
145.75170759111643
20
-11.145975351333616
30
0
10
145.70118656259211
20
-11.209753668440408
30
0
10
145.64410688882455
20
-11.26731827609683
30
0
10
145.51699734667605
20
-11.36488918134547
30
0
10
145.4492643183504
20
-11.4039618146377
30
0
10
145.245378809968
20
-11.488228101138498
30
0
10
145.10555635582793
20
-11.510231852531431
30
0
10
144.96384937316179
20
-11.510231852531431
30
0
0
SPLINE
5
263
100
AcDbEntity
8
0
100
AcDbSpline
70
0
71
3
72
10
73
6
74
0
42
0.000000001
43
0.0000000001
44
0.0000000001
40
-0.072804428209853861
40
-0.072804428209853861
40
-0.072804428209853861
40
-0.072804428209853861
40
-0.034668732100485086
40
-0.034668732100485086
40
-0
40
-0
40
-0
40
-0
10
144.96384937316179
20
-11.510231852531431
30
0
10
144.83676721208056
20
-11.510231852531431
30
0
10
144.70980915842679
20
-11.49365885137871
30
0
10
144.48048012728287
20
-11.414271347658204
30
0
10
144.3822279724055
20
-11.357642325343793
30
0
10
144.29570473730564
20
-11.281036794185637
30
0
0
SPLINE
5
264
100
AcDbEntity
8
0
100
AcDbSpline
70
0
71
3
72
10
73
6
74
0
42
0.000000001
43
0.0000000001
44
0.0000000001
40
-0.069929742331915817
40
-0.069929742331915817
40
-0.069929742331915817
40
-0.069929742331915817
40
-0.035755531619011835
40
-0.035755531619011835
40
-0
40
-0
40
-0
40
-0
10
144.29570473730564
20
-11.281036794185637
30
0
10
144.21040315971402
20
-11.205512877484354
30
0
10
144.14218988282317
20
-11.116944010074644
30
0
10
144.04019420208616
20
-10.907305800272296
30
0
10
144.01154402768731
20
-10.791885381596718
30
0
10
144.00000214576721
20
-10.673260450363157
30
0
0
LINE
5
265
100
AcDbEntity
8
0
100
AcDbLine
10
144.00000214576721
20
-10.673260450363157
30
0
11
144.38676886260509
21
-10.64051842689514
31
0
0
SPLINE
5
266
100
AcDbEntity
8
0
100
AcDbSpline
70
0
71
3
72
10
73
6
74
0
42
0.000000001
43
0.0000000001
44
0.0000000001
40
-0.047878531954757705
40
-0.047878531954757705
40
-0.047878531954757705
40
-0.047878531954757705
40
-0.020198918335428154
40
-0.020198918335428154
40
-0
40
-0
40
-0
40
-0
10
144.38676886260509
20
-10.64051842689514
30
0
10
144.40063705711611
20
-10.731652266234455
30
0
10
144.42514788442955
20
-10.82348011224896
30
0
10
144.49731777998136
20
-10.965813516193927
30
0
10
144.53645662424577
20
-11.019868476284568
30
0
10
144.58629135042429
20
-11.065143108367918
30
0
0
SPLINE
5
267
100
AcDbEntity
8
0
100
AcDbSpline
70
0
71
3
72
10
73
6
74
0
42
0.000000001
43
0.0000000001
44
0.0000000001
40
-0.041726894148988884
40
-0.041726894148988884
40
-0.041726894148988884
40
-0.041726894148988884
40
-0.021080948059935135
40
-0.021080948059935135
40
-0
40
-0
40
-0
40
-0
10
144.58629135042429
20
-11.065143108367918
30
0
10
144.6372319457831
20
-11.111422492744559
30
0
10
144.69454860337103
20
-11.147549448235306
30
0
10
144.82471859849463
20
-11.196583702025132
30
0
10
144.89357954629534
20
-11.207366943359373
30
0
10
144.96384937316179
20
-11.207366943359373
30
0
0
SPLINE
5
268
100
AcDbEntity
8
0
100
AcDbSpline
70
0
71
3
72
12
73
8
74
0
42
0.000000001
43
0.0000000001
44
0.0000000001
40
-0.051156360154506378
40
-0.051156360154506378
40
-0.051156360154506378
40
-0.051156360154506378
40
-0.037858059913946369
40
-0.037858059913946369
40
-0.025047465381122874
40
-0.025047465381122874
40
-0
40
-0
40
-0
40
-0
10
144.96384937316179
20
-11.207366943359373
30
0
10
145.00818001607973
20
-11.207366943359373
30
0
10
145.05222951151455
20
-11.203190354825857
30
0
10
145.13738925691553
20
-11.185209642541682
30
0
10
145.1777078446855
20
-11.171941750256682
30
0
10
145.29227176941851
20
-11.119001045236985
30
0
10
145.35757989393096
20
-11.068315190103933
30
0
10
145.41405398398638
20
-11.006821155548094
30
0
0
SPLINE
5
269
100
AcDbEntity
8
0
100
AcDbSpline
70
0
71
3
72
12
73
8
74
0
42
0.000000001
43
0.0000000001
44
0.0000000001
40
-0.057772315239068298
40
-0.057772315239068298
40
-0.057772315239068298
40
-0.057772315239068298
40
-0.04419273940830145
40
-0.04419273940830145
40
-0.03038844913155293
40
-0.03038844913155293
40
-0
40
-0
40
-0
40
-0
10
145.41405398398638
20
-11.006821155548094
30
0
10
145.44468365810584
20
-10.973468879525047
30
0
10
145.4715590355232
20
-10.937327777307766
30
0
10
145.51808351515857
20
-10.858753167509249
30
0
10
145.53712734942673
20
-10.817033210870438
30
0
10
145.58533242149502
20
-10.67777420912163
30
0
10
145.59822861105204
20
-10.576056316491975
30
0
10
145.59822861105204
20
-10.474761486053465
30
0
0
SPLINE
5
270
100
AcDbEntity
8
0
100
AcDbSpline
70
0
71
3
72
10
73
6
74
0
42
0.000000001
43
0.0000000001
44
0.0000000001
40
-0.054494015115444591
40
-0.054494015115444591
40
-0.054494015115444591
40
-0.054494015115444591
40
-0.02317702176297539
40
-0.02317702176297539
40
-0
40
-0
40
-0
40
-0
10
145.59822861105204
20
-10.474761486053465
30
0
10
145.59822861105204
20
-10.370434041074684
30
0
10
145.58367921126714
20
-10.26533570191634
30
0
10
145.51591973804932
20
-10.096800639721952
30
0
10
145.47506148154883
20
-10.032891108570137
30
0
10
145.42121637612581
20
-9.977489769458769
30
0
0
SPLINE
5
271
100
AcDbEntity
8
0
100
AcDbSpline
70
0
71
3
72
12
73
8
74
0
42
0.000000001
43
0.0000000001
44
0.0000000001
40
-0.051461109304368785
40
-0.051461109304368785
40
-0.051461109304368785
40
-0.051461109304368785
40
-0.038973240383823403
40
-0.038973240383823403
40
-0.026606190862574403
40
-0.026606190862574403
40
-0
40
-0
40
-0
40
-0
10
145.42121637612581
20
-9.977489769458769
30
0
10
145.39219738396542
20
-9.9476320690658273
30
0
10
145.36048460169084
20
-9.9209443955456766
30
0
10
145.29158562475163
20
-9.8748967609838587
30
0
10
145.25521095557281
20
-9.8559733771690201
30
0
10
145.13426982021701
20
-9.8084512499094689
30
0
10
145.0463975466368
20
-9.7953615188598615
30
0
10
144.95771024376154
20
-9.7953615188598615
30
0
0
SPLINE
5
272
100
AcDbEntity
8
0
100
AcDbSpline
70
0
71
3
72
10
73
6
74
0
42
0.000000001
43
0.0000000001
44
0.0000000001
40
-0.033662515417516387
40
-0.033662515417516387
40
-0.033662515417516387
40
-0.033662515417516387
40
-0.016506092795941694
40
-0.016506092795941694
40
-0
40
-0
40
-0
40
-0
10
144.95771024376154
20
-9.7953615188598615
30
0
10
144.90052411899217
20
-9.7953615188598615
30
0
10
144.84383162103484
20
-9.8016163274295618
30
0
10
144.73501439750126
20
-9.8289939210407447
30
0
10
144.68434554086255
20
-9.8491544516104348
30
0
10
144.63642779737711
20
-9.8761937618255597
30
0
0
SPLINE
5
273
100
AcDbEntity
8
0
100
AcDbSpline
70
0
71
3
72
10
73
6
74
0
42
0.000000001
43
0.0000000001
44
0.0000000001
40
-0.031221362112100141
40
-0.031221362112100141
40
-0.031221362112100141
40
-0.031221362112100141
40
-0.015327430883361276
40
-0.015327430883361276
40
-0
40
-0
40
-0
40
-0
10
144.63642779737711
20
-9.8761937618255597
30
0
10
144.59028841630578
20
-9.9022295190901417
30
0
10
144.54728916840239
20
-9.9329307472763642
30
0
10
144.47114984545709
20
-10.003878748166116
30
0
10
144.43871089834872
20
-10.042816111801645
30
0
10
144.41132549196482
20
-10.085948169231413
30
0
0
LINE
5
274
100
AcDbEntity
8
0
100
AcDbLine
10
144.41132549196479
20
-10.085948169231415
30
0
11
144.06548645347357
21
-10.040927737951277
31
0
0
LINE
5
275
100
AcDbEntity
8
0
100
AcDbLine
10
144.06548645347357
20
-10.040927737951277
30
0
11
144.35607310384512
21
-8.4999999999999982
31
0
0
LINE
5
276
100
AcDbEntity
8
0
100
AcDbLine
10
144.35607310384512
20
-8.4999999999999982
30
0
11
145.84788758307695
21
-8.4999999999999982
31
0
0
LINE
5
277
100
AcDbEntity
8
0
100
AcDbLine
10
145.84788758307695
20
-8.4999999999999982
30
0
11
145.84788758307695
21
-8.8519782423973066
31
0
0
LINE
5
278
100
AcDbEntity
8
0
100
AcDbLine
10
145.84788758307695
20
-8.8519782423973066
30
0
11
144.65075243264437
21
-8.8519782423973066
31
0
0
LINE
5
279
100
AcDbEntity
8
0
100
AcDbLine
10
144.65075243264437
20
-8.8519782423973066
30
0
11
144.48908809572458
21
-9.6582538485527021
31
0
0
SPLINE
5
280
100
AcDbEntity
8
0
100
AcDbSpline
70
0
71
3
72
10
73
6
74
0
42
0.000000001
43
0.0000000001
44
0.0000000001
40
-0.061071132458212336
40
-0.061071132458212336
40
-0.061071132458212336
40
-0.061071132458212336
40
-0.029768288725355231
40
-0.029768288725355231
40
-0
40
-0
40
-0
40
-0
10
144.48908809572458
20
-9.6582538485527021
30
0
10
144.57468355919195
20
-9.5985963513762229
30
0
10
144.66683762953792
20
-9.5499420537674986
30
0
10
144.86003111867109
20
-9.485776655493293
30
0
10
144.95670898310431
20
-9.4699863195419294
30
0
10
145.05593661218882
20
-9.4699863195419294
30
0
0
SPLINE
5
281
100
AcDbEntity
8
0
100
AcDbSpline
70
0
71
3
72
10
73
6
74
0
42
0.000000001
43
0.0000000001
44
0.0000000001
40
-0.074500871133979019
40
-0.074500871133979019
40
-0.074500871133979019
40
-0.074500871133979019
40
-0.037037179490679924
40
-0.037037179490679924
40
-0
40
-0
40
-0
40
-0
10
145.05593661218882
20
-9.4699863195419294
30
0
10
145.18081032808027
20
-9.4699863195419294
30
0
10
145.30261904131169
20
-9.490605208670452
30
0
10
145.53235926072821
20
-9.5849121609498393
30
0
10
145.6319979915524
20
-9.6545293133913361
30
0
10
145.7189654186368
20
-9.742155581712721
30
0
0
SPLINE
5
282
100
AcDbEntity
8
0
100
AcDbSpline
70
0
71
3
72
12
73
8
74
0
42
0.000000001
43
0.0000000001
44
0.0000000001
40
-0.077428136174151244
40
-0.077428136174151244
40
-0.077428136174151244
40
-0.077428136174151244
40
-0.058571395704122488
40
-0.058571395704122488
40
-0.039918278301016352
40
-0.039918278301016352
40
-0
40
-0
40
-0
40
-0
10
145.7189654186368
20
-9.742155581712721
30
0
10
145.76325194324102
20
-9.7867776089956475
30
0
10
145.80283281197572
20
-9.8352804864520564
30
0
10
145.87108491191725
20
-9.9400715989004151
30
0
10
145.89916451785061
20
-9.9951879170446336
30
0
10
145.96947911999982
20
-10.177366692475998
30
0
10
145.98908815532923
20
-10.30895823689217
30
0
10
145.98908815532923
20
-10.442019164562224
30
0
0
SPLINE
5
283
100
AcDbEntity
8
0
100
AcDbSpline
70
0
71
3
72
10
73
6
74
0
42
0.000000001
43
0.0000000001
44
0.0000000001
40
-0.07639831331188851
40
-0.07639831331188851
40
-0.07639831331188851
40
-0.07639831331188851
40
-0.037566172559010194
40
-0.037566172559010194
40
-0
40
-0
40
-0
40
-0
10
145.98908815532923
20
-10.442019164562224
30
0
10
145.98908815532923
20
-10.571450693447179
30
0
10
145.97110334470958
20
-10.698968710879162
30
0
10
145.88973107365058
20
-10.940279594243128
30
0
10
145.82993227627037
20
-11.048194519443308
30
0
10
145.75170759111643
20
-11.145975351333616
30
0
0
LINE
5
284
100
AcDbEntity
8
0
100
AcDbLine
10
132
20
-10.994999593182888
30
0
11
132.00000071525574
21
-16.000000000000007
31
0
0
LINE
5
285
100
AcDbEntity
8
0
100
AcDbLine
10
132.00000071525574
20
-16.000000000000007
30
0
11
162.00000087085442
21
-15.99999992471032
31
0
0
LINE
5
286
100
AcDbEntity
8
0
100
AcDbLine
10
162.00000087085442
20
-15.99999992471032
30
0
11
162.00000260955335
21
-10.994999543014856
31
0
0
LINE
5
287
100
AcDbEntity
8
0
100
AcDbLine
10
162.00000260955335
20
-10.994999543014856
30
0
11
156.99500160577995
21
-10.994999543014856
31
0
0
LINE
5
288
100
AcDbEntity
8
0
100
AcDbLine
10
156.99500160577995
20
-10.994999543014856
30
0
11
156.99500160618706
21
-0.99999954312779415
31
0
0
LINE
5
289
100
AcDbEntity
8
0
100
AcDbLine
10
156.99500160618706
20
-0.99999954312779415
30
0
11
137.00500000000079
21
-0.99999959318288867
31
0
0
LINE
5
290
100
AcDbEntity
8
0
100
AcDbLine
10
137.00500000000079
20
-0.99999959318288867
30
0
11
137.00500000000079
21
-10.994999593182888
31
0
0
LINE
5
291
100
AcDbEntity
8
0
100
AcDbLine
10
137.00500000000079
20
-10.994999593182888
30
0
11
132
21
-10.994999593182888
31
0
0
SPLINE
5
292
100
AcDbEntity
8
0
100
AcDbSpline
70
0
71
3
72
12
73
8
74
0
42
0.000000001
43
0.0000000001
44
0.0000000001
40
-0.086476715625500855
40
-0.086476715625500855
40
-0.086476715625500855
40
-0.086476715625500855
40
-0.063421795266224754
40
-0.063421795266224754
40
-0.041070426453665938
40
-0.041070426453665938
40
-0
40
-0
40
-0
40
-0
10
176.3212850317359
20
14.168485522270206
30
0
10
176.36986133718602
20
14.228053567202268
30
0
10
176.42440547542262
20
14.281831158295113
30
0
10
176.54513282525556
20
14.37316723612704
30
0
10
176.60926087617099
20
14.409923236728599
30
0
10
176.80461511947368
20
14.49083833883469
30
0
10
176.93949965569868
20
14.51227825880051
30
0
10
177.0764010772109
20
14.51227825880051
30
0
0
SPLINE
5
293
100
AcDbEntity
8
0
100
AcDbSpline
70
0
71
3
72
10
73
6
74
0
42
0.000000001
43
0.0000000001
44
0.0000000001
40
-0.063190543328914786
40
-0.063190543328914786
40
-0.063190543328914786
40
-0.063190543328914786
40
-0.030370385560120429
40
-0.030370385560120429
40
-0
40
-0
40
-0
40
-0
10
177.0764010772109
20
14.51227825880051
30
0
10
177.18577255065938
20
14.51227825880051
30
0
10
177.29494151640898
20
14.49806931736471
30
0
10
177.49423395379165
20
14.429881091530758
30
0
10
177.58047100780306
20
14.380564213738232
30
0
10
177.65655111521482
20
14.313778996467594
30
0
0
SPLINE
5
294
100
AcDbEntity
8
0
100
AcDbSpline
70
0
71
3
72
10
73
6
74
0
42
0.000000001
43
0.0000000001
44
0.0000000001
40
-0.0630499866700997
40
-0.0630499866700997
40
-0.0630499866700997
40
-0.0630499866700997
40
-0.032720984156975039
40
-0.032720984156975039
40
-0
40
-0
40
-0
40
-0
10
177.65655111521482
20
14.313778996467594
30
0
10
177.73254721301922
20
14.247067481186678
30
0
10
177.79258315246568
20
14.168070626301459
30
0
10
177.88575205105812
20
13.979623249751329
30
0
10
177.91377929845316
20
13.873526202080328
30
0
10
177.92769696563482
20
13.76534786820412
30
0
0
LINE
5
295
100
AcDbEntity
8
0
100
AcDbLine
10
177.92769696563482
20
13.76534786820412
30
0
11
177.56139408797026
21
13.736698448657993
31
0
0
SPLINE
5
296
100
AcDbEntity
8
0
100
AcDbSpline
70
0
71
3
72
10
73
6
74
0
42
0.000000001
43
0.0000000001
44
0.0000000001
40
-0.034313150358713233
40
-0.034313150358713233
40
-0.034313150358713233
40
-0.034313150358713233
40
-0.013984041423290667
40
-0.013984041423290667
40
-0
40
-0
40
-0
40
-0
10
177.56139408797026
20
13.736698448657993
30
0
10
177.54647502308899
20
13.80259105688673
30
0
10
177.52612366928156
20
13.871752033260128
30
0
10
177.47841341048954
20
13.975548373346403
30
0
10
177.45373791657033
20
14.017480307518348
30
0
10
177.42224004119635
20
14.051841616630558
30
0
0
SPLINE
5
297
100
AcDbEntity
8
0
100
AcDbSpline
70
0
71
3
72
12
73
8
74
0
42
0.000000001
43
0.0000000001
44
0.0000000001
40
-0.041541070940730396
40
-0.041541070940730396
40
-0.041541070940730396
40
-0.041541070940730396
40
-0.030805942209512861
40
-0.030805942209512861
40
-0.020487569579899563
40
-0.020487569579899563
40
-0
40
-0
40
-0
40
-0
10
177.42224004119635
20
14.051841616630558
30
0
10
177.3976195787663
20
14.077811164671139
30
0
10
177.37078600306066
20
14.101409952646209
30
0
10
177.31335207839652
20
14.141745556969575
30
0
10
177.28344836526469
20
14.15835517701175
30
0
10
177.18868202316301
20
14.19791764011797
30
0
10
177.12218268566471
20
14.209413349628452
30
0
10
177.05389078706503
20
14.209413349628452
30
0
0
SPLINE
5
298
100
AcDbEntity
8
0
100
AcDbSpline
70
0
71
3
72
10
73
6
74
0
42
0.000000001
43
0.0000000001
44
0.0000000001
40
-0.033241793695842584
40
-0.033241793695842584
40
-0.033241793695842584
40
-0.033241793695842584
40
-0.016371627146442986
40
-0.016371627146442986
40
-0
40
-0
40
-0
40
-0
10
177.05389078706503
20
14.209413349628452
30
0
10
176.99765967337396
20
14.209413349628452
30
0
10
176.94223664031534
20
14.201892427776491
30
0
10
176.83663750242926
20
14.168324517559119
30
0
10
176.7887863585907
20
14.143605144219595
30
0
10
176.74488674849272
20
14.111186981201175
30
0
0
SPLINE
5
299
100
AcDbEntity
8
0
100
AcDbSpline
70
0
71
3
72
10
73
6
74
0
42
0.000000001
43
0.0000000001
44
0.0000000001
40
-0.046797367082441726
40
-0.046797367082441726
40
-0.046797367082441726
40
-0.046797367082441726
40
-0.02454830841039693
40
-0.02454830841039693
40
-0
40
-0
40
-0
40
-0
10
176.74488674849272
20
14.111186981201175
30
0
10
176.68495461676886
20
14.067471761117169
30
0
10
176.63349926622521
20
14.014769040789655
30
0
10
176.5406624029707
20
13.889369984366279
30
0
10
176.50182699333445
20
13.816455476812752
30
0
10
176.47067110985518
20
13.740791201591495
30
0
0
SPLINE
5
300
100
AcDbEntity
8
0
100
AcDbSpline
70
0
71
3
72
10
73
6
74
0
42
0.000000001
43
0.0000000001
44
0.0000000001
40
-0.069081444859091901
40
-0.069081444859091901
40
-0.069081444859091901
40
-0.069081444859091901
40
-0.039238977679326194
40
-0.039238977679326194
40
-0
40
-0
40
-0
40
-0
10
176.47067110985518
20
13.740791201591495
30
0
10
176.432664692191
20
13.648489939875525
30
0
10
176.40926234015512
20
13.544103426997667
30
0
10
176.37495813397979
20
13.316081315362112
30
0
10
176.36749450595124
20
13.177857935970296
30
0
10
176.36630550026894
20
13.047066748142246
30
0
0
SPLINE
5
301
100
AcDbEntity
8
0
100
AcDbSpline
70
0
71
3
72
10
73
6
74
0
42
0.000000001
43
0.0000000001
44
0.0000000001
40
-0.045011363816683123
40
-0.045011363816683123
40
-0.045011363816683123
40
-0.045011363816683123
40
-0.021873133860950453
40
-0.021873133860950453
40
-0
40
-0
40
-0
40
-0
10
176.36630550026894
20
13.047066748142246
30
0
10
176.40863335793864
20
13.111535345040599
30
0
10
176.45752438403838
20
13.171209200790837
30
0
10
176.56769281630031
20
13.27306308032334
30
0
10
176.62674624418167
20
13.314727406625455
30
0
10
176.69168066233397
20
13.347885429859165
30
0
0
SPLINE
5
302
100
AcDbEntity
8
0
100
AcDbSpline
70
0
71
3
72
10
73
6
74
0
42
0.000000001
43
0.0000000001
44
0.0000000001
40
-0.042072552721759443
40
-0.042072552721759443
40
-0.042072552721759443
40
-0.042072552721759443
40
-0.020910537705772361
40
-0.020910537705772361
40
-0
40
-0
40
-0
40
-0
10
176.69168066233397
20
13.347885429859165
30
0
10
176.75450365935203
20
13.379965231202203
30
0
10
176.82011015211015
20
13.404856333471519
30
0
10
176.95636577587291
20
13.438055639013777
30
0
10
177.0251166730591
20
13.446111798286442
30
0
10
177.09481846541166
20
13.446111798286442
30
0
0
SPLINE
5
303
100
AcDbEntity
8
0
100
AcDbSpline
70
0
71
3
72
12
73
8
74
0
42
0.000000001
43
0.0000000001
44
0.0000000001
40
-0.070827410869748031
40
-0.070827410869748031
40
-0.070827410869748031
40
-0.070827410869748031
40
-0.052749518289369648
40
-0.052749518289369648
40
-0.035327734149760738
40
-0.035327734149760738
40
-0
40
-0
40
-0
40
-0
10
177.09481846541166
20
13.446111798286442
30
0
10
177.15508131554753
20
13.446111798286442
30
0
10
177.21499502077634
20
13.440668724639373
30
0
10
177.33101016576819
20
13.417323361719408
30
0
10
177.38613810081853
20
13.400088431563059
30
0
10
177.5472069389794
20
13.329533044458092
30
0
10
177.64071787119491
20
13.260140224874286
30
0
10
177.72203531116247
20
13.174965798854831
30
0
0
SPLINE
5
304
100
AcDbEntity
8
0
100
AcDbSpline
70
0
71
3
72
12
73
8
74
0
42
0.000000001
43
0.0000000001
44
0.0000000001
40
-0.076933896748039063
40
-0.076933896748039063
40
-0.076933896748039063
40
-0.076933896748039063
40
-0.058408180087549007
40
-0.058408180087549007
40
-0.039913975160820785
40
-0.039913975160820785
40
-0
40
-0
40
-0
40
-0
10
177.72203531116247
20
13.174965798854831
30
0
10
177.76468827593203
20
13.130289801848861
30
0
10
177.80256483713669
20
13.081866701544909
30
0
10
177.8679593937288
20
12.977183759835819
30
0
10
177.89482212979254
20
12.922014357816371
30
0
10
177.96229362131498
20
12.739334659121466
30
0
10
177.98090305179358
20
12.60712553713555
30
0
10
177.98090305179358
20
12.474078953266147
30
0
0
SPLINE
5
305
100
AcDbEntity
8
0
100
AcDbSpline
70
0
71
3
72
10
73
6
74
0
42
0.000000001
43
0.0000000001
44
0.0000000001
40
-0.054609780126009991
40
-0.054609780126009991
40
-0.054609780126009991
40
-0.054609780126009991
40
-0.027037862407348529
40
-0.027037862407348529
40
-0
40
-0
40
-0
40
-0
10
177.98090305179358
20
12.474078953266147
30
0
10
177.98090305179358
20
12.382173436837398
30
0
10
177.97123106095012
20
12.291183178782262
30
0
10
177.93009734834493
20
12.113858934646144
30
0
10
177.89958470586868
20
12.029724610707476
30
0
10
177.85914313048124
20
11.949181377887729
30
0
0
SPLINE
5
306
100
AcDbEntity
8
0
100
AcDbSpline
70
0
71
3
72
10
73
6
74
0
42
0.000000001
43
0.0000000001
44
0.0000000001
40
-0.050949068404582021
40
-0.050949068404582021
40
-0.050949068404582021
40
-0.050949068404582021
40
-0.024938665120589142
40
-0.024938665120589142
40
-0
40
-0
40
-0
40
-0
10
177.85914313048124
20
11.949181377887729
30
0
10
177.82024035589154
20
11.871702717575324
30
0
10
177.77264672673078
20
11.799496411995429
30
0
10
177.65897869077469
20
11.673314466146225
30
0
10
177.59565999888352
20
11.620833151886419
30
0
10
177.52455916255713
20
11.57776248455048
30
0
0
SPLINE
5
307
100
AcDbEntity
8
0
100
AcDbSpline
70
0
71
3
72
10
73
6
74
0
42
0.000000001
43
0.0000000001
44
0.0000000001
40
-0.050889434333963347
40
-0.050889434333963347
40
-0.050889434333963347
40
-0.050889434333963347
40
-0.025952832154439665
40
-0.025952832154439665
40
-0
40
-0
40
-0
40
-0
10
177.52455916255713
20
11.57776248455048
30
0
10
177.45346119725383
20
11.534693526235404
30
0
10
177.37772370838064
20
11.502510384364177
30
0
10
177.21382443668608
20
11.458757622968541
30
0
10
177.12812196877931
20
11.448840320110325
30
0
10
177.04161252826452
20
11.448840320110325
30
0
0
SPLINE
5
308
100
AcDbEntity
8
0
100
AcDbSpline
70
0
71
3
72
12
73
8
74
0
42
0.000000001
43
0.0000000001
44
0.0000000001
40
-0.085772662166925071
40
-0.085772662166925071
40
-0.085772662166925071
40
-0.085772662166925071
40
-0.061592333151599898
40
-0.061592333151599898
40
-0.038706304545073011
40
-0.038706304545073011
40
-0
40
-0
40
-0
40
-0
10
177.04161252826452
20
11.448840320110325
30
0
10
176.96101179874864
20
11.448840320110325
30
0
10
176.8807595924703
20
11.456623993559901
30
0
10
176.72766304894219
20
11.490938463578633
30
0
10
176.65618787073808
20
11.516098671635536
30
0
10
176.47291735536777
20
11.608658065614129
30
0
10
176.3746037307541
20
11.689598625146349
30
0
10
176.29058923572302
20
11.787516891956333
30
0
0
SPLINE
5
309
100
AcDbEntity
8
0
100
AcDbSpline
70
0
71
3
72
12
73
8
74
0
42
0.000000001
43
0.0000000001
44
0.0000000001
40
-0.11584712648778893
40
-0.11584712648778893
40
-0.11584712648778893
40
-0.11584712648778893
40
-0.092381225625460667
40
-0.092381225625460667
40
-0.065744167291276412
40
-0.065744167291276412
40
-0
40
-0
40
-0
40
-0
10
176.29058923572302
20
11.787516891956333
30
0
10
176.23951376815316
20
11.847044975773905
30
0
10
176.19774032628385
20
11.913752416370656
30
0
10
176.12454192564218
20
12.064358993120646
30
0
10
176.09507009179123
20
12.149800252572717
30
0
10
176.01731141337245
20
12.448514117795256
30
0
10
176.00000262260437
20
12.684672724130579
30
0
10
176.00000262260437
20
12.903819948434833
30
0
0
SPLINE
5
310
100
AcDbEntity
8
0
100
AcDbSpline
70
0
71
3
72
10
73
6
74
0
42
0.000000001
43
0.0000000001
44
0.0000000001
40
-0.12608356310732055
40
-0.12608356310732055
40
-0.12608356310732055
40
-0.12608356310732055
40
-0.039807620420835202
40
-0.039807620420835202
40
-0
40
-0
40
-0
40
-0
10
176.00000262260437
20
12.903819948434833
30
0
10
176.00000262260437
20
13.227384049125634
30
0
10
176.03317075842642
20
13.550904216720834
30
0
10
176.17626624159004
20
13.945883210113772
30
0
10
176.23755015574275
20
14.065550321920856
30
0
10
176.3212850317359
20
14.168485522270206
30
0
0
LWPOLYLINE
5
311
100
AcDbEntity
8
0
100
AcDbPolyline
90
10
70
1
43
0.0
10
195.00000150580124
20
7.5289801060307582e-08
10
195.00000071525574
20
15
10
179.99999999999997
20
15.000000715255732
10
165.00000071525574
20
15
10
165
20
0
10
169.99500072779145
20
4.4408920985006262e-14
10
169.99500025071586
20
10.004999999999987
10
180.00000025071586
20
10.005000050218282
10
190.00500025071588
20
10.005000050218282
10
190.00500025071588
20
-1.8796187051250968e-07
0
SPLINE
5
312
100
AcDbEntity
8
0
100
AcDbSpline
70
0
71
3
72
12
73
8
74
0
42
0.000000001
43
0.0000000001
44
0.0000000001
40
-0.086476715625501743
40
-0.086476715625501743
40
-0.086476715625501743
40
-0.086476715625501743
40
-0.063421795266221326
40
-0.063421795266221326
40
-0.041070426453662635
40
-0.041070426453662635
40
-0
40
-0
40
-0
40
-0
10
176.3212850317359
20
-8.8315144777297956
30
0
10
176.36986133718602
20
-8.7719464327977352
30
0
10
176.42440547542262
20
-8.7181688417048893
30
0
10
176.54513282525554
20
-8.6268327638729723
30
0
10
176.60926087617099
20
-8.590076763271405
30
0
10
176.80461511947368
20
-8.509161661165308
30
0
10
176.93949965569871
20
-8.4877217411994916
30
0
10
177.0764010772109
20
-8.4877217411994916
30
0
0
SPLINE
5
313
100
AcDbEntity
8
0
100
AcDbSpline
70
0
71
3
72
10
73
6
74
0
42
0.000000001
43
0.0000000001
44
0.0000000001
40
-0.063190543328914786
40
-0.063190543328914786
40
-0.063190543328914786
40
-0.063190543328914786
40
-0.030370385560120429
40
-0.030370385560120429
40
-0
40
-0
40
-0
40
-0
10
177.0764010772109
20
-8.4877217411994916
30
0
10
177.18577255065938
20
-8.4877217411994916
30
0
10
177.29494151640898
20
-8.5019306826352938
30
0
10
177.49423395379165
20
-8.5701189084692437
30
0
10
177.58047100780306
20
-8.6194357862617696
30
0
10
177.65655111521482
20
-8.6862210035324079
30
0
0
SPLINE
5
314
100
AcDbEntity
8
0
100
AcDbSpline
70
0
71
3
72
10
73
6
74
0
42
0.000000001
43
0.0000000001
44
0.0000000001
40
-0.0630499866700997
40
-0.0630499866700997
40
-0.0630499866700997
40
-0.0630499866700997
40
-0.032720984156975039
40
-0.032720984156975039
40
-0
40
-0
40
-0
40
-0
10
177.65655111521482
20
-8.6862210035324079
30
0
10
177.73254721301922
20
-8.7529325188133242
30
0
10
177.79258315246568
20
-8.8319293736985429
30
0
10
177.88575205105812
20
-9.0203767502486727
30
0
10
177.91377929845316
20
-9.1264737979196742
30
0
10
177.92769696563482
20
-9.2346521317958814
30
0
0
LINE
5
315
100
AcDbEntity
8
0
100
AcDbLine
10
177.92769696563482
20
-9.2346521317958814
30
0
11
177.56139408797026
21
-9.2633015513420087
31
0
0
SPLINE
5
316
100
AcDbEntity
8
0
100
AcDbSpline
70
0
71
3
72
10
73
6
74
0
42
0.000000001
43
0.0000000001
44
0.0000000001
40
-0.034313150358715599
40
-0.034313150358715599
40
-0.034313150358715599
40
-0.034313150358715599
40
-0.013984041423291066
40
-0.013984041423291066
40
-0
40
-0
40
-0
40
-0
10
177.56139408797026
20
-9.2633015513420087
30
0
10
177.54647502308899
20
-9.1974089431132686
30
0
10
177.52612366928156
20
-9.1282479667398757
30
0
10
177.47841341048954
20
-9.0244516266536063
30
0
10
177.45373791657033
20
-8.9825196924816559
30
0
10
177.42224004119635
20
-8.948158383369444
30
0
0
SPLINE
5
317
100
AcDbEntity
8
0
100
AcDbSpline
70
0
71
3
72
12
73
8
74
0
42
0.000000001
43
0.0000000001
44
0.0000000001
40
-0.041541070940729119
40
-0.041541070940729119
40
-0.041541070940729119
40
-0.041541070940729119
40
-0.030805942209514221
40
-0.030805942209514221
40
-0.020487569579901447
40
-0.020487569579901447
40
-0
40
-0
40
-0
40
-0
10
177.42224004119635
20
-8.948158383369444
30
0
10
177.3976195787663
20
-8.9221888353288747
30
0
10
177.37078600306069
20
-8.8985900473537942
30
0
10
177.31335207839652
20
-8.8582544430304182
30
0
10
177.28344836526469
20
-8.8416448229882487
30
0
10
177.18868202316301
20
-8.8020823598820357
30
0
10
177.12218268566471
20
-8.7905866503715497
30
0
10
177.05389078706503
20
-8.7905866503715497
30
0
0
SPLINE
5
318
100
AcDbEntity
8
0
100
AcDbSpline
70
0
71
3
72
10
73
6
74
0
42
0.000000001
43
0.0000000001
44
0.0000000001
40
-0.033241793695842584
40
-0.033241793695842584
40
-0.033241793695842584
40
-0.033241793695842584
40
-0.016371627146442986
40
-0.016371627146442986
40
-0
40
-0
40
-0
40
-0
10
177.05389078706503
20
-8.7905866503715497
30
0
10
176.99765967337396
20
-8.7905866503715497
30
0
10
176.94223664031534
20
-8.7981075722235129
30
0
10
176.83663750242926
20
-8.8316754824408843
30
0
10
176.7887863585907
20
-8.8563948557804082
30
0
10
176.74488674849272
20
-8.8888130187988263
30
0
0
SPLINE
5
319
100
AcDbEntity
8
0
100
AcDbSpline
70
0
71
3
72
10
73
6
74
0
42
0.000000001
43
0.0000000001
44
0.0000000001
40
-0.046797367082441726
40
-0.046797367082441726
40
-0.046797367082441726
40
-0.046797367082441726
40
-0.02454830841039693
40
-0.02454830841039693
40
-0
40
-0
40
-0
40
-0
10
176.74488674849272
20
-8.8888130187988263
30
0
10
176.68495461676886
20
-8.9325282388828313
30
0
10
176.63349926622521
20
-8.9852309592103445
30
0
10
176.5406624029707
20
-9.1106300156337223
30
0
10
176.50182699333445
20
-9.1835445231872512
30
0
10
176.47067110985518
20
-9.2592087984085065
30
0
0
SPLINE
5
320
100
AcDbEntity
8
0
100
AcDbSpline
70
0
71
3
72
10
73
6
74
0
42
0.000000001
43
0.0000000001
44
0.0000000001
40
-0.069081444859091901
40
-0.069081444859091901
40
-0.069081444859091901
40
-0.069081444859091901
40
-0.039238977679326194
40
-0.039238977679326194
40
-0
40
-0
40
-0
40
-0
10
176.47067110985518
20
-9.2592087984085065
30
0
10
176.432664692191
20
-9.3515100601244772
30
0
10
176.40926234015512
20
-9.4558965730023363
30
0
10
176.37495813397979
20
-9.6839186846378915
30
0
10
176.36749450595124
20
-9.8221420640297055
30
0
10
176.36630550026894
20
-9.9529332518577558
30
0
0
SPLINE
5
321
100
AcDbEntity
8
0
100
AcDbSpline
70
0
71
3
72
10
73
6
74
0
42
0.000000001
43
0.0000000001
44
0.0000000001
40
-0.045011363816683123
40
-0.045011363816683123
40
-0.045011363816683123
40
-0.045011363816683123
40
-0.021873133860950453
40
-0.021873133860950453
40
-0
40
-0
40
-0
40
-0
10
176.36630550026894
20
-9.9529332518577558
30
0
10
176.40863335793864
20
-9.8884646549594031
30
0
10
176.45752438403838
20
-9.8287907992091643
30
0
10
176.56769281630031
20
-9.7269369196766622
30
0
10
176.62674624418167
20
-9.6852725933745489
30
0
10
176.69168066233397
20
-9.6521145701408368
30
0
0
SPLINE
5
322
100
AcDbEntity
8
0
100
AcDbSpline
70
0
71
3
72
10
73
6
74
0
42
0.000000001
43
0.0000000001
44
0.0000000001
40
-0.042072552721759443
40
-0.042072552721759443
40
-0.042072552721759443
40
-0.042072552721759443
40
-0.020910537705772361
40
-0.020910537705772361
40
-0
40
-0
40
-0
40
-0
10
176.69168066233397
20
-9.6521145701408368
30
0
10
176.75450365935203
20
-9.620034768797801
30
0
10
176.82011015211015
20
-9.5951436665284824
30
0
10
176.95636577587291
20
-9.5619443609862245
30
0
10
177.0251166730591
20
-9.5538882017135602
30
0
10
177.09481846541166
20
-9.5538882017135602
30
0
0
SPLINE
5
323
100
AcDbEntity
8
0
100
AcDbSpline
70
0
71
3
72
12
73
8
74
0
42
0.000000001
43
0.0000000001
44
0.0000000001
40
-0.070827410869756455
40
-0.070827410869756455
40
-0.070827410869756455
40
-0.070827410869756455
40
-0.052749518289378586
40
-0.052749518289378586
40
-0.035327734149766636
40
-0.035327734149766636
40
-0
40
-0
40
-0
40
-0
10
177.09481846541166
20
-9.5538882017135602
30
0
10
177.15508131554753
20
-9.5538882017135602
30
0
10
177.21499502077634
20
-9.5593312753606305
30
0
10
177.33101016576822
20
-9.5826766382805975
30
0
10
177.38613810081853
20
-9.5999115684369443
30
0
10
177.54720693897937
20
-9.670466955541908
30
0
10
177.64071787119488
20
-9.7398597751257014
30
0
10
177.72203531116247
20
-9.8250342011451703
30
0
0
SPLINE
5
324
100
AcDbEntity
8
0
100
AcDbSpline
70
0
71
3
72
12
73
8
74
0
42
0.000000001
43
0.0000000001
44
0.0000000001
40
-0.076933896748039063
40
-0.076933896748039063
40
-0.076933896748039063
40
-0.076933896748039063
40
-0.058408180087549007
40
-0.058408180087549007
40
-0.039913975160820785
40
-0.039913975160820785
40
-0
40
-0
40
-0
40
-0
10
177.72203531116247
20
-9.8250342011451703
30
0
10
177.76468827593203
20
-9.869710198151143
30
0
10
177.80256483713669
20
-9.9181332984550945
30
0
10
177.8679593937288
20
-10.022816240164182
30
0
10
177.89482212979254
20
-10.077985642183631
30
0
10
177.96229362131498
20
-10.260665340878536
30
0
10
177.98090305179358
20
-10.392874462864452
30
0
10
177.98090305179358
20
-10.525921046733854
30
0
0
SPLINE
5
325
100
AcDbEntity
8
0
100
AcDbSpline
70
0
71
3
72
10
73
6
74
0
42
0.000000001
43
0.0000000001
44
0.0000000001
40
-0.054609780126009991
40
-0.054609780126009991
40
-0.054609780126009991
40
-0.054609780126009991
40
-0.027037862407348529
40
-0.027037862407348529
40
-0
40
-0
40
-0
40
-0
10
177.98090305179358
20
-10.525921046733854
30
0
10
177.98090305179358
20
-10.617826563162605
30
0
10
177.97123106095012
20
-10.708816821217741
30
0
10
177.93009734834493
20
-10.886141065353858
30
0
10
177.89958470586868
20
-10.970275389292528
30
0
10
177.85914313048124
20
-11.050818622112272
30
0
0
SPLINE
5
326
100
AcDbEntity
8
0
100
AcDbSpline
70
0
71
3
72
10
73
6
74
0
42
0.000000001
43
0.0000000001
44
0.0000000001
40
-0.050949068404582021
40
-0.050949068404582021
40
-0.050949068404582021
40
-0.050949068404582021
40
-0.024938665120589142
40
-0.024938665120589142
40
-0
40
-0
40
-0
40
-0
10
177.85914313048124
20
-11.050818622112272
30
0
10
177.82024035589154
20
-11.128297282424677
30
0
10
177.77264672673078
20
-11.200503588004572
30
0
10
177.65897869077469
20
-11.326685533853777
30
0
10
177.59565999888352
20
-11.379166848113584
30
0
10
177.52455916255713
20
-11.422237515449522
30
0
0
SPLINE
5
327
100
AcDbEntity
8
0
100
AcDbSpline
70
0
71
3
72
10
73
6
74
0
42
0.000000001
43
0.0000000001
44
0.0000000001
40
-0.050889434333963347
40
-0.050889434333963347
40
-0.050889434333963347
40
-0.050889434333963347
40
-0.025952832154439665
40
-0.025952832154439665
40
-0
40
-0
40
-0
40
-0
10
177.52455916255713
20
-11.422237515449522
30
0
10
177.45346119725383
20
-11.465306473764599
30
0
10
177.37772370838064
20
-11.497489615635825
30
0
10
177.21382443668608
20
-11.541242377031462
30
0
10
177.12812196877931
20
-11.551159679889677
30
0
10
177.04161252826452
20
-11.551159679889677
30
0
0
SPLINE
5
328
100
AcDbEntity
8
0
100
AcDbSpline
70
0
71
3
72
12
73
8
74
0
42
0.000000001
43
0.0000000001
44
0.0000000001
40
-0.085772662166925071
40
-0.085772662166925071
40
-0.085772662166925071
40
-0.085772662166925071
40
-0.061592333151599898
40
-0.061592333151599898
40
-0.038706304545073011
40
-0.038706304545073011
40
-0
40
-0
40
-0
40
-0
10
177.04161252826452
20
-11.551159679889677
30
0
10
176.96101179874864
20
-11.551159679889677
30
0
10
176.8807595924703
20
-11.5433760064401
30
0
10
176.72766304894219
20
-11.50906153642137
30
0
10
176.65618787073808
20
-11.483901328364468
30
0
10
176.47291735536777
20
-11.391341934385872
30
0
10
176.3746037307541
20
-11.310401374853654
30
0
10
176.29058923572302
20
-11.212483108043669
30
0
0
SPLINE
5
329
100
AcDbEntity
8
0
100
AcDbSpline
70
0
71
3
72
12
73
8
74
0
42
0.000000001
43
0.0000000001
44
0.0000000001
40
-0.11584712648778893
40
-0.11584712648778893
40
-0.11584712648778893
40
-0.11584712648778893
40
-0.092381225625460667
40
-0.092381225625460667
40
-0.065744167291276412
40
-0.065744167291276412
40
-0
40
-0
40
-0
40
-0
10
176.29058923572302
20
-11.212483108043669
30
0
10
176.23951376815316
20
-11.152955024226099
30
0
10
176.19774032628385
20
-11.086247583629348
30
0
10
176.12454192564218
20
-10.935641006879358
30
0
10
176.09507009179123
20
-10.850199747427284
30
0
10
176.01731141337245
20
-10.551485882204748
30
0
10
176.00000262260437
20
-10.315327275869423
30
0
10
176.00000262260437
20
-10.096180051565169
30
0
0
SPLINE
5
330
100
AcDbEntity
8
0
100
AcDbSpline
70
0
71
3
72
10
73
6
74
0
42
0.000000001
43
0.0000000001
44
0.0000000001
40
-0.12608356310731975
40
-0.12608356310731975
40
-0.12608356310731975
40
-0.12608356310731975
40
-0.039807620420835306
40
-0.039807620420835306
40
-0
40
-0
40
-0
40
-0
10
176.00000262260437
20
-10.096180051565169
30
0
10
176.00000262260437
20
-9.7726159508743535
30
0
10
176.03317075842642
20
-9.4490957832791604
30
0
10
176.17626624159004
20
-9.0541167898862334
30
0
10
176.23755015574275
20
-8.9344496780791456
30
0
10
176.3212850317359
20
-8.8315144777297956
30
0
0
LWPOLYLINE
5
331
100
AcDbEntity
8
0
100
AcDbPolyline
90
9
70
1
43
0.0
10
164.99999999999994
20
-10.994999593182481
10
165.00000071525574
20
-16.000000000000007
10
195.00000087085465
20
-15.99999992471021
10
195.00000260955369
20
-10.994999517892678
10
189.99500180645956
20
-10.994999543014369
10
189.99500080309394
20
-0.99999954301437155
10
180.0000007554118
20
-0.9999999999993614
10
170.00500080309399
20
-0.99999959318247233
10
170.00500080309399
20
-10.994999593182474
0
SPLINE
5
332
100
AcDbEntity
8
0
100
AcDbSpline
70
0
71
3
72
10
73
6
74
0
42
0.000000001
43
0.0000000001
44
0.0000000001
40
-0.10429644472574091
40
-0.10429644472574091
40
-0.10429644472574091
40
-0.10429644472574091
40
-0.052373277685417143
40
-0.052373277685417143
40
-0
40
-0
40
-0
40
-0
10
210.15163554472653
20
12.394270122051243
30
0
10
210.19601859095107
20
12.56155996224712
30
0
10
210.25001145560088
20
12.725691113421131
30
0
10
210.37765093993357
20
13.04906723195187
30
0
10
210.45104434783906
20
13.207194615320432
30
0
10
210.53328632039754
20
13.361186802387241
30
0
0
SPLINE
5
333
100
AcDbEntity
8
0
100
AcDbSpline
70
0
71
3
72
10
73
6
74
0
42
0.000000001
43
0.0000000001
44
0.0000000001
40
-0.09461424303023773
40
-0.09461424303023773
40
-0.09461424303023773
40
-0.09461424303023773
40
-0.04474279247409195
40
-0.04474279247409195
40
-0
40
-0
40
-0
40
-0
10
210.53328632039754
20
13.361186802387241
30
0
10
210.61158174475921
20
13.507789317462578
30
0
10
210.69694604212918
20
13.652328979313664
30
0
10
210.87320338146552
20
13.913817126982504
30
0
10
210.96386234112271
20
14.033912138579268
30
0
10
211.06227672321526
20
14.145975232124332
30
0
0
LINE
5
334
100
AcDbEntity
8
0
100
AcDbLine
10
211.06227672321526
20
14.145975232124336
30
0
11
209.59297251550285
21
14.145975232124332
31
0
0
LINE
5
335
100
AcDbEntity
8
0
100
AcDbLine
10
209.59297251550285
20
14.145975232124332
30
0
11
209.59297251550285
21
14.500000000000004
31
0
0
LINE
5
336
100
AcDbEntity
8
0
100
AcDbLine
10
209.59297251550285
20
14.500000000000004
30
0
11
211.53499162418572
21
14.500000000000004
31
0
0
LINE
5
337
100
AcDbEntity
8
0
100
AcDbLine
10
211.53499162418572
20
14.500000000000004
30
0
11
211.53499162418572
21
14.213506102561954
31
0
0
SPLINE
5
338
100
AcDbEntity
8
0
100
AcDbSpline
70
0
71
3
72
10
73
6
74
0
42
0.000000001
43
0.0000000001
44
0.0000000001
40
-0.098472176096214475
40
-0.098472176096214475
40
-0.098472176096214475
40
-0.098472176096214475
40
-0.053242287536835388
40
-0.053242287536835388
40
-0
40
-0
40
-0
40
-0
10
211.53499162418572
20
14.213506102561954
30
0
10
211.43167560528121
20
14.103548313484207
30
0
10
211.33632764999206
20
13.981968793856241
30
0
10
211.14789346099357
20
13.713068119219521
30
0
10
211.05344221686624
20
13.558204091719542
30
0
10
210.96711984498231
20
13.403137743473057
30
0
0
SPLINE
5
339
100
AcDbEntity
8
0
100
AcDbSpline
70
0
71
3
72
10
73
6
74
0
42
0.000000001
43
0.0000000001
44
0.0000000001
40
-0.11303778048394952
40
-0.11303778048394952
40
-0.11303778048394952
40
-0.11303778048394952
40
-0.055953984188045092
40
-0.055953984188045092
40
-0
40
-0
40
-0
40
-0
10
210.96711984498231
20
13.403137743473057
30
0
10
210.87456938895582
20
13.236883443895133
30
0
10
210.79114634815778
20
13.066058356280816
30
0
10
210.64574043508006
20
12.718452665811697
30
0
10
210.5837743456492
20
12.542833352967213
30
0
10
210.53226313216416
20
12.363574326038364
30
0
0
SPLINE
5
340
100
AcDbEntity
8
0
100
AcDbSpline
70
0
71
3
72
10
73
6
74
0
42
0.000000001
43
0.0000000001
44
0.0000000001
40
-0.083792458616053722
40
-0.083792458616053722
40
-0.083792458616053722
40
-0.083792458616053722
40
-0.043308176658433437
40
-0.043308176658433437
40
-0
40
-0
40
-0
40
-0
10
210.53226313216416
20
12.363574326038364
30
0
10
210.49425951330272
20
12.234080525009611
30
0
10
210.46448512783354
20
12.102150090929921
30
0
10
210.41734748560597
20
11.826838952175153
30
0
10
210.40092716481979
20
11.682904337706287
30
0
10
210.39106255991189
20
11.538881182670597
30
0
0
LINE
5
341
100
AcDbEntity
8
0
100
AcDbLine
10
210.39106255991186
20
11.5388811826706
30
0
11
210.01248142344681
21
11.538881182670597
31
0
0
SPLINE
5
342
100
AcDbEntity
8
0
100
AcDbSpline
70
0
71
3
72
10
73
6
74
0
42
0.000000001
43
0.0000000001
44
0.0000000001
40
-0.085936794002172218
40
-0.085936794002172218
40
-0.085936794002172218
40
-0.085936794002172218
40
-0.047105490989315414
40
-0.047105490989315414
40
-0
40
-0
40
-0
40
-0
10
210.01248142344681
20
11.538881182670597
30
0
10
210.01472845112502
20
11.668460269647664
30
0
10
210.02954519566578
20
11.801916671647287
30
0
10
210.07556470303027
20
12.084801412920438
30
0
10
210.11137062358955
20
12.242502260841018
30
0
10
210.15163554472653
20
12.394270122051243
30
0
0
LWPOLYLINE
5
343
100
AcDbEntity
8
0
100
AcDbPolyline
90
10
70
1
43
0.0
10
228.00000150580127
20
-1.5836041589167849e-07
10
228.00000071525574
20
15
10
212.99999999999997
20
15.000000715255732
10
198.00000071525574
20
15
10
198
20
-2.3365021695198607e-07
10
202.99000072777861
20
2.379417745883587e-07
10
202.99000025046462
20
10.010000237941771
10
213.00000025046489
20
10.010000288185164
10
223.01000025046491
20
10.010000288185164
10
223.01000025046491
20
2.8411950125928342e-07
0
SPLINE
5
344
100
AcDbEntity
8
0
100
AcDbSpline
70
0
71
3
72
10
73
6
74
0
42
0.000000001
43
0.0000000001
44
0.0000000001
40
-0.10429644472574091
40
-0.10429644472574091
40
-0.10429644472574091
40
-0.10429644472574091
40
-0.052373277685417143
40
-0.052373277685417143
40
-0
40
-0
40
-0
40
-0
10
210.15163554472653
20
-10.605729877948759
30
0
10
210.19601859095107
20
-10.438440037752883
30
0
10
210.25001145560088
20
-10.274308886578872
30
0
10
210.37765093993357
20
-9.9509327680481334
30
0
10
210.45104434783906
20
-9.7928053846795713
30
0
10
210.53328632039754
20
-9.6388131976127607
30
0
0
SPLINE
5
345
100
AcDbEntity
8
0
100
AcDbSpline
70
0
71
3
72
10
73
6
74
0
42
0.000000001
43
0.0000000001
44
0.0000000001
40
-0.09461424303023773
40
-0.09461424303023773
40
-0.09461424303023773
40
-0.09461424303023773
40
-0.04474279247409195
40
-0.04474279247409195
40
-0
40
-0
40
-0
40
-0
10
210.53328632039754
20
-9.6388131976127607
30
0
10
210.61158174475921
20
-9.4922106825374257
30
0
10
210.69694604212918
20
-9.347671020686338
30
0
10
210.87320338146552
20
-9.0861828730174992
30
0
10
210.96386234112271
20
-8.9660878614207355
30
0
10
211.06227672321526
20
-8.8540247678756696
30
0
0
LINE
5
346
100
AcDbEntity
8
0
100
AcDbLine
10
211.06227672321526
20
-8.8540247678756714
30
0
11
209.59297251550285
21
-8.8540247678756696
31
0
0
LINE
5
347
100
AcDbEntity
8
0
100
AcDbLine
10
209.59297251550285
20
-8.8540247678756696
30
0
11
209.59297251550285
21
-8.4999999999999982
31
0
0
LINE
5
348
100
AcDbEntity
8
0
100
AcDbLine
10
209.59297251550285
20
-8.4999999999999982
30
0
11
211.53499162418572
21
-8.4999999999999982
31
0
0
LINE
5
349
100
AcDbEntity
8
0
100
AcDbLine
10
211.53499162418572
20
-8.4999999999999982
30
0
11
211.53499162418572
21
-8.7864938974380475
31
0
0
SPLINE
5
350
100
AcDbEntity
8
0
100
AcDbSpline
70
0
71
3
72
10
73
6
74
0
42
0.000000001
43
0.0000000001
44
0.0000000001
40
-0.098472176096214475
40
-0.098472176096214475
40
-0.098472176096214475
40
-0.098472176096214475
40
-0.053242287536835388
40
-0.053242287536835388
40
-0
40
-0
40
-0
40
-0
10
211.53499162418572
20
-8.7864938974380475
30
0
10
211.43167560528121
20
-8.8964516865157979
30
0
10
211.33632764999206
20
-9.0180312061437622
30
0
10
211.14789346099357
20
-9.2869318807804841
30
0
10
211.05344221686624
20
-9.4417959082804632
30
0
10
210.96711984498231
20
-9.5968622565269452
30
0
0
SPLINE
5
351
100
AcDbEntity
8
0
100
AcDbSpline
70
0
71
3
72
10
73
6
74
0
42
0.000000001
43
0.0000000001
44
0.0000000001
40
-0.11303778048394952
40
-0.11303778048394952
40
-0.11303778048394952
40
-0.11303778048394952
40
-0.055953984188045092
40
-0.055953984188045092
40
-0
40
-0
40
-0
40
-0
10
210.96711984498231
20
-9.5968622565269452
30
0
10
210.87456938895582
20
-9.7631165561048689
30
0
10
210.79114634815778
20
-9.9339416437191854
30
0
10
210.64574043508006
20
-10.281547334188305
30
0
10
210.5837743456492
20
-10.457166647032789
30
0
10
210.53226313216416
20
-10.636425673961638
30
0
0
SPLINE
5
352
100
AcDbEntity
8
0
100
AcDbSpline
70
0
71
3
72
10
73
6
74
0
42
0.000000001
43
0.0000000001
44
0.0000000001
40
-0.083792458616053722
40
-0.083792458616053722
40
-0.083792458616053722
40
-0.083792458616053722
40
-0.043308176658433437
40
-0.043308176658433437
40
-0
40
-0
40
-0
40
-0
10
210.53226313216416
20
-10.636425673961638
30
0
10
210.49425951330272
20
-10.76591947499039
30
0
10
210.46448512783354
20
-10.89784990907008
30
0
10
210.41734748560597
20
-11.173161047824848
30
0
10
210.40092716481979
20
-11.317095662293717
30
0
10
210.39106255991189
20
-11.461118817329405
30
0
0
LINE
5
353
100
AcDbEntity
8
0
100
AcDbLine
10
210.39106255991186
20
-11.461118817329403
30
0
11
210.01248142344681
21
-11.461118817329405
31
0
0
SPLINE
5
354
100
AcDbEntity
8
0
100
AcDbSpline
70
0
71
3
72
10
73
6
74
0
42
0.000000001
43
0.0000000001
44
0.0000000001
40
-0.085936794002172218
40
-0.085936794002172218
40
-0.085936794002172218
40
-0.085936794002172218
40
-0.047105490989315414
40
-0.047105490989315414
40
-0
40
-0
40
-0
40
-0
10
210.01248142344681
20
-11.461118817329405
30
0
10
210.01472845112502
20
-11.331539730352338
30
0
10
210.02954519566578
20
-11.198083328352714
30
0
10
210.07556470303027
20
-10.915198587079564
30
0
10
210.11137062358955
20
-10.757497739158985
30
0
10
210.15163554472653
20
-10.605729877948759
30
0
0
LWPOLYLINE
5
355
100
AcDbEntity
8
0
100
AcDbPolyline
90
9
70
1
43
0.0
10
197.99999999999997
20
-10.989999593182429
10
198.00000071525574
20
-16.000000000000007
10
228.00000087085465
20
-15.99999992471021
10
228.00000260905171
20
-10.989999517892626
10
222.99000180595766
20
-10.989999543039419
10
222.99000080309395
20
-0.99999954303942151
10
213.00000075541027
20
-0.99999999999943689
10
203.01000080309404
20
-0.99999959318242593
10
203.01000080309399
20
-10.989999593182427
0
SPLINE
5
356
100
AcDbEntity
8
0
100
AcDbSpline
70
0
71
3
72
12
73
8
74
0
42
0.000000001
43
0.0000000001
44
0.0000000001
40
-0.073548351801126344
40
-0.073548351801126344
40
-0.073548351801126344
40
-0.073548351801126344
40
-0.055126980165291557
40
-0.055126980165291557
40
-0.037275538260374587
40
-0.037275538260374587
40
-0
40
-0
40
-0
40
-0
10
244.01403100671388
20
11.71180081367493
30
0
10
243.96986721216103
20
11.754470305199247
30
0
10
243.92986458216754
20
11.800878412081961
30
0
10
243.86112939696511
20
11.900363504366018
30
0
10
243.83271355887769
20
11.95228190239979
30
0
10
243.76227583493343
20
12.122020918404139
30
0
10
243.74186183767534
20
12.243415284770618
30
0
10
243.74186183767534
20
12.367667078971866
30
0
0
SPLINE
5
357
100
AcDbEntity
8
0
100
AcDbSpline
70
0
71
3
72
10
73
6
74
0
42
0.000000001
43
0.0000000001
44
0.0000000001
40
-0.052424426161347917
40
-0.052424426161347917
40
-0.052424426161347917
40
-0.052424426161347917
40
-0.025141650343475545
40
-0.025141650343475545
40
-0
40
-0
40
-0
40
-0
10
243.74186183767534
20
12.367667078971866
30
0
10
243.74186183767534
20
12.458589939541627
30
0
10
243.75260387228087
20
12.549469272214875
30
0
10
243.80323343779202
20
12.716721416666278
30
0
10
243.83988594097363
20
12.79077351781639
30
0
10
243.8902247461877
20
12.857776254415516
30
0
0
SPLINE
5
358
100
AcDbEntity
8
0
100
AcDbSpline
70
0
71
3
72
10
73
6
74
0
42
0.000000001
43
0.0000000001
44
0.0000000001
40
-0.051434286164007512
40
-0.051434286164007512
40
-0.051434286164007512
40
-0.051434286164007512
40
-0.026565419751643296
40
-0.026565419751643296
40
-0
40
-0
40
-0
40
-0
10
243.8902247461877
20
12.857776254415516
30
0
10
243.94002579542178
20
12.924063177020038
30
0
10
244.00011662619448
20
12.979254876342852
30
0
10
244.14475587142158
20
13.071361725184115
30
0
10
244.22712609467033
20
13.104497533698861
30
0
10
244.31280316295243
20
13.126875877380375
30
0
0
SPLINE
5
359
100
AcDbEntity
8
0
100
AcDbSpline
70
0
71
3
72
10
73
6
74
0
42
0.000000001
43
0.0000000001
44
0.0000000001
40
-0.042299390652261765
40
-0.042299390652261765
40
-0.042299390652261765
40
-0.042299390652261765
40
-0.019884216446368518
40
-0.019884216446368518
40
-0
40
-0
40
-0
40
-0
10
244.31280316295243
20
13.126875877380375
30
0
10
244.24266928039114
20
13.152549879004159
30
0
10
244.17434940103576
20
13.185641073084096
30
0
10
244.05910738373717
20
13.266865851050881
30
0
10
244.01149360041137
20
13.312272076316603
30
0
10
243.97310332836724
20
13.366302818059925
30
0
0
SPLINE
5
360
100
AcDbEntity
8
0
100
AcDbSpline
70
0
71
3
72
10
73
6
74
0
42
0.000000001
43
0.0000000001
44
0.0000000001
40
-0.0397255270706941
40
-0.0397255270706941
40
-0.0397255270706941
40
-0.0397255270706941
40
-0.020478240105880299
40
-0.020478240105880299
40
-0
40
-0
40
-0
40
-0
10
243.97310332836724
20
13.366302818059925
30
0
10
243.93593826499261
20
13.418609192413285
30
0
10
243.90847639348195
20
13.475661115069482
30
0
10
243.87080582152038
20
13.602624888999529
30
0
10
243.86259855212785
20
13.67048402477181
30
0
10
243.86259855212785
20
13.738744825124744
30
0
0
SPLINE
5
361
100
AcDbEntity
8
0
100
AcDbSpline
70
0
71
3
72
12
73
8
74
0
42
0.000000001
43
0.0000000001
44
0.0000000001
40
-0.062083014115218965
40
-0.062083014115218965
40
-0.062083014115218965
40
-0.062083014115218965
40
-0.045782046571978124
40
-0.045782046571978124
40
-0.03018579803080727
40
-0.03018579803080727
40
-0
40
-0
40
-0
40
-0
10
243.86259855212785
20
13.738744825124744
30
0
10
243.86259855212785
20
13.793082432356796
30
0
10
243.86745963310682
20
13.847156514407517
30
0
10
243.88847224071031
20
13.951388444642287
30
0
10
243.90394777339853
20
14.00072851808574
30
0
10
243.96573552313757
20
14.140275208080226
30
0
10
244.02490465241391
20
14.220004443070861
30
0
10
244.0979328143797
20
14.289222478866581
30
0
0
SPLINE
5
362
100
AcDbEntity
8
0
100
AcDbSpline
70
0
71
3
72
12
73
8
74
0
42
0.000000001
43
0.0000000001
44
0.0000000001
40
-0.068313647163826735
40
-0.068313647163826735
40
-0.068313647163826735
40
-0.068313647163826735
40
-0.052183634037756159
40
-0.052183634037756159
40
-0.035856164654980864
40
-0.035856164654980864
40
-0
40
-0
40
-0
40
-0
10
244.0979328143797
20
14.289222478866581
30
0
10
244.13697087828706
20
14.326223757241674
30
0
10
244.17940340779626
20
14.358796704193583
30
0
10
244.27179916183951
20
14.41516497940178
30
0
10
244.32085959386393
20
14.438244810030358
30
0
10
244.4847816438494
20
14.496635309948294
30
0
10
244.60460592304719
20
14.51227825880051
30
0
10
244.72412647189714
20
14.51227825880051
30
0
0
SPLINE
5
363
100
AcDbEntity
8
0
100
AcDbSpline
70
0
71
3
72
10
73
6
74
0
42
0.000000001
43
0.0000000001
44
0.0000000001
40
-0.069484475162622544
40
-0.069484475162622544
40
-0.069484475162622544
40
-0.069484475162622544
40
-0.031608883010627385
40
-0.031608883010627385
40
-0
40
-0
40
-0
40
-0
10
244.72412647189714
20
14.51227825880051
30
0
10
244.85033181947429
20
14.51227825880051
30
0
10
244.97639413363484
20
14.494621870348697
30
0
10
245.19265905968285
20
14.411706631115548
30
0
10
245.28018543335912
20
14.356794822824115
30
0
10
245.35645948233224
20
14.284106314182285
30
0
0
SPLINE
5
364
100
AcDbEntity
8
0
100
AcDbSpline
70
0
71
3
72
12
73
8
74
0
42
0.000000001
43
0.0000000001
44
0.0000000001
40
-0.062725482189804116
40
-0.062725482189804116
40
-0.062725482189804116
40
-0.062725482189804116
40
-0.046304448236728371
40
-0.046304448236728371
40
-0.030590290424736995
40
-0.030590290424736995
40
-0
40
-0
40
-0
40
-0
10
245.35645948233224
20
14.284106314182285
30
0
10
245.39608510426876
20
14.246343415870582
30
0
10
245.43216118642852
20
14.205236927035127
30
0
10
245.49368770111599
20
14.117546497214965
30
0
10
245.51901307803172
20
14.072009695723644
30
0
10
245.57847056892945
20
13.929565626294952
30
0
10
245.59588642301179
20
13.830480577540111
30
0
10
245.59588642301179
20
13.728512942790989
30
0
0
SPLINE
5
365
100
AcDbEntity
8
0
100
AcDbSpline
70
0
71
3
72
10
73
6
74
0
42
0.000000001
43
0.0000000001
44
0.0000000001
40
-0.03881681558766388
40
-0.03881681558766388
40
-0.03881681558766388
40
-0.03881681558766388
40
-0.018952310152825894
40
-0.018952310152825894
40
-0
40
-0
40
-0
40
-0
10
245.59588642301179
20
13.728512942790989
30
0
10
245.59588642301179
20
13.662303149322499
30
0
10
245.58762468549887
20
13.596736844852185
30
0
10
245.55028488910125
20
13.472852412355138
30
0
10
245.52293026048955
20
13.416824824412101
30
0
10
245.48640490951158
20
13.365279704332355
30
0
0
SPLINE
5
366
100
AcDbEntity
8
0
100
AcDbSpline
70
0
71
3
72
10
73
6
74
0
42
0.000000001
43
0.0000000001
44
0.0000000001
40
-0.041633072629451692
40
-0.041633072629451692
40
-0.041633072629451692
40
-0.041633072629451692
40
-0.021979448474504115
40
-0.021979448474504115
40
-0
40
-0
40
-0
40
-0
10
245.48640490951158
20
13.365279704332355
30
0
10
245.4485144100228
20
13.31180808751972
30
0
10
245.40178937329242
20
13.266610796192214
30
0
10
245.28896719630907
20
13.185725989635459
30
0
10
245.22244142940804
20
13.152669797406134
30
0
10
245.15386731805421
20
13.126875877380375
30
0
0
SPLINE
5
367
100
AcDbEntity
8
0
100
AcDbSpline
70
0
71
3
72
10
73
6
74
0
42
0.000000001
43
0.0000000001
44
0.0000000001
40
-0.052291358316174846
40
-0.052291358316174846
40
-0.052291358316174846
40
-0.052291358316174846
40
-0.025122421882392762
40
-0.025122421882392762
40
-0
40
-0
40
-0
40
-0
10
245.15386731805421
20
13.126875877380375
30
0
10
245.23995591956538
20
13.098817351991181
30
0
10
245.32262567036511
20
13.060691950304308
30
0
10
245.46602484015253
20
12.961603470164412
30
0
10
245.52549631357604
20
12.90426798613926
30
0
10
245.5743993956051
20
12.836289227008823
30
0
0
SPLINE
5
368
100
AcDbEntity
8
0
100
AcDbSpline
70
0
71
3
72
10
73
6
74
0
42
0.000000001
43
0.0000000001
44
0.0000000001
40
-0.051173267602978481
40
-0.051173267602978481
40
-0.051173267602978481
40
-0.051173267602978481
40
-0.026321887132805737
40
-0.026321887132805737
40
-0
40
-0
40
-0
40
-0
10
245.5743993956051
20
12.836289227008823
30
0
10
245.62278021553612
20
12.769036468799372
30
0
10
245.65870283581847
20
12.695627830410718
30
0
10
245.70791543787666
20
12.532283922228594
30
0
10
245.7186696070633
20
12.445174671402519
30
0
10
245.7186696070633
20
12.357435047626499
30
0
0
SPLINE
5
369
100
AcDbEntity
8
0
100
AcDbSpline
70
0
71
3
72
12
73
8
74
0
42
0.000000001
43
0.0000000001
44
0.0000000001
40
-0.072719093814345992
40
-0.072719093814345992
40
-0.072719093814345992
40
-0.072719093814345992
40
-0.053659543077192159
40
-0.053659543077192159
40
-0.035449130810261131
40
-0.035449130810261131
40
-0
40
-0
40
-0
40
-0
10
245.7186696070633
20
12.357435047626499
30
0
10
245.7186696070633
20
12.293902641096468
30
0
10
245.7131028685281
20
12.230651542494819
30
0
10
245.68903814229049
20
12.108766875043171
30
0
10
245.67132009539063
20
12.051028433065946
30
0
10
245.60017802122979
20
11.886912870411466
30
0
10
245.53163977815245
20
11.792716118629496
30
0
10
245.44650034489251
20
11.710777401924137
30
0
0
SPLINE
5
370
100
AcDbEntity
8
0
100
AcDbSpline
70
0
71
3
72
12
73
8
74
0
42
0.000000001
43
0.0000000001
44
0.0000000001
40
-0.078488564146064421
40
-0.078488564146064421
40
-0.078488564146064421
40
-0.078488564146064421
40
-0.059768662518962248
40
-0.059768662518962248
40
-0.040961818374516588
40
-0.040961818374516588
40
-0
40
-0
40
-0
40
-0
10
245.44650034489251
20
11.710777401924137
30
0
10
245.40152590028572
20
11.667493744055101
30
0
10
245.35264241034929
20
11.62920026364346
30
0
10
245.24645609691515
20
11.563006234315596
30
0
10
245.19025139267666
20
11.535863053184578
30
0
10
245.00308379461072
20
11.467413232806813
30
0
10
244.86680507038494
20
11.448840320110325
30
0
10
244.7302656758032
20
11.448840320110325
30
0
0
SPLINE
5
371
100
AcDbEntity
8
0
100
AcDbSpline
70
0
71
3
72
10
73
6
74
0
42
0.000000001
43
0.0000000001
44
0.0000000001
40
-0.078948125211150036
40
-0.078948125211150036
40
-0.078948125211150036
40
-0.078948125211150036
40
-0.036224566593790558
40
-0.036224566593790558
40
-0
40
-0
40
-0
40
-0
10
244.7302656758032
20
11.448840320110325
30
0
10
244.58790169249602
20
11.448840320110325
30
0
10
244.44602171608096
20
11.469110518563806
30
0
10
244.20065889873865
20
11.564244593958865
30
0
10
244.10086955701189
20
11.627900397750889
30
0
10
244.01403100671388
20
11.71180081367493
30
0
0
LWPOLYLINE
5
372
100
AcDbEntity
8
0
100
AcDbPolyline
90
10
70
1
43
0.0
10
261.00000150580127
20
7.5289801060307582e-08
10
261.00000071525574
20
15
10
245.99999999999997
20
15.000000715255732
10
231.00000071525574
20
15
10
231
20
0
10
235.98500047755238
20
2.2204460492503131e-14
10
235.98499999999999
20
10.014999999999992
10
246.00000050042792
20
10.01500005026848
10
256.01500050042796
20
10.01500005026848
10
256.01500050042796
20
-1.8743482987915172e-07
0
SPLINE
5
373
100
AcDbEntity
8
0
100
AcDbSpline
70
0
71
3
72
12
73
8
74
0
42
0.000000001
43
0.0000000001
44
0.0000000001
40
-0.073548351801126344
40
-0.073548351801126344
40
-0.073548351801126344
40
-0.073548351801126344
40
-0.055126980165291557
40
-0.055126980165291557
40
-0.037275538260374587
40
-0.037275538260374587
40
-0
40
-0
40
-0
40
-0
10
244.01403100671388
20
-11.288199186325071
30
0
10
243.96986721216103
20
-11.245529694800755
30
0
10
243.92986458216754
20
-11.199121587918041
30
0
10
243.86112939696511
20
-11.099636495633984
30
0
10
243.83271355887769
20
-11.047718097600212
30
0
10
243.76227583493343
20
-10.877979081595864
30
0
10
243.74186183767534
20
-10.756584715229385
30
0
10
243.74186183767534
20
-10.632332921028135
30
0
0
SPLINE
5
374
100
AcDbEntity
8
0
100
AcDbSpline
70
0
71
3
72
10
73
6
74
0
42
0.000000001
43
0.0000000001
44
0.0000000001
40
-0.052424426161347917
40
-0.052424426161347917
40
-0.052424426161347917
40
-0.052424426161347917
40
-0.025141650343475545
40
-0.025141650343475545
40
-0
40
-0
40
-0
40
-0
10
243.74186183767534
20
-10.632332921028135
30
0
10
243.74186183767534
20
-10.541410060458375
30
0
10
243.75260387228087
20
-10.450530727785129
30
0
10
243.80323343779202
20
-10.283278583333724
30
0
10
243.83988594097363
20
-10.209226482183613
30
0
10
243.8902247461877
20
-10.142223745584486
30
0
0
SPLINE
5
375
100
AcDbEntity
8
0
100
AcDbSpline
70
0
71
3
72
10
73
6
74
0
42
0.000000001
43
0.0000000001
44
0.0000000001
40
-0.051434286164007512
40
-0.051434286164007512
40
-0.051434286164007512
40
-0.051434286164007512
40
-0.026565419751643296
40
-0.026565419751643296
40
-0
40
-0
40
-0
40
-0
10
243.8902247461877
20
-10.142223745584486
30
0
10
243.94002579542178
20
-10.075936822979966
30
0
10
244.00011662619448
20
-10.02074512365715
30
0
10
244.14475587142158
20
-9.9286382748158903
30
0
10
244.22712609467033
20
-9.8955024663011404
30
0
10
244.31280316295243
20
-9.8731241226196271
30
0
0
SPLINE
5
376
100
AcDbEntity
8
0
100
AcDbSpline
70
0
71
3
72
10
73
6
74
0
42
0.000000001
43
0.0000000001
44
0.0000000001
40
-0.042299390652261765
40
-0.042299390652261765
40
-0.042299390652261765
40
-0.042299390652261765
40
-0.019884216446368518
40
-0.019884216446368518
40
-0
40
-0
40
-0
40
-0
10
244.31280316295243
20
-9.8731241226196271
30
0
10
244.24266928039114
20
-9.8474501209958447
30
0
10
244.17434940103576
20
-9.8143589269159062
30
0
10
244.05910738373717
20
-9.7331341489491212
30
0
10
244.01149360041137
20
-9.6877279236834006
30
0
10
243.97310332836724
20
-9.633697181940077
30
0
0
SPLINE
5
377
100
AcDbEntity
8
0
100
AcDbSpline
70
0
71
3
72
10
73
6
74
0
42
0.000000001
43
0.0000000001
44
0.0000000001
40
-0.0397255270706941
40
-0.0397255270706941
40
-0.0397255270706941
40
-0.0397255270706941
40
-0.020478240105880299
40
-0.020478240105880299
40
-0
40
-0
40
-0
40
-0
10
243.97310332836724
20
-9.633697181940077
30
0
10
243.93593826499261
20
-9.5813908075867165
30
0
10
243.90847639348195
20
-9.5243388849305202
30
0
10
243.87080582152038
20
-9.3973751110004748
30
0
10
243.86259855212785
20
-9.3295159752281922
30
0
10
243.86259855212785
20
-9.2612551748752576
30
0
0
SPLINE
5
378
100
AcDbEntity
8
0
100
AcDbSpline
70
0
71
3
72
12
73
8
74
0
42
0.000000001
43
0.0000000001
44
0.0000000001
40
-0.062083014115212672
40
-0.062083014115212672
40
-0.062083014115212672
40
-0.062083014115212672
40
-0.045782046571974343
40
-0.045782046571974343
40
-0.030185798030805292
40
-0.030185798030805292
40
-0
40
-0
40
-0
40
-0
10
243.86259855212785
20
-9.2612551748752576
30
0
10
243.86259855212785
20
-9.206917567643206
30
0
10
243.86745963310682
20
-9.1528434855924843
30
0
10
243.88847224071031
20
-9.0486115553577111
30
0
10
243.90394777339853
20
-8.9992714819142599
30
0
10
243.96573552313757
20
-8.8597247919197724
30
0
10
244.02490465241391
20
-8.779995556929137
30
0
10
244.0979328143797
20
-8.7107775211334211
30
0
0
SPLINE
5
379
100
AcDbEntity
8
0
100
AcDbSpline
70
0
71
3
72
12
73
8
74
0
42
0.000000001
43
0.0000000001
44
0.0000000001
40
-0.068313647163826735
40
-0.068313647163826735
40
-0.068313647163826735
40
-0.068313647163826735
40
-0.052183634037756159
40
-0.052183634037756159
40
-0.035856164654980864
40
-0.035856164654980864
40
-0
40
-0
40
-0
40
-0
10
244.0979328143797
20
-8.7107775211334211
30
0
10
244.13697087828706
20
-8.6737762427583274
30
0
10
244.17940340779626
20
-8.6412032958064184
30
0
10
244.27179916183951
20
-8.5848350205982236
30
0
10
244.32085959386393
20
-8.5617551899696451
30
0
10
244.4847816438494
20
-8.5033646900517095
30
0
10
244.60460592304719
20
-8.4877217411994916
30
0
10
244.72412647189714
20
-8.4877217411994916
30
0
0
SPLINE
5
380
100
AcDbEntity
8
0
100
AcDbSpline
70
0
71
3
72
10
73
6
74
0
42
0.000000001
43
0.0000000001
44
0.0000000001
40
-0.069484475162635936
40
-0.069484475162635936
40
-0.069484475162635936
40
-0.069484475162635936
40
-0.031608883010629904
40
-0.031608883010629904
40
-0
40
-0
40
-0
40
-0
10
244.72412647189714
20
-8.4877217411994916
30
0
10
244.85033181947429
20
-8.4877217411994916
30
0
10
244.97639413363484
20
-8.5053781296513069
30
0
10
245.19265905968282
20
-8.5882933688844503
30
0
10
245.28018543335912
20
-8.6432051771758829
30
0
10
245.35645948233224
20
-8.7158936858177167
30
0
0
SPLINE
5
381
100
AcDbEntity
8
0
100
AcDbSpline
70
0
71
3
72
12
73
8
74
0
42
0.000000001
43
0.0000000001
44
0.0000000001
40
-0.062725482189807016
40
-0.062725482189807016
40
-0.062725482189807016
40
-0.062725482189807016
40
-0.0463044482367298
40
-0.0463044482367298
40
-0.030590290424737591
40
-0.030590290424737591
40
-0
40
-0
40
-0
40
-0
10
245.35645948233224
20
-8.7158936858177167
30
0
10
245.39608510426876
20
-8.7536565841294198
30
0
10
245.43216118642852
20
-8.7947630729648765
30
0
10
245.49368770111599
20
-8.8824535027850349
30
0
10
245.51901307803172
20
-8.9279903042763564
30
0
10
245.57847056892945
20
-9.0704343737050479
30
0
10
245.59588642301179
20
-9.1695194224598886
30
0
10
245.59588642301179
20
-9.2714870572090131
30
0
0
SPLINE
5
382
100
AcDbEntity
8
0
100
AcDbSpline
70
0
71
3
72
10
73
6
74
0
42
0.000000001
43
0.0000000001
44
0.0000000001
40
-0.03881681558766388
40
-0.03881681558766388
40
-0.03881681558766388
40
-0.03881681558766388
40
-0.018952310152825894
40
-0.018952310152825894
40
-0
40
-0
40
-0
40
-0
10
245.59588642301179
20
-9.2714870572090131
30
0
10
245.59588642301179
20
-9.3376968506775047
30
0
10
245.58762468549887
20
-9.403263155147819
30
0
10
245.55028488910125
20
-9.5271475876448637
30
0
10
245.52293026048955
20
-9.5831751755879022
30
0
10
245.48640490951158
20
-9.6347202956676465
30
0
0
SPLINE
5
383
100
AcDbEntity
8
0
100
AcDbSpline
70
0
71
3
72
10
73
6
74
0
42
0.000000001
43
0.0000000001
44
0.0000000001
40
-0.041633072629451692
40
-0.041633072629451692
40
-0.041633072629451692
40
-0.041633072629451692
40
-0.021979448474504115
40
-0.021979448474504115
40
-0
40
-0
40
-0
40
-0
10
245.48640490951158
20
-9.6347202956676465
30
0
10
245.4485144100228
20
-9.6881919124802813
30
0
10
245.40178937329242
20
-9.7333892038077892
30
0
10
245.28896719630907
20
-9.8142740103645441
30
0
10
245.22244142940804
20
-9.8473302025938683
30
0
10
245.15386731805421
20
-9.8731241226196271
30
0
0
SPLINE
5
384
100
AcDbEntity
8
0
100
AcDbSpline
70
0
71
3
72
10
73
6
74
0
42
0.000000001
43
0.0000000001
44
0.0000000001
40
-0.052291358316174846
40
-0.052291358316174846
40
-0.052291358316174846
40
-0.052291358316174846
40
-0.025122421882392762
40
-0.025122421882392762
40
-0
40
-0
40
-0
40
-0
10
245.15386731805421
20
-9.8731241226196271
30
0
10
245.23995591956538
20
-9.9011826480088203
30
0
10
245.32262567036511
20
-9.9393080496956934
30
0
10
245.46602484015253
20
-10.038396529835589
30
0
10
245.52549631357604
20
-10.095732013860744
30
0
10
245.5743993956051
20
-10.163710772991179
30
0
0
SPLINE
5
385
100
AcDbEntity
8
0
100
AcDbSpline
70
0
71
3
72
10
73
6
74
0
42
0.000000001
43
0.0000000001
44
0.0000000001
40
-0.051173267602978481
40
-0.051173267602978481
40
-0.051173267602978481
40
-0.051173267602978481
40
-0.026321887132805737
40
-0.026321887132805737
40
-0
40
-0
40
-0
40
-0
10
245.5743993956051
20
-10.163710772991179
30
0
10
245.62278021553612
20
-10.230963531200629
30
0
10
245.65870283581847
20
-10.304372169589284
30
0
10
245.70791543787666
20
-10.46771607777141
30
0
10
245.7186696070633
20
-10.554825328597484
30
0
10
245.7186696070633
20
-10.642564952373503
30
0
0
SPLINE
5
386
100
AcDbEntity
8
0
100
AcDbSpline
70
0
71
3
72
12
73
8
74
0
42
0.000000001
43
0.0000000001
44
0.0000000001
40
-0.072719093814343674
40
-0.072719093814343674
40
-0.072719093814343674
40
-0.072719093814343674
40
-0.053659543077191313
40
-0.053659543077191313
40
-0.035449130810261131
40
-0.035449130810261131
40
-0
40
-0
40
-0
40
-0
10
245.7186696070633
20
-10.642564952373503
30
0
10
245.7186696070633
20
-10.706097358903531
30
0
10
245.7131028685281
20
-10.769348457505183
30
0
10
245.68903814229049
20
-10.891233124956837
30
0
10
245.67132009539057
20
-10.948971566934061
30
0
10
245.60017802122979
20
-11.113087129588537
30
0
10
245.53163977815245
20
-11.207283881370508
30
0
10
245.44650034489251
20
-11.289222598075865
30
0
0
SPLINE
5
387
100
AcDbEntity
8
0
100
AcDbSpline
70
0
71
3
72
12
73
8
74
0
42
0.000000001
43
0.0000000001
44
0.0000000001
40
-0.078488564146064421
40
-0.078488564146064421
40
-0.078488564146064421
40
-0.078488564146064421
40
-0.059768662518962248
40
-0.059768662518962248
40
-0.040961818374516588
40
-0.040961818374516588
40
-0
40
-0
40
-0
40
-0
10
245.44650034489251
20
-11.289222598075865
30
0
10
245.40152590028572
20
-11.332506255944903
30
0
10
245.35264241034929
20
-11.370799736356542
30
0
10
245.24645609691515
20
-11.436993765684406
30
0
10
245.19025139267666
20
-11.464136946815424
30
0
10
245.00308379461072
20
-11.532586767193189
30
0
10
244.86680507038494
20
-11.551159679889677
30
0
10
244.7302656758032
20
-11.551159679889677
30
0
0
SPLINE
5
388
100
AcDbEntity
8
0
100
AcDbSpline
70
0
71
3
72
10
73
6
74
0
42
0.000000001
43
0.0000000001
44
0.0000000001
40
-0.078948125211150036
40
-0.078948125211150036
40
-0.078948125211150036
40
-0.078948125211150036
40
-0.036224566593790558
40
-0.036224566593790558
40
-0
40
-0
40
-0
40
-0
10
244.7302656758032
20
-11.551159679889677
30
0
10
244.58790169249602
20
-11.551159679889677
30
0
10
244.44602171608096
20
-11.530889481436198
30
0
10
244.20065889873865
20
-11.435755406041137
30
0
10
244.10086955701189
20
-11.372099602249115
30
0
10
244.01403100671388
20
-11.288199186325071
30
0
0
LINE
5
389
100
AcDbEntity
8
0
100
AcDbLine
10
230.99999999999997
20
-10.984999593182362
30
0
11
231.00000071525574
21
-16.000000000000007
31
0
0
LINE
5
390
100
AcDbEntity
8
0
100
AcDbLine
10
231.00000071525574
20
-16.000000000000007
30
0
11
261.00000087085465
21
-15.99999992471021
31
0
0
LINE
5
391
100
AcDbEntity
8
0
100
AcDbLine
10
261.00000087085465
20
-15.99999992471021
30
0
11
261.00000260854978
21
-10.984999543064443
31
0
0
LINE
5
392
100
AcDbEntity
8
0
100
AcDbLine
10
261.00000260854978
20
-10.984999543064443
30
0
11
255.98500160603515
21
-10.984999543064443
31
0
0
LINE
5
393
100
AcDbEntity
8
0
100
AcDbLine
10
255.98500160603515
20
-10.984999543064443
30
0
11
255.98500160618806
21
-0.99999954340325381
31
0
0
LINE
5
394
100
AcDbEntity
8
0
100
AcDbLine
10
255.98500160618806
20
-0.99999954340325381
30
0
11
236.01499999999999
21
-0.9999995931823602
31
0
0
LINE
5
395
100
AcDbEntity
8
0
100
AcDbLine
10
236.01499999999999
20
-0.9999995931823602
30
0
11
236.01500000000004
21
-10.98499959318236
31
0
0
LINE
5
396
100
AcDbEntity
8
0
100
AcDbLine
10
236.01500000000004
20
-10.98499959318236
30
0
11
230.99999999999997
21
-10.984999593182362
31
0
0
SPLINE
5
397
100
AcDbEntity
8
0
100
AcDbSpline
70
0
71
3
72
10
73
6
74
0
42
0.000000001
43
0.0000000001
44
0.0000000001
40
-0.061940517498749161
40
-0.061940517498749161
40
-0.061940517498749161
40
-0.061940517498749161
40
-0.031613342675072216
40
-0.031613342675072216
40
-0
40
-0
40
-0
40
-0
10
276.47647079080343
20
11.62687581777573
30
0
10
276.39450406672199
20
11.567696543763265
30
0
10
276.30526969186161
20
11.523104607476494
30
0
10
276.10793288995046
20
11.46233186200263
30
0
10
276.00374478917155
20
11.448840320110325
30
0
10
275.89836698025465
20
11.448840320110325
30
0
0
SPLINE
5
398
100
AcDbEntity
8
0
100
AcDbSpline
70
0
71
3
72
10
73
6
74
0
42
0.000000001
43
0.0000000001
44
0.0000000001
40
-0.062566055557841518
40
-0.062566055557841518
40
-0.062566055557841518
40
-0.062566055557841518
40
-0.02987314384011901
40
-0.02987314384011901
40
-0
40
-0
40
-0
40
-0
10
275.89836698025465
20
11.448840320110325
30
0
10
275.78942216746066
20
11.448840320110325
30
0
10
275.68052898922855
20
11.462882460770148
30
0
10
275.48317398020885
20
11.530302552323777
30
0
10
275.39822976050687
20
11.578649322740295
30
0
10
275.32333288341761
20
11.644269943237308
30
0
0
SPLINE
5
399
100
AcDbEntity
8
0
100
AcDbSpline
70
0
71
3
72
10
73
6
74
0
42
0.000000001
43
0.0000000001
44
0.0000000001
40
-0.062966421113842971
40
-0.062966421113842971
40
-0.062966421113842971
40
-0.062966421113842971
40
-0.032873037914949867
40
-0.032873037914949867
40
-0
40
-0
40
-0
40
-0
10
275.32333288341761
20
11.644269943237308
30
0
10
275.24785881026986
20
11.710396372756026
30
0
10
275.18878576525799
20
11.78916539112638
30
0
10
275.09672170285137
20
11.977861612869971
30
0
10
275.06907978758153
20
12.085022954732684
30
0
10
275.05525648593903
20
12.193724334239963
30
0
0
LINE
5
400
100
AcDbEntity
8
0
100
AcDbLine
10
275.05525648593897
20
12.193724334239963
30
0
11
275.40928106755018
21
12.226466357707981
31
0
0
SPLINE
5
401
100
AcDbEntity
8
0
100
AcDbSpline
70
0
71
3
72
10
73
6
74
0
42
0.000000001
43
0.0000000001
44
0.0000000001
40
-0.040555166622200142
40
-0.040555166622200142
40
-0.040555166622200142
40
-0.040555166622200142
40
-0.015212459828727924
40
-0.015212459828727924
40
-0
40
-0
40
-0
40
-0
10
275.40928106755018
20
12.226466357707981
30
0
10
275.42424346935911
20
12.143493016074864
30
0
10
275.44857083556326
20
12.057548387123131
30
0
10
275.51304352003382
20
11.938761666835118
30
0
10
275.54324384104024
20
11.897907080782472
30
0
10
275.58117736130953
20
11.864256381988529
30
0
0
SPLINE
5
402
100
AcDbEntity
8
0
100
AcDbSpline
70
0
71
3
72
10
73
6
74
0
42
0.000000001
43
0.0000000001
44
0.0000000001
40
-0.035493704567932355
40
-0.035493704567932355
40
-0.035493704567932355
40
-0.035493704567932355
40
-0.018411833925245976
40
-0.018411833925245976
40
-0
40
-0
40
-0
40
-0
10
275.58117736130953
20
11.864256381988529
30
0
10
275.62378338284418
20
11.826460722969998
30
0
10
275.67213410814554
20
11.798461717726468
30
0
10
275.78397475297788
20
11.759774699158147
30
0
10
275.84517970637086
20
11.751705229282383
30
0
10
275.90655248612165
20
11.751705229282383
30
0
0
SPLINE
5
403
100
AcDbEntity
8
0
100
AcDbSpline
70
0
71
3
72
10
73
6
74
0
42
0.000000001
43
0.0000000001
44
0.0000000001
40
-0.031311042935324079
40
-0.031311042935324079
40
-0.031311042935324079
40
-0.031311042935324079
40
-0.015173988904654781
40
-0.015173988904654781
40
-0
40
-0
40
-0
40
-0
10
275.90655248612165
20
11.751705229282383
30
0
10
275.96033788946789
20
11.751705229282383
30
0
10
276.0138703353818
20
11.757553532162795
30
0
10
276.1148531211727
20
11.78392703211359
30
0
10
276.16108284690847
20
11.803190880999026
30
0
10
276.20430152863264
20
11.829467833042148
30
0
0
SPLINE
5
404
100
AcDbEntity
8
0
100
AcDbSpline
70
0
71
3
72
10
73
6
74
0
42
0.000000001
43
0.0000000001
44
0.0000000001
40
-0.029914277893938829
40
-0.029914277893938829
40
-0.029914277893938829
40
-0.029914277893938829
40
-0.015051247077928624
40
-0.015051247077928624
40
-0
40
-0
40
-0
40
-0
10
276.20430152863264
20
11.829467833042148
30
0
10
276.24663477016605
20
11.855206437581332
30
0
10
276.28548563640783
20
11.885415563486783
30
0
10
276.3563394772782
20
11.955578099738727
30
0
10
276.38731537588387
20
11.994725108582617
30
0
10
276.41405593603849
20
12.037175714969639
30
0
0
SPLINE
5
405
100
AcDbEntity
8
0
100
AcDbSpline
70
0
71
3
72
10
73
6
74
0
42
0.000000001
43
0.0000000001
44
0.0000000001
40
-0.037425883602677276
40
-0.037425883602677276
40
-0.037425883602677276
40
-0.037425883602677276
40
-0.020568089478450152
40
-0.020568089478450152
40
-0
40
-0
40
-0
40
-0
10
276.41405593603849
20
12.037175714969639
30
0
10
276.44404679673301
20
12.08478619199072
30
0
10
276.4688004559415
20
12.137515306228597
30
0
10
276.51422399123135
20
12.253786010200882
30
0
10
276.53453546166941
20
12.321617579197337
30
0
10
276.55116375535727
20
12.388130843639377
30
0
0
SPLINE
5
406
100
AcDbEntity
8
0
100
AcDbSpline
70
0
71
3
72
10
73
6
74
0
42
0.000000001
43
0.0000000001
44
0.0000000001
40
-0.045528522833853086
40
-0.045528522833853086
40
-0.045528522833853086
40
-0.045528522833853086
40
-0.022798531221444051
40
-0.022798531221444051
40
-0
40
-0
40
-0
40
-0
10
276.55116375535727
20
12.388130843639377
30
0
10
276.56953988960868
20
12.46163528152705
30
0
10
276.58337370512317
20
12.535984396156028
30
0
10
276.60186032968841
20
12.686615987529041
30
0
10
276.60641621798277
20
12.762340499404095
30
0
10
276.60641621798277
20
12.838335603475574
30
0
0
SPLINE
5
407
100
AcDbEntity
8
0
100
AcDbSpline
70
0
71
3
72
10
73
6
74
0
42
0.000000001
43
0.0000000001
44
0.0000000001
40
-0.0070809817146171815
40
-0.0070809817146171815
40
-0.0070809817146171815
40
-0.0070809817146171815
40
-0.0041837806262627871
40
-0.0041837806262627871
40
-0
40
-0
40
-0
40
-0
10
276.60641621798277
20
12.838335603475574
30
0
10
276.60641621798277
20
12.848073110391836
30
0
10
276.60617334860297
20
12.859357195318822
30
0
10
276.60551656473115
20
12.883001510354372
30
0
10
276.60495041488724
20
12.898071608841095
30
0
10
276.60436984151602
20
12.912005454301838
30
0
0
SPLINE
5
408
100
AcDbEntity
8
0
100
AcDbSpline
70
0
71
3
72
10
73
6
74
0
42
0.000000001
43
0.0000000001
44
0.0000000001
40
-0.042160998084150754
40
-0.042160998084150754
40
-0.042160998084150754
40
-0.042160998084150754
40
-0.021384726905138551
40
-0.021384726905138551
40
-0
40
-0
40
-0
40
-0
10
276.60436984151602
20
12.912005454301838
30
0
10
276.56754194466345
20
12.853353607537901
30
0
10
276.52397356871978
20
12.800230727008554
30
0
10
276.42186686497547
20
12.70366194032963
30
0
10
276.36439812227303
20
12.661936181173775
30
0
10
276.30252804607153
20
12.626534521579746
30
0
0
SPLINE
5
409
100
AcDbEntity
8
0
100
AcDbSpline
70
0
71
3
72
10
73
6
74
0
42
0.000000001
43
0.0000000001
44
0.0000000001
40
-0.043589061334694507
40
-0.043589061334694507
40
-0.043589061334694507
40
-0.043589061334694507
40
-0.021857052229526476
40
-0.021857052229526476
40
-0
40
-0
40
-0
40
-0
10
276.30252804607153
20
12.626534521579746
30
0
10
276.23965293455296
20
12.590557885175855
30
0
10
276.17329867125829
20
12.562927073603259
30
0
10
276.03282094177121
20
12.525813231521827
30
0
10
275.96099193868599
20
12.517053008079532
30
0
10
275.88813509792089
20
12.517053008079532
30
0
0
SPLINE
5
410
100
AcDbEntity
8
0
100
AcDbSpline
70
0
71
3
72
12
73
8
74
0
42
0.000000001
43
0.0000000001
44
0.0000000001
40
-0.07108715373603243
40
-0.07108715373603243
40
-0.07108715373603243
40
-0.07108715373603243
40
-0.052700103870979668
40
-0.052700103870979668
40
-0.03504652788564145
40
-0.03504652788564145
40
-0
40
-0
40
-0
40
-0
10
275.88813509792089
20
12.517053008079532
30
0
10
275.82684286745513
20
12.517053008079532
30
0
10
275.76587340297192
20
12.522539770798831
30
0
10
275.64807629760776
20
12.546160916946603
30
0
10
275.5921956805725
20
12.563578292596896
30
0
10
275.43129755157241
20
12.634106006811766
30
0
10
275.33851115798882
20
12.702672217291088
30
0
10
275.25784857571125
20
12.787175893783573
30
0
0
SPLINE
5
411
100
AcDbEntity
8
0
100
AcDbSpline
70
0
71
3
72
12
73
8
74
0
42
0.000000001
43
0.0000000001
44
0.0000000001
40
-0.077905718242531161
40
-0.077905718242531161
40
-0.077905718242531161
40
-0.077905718242531161
40
-0.059377229930162263
40
-0.059377229930162263
40
-0.040720772722854889
40
-0.040720772722854889
40
-0
40
-0
40
-0
40
-0
10
275.25784857571125
20
12.787175893783573
30
0
10
275.21518959495882
20
12.831866271007273
30
0
10
275.17750763414222
20
12.880416809483242
30
0
10
275.11235136926251
20
12.985907930105768
30
0
10
275.08564358152876
20
13.041780201107411
30
0
10
275.01823996953317
20
13.227942584016636
30
0
10
275.00000409781933
20
13.363581975369012
30
0
10
275.00000409781933
20
13.499317884445194
30
0
0
SPLINE
5
412
100
AcDbEntity
8
0
100
AcDbSpline
70
0
71
3
72
10
73
6
74
0
42
0.000000001
43
0.0000000001
44
0.0000000001
40
-0.080944338513931346
40
-0.080944338513931346
40
-0.080944338513931346
40
-0.080944338513931346
40
-0.036905663380258386
40
-0.036905663380258386
40
-0
40
-0
40
-0
40
-0
10
275.00000409781933
20
13.499317884445194
30
0
10
275.00000409781933
20
13.646061530274068
30
0
10
275.02087342383169
20
13.792418654555558
30
0
10
275.11871074702117
20
14.043869840941824
30
0
10
275.18359160496163
20
14.145531590748748
30
0
10
275.26910368353128
20
14.233969867229465
30
0
0
SPLINE
5
413
100
AcDbEntity
8
0
100
AcDbSpline
70
0
71
3
72
12
73
8
74
0
42
0.000000001
43
0.0000000001
44
0.0000000001
40
-0.075539124401371227
40
-0.075539124401371227
40
-0.075539124401371227
40
-0.075539124401371227
40
-0.056676928417987084
40
-0.056676928417987084
40
-0.038360125187265635
40
-0.038360125187265635
40
-0
40
-0
40
-0
40
-0
10
275.26910368353128
20
14.233969867229465
30
0
10
275.31281226551295
20
14.279174186043264
30
0
10
275.36036935820522
20
14.3200671945797
30
0
10
275.46245072207915
20
14.390361213052298
30
0
10
275.51578090277343
20
14.419404281873359
30
0
10
275.69043177076492
20
14.491490853354353
30
0
10
275.81552032757725
20
14.51227825880051
30
0
10
275.94338741153479
20
14.51227825880051
30
0
0
SPLINE
5
414
100
AcDbEntity
8
0
100
AcDbSpline
70
0
71
3
72
10
73
6
74
0
42
0.000000001
43
0.0000000001
44
0.0000000001
40
-0.05695141863568056
40
-0.05695141863568056
40
-0.05695141863568056
40
-0.05695141863568056
40
-0.028394192097624942
40
-0.028394192097624942
40
-0
40
-0
40
-0
40
-0
10
275.94338741153479
20
14.51227825880051
30
0
10
276.03857761722384
20
14.51227825880051
30
0
10
276.13217157359026
20
14.499773462974996
30
0
10
276.31427983410123
20
14.446150842251878
30
0
10
276.39915304525539
20
14.406276668286244
30
0
10
276.47851716727018
20
14.35470682382584
30
0
0
SPLINE
5
415
100
AcDbEntity
8
0
100
AcDbSpline
70
0
71
3
72
10
73
6
74
0
42
0.000000001
43
0.0000000001
44
0.0000000001
40
-0.059305979388924068
40
-0.059305979388924068
40
-0.059305979388924068
40
-0.059305979388924068
40
-0.030325783831632373
40
-0.030325783831632373
40
-0
40
-0
40
-0
40
-0
10
276.47851716727018
20
14.35470682382584
30
0
10
276.55952438164803
20
14.302069185963575
30
0
10
276.63059430002426
20
14.238326879949811
30
0
10
276.7559555521533
20
14.085455731283085
30
0
10
276.80681103326731
20
13.998336461414025
30
0
10
276.8468664214015
20
13.905525177717212
30
0
0
SPLINE
5
416
100
AcDbEntity
8
0
100
AcDbSpline
70
0
71
3
72
10
73
6
74
0
42
0.000000001
43
0.0000000001
44
0.0000000001
40
-0.084002795412539438
40
-0.084002795412539438
40
-0.084002795412539438
40
-0.084002795412539438
40
-0.047900483772454372
40
-0.047900483772454372
40
-0
40
-0
40
-0
40
-0
10
276.8468664214015
20
13.905525177717212
30
0
10
276.89473380986652
20
13.794612970710297
30
0
10
276.92348324692819
20
13.667893864871431
30
0
10
276.96483668795162
20
13.390523271629275
30
0
10
276.97271909564734
20
13.221059811662631
30
0
10
276.97271909564734
20
13.061391532421116
30
0
0
SPLINE
5
417
100
AcDbEntity
8
0
100
AcDbSpline
70
0
71
3
72
10
73
6
74
0
42
0.000000001
43
0.0000000001
44
0.0000000001
40
-0.091683754385035066
40
-0.091683754385035066
40
-0.091683754385035066
40
-0.091683754385035066
40
-0.040517399828650942
40
-0.040517399828650942
40
-0
40
-0
40
-0
40
-0
10
276.97271909564734
20
13.061391532421116
30
0
10
276.97271909564734
20
12.891206684705969
30
0
10
276.96451873498074
20
12.713716016507355
30
0
10
276.92329299481025
20
12.411281423261576
30
0
10
276.89435033372877
20
12.272449166700621
30
0
10
276.84788953512907
20
12.145634114742283
30
0
0
SPLINE
5
418
100
AcDbEntity
8
0
100
AcDbSpline
70
0
71
3
72
10
73
6
74
0
42
0.000000001
43
0.0000000001
44
0.0000000001
40
-0.065055240023863703
40
-0.065055240023863703
40
-0.065055240023863703
40
-0.065055240023863703
40
-0.031135441430256695
40
-0.031135441430256695
40
-0
40
-0
40
-0
40
-0
10
276.84788953512907
20
12.145634114742283
30
0
10
276.80900194633972
20
12.039490154353059
30
0
10
276.75844064533214
20
11.937514234970335
30
0
10
276.6322026151521
20
11.761198347446836
30
0
10
276.56061617469783
20
11.687628102258696
30
0
10
276.47647079080343
20
11.62687581777573
30
0
0
LWPOLYLINE
5
419
100
AcDbEntity
8
0
100
AcDbPolyline
90
10
70
1
43
0.0
10
294.00000150580127
20
7.5289801060307582e-08
10
294.00000071525574
20
15
10
279
20
15.000000715255732
10
264.00000071525574
20
15
10
264
20
0
10
268.98000072775392
20
2.2204460492503131e-14
10
268.9800002499631
20
10.019999999999987
10
279.00000024996302
20
10.020000050293573
10
289.020000249963
20
10.020000050293572
10
289.020000249963
20
-1.8717132954648719e-07
0
SPLINE
5
420
100
AcDbEntity
8
0
100
AcDbSpline
70
0
71
3
72
10
73
6
74
0
42
0.000000001
43
0.0000000001
44
0.0000000001
40
-0.061940517498749161
40
-0.061940517498749161
40
-0.061940517498749161
40
-0.061940517498749161
40
-0.031613342675072216
40
-0.031613342675072216
40
-0
40
-0
40
-0
40
-0
10
276.47647079080343
20
-11.373124182224272
30
0
10
276.39450406672199
20
-11.432303456236736
30
0
10
276.30526969186161
20
-11.47689539252351
30
0
10
276.10793288995046
20
-11.537668137997372
30
0
10
276.00374478917155
20
-11.551159679889677
30
0
10
275.89836698025465
20
-11.551159679889677
30
0
0
SPLINE
5
421
100
AcDbEntity
8
0
100
AcDbSpline
70
0
71
3
72
10
73
6
74
0
42
0.000000001
43
0.0000000001
44
0.0000000001
40
-0.062566055557841518
40
-0.062566055557841518
40
-0.062566055557841518
40
-0.062566055557841518
40
-0.02987314384011901
40
-0.02987314384011901
40
-0
40
-0
40
-0
40
-0
10
275.89836698025465
20
-11.551159679889677
30
0
10
275.78942216746066
20
-11.551159679889677
30
0
10
275.68052898922855
20
-11.537117539229856
30
0
10
275.48317398020885
20
-11.469697447676225
30
0
10
275.39822976050687
20
-11.421350677259706
30
0
10
275.32333288341761
20
-11.355730056762694
30
0
0
SPLINE
5
422
100
AcDbEntity
8
0
100
AcDbSpline
70
0
71
3
72
10
73
6
74
0
42
0.000000001
43
0.0000000001
44
0.0000000001
40
-0.062966421113842971
40
-0.062966421113842971
40
-0.062966421113842971
40
-0.062966421113842971
40
-0.032873037914949867
40
-0.032873037914949867
40
-0
40
-0
40
-0
40
-0
10
275.32333288341761
20
-11.355730056762694
30
0
10
275.24785881026986
20
-11.289603627243975
30
0
10
275.18878576525799
20
-11.210834608873624
30
0
10
275.09672170285137
20
-11.022138387130031
30
0
10
275.06907978758153
20
-10.914977045267317
30
0
10
275.05525648593903
20
-10.806275665760039
30
0
0
LINE
5
423
100
AcDbEntity
8
0
100
AcDbLine
10
275.05525648593897
20
-10.806275665760039
30
0
11
275.40928106755018
21
-10.773533642292021
31
0
0
SPLINE
5
424
100
AcDbEntity
8
0
100
AcDbSpline
70
0
71
3
72
10
73
6
74
0
42
0.000000001
43
0.0000000001
44
0.0000000001
40
-0.040555166622189248
40
-0.040555166622189248
40
-0.040555166622189248
40
-0.040555166622189248
40
-0.015212459828726495
40
-0.015212459828726495
40
-0
40
-0
40
-0
40
-0
10
275.40928106755018
20
-10.773533642292021
30
0
10
275.42424346935911
20
-10.85650698392514
30
0
10
275.44857083556326
20
-10.942451612876871
30
0
10
275.51304352003382
20
-11.0612383331649
30
0
10
275.54324384104024
20
-11.102092919217535
30
0
10
275.58117736130953
20
-11.135743618011473
30
0
0
SPLINE
5
425
100
AcDbEntity
8
0
100
AcDbSpline
70
0
71
3
72
10
73
6
74
0
42
0.000000001
43
0.0000000001
44
0.0000000001
40
-0.035493704567932355
40
-0.035493704567932355
40
-0.035493704567932355
40
-0.035493704567932355
40
-0.018411833925245976
40
-0.018411833925245976
40
-0
40
-0
40
-0
40
-0
10
275.58117736130953
20
-11.135743618011473
30
0
10
275.62378338284418
20
-11.173539277030004
30
0
10
275.67213410814554
20
-11.201538282273535
30
0
10
275.78397475297788
20
-11.240225300841855
30
0
10
275.84517970637086
20
-11.248294770717619
30
0
10
275.90655248612165
20
-11.248294770717619
30
0
0
SPLINE
5
426
100
AcDbEntity
8
0
100
AcDbSpline
70
0
71
3
72
10
73
6
74
0
42
0.000000001
43
0.0000000001
44
0.0000000001
40
-0.031311042935324079
40
-0.031311042935324079
40
-0.031311042935324079
40
-0.031311042935324079
40
-0.015173988904654781
40
-0.015173988904654781
40
-0
40
-0
40
-0
40
-0
10
275.90655248612165
20
-11.248294770717619
30
0
10
275.96033788946789
20
-11.248294770717619
30
0
10
276.0138703353818
20
-11.242446467837208
30
0
10
276.1148531211727
20
-11.216072967886412
30
0
10
276.16108284690847
20
-11.196809119000976
30
0
10
276.20430152863264
20
-11.170532166957853
30
0
0
SPLINE
5
427
100
AcDbEntity
8
0
100
AcDbSpline
70
0
71
3
72
10
73
6
74
0
42
0.000000001
43
0.0000000001
44
0.0000000001
40
-0.029914277893938829
40
-0.029914277893938829
40
-0.029914277893938829
40
-0.029914277893938829
40
-0.015051247077928624
40
-0.015051247077928624
40
-0
40
-0
40
-0
40
-0
10
276.20430152863264
20
-11.170532166957853
30
0
10
276.24663477016605
20
-11.144793562418672
30
0
10
276.28548563640783
20
-11.114584436513219
30
0
10
276.3563394772782
20
-11.044421900261277
30
0
10
276.38731537588387
20
-11.005274891417384
30
0
10
276.41405593603849
20
-10.962824285030363
30
0
0
SPLINE
5
428
100
AcDbEntity
8
0
100
AcDbSpline
70
0
71
3
72
10
73
6
74
0
42
0.000000001
43
0.0000000001
44
0.0000000001
40
-0.037425883602677276
40
-0.037425883602677276
40
-0.037425883602677276
40
-0.037425883602677276
40
-0.020568089478450152
40
-0.020568089478450152
40
-0
40
-0
40
-0
40
-0
10
276.41405593603849
20
-10.962824285030363
30
0
10
276.44404679673301
20
-10.915213808009284
30
0
10
276.4688004559415
20
-10.862484693771407
30
0
10
276.51422399123135
20
-10.74621398979912
30
0
10
276.53453546166941
20
-10.678382420802667
30
0
10
276.55116375535727
20
-10.611869156360624
30
0
0
SPLINE
5
429
100
AcDbEntity
8
0
100
AcDbSpline
70
0
71
3
72
10
73
6
74
0
42
0.000000001
43
0.0000000001
44
0.0000000001
40
-0.045528522833853086
40
-0.045528522833853086
40
-0.045528522833853086
40
-0.045528522833853086
40
-0.022798531221444051
40
-0.022798531221444051
40
-0
40
-0
40
-0
40
-0
10
276.55116375535727
20
-10.611869156360624
30
0
10
276.56953988960868
20
-10.538364718472952
30
0
10
276.58337370512317
20
-10.464015603843976
30
0
10
276.60186032968841
20
-10.31338401247096
30
0
10
276.60641621798277
20
-10.237659500595909
30
0
10
276.60641621798277
20
-10.161664396524428
30
0
0
SPLINE
5
430
100
AcDbEntity
8
0
100
AcDbSpline
70
0
71
3
72
10
73
6
74
0
42
0.000000001
43
0.0000000001
44
0.0000000001
40
-0.0070809817146171815
40
-0.0070809817146171815
40
-0.0070809817146171815
40
-0.0070809817146171815
40
-0.0041837806262627871
40
-0.0041837806262627871
40
-0
40
-0
40
-0
40
-0
10
276.60641621798277
20
-10.161664396524428
30
0
10
276.60641621798277
20
-10.151926889608166
30
0
10
276.60617334860297
20
-10.140642804681182
30
0
10
276.60551656473115
20
-10.11699848964563
30
0
10
276.60495041488724
20
-10.101928391158907
30
0
10
276.60436984151602
20
-10.087994545698164
30
0
0
SPLINE
5
431
100
AcDbEntity
8
0
100
AcDbSpline
70
0
71
3
72
10
73
6
74
0
42
0.000000001
43
0.0000000001
44
0.0000000001
40
-0.042160998084150754
40
-0.042160998084150754
40
-0.042160998084150754
40
-0.042160998084150754
40
-0.021384726905138551
40
-0.021384726905138551
40
-0
40
-0
40
-0
40
-0
10
276.60436984151602
20
-10.087994545698164
30
0
10
276.56754194466345
20
-10.146646392462102
30
0
10
276.52397356871978
20
-10.199769272991448
30
0
10
276.42186686497547
20
-10.296338059670374
30
0
10
276.36439812227303
20
-10.338063818826226
30
0
10
276.30252804607153
20
-10.373465478420256
30
0
0
SPLINE
5
432
100
AcDbEntity
8
0
100
AcDbSpline
70
0
71
3
72
10
73
6
74
0
42
0.000000001
43
0.0000000001
44
0.0000000001
40
-0.043589061334694507
40
-0.043589061334694507
40
-0.043589061334694507
40
-0.043589061334694507
40
-0.021857052229526476
40
-0.021857052229526476
40
-0
40
-0
40
-0
40
-0
10
276.30252804607153
20
-10.373465478420256
30
0
10
276.23965293455296
20
-10.409442114824149
30
0
10
276.17329867125829
20
-10.437072926396745
30
0
10
276.03282094177121
20
-10.474186768478175
30
0
10
275.96099193868599
20
-10.482946991920469
30
0
10
275.88813509792089
20
-10.482946991920469
30
0
0
SPLINE
5
433
100
AcDbEntity
8
0
100
AcDbSpline
70
0
71
3
72
12
73
8
74
0
42
0.000000001
43
0.0000000001
44
0.0000000001
40
-0.071087153736053926
40
-0.071087153736053926
40
-0.071087153736053926
40
-0.071087153736053926
40
-0.052700103870993394
40
-0.052700103870993394
40
-0.035046527885647279
40
-0.035046527885647279
40
-0
40
-0
40
-0
40
-0
10
275.88813509792089
20
-10.482946991920469
30
0
10
275.82684286745507
20
-10.482946991920469
30
0
10
275.76587340297186
20
-10.477460229201164
30
0
10
275.64807629760782
20
-10.453839083053399
30
0
10
275.5921956805725
20
-10.43642170740311
30
0
10
275.43129755157241
20
-10.365893993188237
30
0
10
275.33851115798888
20
-10.297327782708926
30
0
10
275.25784857571125
20
-10.212824106216429
30
0
0
SPLINE
5
434
100
AcDbEntity
8
0
100
AcDbSpline
70
0
71
3
72
12
73
8
74
0
42
0.000000001
43
0.0000000001
44
0.0000000001
40
-0.077905718242531161
40
-0.077905718242531161
40
-0.077905718242531161
40
-0.077905718242531161
40
-0.059377229930162263
40
-0.059377229930162263
40
-0.040720772722854889
40
-0.040720772722854889
40
-0
40
-0
40
-0
40
-0
10
275.25784857571125
20
-10.212824106216429
30
0
10
275.21518959495882
20
-10.16813372899273
30
0
10
275.17750763414222
20
-10.11958319051676
30
0
10
275.11235136926251
20
-10.014092069894236
30
0
10
275.08564358152876
20
-9.9582197988925927
30
0
10
275.01823996953317
20
-9.7720574159833653
30
0
10
275.00000409781933
20
-9.6364180246309914
30
0
10
275.00000409781933
20
-9.5006821155548078
30
0
0
SPLINE
5
435
100
AcDbEntity
8
0
100
AcDbSpline
70
0
71
3
72
10
73
6
74
0
42
0.000000001
43
0.0000000001
44
0.0000000001
40
-0.080944338513931346
40
-0.080944338513931346
40
-0.080944338513931346
40
-0.080944338513931346
40
-0.036905663380258386
40
-0.036905663380258386
40
-0
40
-0
40
-0
40
-0
10
275.00000409781933
20
-9.5006821155548078
30
0
10
275.00000409781933
20
-9.3539384697259358
30
0
10
275.02087342383169
20
-9.207581345444444
30
0
10
275.11871074702117
20
-8.9561301590581817
30
0
10
275.18359160496163
20
-8.8544684092512558
30
0
10
275.26910368353128
20
-8.7660301327705366
30
0
0
SPLINE
5
436
100
AcDbEntity
8
0
100
AcDbSpline
70
0
71
3
72
12
73
8
74
0
42
0.000000001
43
0.0000000001
44
0.0000000001
40
-0.075539124401371227
40
-0.075539124401371227
40
-0.075539124401371227
40
-0.075539124401371227
40
-0.056676928417987084
40
-0.056676928417987084
40
-0.038360125187265635
40
-0.038360125187265635
40
-0
40
-0
40
-0
40
-0
10
275.26910368353128
20
-8.7660301327705366
30
0
10
275.31281226551295
20
-8.7208258139567381
30
0
10
275.36036935820522
20
-8.679932805420302
30
0
10
275.46245072207915
20
-8.6096387869477038
30
0
10
275.51578090277343
20
-8.580595718126645
30
0
10
275.69043177076492
20
-8.5085091466456486
30
0
10
275.81552032757725
20
-8.4877217411994916
30
0
10
275.94338741153479
20
-8.4877217411994916
30
0
0
SPLINE
5
437
100
AcDbEntity
8
0
100
AcDbSpline
70
0
71
3
72
10
73
6
74
0
42
0.000000001
43
0.0000000001
44
0.0000000001
40
-0.05695141863568056
40
-0.05695141863568056
40
-0.05695141863568056
40
-0.05695141863568056
40
-0.028394192097624942
40
-0.028394192097624942
40
-0
40
-0
40
-0
40
-0
10
275.94338741153479
20
-8.4877217411994916
30
0
10
276.03857761722384
20
-8.4877217411994916
30
0
10
276.13217157359026
20
-8.5002265370250054
30
0
10
276.31427983410123
20
-8.5538491577481235
30
0
10
276.39915304525539
20
-8.5937233317137576
30
0
10
276.47851716727018
20
-8.645293176174162
30
0
0
SPLINE
5
438
100
AcDbEntity
8
0
100
AcDbSpline
70
0
71
3
72
10
73
6
74
0
42
0.000000001
43
0.0000000001
44
0.0000000001
40
-0.059305979388924068
40
-0.059305979388924068
40
-0.059305979388924068
40
-0.059305979388924068
40
-0.030325783831632373
40
-0.030325783831632373
40
-0
40
-0
40
-0
40
-0
10
276.47851716727018
20
-8.645293176174162
30
0
10
276.55952438164803
20
-8.6979308140364271
30
0
10
276.63059430002426
20
-8.7616731200501903
30
0
10
276.7559555521533
20
-8.9145442687169165
30
0
10
276.80681103326731
20
-9.0016635385859765
30
0
10
276.8468664214015
20
-9.0944748222827894
30
0
0
SPLINE
5
439
100
AcDbEntity
8
0
100
AcDbSpline
70
0
71
3
72
10
73
6
74
0
42
0.000000001
43
0.0000000001
44
0.0000000001
40
-0.084002795412539438
40
-0.084002795412539438
40
-0.084002795412539438
40
-0.084002795412539438
40
-0.047900483772454372
40
-0.047900483772454372
40
-0
40
-0
40
-0
40
-0
10
276.8468664214015
20
-9.0944748222827894
30
0
10
276.89473380986652
20
-9.2053870292897066
30
0
10
276.92348324692819
20
-9.332106135128571
30
0
10
276.96483668795162
20
-9.6094767283707281
30
0
10
276.97271909564734
20
-9.778940188337371
30
0
10
276.97271909564734
20
-9.9386084675788862
30
0
0
SPLINE
5
440
100
AcDbEntity
8
0
100
AcDbSpline
70
0
71
3
72
10
73
6
74
0
42
0.000000001
43
0.0000000001
44
0.0000000001
40
-0.091683754385035066
40
-0.091683754385035066
40
-0.091683754385035066
40
-0.091683754385035066
40
-0.040517399828650942
40
-0.040517399828650942
40
-0
40
-0
40
-0
40
-0
10
276.97271909564734
20
-9.9386084675788862
30
0
10
276.97271909564734
20
-10.108793315294033
30
0
10
276.96451873498074
20
-10.286283983492648
30
0
10
276.92329299481025
20
-10.588718576738428
30
0
10
276.89435033372877
20
-10.727550833299382
30
0
10
276.84788953512907
20
-10.854365885257719
30
0
0
SPLINE
5
441
100
AcDbEntity
8
0
100
AcDbSpline
70
0
71
3
72
10
73
6
74
0
42
0.000000001
43
0.0000000001
44
0.0000000001
40
-0.065055240023863703
40
-0.065055240023863703
40
-0.065055240023863703
40
-0.065055240023863703
40
-0.031135441430256695
40
-0.031135441430256695
40
-0
40
-0
40
-0
40
-0
10
276.84788953512907
20
-10.854365885257719
30
0
10
276.80900194633972
20
-10.960509845646945
30
0
10
276.75844064533214
20
-11.062485765029669
30
0
10
276.6322026151521
20
-11.238801652553168
30
0
10
276.56061617469783
20
-11.312371897741308
30
0
10
276.47647079080343
20
-11.373124182224272
30
0
0
LWPOLYLINE
5
442
100
AcDbEntity
8
0
100
AcDbPolyline
90
9
70
1
43
0.0
10
264
20
-10.979999593182363
10
264.00000071525574
20
-16.000000000000007
10
294.00000087085465
20
-15.99999992471021
10
294.00000260804796
20
-10.97999951789256
10
288.98000180495382
20
-10.979999543089548
10
288.98000080309407
20
-0.99999954308954697
10
279.0000007554118
20
-0.99999999999938582
10
269.02000080309404
20
-0.99999959318235909
10
269.02000080309404
20
-10.97999959318236
0
SPLINE
5
443
100
AcDbEntity
8
0
100
AcDbSpline
70
0
71
3
72
10
73
6
74
0
42
0.000000001
43
0.0000000001
44
0.0000000001
40
-0.058897223317108643
40
-0.058897223317108643
40
-0.058897223317108643
40
-0.058897223317108643
40
-0.030616855806029186
40
-0.030616855806029186
40
-0
40
-0
40
-0
40
-0
10
313.285458795095
20
11.625852406024936
30
0
10
313.21254347678894
20
11.566068765959196
30
0
10
313.13085629369249
20
11.522202940373331
30
0
10
312.94407746096556
20
11.461578744467751
30
0
10
312.84215334304594
20
11.448840320110325
30
0
10
312.74009715702584
20
11.448840320110325
30
0
0
SPLINE
5
444
100
AcDbEntity
8
0
100
AcDbSpline
70
0
71
3
72
12
73
8
74
0
42
0.000000001
43
0.0000000001
44
0.0000000001
40
-0.078227289239212044
40
-0.078227289239212044
40
-0.078227289239212044
40
-0.078227289239212044
40
-0.054491474732918085
40
-0.054491474732918085
40
-0.032462863129955881
40
-0.032462863129955881
40
-0
40
-0
40
-0
40
-0
10
312.74009715702584
20
11.448840320110325
30
0
10
312.66098482021255
20
11.448840320110325
30
0
10
312.58194613005008
20
11.456598040221316
30
0
10
312.43349040993274
20
11.49170562685099
30
0
10
312.36520714860615
20
11.517269840782575
30
0
10
312.20611455258381
20
11.604926374537136
30
0
10
312.12604522454262
20
11.675230479070493
30
0
10
312.05865126040032
20
11.759890735149387
30
0
0
SPLINE
5
445
100
AcDbEntity
8
0
100
AcDbSpline
70
0
71
3
72
12
73
8
74
0
42
0.000000001
43
0.0000000001
44
0.0000000001
40
-0.12568295851481145
40
-0.12568295851481145
40
-0.12568295851481145
40
-0.12568295851481145
40
-0.10042382833185906
40
-0.10042382833185906
40
-0.071508942311785062
40
-0.071508942311785062
40
-0
40
-0
40
-0
40
-0
10
312.05865126040032
20
11.759890735149387
30
0
10
312.00621511320787
20
11.826068707083348
30
0
10
311.96361621801736
20
11.899630295369958
30
0
10
311.8890170337732
20
12.064605866311524
30
0
10
311.85894452521387
20
12.158175377949824
30
0
10
311.7796272348865
20
12.484196672763566
30
0
10
311.76192533161691
20
12.741173034688565
30
0
10
311.76192533161691
20
12.979536175727848
30
0
0
SPLINE
5
446
100
AcDbEntity
8
0
100
AcDbSpline
70
0
71
3
72
10
73
6
74
0
42
0.000000001
43
0.0000000001
44
0.0000000001
40
-0.085666031332535059
40
-0.085666031332535059
40
-0.085666031332535059
40
-0.085666031332535059
40
-0.038068303692357822
40
-0.038068303692357822
40
-0
40
-0
40
-0
40
-0
10
311.76192533161691
20
12.979536175727848
30
0
10
311.76192533161691
20
13.137892899755778
30
0
10
311.76919900685493
20
13.302464003344003
30
0
10
311.80536890163711
20
13.585400614932983
30
0
10
311.83082450551359
20
13.715718097424014
30
0
10
311.87140684511712
20
13.835948079824451
30
0
0
SPLINE
5
447
100
AcDbEntity
8
0
100
AcDbSpline
70
0
71
3
72
10
73
6
74
0
42
0.000000001
43
0.0000000001
44
0.0000000001
40
-0.060657540528958345
40
-0.060657540528958345
40
-0.060657540528958345
40
-0.060657540528958345
40
-0.02880509588175692
40
-0.02880509588175692
40
-0
40
-0
40
-0
40
-0
10
311.87140684511712
20
13.835948079824451
30
0
10
311.90535399003016
20
13.936520512939865
30
0
10
311.94960990459043
20
14.034202879208435
30
0
10
312.05983532984391
20
14.203700500433998
30
0
10
312.12235913106412
20
14.275622231153001
30
0
10
312.19678204443505
20
14.336289286613468
30
0
0
SPLINE
5
448
100
AcDbEntity
8
0
100
AcDbSpline
70
0
71
3
72
10
73
6
74
0
42
0.000000001
43
0.0000000001
44
0.0000000001
40
-0.0586577219272163
40
-0.0586577219272163
40
-0.0586577219272163
40
-0.0586577219272163
40
-0.030465169926494892
40
-0.030465169926494892
40
-0
40
-0
40
-0
40
-0
10
312.19678204443505
20
14.336289286613468
30
0
10
312.26963912464942
20
14.395679826984836
30
0
10
312.35113524827273
20
14.439315579431195
30
0
10
312.53718847549209
20
14.499581372654365
30
0
10
312.63854659060416
20
14.51227825880051
30
0
10
312.74009715702584
20
14.51227825880051
30
0
0
SPLINE
5
449
100
AcDbEntity
8
0
100
AcDbSpline
70
0
71
3
72
10
73
6
74
0
42
0.000000001
43
0.0000000001
44
0.0000000001
40
-0.044030592093570756
40
-0.044030592093570756
40
-0.044030592093570756
40
-0.044030592093570756
40
-0.021170186700782793
40
-0.021170186700782793
40
-0
40
-0
40
-0
40
-0
10
312.74009715702584
20
14.51227825880051
30
0
10
312.81628954024717
20
14.51227825880051
30
0
10
312.89246416196454
20
14.505020092908264
30
0
10
313.03551312831678
20
14.472194871315722
30
0
10
313.10144342595981
20
14.44830124282813
30
0
10
313.16369902279428
20
14.415075004100803
30
0
0
SPLINE
5
450
100
AcDbEntity
8
0
100
AcDbSpline
70
0
71
3
72
10
73
6
74
0
42
0.000000001
43
0.0000000001
44
0.0000000001
40
-0.041770493340671677
40
-0.041770493340671677
40
-0.041770493340671677
40
-0.041770493340671677
40
-0.021168656515310896
40
-0.021168656515310896
40
-0
40
-0
40
-0
40
-0
10
313.16369902279428
20
14.415075004100803
30
0
10
313.22428439273131
20
14.382740071094757
30
0
10
313.27972894090243
20
14.343205792430755
30
0
10
313.38158846849927
20
14.248275460371371
30
0
10
313.42614323020501
20
14.193935628248976
30
0
10
313.46451740648797
20
14.134720385074619
30
0
0
SPLINE
5
451
100
AcDbEntity
8
0
100
AcDbSpline
70
0
71
3
72
10
73
6
74
0
42
0.000000001
43
0.0000000001
44
0.0000000001
40
-0.04846793442199699
40
-0.04846793442199699
40
-0.04846793442199699
40
-0.04846793442199699
40
-0.025549630658213116
40
-0.025549630658213116
40
-0
40
-0
40
-0
40
-0
10
313.46451740648797
20
14.134720385074619
30
0
10
313.50607313010084
20
14.070595691924714
30
0
10
313.54098538623128
20
14.002125319764021
30
0
10
313.60322960159283
20
13.853012752941359
30
0
10
313.62955457954052
20
13.771097145496752
30
0
10
313.65073841002038
20
13.688608378171924
30
0
0
SPLINE
5
452
100
AcDbEntity
8
0
100
AcDbSpline
70
0
71
3
72
10
73
6
74
0
42
0.000000001
43
0.0000000001
44
0.0000000001
40
-0.070051923581046699
40
-0.070051923581046699
40
-0.070051923581046699
40
-0.070051923581046699
40
-0.039453611987485732
40
-0.039453611987485732
40
-0
40
-0
40
-0
40
-0
10
313.65073841002038
20
13.688608378171924
30
0
10
313.67617882028048
20
13.589544816167594
30
0
10
313.69170660415926
20
13.481497545462124
30
0
10
313.71386743700367
20
13.248808409398659
30
0
10
313.71826898243478
20
13.111048215686134
30
0
10
313.71826898243478
20
12.979536175727848
30
0
0
SPLINE
5
453
100
AcDbEntity
8
0
100
AcDbSpline
70
0
71
3
72
10
73
6
74
0
42
0.000000001
43
0.0000000001
44
0.0000000001
40
-0.085276660403305143
40
-0.085276660403305143
40
-0.085276660403305143
40
-0.085276660403305143
40
-0.037969998238892209
40
-0.037969998238892209
40
-0
40
-0
40
-0
40
-0
10
313.71826898243478
20
12.979536175727848
30
0
10
313.71826898243478
20
12.822134069624695
30
0
10
313.71103910168375
20
12.658736470498386
30
0
10
313.67519420440755
20
12.37704968712935
30
0
10
313.64994807817095
20
12.247250625304636
30
0
10
313.60981058266213
20
12.127216875553135
30
0
0
SPLINE
5
454
100
AcDbEntity
8
0
100
AcDbSpline
70
0
71
3
72
10
73
6
74
0
42
0.000000001
43
0.0000000001
44
0.0000000001
40
-0.060694719237821569
40
-0.060694719237821569
40
-0.060694719237821569
40
-0.060694719237821569
40
-0.028847150313613359
40
-0.028847150313613359
40
-0
40
-0
40
-0
40
-0
10
313.60981058266213
20
12.127216875553135
30
0
10
313.5761534852079
20
12.026563078548291
30
0
10
313.53215503993857
20
11.928829729875856
30
0
10
313.42226423862746
20
11.758966805060096
30
0
10
313.35981744587042
20
11.686819544364029
30
0
10
313.285458795095
20
11.625852406024936
30
0
0
SPLINE
5
455
100
AcDbEntity
8
0
100
AcDbSpline
70
0
71
3
72
10
73
6
74
0
42
0.000000001
43
0.0000000001
44
0.0000000001
40
-0.051741739348743945
40
-0.051741739348743945
40
-0.051741739348743945
40
-0.051741739348743945
40
-0.023560817341501353
40
-0.023560817341501353
40
-0
40
-0
40
-0
40
-0
10
310.25373976614526
20
14.111186981201175
30
0
10
310.32370663937138
20
14.173723707488081
30
0
10
310.39184184554426
20
14.242068977620297
30
0
10
310.50085593713993
20
14.375611188971622
30
0
10
310.54633564950893
20
14.441885904649306
30
0
10
310.58116134192994
20
14.51227825880051
30
0
0
LINE
5
456
100
AcDbEntity
8
0
100
AcDbLine
10
310.58116134192994
20
14.51227825880051
30
0
11
310.81854205515435
21
14.51227825880051
31
0
0
LINE
5
457
100
AcDbEntity
8
0
100
AcDbLine
10
310.81854205515435
20
14.51227825880051
30
0
11
310.81854205515435
21
11.499999880790714
31
0
0
LINE
5
458
100
AcDbEntity
8
0
100
AcDbLine
10
310.81854205515435
20
11.499999880790714
30
0
11
310.45019272651723
21
11.499999880790714
31
0
0
LINE
5
459
100
AcDbEntity
8
0
100
AcDbLine
10
310.45019272651723
20
11.499999880790714
30
0
11
310.45019272651723
21
13.847203224897388
31
0
0
SPLINE
5
460
100
AcDbEntity
8
0
100
AcDbSpline
70
0
71
3
72
10
73
6
74
0
42
0.000000001
43
0.0000000001
44
0.0000000001
40
-0.042946819197799732
40
-0.042946819197799732
40
-0.042946819197799732
40
-0.042946819197799732
40
-0.023140097865640412
40
-0.023140097865640412
40
-0
40
-0
40
-0
40
-0
10
310.45019272651723
20
13.847203224897388
30
0
10
310.40238692961873
20
13.801603813965517
30
0
10
310.34986853613583
20
13.75917129549801
30
0
10
310.23405889889534
20
13.674946100281273
30
0
10
310.16778447245832
20
13.632532249690756
30
0
10
310.10128412332585
20
13.593451499938968
30
0
0
SPLINE
5
461
100
AcDbEntity
8
0
100
AcDbSpline
70
0
71
3
72
10
73
6
74
0
42
0.000000001
43
0.0000000001
44
0.0000000001
40
-0.042967420856222918
40
-0.042967420856222918
40
-0.042967420856222918
40
-0.042967420856222918
40
-0.01979506566024735
40
-0.01979506566024735
40
-0
40
-0
40
-0
40
-0
10
310.10128412332585
20
13.593451499938968
30
0
10
310.03473650321098
20
13.554342924169225
30
0
10
309.96570335042867
20
13.516451744399012
30
0
10
309.8371785333274
20
13.453376248049659
30
0
10
309.77539685054967
20
13.425982727079436
30
0
10
309.7134942182546
20
13.403137743473057
30
0
0
LINE
5
462
100
AcDbEntity
8
0
100
AcDbLine
10
309.7134942182546
20
13.403137743473057
30
0
11
309.7134942182546
21
13.759208589792255
31
0
0
SPLINE
5
463
100
AcDbEntity
8
0
100
AcDbSpline
70
0
71
3
72
10
73
6
74
0
42
0.000000001
43
0.0000000001
44
0.0000000001
40
-0.064771147636538809
40
-0.064771147636538809
40
-0.064771147636538809
40
-0.064771147636538809
40
-0.031612343512720381
40
-0.031612343512720381
40
-0
40
-0
40
-0
40
-0
10
309.7134942182546
20
13.759208589792255
30
0
10
309.81351597831696
20
13.806238689054158
30
0
10
309.91044971846497
20
13.859514332356387
30
0
10
310.09134655495785
20
13.977371439681594
30
0
10
310.17517403508037
20
14.040964430726273
30
0
10
310.25373976614526
20
14.111186981201175
30
0
0
LWPOLYLINE
5
464
100
AcDbEntity
8
0
100
AcDbPolyline
90
10
70
1
43
0.0
10
327.00000150580132
20
7.5289801060307582e-08
10
327.00000071525579
20
15
10
312
20
15.000000715255732
10
297.00000071525574
20
15
10
297
20
0
10
301.97500072774136
20
2.2204460492503131e-14
10
301.97500024971214
20
10.024999999999986
10
312.00000024971212
20
10.025000050318667
10
322.02500024971198
20
10.025000050318667
10
322.02500024971198
20
-1.8690781145025426e-07
0
SPLINE
5
465
100
AcDbEntity
8
0
100
AcDbSpline
70
0
71
3
72
10
73
6
74
0
42
0.000000001
43
0.0000000001
44
0.0000000001
40
-0.058897223317108643
40
-0.058897223317108643
40
-0.058897223317108643
40
-0.058897223317108643
40
-0.030616855806029186
40
-0.030616855806029186
40
-0
40
-0
40
-0
40
-0
10
313.285458795095
20
-11.374147593975065
30
0
10
313.21254347678894
20
-11.433931234040806
30
0
10
313.13085629369249
20
-11.477797059626671
30
0
10
312.94407746096556
20
-11.538421255532253
30
0
10
312.84215334304594
20
-11.551159679889677
30
0
10
312.74009715702584
20
-11.551159679889677
30
0
0
SPLINE
5
466
100
AcDbEntity
8
0
100
AcDbSpline
70
0
71
3
72
12
73
8
74
0
42
0.000000001
43
0.0000000001
44
0.0000000001
40
-0.078227289239212044
40
-0.078227289239212044
40
-0.078227289239212044
40
-0.078227289239212044
40
-0.054491474732918085
40
-0.054491474732918085
40
-0.032462863129955881
40
-0.032462863129955881
40
-0
40
-0
40
-0
40
-0
10
312.74009715702584
20
-11.551159679889677
30
0
10
312.66098482021255
20
-11.551159679889677
30
0
10
312.58194613005008
20
-11.543401959778688
30
0
10
312.43349040993274
20
-11.508294373149013
30
0
10
312.36520714860615
20
-11.482730159217427
30
0
10
312.20611455258381
20
-11.395073625462866
30
0
10
312.12604522454262
20
-11.324769520929509
30
0
10
312.05865126040032
20
-11.240109264850615
30
0
0
SPLINE
5
467
100
AcDbEntity
8
0
100
AcDbSpline
70
0
71
3
72
12
73
8
74
0
42
0.000000001
43
0.0000000001
44
0.0000000001
40
-0.12568295851481145
40
-0.12568295851481145
40
-0.12568295851481145
40
-0.12568295851481145
40
-0.10042382833185906
40
-0.10042382833185906
40
-0.071508942311785062
40
-0.071508942311785062
40
-0
40
-0
40
-0
40
-0
10
312.05865126040032
20
-11.240109264850615
30
0
10
312.00621511320787
20
-11.173931292916654
30
0
10
311.96361621801736
20
-11.100369704630044
30
0
10
311.8890170337732
20
-10.935394133688479
30
0
10
311.85894452521387
20
-10.841824622050177
30
0
10
311.7796272348865
20
-10.515803327236437
30
0
10
311.76192533161691
20
-10.258826965311439
30
0
10
311.76192533161691
20
-10.020463824272154
30
0
0
SPLINE
5
468
100
AcDbEntity
8
0
100
AcDbSpline
70
0
71
3
72
10
73
6
74
0
42
0.000000001
43
0.0000000001
44
0.0000000001
40
-0.085666031332535059
40
-0.085666031332535059
40
-0.085666031332535059
40
-0.085666031332535059
40
-0.038068303692357822
40
-0.038068303692357822
40
-0
40
-0
40
-0
40
-0
10
311.76192533161691
20
-10.020463824272154
30
0
10
311.76192533161691
20
-9.8621071002442253
30
0
10
311.76919900685493
20
-9.6975359966559989
30
0
10
311.80536890163711
20
-9.4145993850670191
30
0
10
311.83082450551359
20
-9.2842819025759891
30
0
10
311.87140684511712
20
-9.1640519201755506
30
0
0
SPLINE
5
469
100
AcDbEntity
8
0
100
AcDbSpline
70
0
71
3
72
10
73
6
74
0
42
0.000000001
43
0.0000000001
44
0.0000000001
40
-0.060657540528958345
40
-0.060657540528958345
40
-0.060657540528958345
40
-0.060657540528958345
40
-0.02880509588175692
40
-0.02880509588175692
40
-0
40
-0
40
-0
40
-0
10
311.87140684511712
20
-9.1640519201755506
30
0
10
311.90535399003016
20
-9.0634794870601372
30
0
10
311.94960990459043
20
-8.9657971207915672
30
0
10
312.05983532984391
20
-8.7962994995660058
30
0
10
312.12235913106412
20
-8.7243777688470043
30
0
10
312.19678204443505
20
-8.6637107133865339
30
0
0
SPLINE
5
470
100
AcDbEntity
8
0
100
AcDbSpline
70
0
71
3
72
10
73
6
74
0
42
0.000000001
43
0.0000000001
44
0.0000000001
40
-0.0586577219272163
40
-0.0586577219272163
40
-0.0586577219272163
40
-0.0586577219272163
40
-0.030465169926494892
40
-0.030465169926494892
40
-0
40
-0
40
-0
40
-0
10
312.19678204443505
20
-8.6637107133865339
30
0
10
312.26963912464942
20
-8.6043201730151679
30
0
10
312.35113524827273
20
-8.5606844205688084
30
0
10
312.53718847549209
20
-8.5004186273456384
30
0
10
312.63854659060416
20
-8.4877217411994916
30
0
10
312.74009715702584
20
-8.4877217411994916
30
0
0
SPLINE
5
471
100
AcDbEntity
8
0
100
AcDbSpline
70
0
71
3
72
10
73
6
74
0
42
0.000000001
43
0.0000000001
44
0.0000000001
40
-0.044030592093570756
40
-0.044030592093570756
40
-0.044030592093570756
40
-0.044030592093570756
40
-0.021170186700782793
40
-0.021170186700782793
40
-0
40
-0
40
-0
40
-0
10
312.74009715702584
20
-8.4877217411994916
30
0
10
312.81628954024717
20
-8.4877217411994916
30
0
10
312.89246416196454
20
-8.4949799070917376
30
0
10
313.03551312831678
20
-8.52780512868428
30
0
10
313.10144342595981
20
-8.5516987571718737
30
0
10
313.16369902279428
20
-8.5849249958991987
30
0
0
SPLINE
5
472
100
AcDbEntity
8
0
100
AcDbSpline
70
0
71
3
72
10
73
6
74
0
42
0.000000001
43
0.0000000001
44
0.0000000001
40
-0.041770493340671677
40
-0.041770493340671677
40
-0.041770493340671677
40
-0.041770493340671677
40
-0.021168656515310896
40
-0.021168656515310896
40
-0
40
-0
40
-0
40
-0
10
313.16369902279428
20
-8.5849249958991987
30
0
10
313.22428439273131
20
-8.6172599289052449
30
0
10
313.27972894090243
20
-8.6567942075692468
30
0
10
313.38158846849927
20
-8.751724539628631
30
0
10
313.42614323020501
20
-8.8060643717510256
30
0
10
313.46451740648797
20
-8.8652796149253827
30
0
0
SPLINE
5
473
100
AcDbEntity
8
0
100
AcDbSpline
70
0
71
3
72
10
73
6
74
0
42
0.000000001
43
0.0000000001
44
0.0000000001
40
-0.04846793442199699
40
-0.04846793442199699
40
-0.04846793442199699
40
-0.04846793442199699
40
-0.025549630658213116
40
-0.025549630658213116
40
-0
40
-0
40
-0
40
-0
10
313.46451740648797
20
-8.8652796149253827
30
0
10
313.50607313010084
20
-8.9294043080752896
30
0
10
313.54098538623128
20
-8.9978746802359826
30
0
10
313.60322960159283
20
-9.1469872470586431
30
0
10
313.62955457954052
20
-9.2289028545032519
30
0
10
313.65073841002038
20
-9.3113916218280774
30
0
0
SPLINE
5
474
100
AcDbEntity
8
0
100
AcDbSpline
70
0
71
3
72
10
73
6
74
0
42
0.000000001
43
0.0000000001
44
0.0000000001
40
-0.070051923581046699
40
-0.070051923581046699
40
-0.070051923581046699
40
-0.070051923581046699
40
-0.039453611987485732
40
-0.039453611987485732
40
-0
40
-0
40
-0
40
-0
10
313.65073841002038
20
-9.3113916218280774
30
0
10
313.67617882028048
20
-9.4104551838324078
30
0
10
313.69170660415926
20
-9.5185024545378774
30
0
10
313.71386743700367
20
-9.7511915906013407
30
0
10
313.71826898243478
20
-9.8889517843138677
30
0
10
313.71826898243478
20
-10.020463824272154
30
0
0
SPLINE
5
475
100
AcDbEntity
8
0
100
AcDbSpline
70
0
71
3
72
10
73
6
74
0
42
0.000000001
43
0.0000000001
44
0.0000000001
40
-0.085276660403305143
40
-0.085276660403305143
40
-0.085276660403305143
40
-0.085276660403305143
40
-0.037969998238892209
40
-0.037969998238892209
40
-0
40
-0
40
-0
40
-0
10
313.71826898243478
20
-10.020463824272154
30
0
10
313.71826898243478
20
-10.177865930375308
30
0
10
313.71103910168375
20
-10.341263529501617
30
0
10
313.67519420440755
20
-10.622950312870652
30
0
10
313.64994807817095
20
-10.752749374695368
30
0
10
313.60981058266213
20
-10.872783124446867
30
0
0
SPLINE
5
476
100
AcDbEntity
8
0
100
AcDbSpline
70
0
71
3
72
10
73
6
74
0
42
0.000000001
43
0.0000000001
44
0.0000000001
40
-0.060694719237821569
40
-0.060694719237821569
40
-0.060694719237821569
40
-0.060694719237821569
40
-0.028847150313613359
40
-0.028847150313613359
40
-0
40
-0
40
-0
40
-0
10
313.60981058266213
20
-10.872783124446867
30
0
10
313.5761534852079
20
-10.973436921451711
30
0
10
313.53215503993857
20
-11.071170270124146
30
0
10
313.42226423862746
20
-11.241033194939906
30
0
10
313.35981744587042
20
-11.313180455635974
30
0
10
313.285458795095
20
-11.374147593975065
30
0
0
SPLINE
5
477
100
AcDbEntity
8
0
100
AcDbSpline
70
0
71
3
72
10
73
6
74
0
42
0.000000001
43
0.0000000001
44
0.0000000001
40
-0.051741739348743945
40
-0.051741739348743945
40
-0.051741739348743945
40
-0.051741739348743945
40
-0.023560817341501353
40
-0.023560817341501353
40
-0
40
-0
40
-0
40
-0
10
310.25373976614526
20
-8.8888130187988263
30
0
10
310.32370663937138
20
-8.8262762925119205
30
0
10
310.39184184554426
20
-8.7579310223797044
30
0
10
310.50085593713993
20
-8.624388811028382
30
0
10
310.54633564950893
20
-8.5581140953506978
30
0
10
310.58116134192994
20
-8.4877217411994916
30
0
0
LINE
5
478
100
AcDbEntity
8
0
100
AcDbLine
10
310.58116134192994
20
-8.4877217411994916
30
0
11
310.81854205515435
21
-8.4877217411994916
31
0
0
LINE
5
479
100
AcDbEntity
8
0
100
AcDbLine
10
310.81854205515435
20
-8.4877217411994916
30
0
11
310.81854205515435
21
-11.500000119209288
31
0
0
LINE
5
480
100
AcDbEntity
8
0
100
AcDbLine
10
310.81854205515435
20
-11.500000119209288
30
0
11
310.45019272651723
21
-11.500000119209288
31
0
0
LINE
5
481
100
AcDbEntity
8
0
100
AcDbLine
10
310.45019272651723
20
-11.500000119209288
30
0
11
310.45019272651723
21
-9.1527967751026136
31
0
0
SPLINE
5
482
100
AcDbEntity
8
0
100
AcDbSpline
70
0
71
3
72
10
73
6
74
0
42
0.000000001
43
0.0000000001
44
0.0000000001
40
-0.042946819197799732
40
-0.042946819197799732
40
-0.042946819197799732
40
-0.042946819197799732
40
-0.023140097865640412
40
-0.023140097865640412
40
-0
40
-0
40
-0
40
-0
10
310.45019272651723
20
-9.1527967751026136
30
0
10
310.40238692961873
20
-9.1983961860344863
30
0
10
310.34986853613583
20
-9.240828704501995
30
0
10
310.23405889889534
20
-9.3250538997187284
30
0
10
310.16778447245832
20
-9.3674677503092454
30
0
10
310.10128412332585
20
-9.4065485000610334
30
0
0
SPLINE
5
483
100
AcDbEntity
8
0
100
AcDbSpline
70
0
71
3
72
10
73
6
74
0
42
0.000000001
43
0.0000000001
44
0.0000000001
40
-0.042967420856222918
40
-0.042967420856222918
40
-0.042967420856222918
40
-0.042967420856222918
40
-0.01979506566024735
40
-0.01979506566024735
40
-0
40
-0
40
-0
40
-0
10
310.10128412332585
20
-9.4065485000610334
30
0
10
310.03473650321098
20
-9.445657075830777
30
0
10
309.96570335042867
20
-9.48354825560099
30
0
10
309.8371785333274
20
-9.5466237519503441
30
0
10
309.77539685054967
20
-9.5740172729205693
30
0
10
309.7134942182546
20
-9.5968622565269452
30
0
0
LINE
5
484
100
AcDbEntity
8
0
100
AcDbLine
10
309.7134942182546
20
-9.5968622565269452
30
0
11
309.7134942182546
21
-9.2407914102077466
31
0
0
SPLINE
5
485
100
AcDbEntity
8
0
100
AcDbSpline
70
0
71
3
72
10
73
6
74
0
42
0.000000001
43
0.0000000001
44
0.0000000001
40
-0.064771147636538809
40
-0.064771147636538809
40
-0.064771147636538809
40
-0.064771147636538809
40
-0.031612343512720381
40
-0.031612343512720381
40
-0
40
-0
40
-0
40
-0
10
309.7134942182546
20
-9.2407914102077466
30
0
10
309.81351597831696
20
-9.1937613109458454
30
0
10
309.91044971846497
20
-9.140485667643615
30
0
10
310.09134655495785
20
-9.0226285603184095
30
0
10
310.17517403508037
20
-8.9590355692737305
30
0
10
310.25373976614526
20
-8.8888130187988263
30
0
0
LWPOLYLINE
5
486
100
AcDbEntity
8
0
100
AcDbPolyline
90
9
70
1
43
0.0
10
296.99999999999994
20
-10.974999593182361
10
297.00000071525574
20
-16.000000000000007
10
327.00000087085471
20
-15.99999992471021
10
327.00000260754609
20
-10.974999517892556
10
321.97500180445206
20
-10.974999543114642
10
321.97500080309402
20
-0.99999954311464245
10
312.00000075541186
20
-0.99999999999938582
10
302.02500080309409
20
-0.99999959318235687
10
302.02500080309397
20
-10.974999593182357
0
ENDSEC
0
SECTION
2
OBJECTS
0
DICTIONARY
5
C
100
AcDbDictionary
3
ACAD_GROUP
350
D
3
ACAD_MLINESTYLE
350
17
0
DICTIONARY
5
D
100
AcDbDictionary
0
DICTIONARY
5
1A
330
C
100
AcDbDictionary
0
DICTIONARY
5
17
100
AcDbDictionary
0
ENDSEC
0
EOF
