0
SECTION
2
HEADER
9
$INSUNITS
70
4
9
$ACADVER
1
AC1014
9
$HANDSEED
5
FFFF
0
ENDSEC
0
SECTION
2
TABLES
0
TABLE
2
VPORT
5
8
100
AcDbSymbolTable
0
ENDTAB
0
TABLE
2
LTYPE
5
5
100
AcDbSymbolTable
0
LTYPE
5
14
100
AcDbSymbolTableRecord
100
AcDbLinetypeTableRecord
2
BYBLOCK
70
0
0
LTYPE
5
15
100
AcDbSymbolTableRecord
100
AcDbLinetypeTableRecord
2
BYLAYER
70
0
0
ENDTAB
0
TABLE
2
LAYER
5
2
100
AcDbSymbolTable
70
2
0
LAYER
5
50
100
AcDbSymbolTableRecord
100
AcDbLayerTableRecord
2
0
70
0
6
CONTINUOUS
0
ENDTAB
0
TABLE
2
STYLE
5
3
100
AcDbSymbolTable
70
1
0
STYLE
5
11
100
AcDbSymbolTableRecord
100
AcDbTextStyleTableRecord
2
STANDARD
70
0
0
ENDTAB
0
TABLE
2
VIEW
5
6
100
AcDbSymbolTable
70
0
0
ENDTAB
0
TABLE
2
UCS
5
7
100
AcDbSymbolTable
70
0
0
ENDTAB
0
TABLE
2
APPID
5
9
100
AcDbSymbolTable
70
2
0
APPID
5
12
100
AcDbSymbolTableRecord
100
AcDbRegAppTableRecord
2
ACAD
70
0
0
ENDTAB
0
TABLE
2
DIMSTYLE
5
A
100
AcDbSymbolTable
70
1
0
ENDTAB
0
TABLE
2
BLOCK_RECORD
5
1
100
AcDbSymbolTable
70
1
0
BLOCK_RECORD
5
1F
100
AcDbSymbolTableRecord
100
AcDbBlockTableRecord
2
*MODEL_SPACE
0
BLOCK_RECORD
5
1B
100
AcDbSymbolTableRecord
100
AcDbBlockTableRecord
2
*PAPER_SPACE
0
ENDTAB
0
ENDSEC
0
SECTION
2
BLOCKS
0
BLOCK
5
20
100
AcDbEntity
100
AcDbBlockBegin
2
*MODEL_SPACE
0
ENDBLK
5
21
100
AcDbEntity
100
AcDbBlockEnd
0
BLOCK
5
1C
100
AcDbEntity
100
AcDbBlockBegin
2
*PAPER_SPACE
0
ENDBLK
5
1D
100
AcDbEntity
100
AcDbBlockEnd
0
ENDSEC
0
SECTION
2
ENTITIES
0
LINE
5
100
100
AcDbEntity
8
0
100
AcDbLine
10
-101.47455697668519
20
0.83141672047276793
30
0
11
48.525443023314807
21
0.83141672047276849
31
0
0
LINE
5
101
100
AcDbEntity
8
0
100
AcDbLine
10
48.525443023314807
20
0.83141672047276849
30
0
11
48.525443023314807
21
60.831416720472774
31
0
0
LINE
5
102
100
AcDbEntity
8
0
100
AcDbLine
10
48.525443023314807
20
60.831416720472774
30
0
11
22.565443023314806
21
60.831416720472774
31
0
0
LINE
5
103
100
AcDbEntity
8
0
100
AcDbLine
10
21.565443023314806
20
59.831416720472781
30
0
11
21.56544302331482
21
30.831416720472763
31
0
0
LINE
5
104
100
AcDbEntity
8
0
100
AcDbLine
10
21.56544302331482
20
30.831416720472763
30
0
11
17.76544302331482
21
30.831416720472777
31
0
0
LINE
5
105
100
AcDbEntity
8
0
100
AcDbLine
10
17.76544302331482
20
30.831416720472777
30
0
11
17.765443023314806
21
59.831416720472781
31
0
0
LINE
5
106
100
AcDbEntity
8
0
100
AcDbLine
10
16.765443023314806
20
60.831416720472774
30
0
11
-8.1945569766851953
21
60.831416720472774
31
0
0
LINE
5
107
100
AcDbEntity
8
0
100
AcDbLine
10
-9.1945569766851953
20
59.831416720472781
30
0
11
-9.1945569766851847
21
30.831416720472777
31
0
0
LINE
5
108
100
AcDbEntity
8
0
100
AcDbLine
10
-9.1945569766851847
20
30.831416720472777
30
0
11
-12.994556976685182
21
30.831416720472777
31
0
0
LINE
5
109
100
AcDbEntity
8
0
100
AcDbLine
10
-12.994556976685182
20
30.831416720472777
30
0
11
-12.994556976685194
21
59.831416720472781
31
0
0
LINE
5
110
100
AcDbEntity
8
0
100
AcDbLine
10
-13.994556976685196
20
60.831416720472774
30
0
11
-38.954556976685204
21
60.831416720472774
31
0
0
LINE
5
111
100
AcDbEntity
8
0
100
AcDbLine
10
-39.954556976685197
20
59.831416720472781
30
0
11
-39.954556976685197
21
30.831416720472792
31
0
0
LINE
5
112
100
AcDbEntity
8
0
100
AcDbLine
10
-39.954556976685197
20
30.831416720472792
30
0
11
-43.754556976685201
21
30.831416720472792
31
0
0
LINE
5
113
100
AcDbEntity
8
0
100
AcDbLine
10
-43.754556976685201
20
30.831416720472792
30
0
11
-43.754556976685201
21
59.831416720472781
31
0
0
LINE
5
114
100
AcDbEntity
8
0
100
AcDbLine
10
-44.754556976685194
20
60.831416720472774
30
0
11
-69.714556976685202
21
60.831416720472774
31
0
0
LINE
5
115
100
AcDbEntity
8
0
100
AcDbLine
10
-70.714556976685202
20
59.831416720472781
30
0
11
-70.714556976685202
21
30.831416720472802
31
0
0
LINE
5
116
100
AcDbEntity
8
0
100
AcDbLine
10
-70.714556976685202
20
30.831416720472802
30
0
11
-74.514556976685199
21
30.831416720472802
31
0
0
LINE
5
117
100
AcDbEntity
8
0
100
AcDbLine
10
-74.514556976685199
20
30.831416720472802
30
0
11
-74.514556976685199
21
59.831416720472781
31
0
0
LINE
5
118
100
AcDbEntity
8
0
100
AcDbLine
10
-75.295333383089627
20
60.831416720472774
30
0
11
-101.47455697668521
21
60.831416720472753
31
0
0
LINE
5
119
100
AcDbEntity
8
0
100
AcDbLine
10
-101.47455697668521
20
60.831416720472753
30
0
11
-101.47455697668521
21
0.8314167204727585
31
0
0
LINE
5
120
100
AcDbEntity
8
0
100
AcDbLine
10
-74.514556976685199
20
59.831416720472781
30
0
11
-75.295333383089627
21
60.831416720472774
31
0
0
LINE
5
121
100
AcDbEntity
8
0
100
AcDbLine
10
-69.714556976685202
20
60.831416720472774
30
0
11
-70.714556976685202
21
59.831416720472781
31
0
0
LINE
5
122
100
AcDbEntity
8
0
100
AcDbLine
10
-43.754556976685201
20
59.831416720472781
30
0
11
-44.754556976685194
21
60.831416720472774
31
0
0
LINE
5
123
100
AcDbEntity
8
0
100
AcDbLine
10
-38.954556976685204
20
60.831416720472774
30
0
11
-39.954556976685197
21
59.831416720472781
31
0
0
LINE
5
124
100
AcDbEntity
8
0
100
AcDbLine
10
-12.994556976685194
20
59.831416720472781
30
0
11
-13.994556976685196
21
60.831416720472774
31
0
0
LINE
5
125
100
AcDbEntity
8
0
100
AcDbLine
10
-8.1945569766851953
20
60.831416720472774
30
0
11
-9.1945569766851953
21
59.831416720472781
31
0
0
LINE
5
126
100
AcDbEntity
8
0
100
AcDbLine
10
17.765443023314806
20
59.831416720472781
30
0
11
16.765443023314806
21
60.831416720472774
31
0
0
LINE
5
127
100
AcDbEntity
8
0
100
AcDbLine
10
22.565443023314806
20
60.831416720472774
30
0
11
21.565443023314806
21
59.831416720472781
31
0
0
LINE
5
128
100
AcDbEntity
8
0
100
AcDbLine
10
-101.02999542655439
20
126.50985162388861
30
0
11
-101.02999542655439
21
66.509851623888579
31
0
0
LINE
5
129
100
AcDbEntity
8
0
100
AcDbLine
10
-39.509995426554369
20
96.509851623888608
30
0
11
-43.309995426554366
21
96.509851623888608
31
0
0
LINE
5
130
100
AcDbEntity
8
0
100
AcDbLine
10
-70.269995426554374
20
96.509851623888622
30
0
11
-74.069995426554371
21
96.509851623888622
31
0
0
LINE
5
131
100
AcDbEntity
8
0
100
AcDbLine
10
-70.269995426554374
20
125.50985162388861
30
0
11
-70.269995426554374
21
96.509851623888622
31
0
0
LINE
5
132
100
AcDbEntity
8
0
100
AcDbLine
10
-38.509995426554376
20
126.50985162388861
30
0
11
-39.509995426554376
21
125.50985162388861
31
0
0
LINE
5
133
100
AcDbEntity
8
0
100
AcDbLine
10
-44.309995426554366
20
126.50985162388861
30
0
11
-69.269995426554388
21
126.50985162388861
31
0
0
LINE
5
134
100
AcDbEntity
8
0
100
AcDbLine
10
-74.069995426554371
20
96.509851623888622
30
0
11
-74.069995426554385
21
125.50985162388861
31
0
0
LINE
5
135
100
AcDbEntity
8
0
100
AcDbLine
10
-69.269995426554388
20
126.50985162388861
30
0
11
-70.269995426554374
21
125.50985162388861
31
0
0
LINE
5
136
100
AcDbEntity
8
0
100
AcDbLine
10
-74.850771832958799
20
126.50985162388861
30
0
11
-101.02999542655439
21
126.50985162388861
31
0
0
LINE
5
137
100
AcDbEntity
8
0
100
AcDbLine
10
-43.309995426554366
20
96.509851623888608
30
0
11
-43.309995426554373
21
125.50985162388861
31
0
0
LINE
5
138
100
AcDbEntity
8
0
100
AcDbLine
10
-43.309995426554373
20
125.50985162388861
30
0
11
-44.309995426554366
21
126.50985162388861
31
0
0
LINE
5
139
100
AcDbEntity
8
0
100
AcDbLine
10
-74.069995426554385
20
125.50985162388861
30
0
11
-74.850771832958799
21
126.50985162388861
31
0
0
LINE
5
140
100
AcDbEntity
8
0
100
AcDbLine
10
-39.509995426554376
20
125.50985162388861
30
0
11
-39.509995426554369
21
96.509851623888608
31
0
0
LINE
5
141
100
AcDbEntity
8
0
100
AcDbLine
10
-101.02999542655436
20
66.509851623888608
30
0
11
48.970004573445635
21
66.509851623888608
31
0
0
LINE
5
142
100
AcDbEntity
8
0
100
AcDbLine
10
-13.549995426554368
20
126.50985162388861
30
0
11
-38.509995426554376
21
126.50985162388861
31
0
0
LINE
5
143
100
AcDbEntity
8
0
100
AcDbLine
10
48.970004573445635
20
66.509851623888608
30
0
11
48.970004573445642
21
126.50985162388861
31
0
0
LINE
5
144
100
AcDbEntity
8
0
100
AcDbLine
10
23.010004573445634
20
126.50985162388861
30
0
11
22.010004573445631
21
125.50985162388861
31
0
0
LINE
5
145
100
AcDbEntity
8
0
100
AcDbLine
10
18.210004573445634
20
125.50985162388861
30
0
11
17.21000457344563
21
126.50985162388861
31
0
0
LINE
5
146
100
AcDbEntity
8
0
100
AcDbLine
10
-7.749995426554368
20
126.50985162388861
30
0
11
-8.7499954265543689
21
125.50985162388861
31
0
0
LINE
5
147
100
AcDbEntity
8
0
100
AcDbLine
10
22.010004573445631
20
125.50985162388861
30
0
11
22.010004573445645
21
96.509851623888608
31
0
0
LINE
5
148
100
AcDbEntity
8
0
100
AcDbLine
10
-8.7499954265543689
20
125.50985162388861
30
0
11
-8.7499954265543529
21
96.509851623888608
31
0
0
LINE
5
149
100
AcDbEntity
8
0
100
AcDbLine
10
-12.549995426554368
20
125.50985162388861
30
0
11
-13.549995426554368
21
126.50985162388861
31
0
0
LINE
5
150
100
AcDbEntity
8
0
100
AcDbLine
10
-8.7499954265543529
20
96.509851623888608
30
0
11
-12.549995426554352
21
96.509851623888608
31
0
0
LINE
5
151
100
AcDbEntity
8
0
100
AcDbLine
10
22.010004573445645
20
96.509851623888608
30
0
11
18.210004573445648
21
96.509851623888608
31
0
0
LINE
5
152
100
AcDbEntity
8
0
100
AcDbLine
10
17.21000457344563
20
126.50985162388861
30
0
11
-7.749995426554368
21
126.50985162388861
31
0
0
LINE
5
153
100
AcDbEntity
8
0
100
AcDbLine
10
18.210004573445648
20
96.509851623888608
30
0
11
18.210004573445634
21
125.50985162388861
31
0
0
LINE
5
154
100
AcDbEntity
8
0
100
AcDbLine
10
48.970004573445642
20
126.50985162388861
30
0
11
23.010004573445634
21
126.50985162388861
31
0
0
LINE
5
155
100
AcDbEntity
8
0
100
AcDbLine
10
-12.549995426554352
20
96.509851623888608
30
0
11
-12.549995426554368
21
125.50985162388861
31
0
0
LINE
5
156
100
AcDbEntity
8
0
100
AcDbLine
10
48.525443023314807
20
60.831416720472774
30
0
11
22.565443023314806
21
60.831416720472774
31
0
0
LINE
5
157
100
AcDbEntity
8
0
100
AcDbLine
10
22.565443023314806
20
60.831416720472774
30
0
11
21.565443023314806
21
59.831416720472781
31
0
0
LINE
5
158
100
AcDbEntity
8
0
100
AcDbLine
10
48.525443023314807
20
0.83141672047276849
30
0
11
48.525443023314807
21
60.831416720472774
31
0
0
LINE
5
159
100
AcDbEntity
8
0
100
AcDbLine
10
18.210004573445634
20
125.50985162388861
30
0
11
17.21000457344563
21
126.50985162388861
31
0
0
LINE
5
160
100
AcDbEntity
8
0
100
AcDbLine
10
18.210004573445648
20
96.509851623888608
30
0
11
18.210004573445634
21
125.50985162388861
31
0
0
LINE
5
161
100
AcDbEntity
8
0
100
AcDbLine
10
21.565443023314806
20
59.831416720472781
30
0
11
21.56544302331482
21
30.831416720472763
31
0
0
LINE
5
162
100
AcDbEntity
8
0
100
AcDbLine
10
22.010004573445631
20
125.50985162388861
30
0
11
22.010004573445645
21
96.509851623888608
31
0
0
LINE
5
163
100
AcDbEntity
8
0
100
AcDbLine
10
48.970004573445635
20
66.509851623888608
30
0
11
48.970004573445642
21
126.50985162388861
31
0
0
LINE
5
164
100
AcDbEntity
8
0
100
AcDbLine
10
21.56544302331482
20
30.831416720472763
30
0
11
17.76544302331482
21
30.831416720472777
31
0
0
LINE
5
165
100
AcDbEntity
8
0
100
AcDbLine
10
-43.309995426554373
20
125.50985162388861
30
0
11
-44.309995426554366
21
126.50985162388861
31
0
0
LINE
5
166
100
AcDbEntity
8
0
100
AcDbLine
10
-39.509995426554369
20
96.509851623888608
30
0
11
-43.309995426554366
21
96.509851623888608
31
0
0
LINE
5
167
100
AcDbEntity
8
0
100
AcDbLine
10
-38.509995426554376
20
126.50985162388861
30
0
11
-39.509995426554376
21
125.50985162388861
31
0
0
LINE
5
168
100
AcDbEntity
8
0
100
AcDbLine
10
-69.269995426554388
20
126.50985162388861
30
0
11
-70.269995426554374
21
125.50985162388861
31
0
0
LINE
5
169
100
AcDbEntity
8
0
100
AcDbLine
10
-39.509995426554376
20
125.50985162388861
30
0
11
-39.509995426554369
21
96.509851623888608
31
0
0
LINE
5
170
100
AcDbEntity
8
0
100
AcDbLine
10
-9.1945569766851847
20
30.831416720472777
30
0
11
-12.994556976685182
21
30.831416720472777
31
0
0
LINE
5
171
100
AcDbEntity
8
0
100
AcDbLine
10
23.010004573445634
20
126.50985162388861
30
0
11
22.010004573445631
21
125.50985162388861
31
0
0
LINE
5
172
100
AcDbEntity
8
0
100
AcDbLine
10
22.010004573445645
20
96.509851623888608
30
0
11
18.210004573445648
21
96.509851623888608
31
0
0
LINE
5
173
100
AcDbEntity
8
0
100
AcDbLine
10
17.765443023314806
20
59.831416720472781
30
0
11
16.765443023314806
21
60.831416720472774
31
0
0
LINE
5
174
100
AcDbEntity
8
0
100
AcDbLine
10
48.970004573445642
20
126.50985162388861
30
0
11
23.010004573445634
21
126.50985162388861
31
0
0
LINE
5
175
100
AcDbEntity
8
0
100
AcDbLine
10
16.765443023314806
20
60.831416720472774
30
0
11
-8.1945569766851953
21
60.831416720472774
31
0
0
LINE
5
176
100
AcDbEntity
8
0
100
AcDbLine
10
-12.994556976685182
20
30.831416720472777
30
0
11
-12.994556976685194
21
59.831416720472781
31
0
0
LINE
5
177
100
AcDbEntity
8
0
100
AcDbLine
10
-9.1945569766851953
20
59.831416720472781
30
0
11
-9.1945569766851847
21
30.831416720472777
31
0
0
LINE
5
178
100
AcDbEntity
8
0
100
AcDbLine
10
17.76544302331482
20
30.831416720472777
30
0
11
17.765443023314806
21
59.831416720472781
31
0
0
LINE
5
179
100
AcDbEntity
8
0
100
AcDbLine
10
17.21000457344563
20
126.50985162388861
30
0
11
-7.749995426554368
21
126.50985162388861
31
0
0
LINE
5
180
100
AcDbEntity
8
0
100
AcDbLine
10
-12.549995426554368
20
125.50985162388861
30
0
11
-13.549995426554368
21
126.50985162388861
31
0
0
LINE
5
181
100
AcDbEntity
8
0
100
AcDbLine
10
-12.994556976685194
20
59.831416720472781
30
0
11
-13.994556976685196
21
60.831416720472774
31
0
0
LINE
5
182
100
AcDbEntity
8
0
100
AcDbLine
10
-7.749995426554368
20
126.50985162388861
30
0
11
-8.7499954265543689
21
125.50985162388861
31
0
0
LINE
5
183
100
AcDbEntity
8
0
100
AcDbLine
10
-8.7499954265543529
20
96.509851623888608
30
0
11
-12.549995426554352
21
96.509851623888608
31
0
0
LINE
5
184
100
AcDbEntity
8
0
100
AcDbLine
10
-8.1945569766851953
20
60.831416720472774
30
0
11
-9.1945569766851953
21
59.831416720472781
31
0
0
LINE
5
185
100
AcDbEntity
8
0
100
AcDbLine
10
-8.7499954265543689
20
125.50985162388861
30
0
11
-8.7499954265543529
21
96.509851623888608
31
0
0
LINE
5
186
100
AcDbEntity
8
0
100
AcDbLine
10
-12.549995426554352
20
96.509851623888608
30
0
11
-12.549995426554368
21
125.50985162388861
31
0
0
LINE
5
187
100
AcDbEntity
8
0
100
AcDbLine
10
-70.269995426554374
20
96.509851623888622
30
0
11
-74.069995426554371
21
96.509851623888622
31
0
0
LINE
5
188
100
AcDbEntity
8
0
100
AcDbLine
10
-43.754556976685201
20
59.831416720472781
30
0
11
-44.754556976685194
21
60.831416720472774
31
0
0
LINE
5
189
100
AcDbEntity
8
0
100
AcDbLine
10
-74.850771832958799
20
126.50985162388861
30
0
11
-101.02999542655439
21
126.50985162388861
31
0
0
LINE
5
190
100
AcDbEntity
8
0
100
AcDbLine
10
-70.714556976685202
20
30.831416720472802
30
0
11
-74.514556976685199
21
30.831416720472802
31
0
0
LINE
5
191
100
AcDbEntity
8
0
100
AcDbLine
10
-70.714556976685202
20
59.831416720472781
30
0
11
-70.714556976685202
21
30.831416720472802
31
0
0
LINE
5
192
100
AcDbEntity
8
0
100
AcDbLine
10
-74.069995426554385
20
125.50985162388861
30
0
11
-74.850771832958799
21
126.50985162388861
31
0
0
LINE
5
193
100
AcDbEntity
8
0
100
AcDbLine
10
-101.47455697668521
20
60.831416720472753
30
0
11
-101.47455697668521
21
0.8314167204727585
31
0
0
LINE
5
194
100
AcDbEntity
8
0
100
AcDbLine
10
-75.295333383089627
20
60.831416720472774
30
0
11
-101.47455697668521
21
60.831416720472753
31
0
0
LINE
5
195
100
AcDbEntity
8
0
100
AcDbLine
10
-44.309995426554366
20
126.50985162388861
30
0
11
-69.269995426554388
21
126.50985162388861
31
0
0
LINE
5
196
100
AcDbEntity
8
0
100
AcDbLine
10
-101.47455697668519
20
0.83141672047276793
30
0
11
48.525443023314807
21
0.83141672047276849
31
0
0
LINE
5
197
100
AcDbEntity
8
0
100
AcDbLine
10
-43.309995426554366
20
96.509851623888608
30
0
11
-43.309995426554373
21
125.50985162388861
31
0
0
LINE
5
198
100
AcDbEntity
8
0
100
AcDbLine
10
-69.714556976685202
20
60.831416720472774
30
0
11
-70.714556976685202
21
59.831416720472781
31
0
0
LINE
5
199
100
AcDbEntity
8
0
100
AcDbLine
10
-101.02999542655436
20
66.509851623888608
30
0
11
48.970004573445635
21
66.509851623888608
31
0
0
LINE
5
200
100
AcDbEntity
8
0
100
AcDbLine
10
-44.754556976685194
20
60.831416720472774
30
0
11
-69.714556976685202
21
60.831416720472774
31
0
0
LINE
5
201
100
AcDbEntity
8
0
100
AcDbLine
10
-70.269995426554374
20
125.50985162388861
30
0
11
-70.269995426554374
21
96.509851623888622
31
0
0
LINE
5
202
100
AcDbEntity
8
0
100
AcDbLine
10
-38.954556976685204
20
60.831416720472774
30
0
11
-39.954556976685197
21
59.831416720472781
31
0
0
LINE
5
203
100
AcDbEntity
8
0
100
AcDbLine
10
-43.754556976685201
20
30.831416720472792
30
0
11
-43.754556976685201
21
59.831416720472781
31
0
0
LINE
5
204
100
AcDbEntity
8
0
100
AcDbLine
10
-74.069995426554371
20
96.509851623888622
30
0
11
-74.069995426554385
21
125.50985162388861
31
0
0
LINE
5
205
100
AcDbEntity
8
0
100
AcDbLine
10
-101.02999542655439
20
126.50985162388861
30
0
11
-101.02999542655439
21
66.509851623888579
31
0
0
LINE
5
206
100
AcDbEntity
8
0
100
AcDbLine
10
-39.954556976685197
20
59.831416720472781
30
0
11
-39.954556976685197
21
30.831416720472792
31
0
0
LINE
5
207
100
AcDbEntity
8
0
100
AcDbLine
10
-74.514556976685199
20
30.831416720472802
30
0
11
-74.514556976685199
21
59.831416720472781
31
0
0
LINE
5
208
100
AcDbEntity
8
0
100
AcDbLine
10
-74.514556976685199
20
59.831416720472781
30
0
11
-75.295333383089627
21
60.831416720472774
31
0
0
LINE
5
209
100
AcDbEntity
8
0
100
AcDbLine
10
-39.954556976685197
20
30.831416720472792
30
0
11
-43.754556976685201
21
30.831416720472792
31
0
0
LINE
5
210
100
AcDbEntity
8
0
100
AcDbLine
10
-13.549995426554368
20
126.50985162388861
30
0
11
-38.509995426554376
21
126.50985162388861
31
0
0
LINE
5
211
100
AcDbEntity
8
0
100
AcDbLine
10
-13.994556976685196
20
60.831416720472774
30
0
11
-38.954556976685204
21
60.831416720472774
31
0
0
LINE
5
212
100
AcDbEntity
8
0
100
AcDbLine
10
50.337445738918802
20
198.01193514770918
30
0
11
24.377445738918794
21
198.01193514770918
31
0
0
LINE
5
213
100
AcDbEntity
8
0
100
AcDbLine
10
24.377445738918794
20
198.01193514770918
30
0
11
23.377445738918791
21
197.01193514770921
31
0
0
LINE
5
214
100
AcDbEntity
8
0
100
AcDbLine
10
50.337445738918802
20
138.01193514770918
30
0
11
50.337445738918802
21
198.01193514770918
31
0
0
LINE
5
215
100
AcDbEntity
8
0
100
AcDbLine
10
19.428008646851701
20
263.28436869332296
30
0
11
18.428008646851701
21
264.28436869332296
31
0
0
LINE
5
216
100
AcDbEntity
8
0
100
AcDbLine
10
19.428008646851787
20
234.28436869332299
30
0
11
19.428008646851701
21
263.28436869332296
31
0
0
LINE
5
217
100
AcDbEntity
8
0
100
AcDbLine
10
23.377445738918791
20
197.01193514770921
30
0
11
23.377445738918819
21
168.01193514770918
31
0
0
LINE
5
218
100
AcDbEntity
8
0
100
AcDbLine
10
23.228008646851702
20
263.28436869332296
30
0
11
23.22800864685178
21
234.28436869332299
31
0
0
LINE
5
219
100
AcDbEntity
8
0
100
AcDbLine
10
50.188008646851657
20
204.28436869332299
30
0
11
50.18800864685165
21
264.28436869332296
31
0
0
LINE
5
220
100
AcDbEntity
8
0
100
AcDbLine
10
23.377445738918819
20
168.01193514770918
30
0
11
19.577445738918819
21
168.01193514770918
31
0
0
LINE
5
221
100
AcDbEntity
8
0
100
AcDbLine
10
-42.091991353148302
20
263.28436869332296
30
0
11
-43.091991353148302
21
264.28436869332296
31
0
0
LINE
5
222
100
AcDbEntity
8
0
100
AcDbLine
10
-38.291991353148227
20
234.28436869332299
30
0
11
-42.091991353148231
21
234.28436869332299
31
0
0
LINE
5
223
100
AcDbEntity
8
0
100
AcDbLine
10
-37.291991353148305
20
264.28436869332296
30
0
11
-38.291991353148305
21
263.28436869332296
31
0
0
LINE
5
224
100
AcDbEntity
8
0
100
AcDbLine
10
-68.05199135314831
20
264.28436869332296
30
0
11
-69.05199135314831
21
263.28436869332296
31
0
0
LINE
5
225
100
AcDbEntity
8
0
100
AcDbLine
10
-38.291991353148305
20
263.28436869332296
30
0
11
-38.291991353148227
21
234.28436869332299
31
0
0
LINE
5
226
100
AcDbEntity
8
0
100
AcDbLine
10
-7.3825542610811841
20
168.01193514770918
30
0
11
-11.182554261081183
21
168.01193514770918
31
0
0
LINE
5
227
100
AcDbEntity
8
0
100
AcDbLine
10
24.228008646851702
20
264.28436869332296
30
0
11
23.228008646851702
21
263.28436869332296
31
0
0
LINE
5
228
100
AcDbEntity
8
0
100
AcDbLine
10
23.22800864685178
20
234.28436869332299
30
0
11
19.428008646851787
21
234.28436869332299
31
0
0
LINE
5
229
100
AcDbEntity
8
0
100
AcDbLine
10
19.577445738918794
20
197.01193514770921
30
0
11
18.57744573891879
21
198.01193514770918
31
0
0
LINE
5
230
100
AcDbEntity
8
0
100
AcDbLine
10
50.18800864685165
20
264.28436869332296
30
0
11
24.228008646851702
21
264.28436869332296
31
0
0
LINE
5
231
100
AcDbEntity
8
0
100
AcDbLine
10
18.57744573891879
20
198.01193514770918
30
0
11
-6.3825542610812089
21
198.01193514770918
31
0
0
LINE
5
232
100
AcDbEntity
8
0
100
AcDbLine
10
-11.182554261081183
20
168.01193514770918
30
0
11
-11.182554261081208
21
197.01193514770921
31
0
0
LINE
5
233
100
AcDbEntity
8
0
100
AcDbLine
10
-7.3825542610812089
20
197.01193514770921
30
0
11
-7.3825542610811841
21
168.01193514770918
31
0
0
LINE
5
234
100
AcDbEntity
8
0
100
AcDbLine
10
19.577445738918819
20
168.01193514770918
30
0
11
19.577445738918794
21
197.01193514770921
31
0
0
LINE
5
235
100
AcDbEntity
8
0
100
AcDbLine
10
18.428008646851701
20
264.28436869332296
30
0
11
-6.5319913531482987
21
264.28436869332296
31
0
0
LINE
5
236
100
AcDbEntity
8
0
100
AcDbLine
10
-11.331991353148299
20
263.28436869332296
30
0
11
-12.3319913531483
21
264.28436869332296
31
0
0
LINE
5
237
100
AcDbEntity
8
0
100
AcDbLine
10
-11.182554261081208
20
197.01193514770921
30
0
11
-12.182554261081208
21
198.01193514770918
31
0
0
LINE
5
238
100
AcDbEntity
8
0
100
AcDbLine
10
-6.5319913531482987
20
264.28436869332296
30
0
11
-7.5319913531482996
21
263.28436869332296
31
0
0
LINE
5
239
100
AcDbEntity
8
0
100
AcDbLine
10
-7.5319913531482143
20
234.28436869332299
30
0
11
-11.331991353148215
21
234.28436869332299
31
0
0
LINE
5
240
100
AcDbEntity
8
0
100
AcDbLine
10
-6.3825542610812089
20
198.01193514770918
30
0
11
-7.3825542610812089
21
197.01193514770921
31
0
0
LINE
5
241
100
AcDbEntity
8
0
100
AcDbLine
10
-7.5319913531482996
20
263.28436869332296
30
0
11
-7.5319913531482143
21
234.28436869332299
31
0
0
LINE
5
242
100
AcDbEntity
8
0
100
AcDbLine
10
-11.331991353148215
20
234.28436869332299
30
0
11
-11.331991353148299
21
263.28436869332296
31
0
0
LINE
5
243
100
AcDbEntity
8
0
100
AcDbLine
10
-69.051991353148239
20
234.28436869332299
30
0
11
-72.851991353148236
21
234.28436869332302
31
0
0
LINE
5
244
100
AcDbEntity
8
0
100
AcDbLine
10
-41.942554261081213
20
197.01193514770921
30
0
11
-42.942554261081213
21
198.01193514770918
31
0
0
LINE
5
245
100
AcDbEntity
8
0
100
AcDbLine
10
-73.632767759552721
20
264.28436869332296
30
0
11
-99.811991353148372
21
264.28436869332296
31
0
0
LINE
5
246
100
AcDbEntity
8
0
100
AcDbLine
10
-68.902554261081207
20
168.01193514770918
30
0
11
-72.702554261081204
21
168.01193514770918
31
0
0
LINE
5
247
100
AcDbEntity
8
0
100
AcDbLine
10
-68.902554261081221
20
197.01193514770921
30
0
11
-68.902554261081207
21
168.01193514770918
31
0
0
LINE
5
248
100
AcDbEntity
8
0
100
AcDbLine
10
-72.851991353148307
20
263.28436869332296
30
0
11
-73.632767759552721
21
264.28436869332296
31
0
0
LINE
5
249
100
AcDbEntity
8
0
100
AcDbLine
10
-99.662554261081226
20
198.01193514770918
30
0
11
-99.662554261081226
21
138.01193514770918
31
0
0
LINE
5
250
100
AcDbEntity
8
0
100
AcDbLine
10
-73.483330667485632
20
198.01193514770918
30
0
11
-99.662554261081226
21
198.01193514770918
31
0
0
LINE
5
251
100
AcDbEntity
8
0
100
AcDbLine
10
-43.091991353148302
20
264.28436869332296
30
0
11
-68.05199135314831
21
264.28436869332296
31
0
0
LINE
5
252
100
AcDbEntity
8
0
100
AcDbLine
10
-99.662554261081198
20
138.01193514770918
30
0
11
50.337445738918802
21
138.01193514770918
31
0
0
LINE
5
253
100
AcDbEntity
8
0
100
AcDbLine
10
-42.091991353148231
20
234.28436869332299
30
0
11
-42.091991353148302
21
263.28436869332296
31
0
0
LINE
5
254
100
AcDbEntity
8
0
100
AcDbLine
10
-67.902554261081221
20
198.01193514770918
30
0
11
-68.902554261081221
21
197.01193514770921
31
0
0
LINE
5
255
100
AcDbEntity
8
0
100
AcDbLine
10
-99.811991353148272
20
204.28436869332299
30
0
11
50.188008646851657
21
204.28436869332299
31
0
0
LINE
5
256
100
AcDbEntity
8
0
100
AcDbLine
10
-42.942554261081213
20
198.01193514770918
30
0
11
-67.902554261081221
21
198.01193514770918
31
0
0
LINE
5
257
100
AcDbEntity
8
0
100
AcDbLine
10
-69.05199135314831
20
263.28436869332296
30
0
11
-69.051991353148239
21
234.28436869332299
31
0
0
LINE
5
258
100
AcDbEntity
8
0
100
AcDbLine
10
-37.142554261081216
20
198.01193514770918
30
0
11
-38.142554261081216
21
197.01193514770921
31
0
0
LINE
5
259
100
AcDbEntity
8
0
100
AcDbLine
10
-41.942554261081199
20
168.01193514770918
30
0
11
-41.942554261081213
21
197.01193514770921
31
0
0
LINE
5
260
100
AcDbEntity
8
0
100
AcDbLine
10
-72.851991353148236
20
234.28436869332302
30
0
11
-72.851991353148307
21
263.28436869332296
31
0
0
LINE
5
261
100
AcDbEntity
8
0
100
AcDbLine
10
-99.811991353148372
20
264.28436869332296
30
0
11
-99.811991353148372
21
204.28436869332296
31
0
0
LINE
5
262
100
AcDbEntity
8
0
100
AcDbLine
10
-38.142554261081216
20
197.01193514770921
30
0
11
-38.142554261081195
21
168.01193514770918
31
0
0
LINE
5
263
100
AcDbEntity
8
0
100
AcDbLine
10
-72.702554261081204
20
168.01193514770918
30
0
11
-72.702554261081218
21
197.01193514770921
31
0
0
LINE
5
264
100
AcDbEntity
8
0
100
AcDbLine
10
-72.702554261081218
20
197.01193514770921
30
0
11
-73.483330667485632
21
198.01193514770918
31
0
0
LINE
5
265
100
AcDbEntity
8
0
100
AcDbLine
10
-38.142554261081195
20
168.01193514770918
30
0
11
-41.942554261081199
21
168.01193514770918
31
0
0
LINE
5
266
100
AcDbEntity
8
0
100
AcDbLine
10
-12.3319913531483
20
264.28436869332296
30
0
11
-37.291991353148305
21
264.28436869332296
31
0
0
LINE
5
267
100
AcDbEntity
8
0
100
AcDbLine
10
-12.182554261081208
20
198.01193514770918
30
0
11
-37.142554261081216
21
198.01193514770918
31
0
0
LINE
5
268
100
AcDbEntity
8
0
100
AcDbLine
10
-209.46622618833683
20
57.388654218767392
30
0
11
-210.4662261883368
21
58.388654218767392
31
0
0
LINE
5
269
100
AcDbEntity
8
0
100
AcDbLine
10
-210.4662261883368
20
58.388654218767392
30
0
11
-235.42622618833684
21
58.388654218767392
31
0
0
LINE
5
270
100
AcDbEntity
8
0
100
AcDbLine
10
-236.42622618833684
20
57.388654218767392
30
0
11
-236.42622618833684
21
28.388654218767524
31
0
0
LINE
5
271
100
AcDbEntity
8
0
100
AcDbLine
10
-209.46622618833683
20
28.388654218767503
30
0
11
-209.46622618833683
21
57.388654218767392
31
0
0
LINE
5
272
100
AcDbEntity
8
0
100
AcDbLine
10
-209.46622618833683
20
28.388654218767503
30
0
11
-209.46622618833683
21
57.388654218767392
31
0
0
LINE
5
273
100
AcDbEntity
8
0
100
AcDbLine
10
-210.4662261883368
20
58.388654218767392
30
0
11
-235.42622618833684
21
58.388654218767392
31
0
0
LINE
5
274
100
AcDbEntity
8
0
100
AcDbLine
10
-235.42622618833684
20
58.388654218767392
30
0
11
-236.42622618833684
21
57.388654218767392
31
0
0
LINE
5
275
100
AcDbEntity
8
0
100
AcDbLine
10
-205.66622618833685
20
28.388654218767503
30
0
11
-209.46622618833683
21
28.388654218767503
31
0
0
LINE
5
276
100
AcDbEntity
8
0
100
AcDbLine
10
-235.42622618833684
20
58.388654218767392
30
0
11
-236.42622618833684
21
57.388654218767392
31
0
0
LINE
5
277
100
AcDbEntity
8
0
100
AcDbLine
10
-236.42622618833684
20
57.388654218767392
30
0
11
-236.42622618833684
21
28.388654218767524
31
0
0
LINE
5
278
100
AcDbEntity
8
0
100
AcDbLine
10
-204.66622618833682
20
58.388654218767392
30
0
11
-205.66622618833685
21
57.388654218767392
31
0
0
LINE
5
279
100
AcDbEntity
8
0
100
AcDbLine
10
-238.59366735380996
20
95.849085048777312
30
0
11
-238.59366735380999
21
124.84908504877711
31
0
0
LINE
5
280
100
AcDbEntity
8
0
100
AcDbLine
10
-238.59366735380999
20
124.84908504877711
30
0
11
-239.37444376021438
21
125.84908504877714
31
0
0
LINE
5
281
100
AcDbEntity
8
0
100
AcDbLine
10
-239.37444376021438
20
125.84908504877714
30
0
11
-265.55366735381
21
125.84908504877704
31
0
0
LINE
5
282
100
AcDbEntity
8
0
100
AcDbLine
10
-238.59366735380996
20
95.849085048777312
30
0
11
-238.59366735380999
21
124.84908504877711
31
0
0
LINE
5
283
100
AcDbEntity
8
0
100
AcDbLine
10
-238.00700259474124
20
197.35116857259771
30
0
11
-264.18622618833689
21
197.35116857259771
31
0
0
LINE
5
284
100
AcDbEntity
8
0
100
AcDbLine
10
-264.18622618833689
20
197.35116857259771
30
0
11
-264.18622618833683
21
137.35116857259763
31
0
0
LINE
5
285
100
AcDbEntity
8
0
100
AcDbLine
10
-239.37444376021438
20
125.84908504877714
30
0
11
-265.55366735381
21
125.84908504877704
31
0
0
LINE
5
286
100
AcDbEntity
8
0
100
AcDbLine
10
-262.55366735381006
20
264.81159940260744
30
0
11
-262.55366735381006
21
204.81159940260741
31
0
0
LINE
5
287
100
AcDbEntity
8
0
100
AcDbLine
10
-141.14622618833681
20
196.35116857259774
30
0
11
-141.1462261883367
21
167.35116857259783
31
0
0
LINE
5
288
100
AcDbEntity
8
0
100
AcDbLine
10
-142.51366735380986
20
95.849085048777184
30
0
11
-146.3136673538099
21
95.849085048777184
31
0
0
LINE
5
289
100
AcDbEntity
8
0
100
AcDbLine
10
-144.14622618833681
20
57.388654218767392
30
0
11
-144.14622618833681
21
28.388654218767456
31
0
0
LINE
5
290
100
AcDbEntity
8
0
100
AcDbLine
10
-139.51366735380998
20
263.81159940260744
30
0
11
-139.51366735380975
21
234.81159940260756
31
0
0
LINE
5
291
100
AcDbEntity
8
0
100
AcDbLine
10
-117.1862261883368
20
-1.6113457812325809
30
0
11
-117.1862261883368
21
58.388654218767428
31
0
0
LINE
5
292
100
AcDbEntity
8
0
100
AcDbLine
10
-115.55366735381003
20
125.84908504877704
30
0
11
-141.51366735380998
21
125.84908504877714
31
0
0
LINE
5
293
100
AcDbEntity
8
0
100
AcDbLine
10
-115.55366735380998
20
65.849085048777084
30
0
11
-115.55366735381003
21
125.84908504877704
31
0
0
LINE
5
294
100
AcDbEntity
8
0
100
AcDbLine
10
-115.55366735381003
20
125.84908504877704
30
0
11
-141.51366735380998
21
125.84908504877714
31
0
0
LINE
5
295
100
AcDbEntity
8
0
100
AcDbLine
10
-114.1862261883368
20
137.35116857259771
30
0
11
-114.18622618833678
21
197.35116857259771
31
0
0
LINE
5
296
100
AcDbEntity
8
0
100
AcDbLine
10
-117.1862261883368
20
58.388654218767428
30
0
11
-143.14622618833681
21
58.388654218767392
31
0
0
LINE
5
297
100
AcDbEntity
8
0
100
AcDbLine
10
-114.18622618833678
20
197.35116857259771
30
0
11
-140.14622618833681
21
197.35116857259771
31
0
0
LINE
5
298
100
AcDbEntity
8
0
100
AcDbLine
10
-115.55366735380998
20
65.849085048777084
30
0
11
-115.55366735381003
21
125.84908504877704
31
0
0
LINE
5
299
100
AcDbEntity
8
0
100
AcDbLine
10
-112.55366735380996
20
264.81159940260744
30
0
11
-138.51366735380998
21
264.81159940260744
31
0
0
LINE
5
300
100
AcDbEntity
8
0
100
AcDbLine
10
-143.14622618833681
20
58.388654218767392
30
0
11
-144.14622618833681
21
57.388654218767392
31
0
0
LINE
5
301
100
AcDbEntity
8
0
100
AcDbLine
10
-144.94622618833671
20
167.35116857259786
30
0
11
-144.94622618833682
21
196.35116857259774
31
0
0
LINE
5
302
100
AcDbEntity
8
0
100
AcDbLine
10
-112.55366735380996
20
204.81159940260744
30
0
11
-112.55366735380996
21
264.81159940260744
31
0
0
LINE
5
303
100
AcDbEntity
8
0
100
AcDbLine
10
-142.51366735380998
20
124.84908504877711
30
0
11
-142.51366735380986
21
95.849085048777184
31
0
0
LINE
5
304
100
AcDbEntity
8
0
100
AcDbLine
10
-145.94622618833682
20
197.35116857259771
30
0
11
-170.9062261883368
21
197.35116857259771
31
0
0
LINE
5
305
100
AcDbEntity
8
0
100
AcDbLine
10
-143.31366735380976
20
234.81159940260761
30
0
11
-143.31366735380999
21
263.81159940260744
31
0
0
LINE
5
306
100
AcDbEntity
8
0
100
AcDbLine
10
-144.94622618833682
20
196.35116857259774
30
0
11
-145.94622618833682
21
197.35116857259771
31
0
0
LINE
5
307
100
AcDbEntity
8
0
100
AcDbLine
10
-146.31366735380996
20
124.84908504877711
30
0
11
-147.31366735380999
21
125.84908504877714
31
0
0
LINE
5
308
100
AcDbEntity
8
0
100
AcDbLine
10
-142.51366735380998
20
124.84908504877711
30
0
11
-142.51366735380986
21
95.849085048777184
31
0
0
LINE
5
309
100
AcDbEntity
8
0
100
AcDbLine
10
-144.31366735380999
20
264.81159940260744
30
0
11
-169.27366735380997
21
264.81159940260744
31
0
0
LINE
5
310
100
AcDbEntity
8
0
100
AcDbLine
10
-146.31366735380996
20
124.84908504877711
30
0
11
-147.31366735380999
21
125.84908504877714
31
0
0
LINE
5
311
100
AcDbEntity
8
0
100
AcDbLine
10
-144.14622618833681
20
57.388654218767392
30
0
11
-144.14622618833681
21
28.388654218767456
31
0
0
LINE
5
312
100
AcDbEntity
8
0
100
AcDbLine
10
-117.1862261883368
20
-1.6113457812325809
30
0
11
-117.1862261883368
21
58.388654218767428
31
0
0
LINE
5
313
100
AcDbEntity
8
0
100
AcDbLine
10
-143.14622618833681
20
58.388654218767392
30
0
11
-144.14622618833681
21
57.388654218767392
31
0
0
LINE
5
314
100
AcDbEntity
8
0
100
AcDbLine
10
-141.51366735380998
20
125.84908504877714
30
0
11
-142.51366735380998
21
124.84908504877711
31
0
0
LINE
5
315
100
AcDbEntity
8
0
100
AcDbLine
10
-146.3136673538099
20
95.849085048777184
30
0
11
-146.31366735380996
21
124.84908504877711
31
0
0
LINE
5
316
100
AcDbEntity
8
0
100
AcDbLine
10
-144.14622618833681
20
28.388654218767456
30
0
11
-147.94622618833682
21
28.388654218767464
31
0
0
LINE
5
317
100
AcDbEntity
8
0
100
AcDbLine
10
-144.14622618833681
20
28.388654218767456
30
0
11
-147.94622618833682
21
28.388654218767464
31
0
0
LINE
5
318
100
AcDbEntity
8
0
100
AcDbLine
10
-117.1862261883368
20
58.388654218767428
30
0
11
-143.14622618833681
21
58.388654218767392
31
0
0
LINE
5
319
100
AcDbEntity
8
0
100
AcDbLine
10
-138.51366735380998
20
264.81159940260744
30
0
11
-139.51366735380998
21
263.81159940260744
31
0
0
LINE
5
320
100
AcDbEntity
8
0
100
AcDbLine
10
-139.51366735380975
20
234.81159940260756
30
0
11
-143.31366735380976
21
234.81159940260761
31
0
0
LINE
5
321
100
AcDbEntity
8
0
100
AcDbLine
10
-147.31366735380999
20
125.84908504877714
30
0
11
-172.27366735380997
21
125.84908504877714
31
0
0
LINE
5
322
100
AcDbEntity
8
0
100
AcDbLine
10
-173.27366735380994
20
95.849085048777184
30
0
11
-177.07366735380992
21
95.849085048777184
31
0
0
LINE
5
323
100
AcDbEntity
8
0
100
AcDbLine
10
-177.07366735380992
20
95.849085048777184
30
0
11
-177.07366735380998
21
124.84908504877711
31
0
0
LINE
5
324
100
AcDbEntity
8
0
100
AcDbLine
10
-172.27366735380997
20
125.84908504877714
30
0
11
-173.27366735380997
21
124.84908504877711
31
0
0
LINE
5
325
100
AcDbEntity
8
0
100
AcDbLine
10
-178.07366735380998
20
125.84908504877714
30
0
11
-203.03366735380996
21
125.84908504877714
31
0
0
LINE
5
326
100
AcDbEntity
8
0
100
AcDbLine
10
-177.07366735380998
20
124.84908504877711
30
0
11
-178.07366735380998
21
125.84908504877714
31
0
0
LINE
5
327
100
AcDbEntity
8
0
100
AcDbLine
10
-179.70622618833681
20
58.388654218767392
30
0
11
-204.66622618833682
21
58.388654218767392
31
0
0
LINE
5
328
100
AcDbEntity
8
0
100
AcDbLine
10
-170.27366735380997
20
263.81159940260744
30
0
11
-170.27366735380977
21
234.81159940260761
31
0
0
LINE
5
329
100
AcDbEntity
8
0
100
AcDbLine
10
-177.07366735380998
20
124.84908504877711
30
0
11
-178.07366735380998
21
125.84908504877714
31
0
0
LINE
5
330
100
AcDbEntity
8
0
100
AcDbLine
10
-265.55366735381
20
125.84908504877704
30
0
11
-265.55366735381
21
65.849085048777027
31
0
0
LINE
5
331
100
AcDbEntity
8
0
100
AcDbLine
10
-238.59366735380999
20
124.84908504877711
30
0
11
-239.37444376021438
21
125.84908504877714
31
0
0
LINE
5
332
100
AcDbEntity
8
0
100
AcDbLine
10
-265.55366735381
20
125.84908504877704
30
0
11
-265.55366735381
21
65.849085048777027
31
0
0
LINE
5
333
100
AcDbEntity
8
0
100
AcDbLine
10
-175.70622618833664
20
167.35116857259786
30
0
11
-175.70622618833681
21
196.35116857259774
31
0
0
LINE
5
334
100
AcDbEntity
8
0
100
AcDbLine
10
-262.55366735380994
20
204.81159940260744
30
0
11
-112.55366735380996
21
204.81159940260744
31
0
0
LINE
5
335
100
AcDbEntity
8
0
100
AcDbLine
10
-169.27366735380997
20
264.81159940260744
30
0
11
-170.27366735380997
21
263.81159940260744
31
0
0
LINE
5
336
100
AcDbEntity
8
0
100
AcDbLine
10
-265.55366735380994
20
65.849085048777098
30
0
11
-115.55366735380998
21
65.849085048777084
31
0
0
LINE
5
337
100
AcDbEntity
8
0
100
AcDbLine
10
-174.07366735380998
20
263.81159940260744
30
0
11
-175.07366735380998
21
264.81159940260744
31
0
0
LINE
5
338
100
AcDbEntity
8
0
100
AcDbLine
10
-265.55366735380994
20
65.849085048777098
30
0
11
-115.55366735380998
21
65.849085048777084
31
0
0
LINE
5
339
100
AcDbEntity
8
0
100
AcDbLine
10
-176.70622618833681
20
197.35116857259771
30
0
11
-201.66622618833682
21
197.35116857259771
31
0
0
LINE
5
340
100
AcDbEntity
8
0
100
AcDbLine
10
-171.9062261883366
20
167.35116857259786
30
0
11
-175.70622618833664
21
167.35116857259786
31
0
0
LINE
5
341
100
AcDbEntity
8
0
100
AcDbLine
10
-174.07366735380975
20
234.81159940260761
30
0
11
-174.07366735380998
21
263.81159940260744
31
0
0
LINE
5
342
100
AcDbEntity
8
0
100
AcDbLine
10
-264.18622618833683
20
137.35116857259771
30
0
11
-114.1862261883368
21
137.35116857259771
31
0
0
LINE
5
343
100
AcDbEntity
8
0
100
AcDbLine
10
-170.9062261883368
20
197.35116857259771
30
0
11
-171.90622618833683
21
196.35116857259774
31
0
0
LINE
5
344
100
AcDbEntity
8
0
100
AcDbLine
10
-179.70622618833681
20
58.388654218767392
30
0
11
-204.66622618833682
21
58.388654218767392
31
0
0
LINE
5
345
100
AcDbEntity
8
0
100
AcDbLine
10
-267.18622618833683
20
-1.6113457812325849
30
0
11
-117.1862261883368
21
-1.6113457812325809
31
0
0
LINE
5
346
100
AcDbEntity
8
0
100
AcDbLine
10
-171.90622618833683
20
196.35116857259774
30
0
11
-171.9062261883366
21
167.35116857259786
31
0
0
LINE
5
347
100
AcDbEntity
8
0
100
AcDbLine
10
-170.27366735380977
20
234.81159940260761
30
0
11
-174.07366735380975
21
234.81159940260761
31
0
0
LINE
5
348
100
AcDbEntity
8
0
100
AcDbLine
10
-175.07366735380998
20
264.81159940260744
30
0
11
-200.03366735381002
21
264.81159940260744
31
0
0
LINE
5
349
100
AcDbEntity
8
0
100
AcDbLine
10
-175.70622618833681
20
196.35116857259774
30
0
11
-176.70622618833681
21
197.35116857259771
31
0
0
LINE
5
350
100
AcDbEntity
8
0
100
AcDbLine
10
-207.83366735380994
20
95.849085048777241
30
0
11
-207.83366735380997
21
124.84908504877711
31
0
0
LINE
5
351
100
AcDbEntity
8
0
100
AcDbLine
10
-204.83366735380997
20
263.81159940260744
30
0
11
-205.83366735380997
21
264.81159940260744
31
0
0
LINE
5
352
100
AcDbEntity
8
0
100
AcDbLine
10
-207.83366735380997
20
124.84908504877711
30
0
11
-208.83366735380997
21
125.84908504877714
31
0
0
LINE
5
353
100
AcDbEntity
8
0
100
AcDbLine
10
-203.03366735380996
20
125.84908504877714
30
0
11
-204.03366735380999
21
124.84908504877711
31
0
0
LINE
5
354
100
AcDbEntity
8
0
100
AcDbLine
10
-203.03366735380996
20
125.84908504877714
30
0
11
-204.03366735380999
21
124.84908504877711
31
0
0
LINE
5
355
100
AcDbEntity
8
0
100
AcDbLine
10
-207.83366735380994
20
95.849085048777241
30
0
11
-207.83366735380997
21
124.84908504877711
31
0
0
LINE
5
356
100
AcDbEntity
8
0
100
AcDbLine
10
-233.79366735380998
20
125.84908504877714
30
0
11
-234.79366735381001
21
124.84908504877711
31
0
0
LINE
5
357
100
AcDbEntity
8
0
100
AcDbLine
10
-204.03366735380996
20
95.849085048777241
30
0
11
-207.83366735380994
21
95.849085048777241
31
0
0
LINE
5
358
100
AcDbEntity
8
0
100
AcDbLine
10
-204.03366735380999
20
124.84908504877711
30
0
11
-204.03366735380996
21
95.849085048777241
31
0
0
LINE
5
359
100
AcDbEntity
8
0
100
AcDbLine
10
-207.83366735380997
20
124.84908504877711
30
0
11
-208.83366735380997
21
125.84908504877714
31
0
0
LINE
5
360
100
AcDbEntity
8
0
100
AcDbLine
10
-204.03366735380999
20
124.84908504877711
30
0
11
-204.03366735380996
21
95.849085048777241
31
0
0
LINE
5
361
100
AcDbEntity
8
0
100
AcDbLine
10
-201.03366735380999
20
263.81159940260744
30
0
11
-201.03366735380976
21
234.81159940260761
31
0
0
LINE
5
362
100
AcDbEntity
8
0
100
AcDbLine
10
-204.03366735380996
20
95.849085048777241
30
0
11
-207.83366735380994
21
95.849085048777241
31
0
0
LINE
5
363
100
AcDbEntity
8
0
100
AcDbLine
10
-206.4662261883368
20
196.35116857259774
30
0
11
-207.46622618833683
21
197.35116857259771
31
0
0
LINE
5
364
100
AcDbEntity
8
0
100
AcDbLine
10
-201.66622618833682
20
197.35116857259771
30
0
11
-202.66622618833682
21
196.35116857259774
31
0
0
LINE
5
365
100
AcDbEntity
8
0
100
AcDbLine
10
-178.70622618833681
20
57.388654218767392
30
0
11
-179.70622618833681
21
58.388654218767392
31
0
0
LINE
5
366
100
AcDbEntity
8
0
100
AcDbLine
10
-267.18622618833683
20
-1.6113457812325849
30
0
11
-117.1862261883368
21
-1.6113457812325809
31
0
0
LINE
5
367
100
AcDbEntity
8
0
100
AcDbLine
10
-148.94622618833679
20
58.388654218767392
30
0
11
-173.9062261883368
21
58.388654218767392
31
0
0
LINE
5
368
100
AcDbEntity
8
0
100
AcDbLine
10
-173.9062261883368
20
58.388654218767392
30
0
11
-174.90622618833683
21
57.388654218767392
31
0
0
LINE
5
369
100
AcDbEntity
8
0
100
AcDbLine
10
-147.94622618833682
20
57.388654218767392
30
0
11
-148.94622618833679
21
58.388654218767392
31
0
0
LINE
5
370
100
AcDbEntity
8
0
100
AcDbLine
10
-174.9062261883368
20
28.388654218767478
30
0
11
-178.70622618833681
21
28.388654218767478
31
0
0
LINE
5
371
100
AcDbEntity
8
0
100
AcDbLine
10
-147.94622618833682
20
28.388654218767464
30
0
11
-147.94622618833682
21
57.388654218767392
31
0
0
LINE
5
372
100
AcDbEntity
8
0
100
AcDbLine
10
-147.94622618833682
20
57.388654218767392
30
0
11
-148.94622618833679
21
58.388654218767392
31
0
0
LINE
5
373
100
AcDbEntity
8
0
100
AcDbLine
10
-178.70622618833681
20
28.388654218767478
30
0
11
-178.70622618833681
21
57.388654218767392
31
0
0
LINE
5
374
100
AcDbEntity
8
0
100
AcDbLine
10
-173.27366735380997
20
124.84908504877711
30
0
11
-173.27366735380994
21
95.849085048777184
31
0
0
LINE
5
375
100
AcDbEntity
8
0
100
AcDbLine
10
-174.90622618833683
20
57.388654218767392
30
0
11
-174.9062261883368
21
28.388654218767478
31
0
0
LINE
5
376
100
AcDbEntity
8
0
100
AcDbLine
10
-148.94622618833679
20
58.388654218767392
30
0
11
-173.9062261883368
21
58.388654218767392
31
0
0
LINE
5
377
100
AcDbEntity
8
0
100
AcDbLine
10
-178.70622618833681
20
28.388654218767478
30
0
11
-178.70622618833681
21
57.388654218767392
31
0
0
LINE
5
378
100
AcDbEntity
8
0
100
AcDbLine
10
-147.94622618833682
20
28.388654218767464
30
0
11
-147.94622618833682
21
57.388654218767392
31
0
0
LINE
5
379
100
AcDbEntity
8
0
100
AcDbLine
10
-174.9062261883368
20
28.388654218767478
30
0
11
-178.70622618833681
21
28.388654218767478
31
0
0
LINE
5
380
100
AcDbEntity
8
0
100
AcDbLine
10
-178.70622618833681
20
57.388654218767392
30
0
11
-179.70622618833681
21
58.388654218767392
31
0
0
LINE
5
381
100
AcDbEntity
8
0
100
AcDbLine
10
-174.90622618833683
20
57.388654218767392
30
0
11
-174.9062261883368
21
28.388654218767478
31
0
0
LINE
5
382
100
AcDbEntity
8
0
100
AcDbLine
10
-236.42622618833684
20
28.388654218767524
30
0
11
-240.22622618833682
21
28.388654218767524
31
0
0
LINE
5
383
100
AcDbEntity
8
0
100
AcDbLine
10
-206.46622618833663
20
167.35116857259786
30
0
11
-206.4662261883368
21
196.35116857259774
31
0
0
LINE
5
384
100
AcDbEntity
8
0
100
AcDbLine
10
-202.66622618833665
20
167.35116857259786
30
0
11
-206.46622618833663
21
167.35116857259786
31
0
0
LINE
5
385
100
AcDbEntity
8
0
100
AcDbLine
10
-205.83366735380997
20
264.81159940260744
30
0
11
-230.79366735381001
21
264.81159940260744
31
0
0
LINE
5
386
100
AcDbEntity
8
0
100
AcDbLine
10
-237.22622618833682
20
196.35116857259774
30
0
11
-238.00700259474124
21
197.35116857259771
31
0
0
LINE
5
387
100
AcDbEntity
8
0
100
AcDbLine
10
-234.79366735380995
20
95.849085048777283
30
0
11
-238.59366735380996
21
95.849085048777312
31
0
0
LINE
5
388
100
AcDbEntity
8
0
100
AcDbLine
10
-173.9062261883368
20
58.388654218767392
30
0
11
-174.90622618833683
21
57.388654218767392
31
0
0
LINE
5
389
100
AcDbEntity
8
0
100
AcDbLine
10
-236.37444376021443
20
264.81159940260744
30
0
11
-262.55366735381006
21
264.81159940260744
31
0
0
LINE
5
390
100
AcDbEntity
8
0
100
AcDbLine
10
-204.83366735380974
20
234.81159940260761
30
0
11
-204.83366735380997
21
263.81159940260744
31
0
0
LINE
5
391
100
AcDbEntity
8
0
100
AcDbLine
10
-200.03366735381002
20
264.81159940260744
30
0
11
-201.03366735380999
21
263.81159940260744
31
0
0
LINE
5
392
100
AcDbEntity
8
0
100
AcDbLine
10
-207.46622618833683
20
197.35116857259771
30
0
11
-232.42622618833681
21
197.35116857259771
31
0
0
LINE
5
393
100
AcDbEntity
8
0
100
AcDbLine
10
-236.42622618833684
20
28.388654218767524
30
0
11
-240.22622618833682
21
28.388654218767524
31
0
0
LINE
5
394
100
AcDbEntity
8
0
100
AcDbLine
10
-234.79366735380995
20
95.849085048777283
30
0
11
-238.59366735380996
21
95.849085048777312
31
0
0
LINE
5
395
100
AcDbEntity
8
0
100
AcDbLine
10
-202.66622618833682
20
196.35116857259774
30
0
11
-202.66622618833665
21
167.35116857259786
31
0
0
LINE
5
396
100
AcDbEntity
8
0
100
AcDbLine
10
-201.03366735380976
20
234.81159940260761
30
0
11
-204.83366735380974
21
234.81159940260761
31
0
0
LINE
5
397
100
AcDbEntity
8
0
100
AcDbLine
10
-230.79366735381001
20
264.81159940260744
30
0
11
-231.79366735380998
21
263.81159940260744
31
0
0
LINE
5
398
100
AcDbEntity
8
0
100
AcDbLine
10
-235.59366735382102
20
234.81159940259778
30
0
11
-235.59366735380996
21
263.81159940260744
31
0
0
LINE
5
399
100
AcDbEntity
8
0
100
AcDbLine
10
-208.83366735380997
20
125.84908504877714
30
0
11
-233.79366735380998
21
125.84908504877714
31
0
0
LINE
5
400
100
AcDbEntity
8
0
100
AcDbLine
10
-235.59366735380996
20
263.81159940260744
30
0
11
-236.37444376021443
21
264.81159940260744
31
0
0
LINE
5
401
100
AcDbEntity
8
0
100
AcDbLine
10
-233.79366735380998
20
125.84908504877714
30
0
11
-234.79366735381001
21
124.84908504877711
31
0
0
LINE
5
402
100
AcDbEntity
8
0
100
AcDbLine
10
-205.66622618833685
20
57.388654218767392
30
0
11
-205.66622618833685
21
28.388654218767503
31
0
0
LINE
5
403
100
AcDbEntity
8
0
100
AcDbLine
10
-233.42622618833667
20
167.35116857259786
30
0
11
-237.22622618833665
21
167.35116857259786
31
0
0
LINE
5
404
100
AcDbEntity
8
0
100
AcDbLine
10
-234.79366735381001
20
124.84908504877711
30
0
11
-234.79366735380995
21
95.849085048777283
31
0
0
LINE
5
405
100
AcDbEntity
8
0
100
AcDbLine
10
-208.83366735380997
20
125.84908504877714
30
0
11
-233.79366735380998
21
125.84908504877714
31
0
0
LINE
5
406
100
AcDbEntity
8
0
100
AcDbLine
10
-234.79366735381001
20
124.84908504877711
30
0
11
-234.79366735380995
21
95.849085048777283
31
0
0
LINE
5
407
100
AcDbEntity
8
0
100
AcDbLine
10
-231.79366735380998
20
263.81159940260744
30
0
11
-231.79366735382104
21
234.81159940259795
31
0
0
LINE
5
408
100
AcDbEntity
8
0
100
AcDbLine
10
-205.66622618833685
20
28.388654218767503
30
0
11
-209.46622618833683
21
28.388654218767503
31
0
0
LINE
5
409
100
AcDbEntity
8
0
100
AcDbLine
10
-231.79366735382104
20
234.81159940259795
30
0
11
-235.59366735382102
21
234.81159940259778
31
0
0
LINE
5
410
100
AcDbEntity
8
0
100
AcDbLine
10
-237.22622618833665
20
167.35116857259786
30
0
11
-237.22622618833682
21
196.35116857259774
31
0
0
LINE
5
411
100
AcDbEntity
8
0
100
AcDbLine
10
-204.66622618833682
20
58.388654218767392
30
0
11
-205.66622618833685
21
57.388654218767392
31
0
0
LINE
5
412
100
AcDbEntity
8
0
100
AcDbLine
10
-232.42622618833681
20
197.35116857259771
30
0
11
-233.42622618833684
21
196.35116857259774
31
0
0
LINE
5
413
100
AcDbEntity
8
0
100
AcDbLine
10
-205.66622618833685
20
57.388654218767392
30
0
11
-205.66622618833685
21
28.388654218767503
31
0
0
LINE
5
414
100
AcDbEntity
8
0
100
AcDbLine
10
-209.46622618833683
20
57.388654218767392
30
0
11
-210.4662261883368
21
58.388654218767392
31
0
0
LINE
5
415
100
AcDbEntity
8
0
100
AcDbLine
10
-233.42622618833684
20
196.35116857259774
30
0
11
-233.42622618833667
21
167.35116857259786
31
0
0
LINE
5
416
100
AcDbEntity
8
0
100
AcDbLine
10
-240.22622618833682
20
57.388654218767392
30
0
11
-241.00700259474124
21
58.388654218767392
31
0
0
LINE
5
417
100
AcDbEntity
8
0
100
AcDbLine
10
-240.22622618833682
20
57.388654218767392
30
0
11
-241.00700259474124
21
58.388654218767392
31
0
0
LINE
5
418
100
AcDbEntity
8
0
100
AcDbLine
10
-172.27366735380997
20
125.84908504877714
30
0
11
-173.27366735380997
21
124.84908504877711
31
0
0
LINE
5
419
100
AcDbEntity
8
0
100
AcDbLine
10
-173.27366735380997
20
124.84908504877711
30
0
11
-173.27366735380994
21
95.849085048777184
31
0
0
LINE
5
420
100
AcDbEntity
8
0
100
AcDbLine
10
-267.18622618833683
20
58.388654218767314
30
0
11
-267.18622618833683
21
-1.6113457812326837
31
0
0
LINE
5
421
100
AcDbEntity
8
0
100
AcDbLine
10
-147.31366735380999
20
125.84908504877714
30
0
11
-172.27366735380997
21
125.84908504877714
31
0
0
LINE
5
422
100
AcDbEntity
8
0
100
AcDbLine
10
-240.22622618833682
20
28.388654218767524
30
0
11
-240.22622618833682
21
57.388654218767392
31
0
0
LINE
5
423
100
AcDbEntity
8
0
100
AcDbLine
10
-177.07366735380992
20
95.849085048777184
30
0
11
-177.07366735380998
21
124.84908504877711
31
0
0
LINE
5
424
100
AcDbEntity
8
0
100
AcDbLine
10
-178.07366735380998
20
125.84908504877714
30
0
11
-203.03366735380996
21
125.84908504877714
31
0
0
LINE
5
425
100
AcDbEntity
8
0
100
AcDbLine
10
-267.18622618833683
20
58.388654218767314
30
0
11
-267.18622618833683
21
-1.6113457812326837
31
0
0
LINE
5
426
100
AcDbEntity
8
0
100
AcDbLine
10
-241.00700259474124
20
58.388654218767392
30
0
11
-267.18622618833683
21
58.388654218767314
31
0
0
LINE
5
427
100
AcDbEntity
8
0
100
AcDbLine
10
-240.22622618833682
20
28.388654218767524
30
0
11
-240.22622618833682
21
57.388654218767392
31
0
0
LINE
5
428
100
AcDbEntity
8
0
100
AcDbLine
10
-241.00700259474124
20
58.388654218767392
30
0
11
-267.18622618833683
21
58.388654218767314
31
0
0
LINE
5
429
100
AcDbEntity
8
0
100
AcDbLine
10
-173.27366735380994
20
95.849085048777184
30
0
11
-177.07366735380992
21
95.849085048777184
31
0
0
LINE
5
430
100
AcDbEntity
8
0
100
AcDbLine
10
-141.1462261883367
20
167.35116857259783
30
0
11
-144.94622618833671
21
167.35116857259786
31
0
0
LINE
5
431
100
AcDbEntity
8
0
100
AcDbLine
10
-146.3136673538099
20
95.849085048777184
30
0
11
-146.31366735380996
21
124.84908504877711
31
0
0
LINE
5
432
100
AcDbEntity
8
0
100
AcDbLine
10
-141.51366735380998
20
125.84908504877714
30
0
11
-142.51366735380998
21
124.84908504877711
31
0
0
LINE
5
433
100
AcDbEntity
8
0
100
AcDbLine
10
-142.51366735380986
20
95.849085048777184
30
0
11
-146.3136673538099
21
95.849085048777184
31
0
0
LINE
5
434
100
AcDbEntity
8
0
100
AcDbLine
10
-140.14622618833681
20
197.35116857259771
30
0
11
-141.14622618833681
21
196.35116857259774
31
0
0
LINE
5
435
100
AcDbEntity
8
0
100
AcDbLine
10
-143.31366735380999
20
263.81159940260744
30
0
11
-144.31366735380999
21
264.81159940260744
31
0
0
LWPOLYLINE
5
436
100
AcDbEntity
8
0
100
AcDbPolyline
90
16
70
1
43
0.0
10
319.69435875245443
20
-0.30522124538359785
10
404.3743587524545
20
-0.30522124538345075
10
404.37435875245433
20
59.694778754616557
10
378.4143587524544
20
59.694778754616507
10
377.41435875245435
20
58.694778754616515
10
377.4143587524544
20
29.694778754616511
10
373.61435875245439
20
29.6947787546165
10
373.61435875245434
20
58.694778754616507
10
372.61435875245434
20
59.6947787546165
10
351.45435875245437
20
59.694778754616451
10
350.45435875245437
20
58.694778754616451
10
350.45435875245448
20
29.69477875461644
10
346.65435875245441
20
29.694778754616429
10
346.65435875245436
20
58.694778754616443
10
345.65435875245436
20
59.694778754616429
10
319.69435875245438
20
59.694778754616408
0
LINE
5
437
100
AcDbEntity
8
0
100
AcDbLine
10
373.61435875245434
20
58.694778754616507
30
0
11
373.61435875245434
21
52.229716163022637
31
0
0
LWPOLYLINE
5
438
100
AcDbEntity
8
0
100
AcDbPolyline
90
16
70
1
43
0.0
10
373.30927298960523
20
125.36417416546757
10
352.14927298960532
20
125.36417416546753
10
351.14927298960532
20
124.36417416546753
10
351.14927298960538
20
95.364174165467574
10
347.34927298960537
20
95.364174165467574
10
347.34927298960531
20
124.36417416546753
10
346.34927298960525
20
125.36417416546752
10
320.38927298960539
20
125.36417416546747
10
320.38927298960544
20
65.364174165467603
10
405.06927298960534
20
65.364174165467745
10
405.06927298960522
20
125.36417416546763
10
379.1092729896053
20
125.36417416546757
10
378.1092729896053
20
124.3641741654676
10
378.10927298960536
20
95.364174165467659
10
374.30927298960535
20
95.364174165467659
10
374.30927298960523
20
124.3641741654676
0
LINE
5
439
100
AcDbEntity
8
0
100
AcDbLine
10
374.30927298960523
20
124.3641741654676
30
0
11
374.30927298960523
21
117.89911157387374
31
0
0
LWPOLYLINE
5
440
100
AcDbEntity
8
0
100
AcDbPolyline
90
16
70
1
43
0.0
10
320.38927298960488
20
197.39787922432151
10
405.06927298960471
20
197.3978792243216
10
405.06927298960454
20
257.3978792243214
10
379.10927298960468
20
257.3978792243214
10
378.10927298960462
20
256.39787922432146
10
378.10927298960473
20
227.39787922432154
10
374.30927298960466
20
227.39787922432151
10
374.30927298960461
20
256.3978792243214
10
373.30927298960461
20
257.3978792243214
10
352.14927298960475
20
257.39787922432134
10
351.14927298960475
20
256.3978792243214
10
351.14927298960481
20
227.39787922432146
10
347.3492729896048
20
227.39787922432143
10
347.34927298960474
20
256.39787922432134
10
346.34927298960469
20
257.39787922432134
10
320.38927298960482
20
257.39787922432134
0
LWPOLYLINE
5
441
100
AcDbEntity
8
0
100
AcDbPolyline
90
16
70
1
43
0.0
10
319.69435875245381
20
191.72848381347026
10
319.69435875245387
20
131.72848381347035
10
404.37435875245387
20
131.72848381347049
10
404.3743587524537
20
191.7284838134704
10
378.41435875245372
20
191.7284838134704
10
377.41435875245372
20
190.7284838134704
10
377.41435875245378
20
161.72848381347046
10
373.61435875245377
20
161.7284838134704
10
373.61435875245371
20
190.72848381347035
10
372.61435875245365
20
191.72848381347038
10
351.4543587524538
20
191.72848381347035
10
350.4543587524538
20
190.72848381347032
10
350.45435875245391
20
161.72848381347038
10
346.65435875245385
20
161.72848381347035
10
346.65435875245379
20
190.72848381347029
10
345.65435875245379
20
191.72848381347029
0
LINE
5
442
100
AcDbEntity
8
0
100
AcDbLine
10
373.61435875245371
20
190.72848381347035
30
0
11
373.61435875245377
21
184.26342122187651
31
0
0
LINE
5
443
100
AcDbEntity
8
0
100
AcDbLine
10
374.30927298960461
20
256.3978792243214
30
0
11
374.30927298960461
21
249.93281663272757
31
0
0
LWPOLYLINE
5
444
100
AcDbEntity
8
0
100
AcDbPolyline
90
16
70
1
43
0.0
10
440.69889519998196
20
59.19336735377432
10
440.69889519998208
20
30.19336735377432
10
436.89889519998201
20
30.19336735377431
10
436.89889519998195
20
59.193367353774313
10
435.89889519998195
20
60.193367353774306
10
409.93889519998197
20
60.193367353774278
10
409.93889519998208
20
0.19336735377428346
10
494.61889519998209
20
0.19336735377443043
10
494.61889519998192
20
60.193367353774427
10
468.658895199982
20
60.193367353774391
10
467.658895199982
20
59.193367353774384
10
467.65889519998206
20
30.193367353774391
10
463.85889519998204
20
30.193367353774381
10
463.85889519998193
20
59.193367353774377
10
462.85889519998193
20
60.19336735377437
10
441.69889519998202
20
60.19336735377432
0
LWPOLYLINE
5
445
100
AcDbEntity
8
0
100
AcDbPolyline
90
16
70
1
43
0.0
10
469.35380943713227
20
257.89646782347927
10
468.35380943713227
20
256.89646782347927
10
468.35380943713233
20
227.89646782347938
10
464.55380943713232
20
227.89646782347938
10
464.55380943713226
20
256.89646782347927
10
463.5538094371322
20
257.89646782347927
10
442.39380943713235
20
257.89646782347921
10
441.39380943713235
20
256.89646782347921
10
441.3938094371324
20
227.8964678234793
10
437.59380943713239
20
227.8964678234793
10
437.59380943713234
20
256.89646782347921
10
436.59380943713234
20
257.89646782347921
10
410.63380943713241
20
257.89646782347916
10
410.63380943713247
20
197.89646782347933
10
495.31380943713231
20
197.89646782347947
10
495.31380943713214
20
257.89646782347927
0
LINE
5
446
100
AcDbEntity
8
0
100
AcDbLine
10
464.55380943713226
20
256.89646782347927
30
0
11
464.55380943713226
21
250.43140523188544
31
0
0
LINE
5
447
100
AcDbEntity
8
0
100
AcDbLine
10
463.85889519998193
20
59.193367353774377
30
0
11
463.85889519998193
21
52.728304762180507
31
0
0
LWPOLYLINE
5
448
100
AcDbEntity
8
0
100
AcDbPolyline
90
16
70
1
43
0.0
10
410.63380943713298
20
125.86276276462534
10
410.63380943713304
20
65.862762764625472
10
495.31380943713293
20
65.862762764625614
10
495.31380943713282
20
125.8627627646255
10
469.3538094371329
20
125.86276276462544
10
468.3538094371329
20
124.86276276462547
10
468.35380943713295
20
95.862762764625529
10
464.55380943713294
20
95.862762764625501
10
464.55380943713288
20
124.86276276462546
10
463.55380943713283
20
125.86276276462543
10
442.39380943713292
20
125.86276276462539
10
441.39380943713292
20
124.8627627646254
10
441.39380943713297
20
95.862762764625444
10
437.59380943713296
20
95.862762764625444
10
437.5938094371329
20
124.8627627646254
10
436.5938094371329
20
125.86276276462536
0
LWPOLYLINE
5
449
100
AcDbEntity
8
0
100
AcDbPolyline
90
16
70
1
43
0.0
10
494.61889519998147
20
132.22707241262836
10
494.6188951999813
20
192.22707241262827
10
468.65889519998132
20
192.22707241262825
10
467.65889519998132
20
191.22707241262822
10
467.65889519998143
20
162.22707241262827
10
463.85889519998136
20
162.22707241262827
10
463.8588951999813
20
191.22707241262822
10
462.8588951999813
20
192.22707241262825
10
441.69889519998145
20
192.22707241262816
10
440.69889519998139
20
191.22707241262816
10
440.69889519998151
20
162.22707241262822
10
436.89889519998144
20
162.22707241262822
10
436.89889519998138
20
191.22707241262816
10
435.89889519998138
20
192.22707241262816
10
409.9388951999814
20
192.22707241262813
10
409.93889519998152
20
132.22707241262822
0
LINE
5
450
100
AcDbEntity
8
0
100
AcDbLine
10
464.55380943713288
20
124.86276276462546
30
0
11
464.55380943713288
21
118.39770017303159
31
0
0
LINE
5
451
100
AcDbEntity
8
0
100
AcDbLine
10
463.8588951999813
20
191.22707241262822
30
0
11
463.85889519998136
21
184.76200982103438
31
0
0
LWPOLYLINE
5
452
100
AcDbEntity
8
0
100
AcDbPolyline
90
22
70
1
43
0.0
10
192.25533334784743
20
203.60303068524618
10
311.49533334784741
20
203.60303068524604
10
311.49533334784746
20
263.60303068524604
10
285.53533334784748
20
263.6030306852461
10
284.53533334784748
20
262.60303068524604
10
284.53533334784743
20
233.6030306852461
10
280.73533334784747
20
233.6030306852461
10
280.73533334784747
20
262.60303068524604
10
279.73533334784742
20
263.6030306852461
10
254.77533334784744
20
263.6030306852461
10
253.77533334784744
20
262.6030306852461
10
253.77533334784744
20
233.60303068524613
10
249.97533334784745
20
233.60303068524613
10
249.97533334784748
20
262.6030306852461
10
248.97533334784748
20
263.6030306852461
10
224.01533334784747
20
263.6030306852461
10
223.01533334784747
20
262.6030306852461
10
223.01533334784745
20
233.60303068524613
10
219.21533334784743
20
233.60303068524613
10
219.21533334784749
20
262.6030306852461
10
218.21533334784746
20
263.6030306852461
10
192.25533334784745
20
263.60303068524615
0
LWPOLYLINE
5
453
100
AcDbEntity
8
0
100
AcDbPolyline
90
22
70
1
43
0.0
10
61.596840358120716
20
263.25737329638395
10
61.596840358120687
20
203.25737329638412
10
180.83684035812041
20
203.25737329638397
10
180.83684035812047
20
263.25737329638383
10
154.87684035812057
20
263.25737329638389
10
153.87684035812055
20
262.25737329638383
10
153.87684035812052
20
233.25737329638395
10
150.07684035812053
20
233.25737329638395
10
150.07684035812053
20
262.25737329638383
10
149.07684035812051
20
263.25737329638389
10
124.1168403581206
20
263.25737329638389
10
123.11684035812058
20
262.25737329638389
10
123.11684035812058
20
233.25737329638397
10
119.3168403581206
20
233.25737329638397
10
119.31684035812063
20
262.25737329638389
10
118.31684035812061
20
263.25737329638389
10
93.356840358120664
20
263.25737329638389
10
92.35684035812065
20
262.25737329638389
10
92.356840358120621
20
233.25737329638397
10
88.556840358120667
20
233.25737329638397
10
88.556840358120695
20
262.25737329638389
10
87.556840358120681
20
263.25737329638389
0
LWPOLYLINE
5
454
100
AcDbEntity
8
0
100
AcDbPolyline
90
22
70
1
43
0.0
10
282.07454968573632
20
193.85659200693203
10
281.07454968573632
20
194.85659200693206
10
256.11454968573634
20
194.85659200693206
10
255.11454968573631
20
193.85659200693203
10
255.11454968573631
20
164.85659200693215
10
251.31454968573635
20
164.85659200693215
10
251.31454968573638
20
193.85659200693203
10
250.31454968573638
20
194.85659200693206
10
225.35454968573643
20
194.85659200693206
10
224.3545496857364
20
193.85659200693203
10
224.35454968573637
20
164.85659200693215
10
220.55454968573639
20
164.85659200693215
10
220.55454968573642
20
193.85659200693203
10
219.55454968573639
20
194.85659200693206
10
193.59454968573644
20
194.85659200693215
10
193.59454968573641
20
134.85659200693223
10
312.83454968573619
20
134.85659200693212
10
312.83454968573631
20
194.85659200693206
10
286.87454968573633
20
194.85659200693206
10
285.87454968573633
20
193.85659200693203
10
285.87454968573627
20
164.85659200693206
10
282.07454968573632
20
164.85659200693206
0
LWPOLYLINE
5
455
100
AcDbEntity
8
0
100
AcDbPolyline
90
22
70
1
43
0.0
10
88.896056696009765
20
194.51093461806983
10
62.936056696009857
20
194.51093461806991
10
62.936056696009828
20
134.51093461807014
10
182.1760566960094
20
134.51093461807
10
182.17605669600945
20
194.51093461806977
10
156.21605669600956
20
194.51093461806983
10
155.21605669600956
20
193.51093461806983
10
155.2160566960095
20
164.51093461806991
10
151.41605669600955
20
164.51093461806991
10
151.41605669600955
20
193.51093461806983
10
150.41605669600952
20
194.51093461806983
10
125.45605669600965
20
194.51093461806983
10
124.45605669600964
20
193.51093461806983
10
124.45605669600964
20
164.51093461807
10
120.65605669600964
20
164.51093461807
10
120.65605669600968
20
193.51093461806983
10
119.65605669600967
20
194.51093461806983
10
94.696056696009748
20
194.51093461806983
10
93.696056696009734
20
193.51093461806983
10
93.696056696009705
20
164.51093461807
10
89.896056696009751
20
164.51093461807
10
89.896056696009779
20
193.51093461806983
0
LWPOLYLINE
5
456
100
AcDbEntity
8
0
100
AcDbPolyline
90
22
70
1
43
0.0
10
219.55454968573605
20
61.381363663972067
10
193.59454968573615
20
61.381363663972138
10
193.59454968573613
20
1.381363663972337
10
312.83454968573574
20
1.3813636639722304
10
312.83454968573579
20
61.381363663972067
10
286.87454968573587
20
61.381363663972067
10
285.87454968573587
20
60.381363663972095
10
285.87454968573581
20
31.381363663972142
10
282.07454968573586
20
31.381363663972142
10
282.07454968573586
20
60.381363663972095
10
281.07454968573586
20
61.381363663972067
10
256.11454968573594
20
61.381363663972067
10
255.11454968573591
20
60.381363663972095
10
255.11454968573591
20
31.381363663972213
10
251.31454968573595
20
31.381363663972213
10
251.31454968573598
20
60.381363663972095
10
250.31454968573598
20
61.381363663972067
10
225.35454968573606
20
61.381363663972067
10
224.35454968573606
20
60.381363663972095
10
224.354549685736
20
31.381363663972213
10
220.55454968573602
20
31.381363663972213
10
220.55454968573605
20
60.381363663972095
0
LWPOLYLINE
5
457
100
AcDbEntity
8
0
100
AcDbPolyline
90
22
70
1
43
0.0
10
61.596840358120588
20
69.782144953424122
10
180.83684035812013
20
69.78214495342398
10
180.83684035812018
20
129.78214495342374
10
154.87684035812032
20
129.78214495342377
10
153.87684035812032
20
128.7821449534238
10
153.87684035812029
20
99.782144953423909
10
150.07684035812031
20
99.782144953423909
10
150.07684035812031
20
128.7821449534238
10
149.07684035812028
20
129.78214495342377
10
124.11684035812041
20
129.7821449534238
10
123.11684035812038
20
128.78214495342382
10
123.11684035812038
20
99.782144953423938
10
119.31684035812042
20
99.782144953423938
10
119.31684035812046
20
128.78214495342382
10
118.31684035812044
20
129.7821449534238
10
93.356840358120522
20
129.7821449534238
10
92.356840358120508
20
128.78214495342382
10
92.356840358120479
20
99.782144953423938
10
88.556840358120525
20
99.782144953423938
10
88.556840358120553
20
128.78214495342382
10
87.556840358120539
20
129.7821449534238
10
61.596840358120623
20
129.78214495342382
0
LWPOLYLINE
5
458
100
AcDbEntity
8
0
100
AcDbPolyline
90
22
70
1
43
0.0
10
182.17605669600911
20
1.0357062751101154
10
182.17605669600917
20
61.035706275109774
10
156.21605669600933
20
61.035706275109845
10
155.2160566960093
20
60.035706275109874
10
155.21605669600928
20
31.035706275109991
10
151.41605669600932
20
31.035706275109991
10
151.41605669600932
20
60.035706275109874
10
150.41605669600929
20
61.035706275109845
10
125.45605669600945
20
61.035706275109845
10
124.45605669600944
20
60.035706275109874
10
124.45605669600944
20
31.035706275110062
10
120.65605669600944
20
31.035706275110062
10
120.65605669600949
20
60.035706275109874
10
119.65605669600949
20
61.035706275109845
10
94.696056696009606
20
61.035706275109845
10
93.696056696009592
20
60.035706275109874
10
93.696056696009563
20
31.035706275110062
10
89.896056696009609
20
31.035706275110062
10
89.896056696009637
20
60.035706275109874
10
88.896056696009623
20
61.035706275109845
10
62.936056696009757
20
61.035706275109916
10
62.936056696009729
20
1.0357062751102575
0
LWPOLYLINE
5
459
100
AcDbEntity
8
0
100
AcDbPolyline
90
22
70
1
43
0.0
10
248.97533334784708
20
130.12780234228603
10
224.01533334784713
20
130.12780234228603
10
223.0153333478471
20
129.12780234228603
10
223.01533334784708
20
100.12780234228609
10
219.21533334784709
20
100.12780234228609
10
219.21533334784712
20
129.12780234228603
10
218.21533334784709
20
130.12780234228603
10
192.25533334784717
20
130.12780234228606
10
192.25533334784714
20
70.127802342286202
10
311.49533334784689
20
70.12780234228606
10
311.49533334784701
20
130.12780234228595
10
285.53533334784709
20
130.12780234228597
10
284.53533334784703
20
129.127802342286
10
284.53533334784703
20
100.12780234228606
10
280.73533334784702
20
100.12780234228606
10
280.73533334784702
20
129.127802342286
10
279.73533334784702
20
130.12780234228597
10
254.77533334784707
20
130.12780234228603
10
253.77533334784704
20
129.12780234228603
10
253.77533334784704
20
100.12780234228609
10
249.97533334784706
20
100.12780234228609
10
249.97533334784708
20
129.12780234228603
0
ENDSEC
0
SECTION
2
OBJECTS
0
DICTIONARY
5
C
100
AcDbDictionary
3
ACAD_GROUP
350
D
3
ACAD_MLINESTYLE
350
17
0
DICTIONARY
5
D
100
AcDbDictionary
0
DICTIONARY
5
1A
330
C
100
AcDbDictionary
0
DICTIONARY
5
17
100
AcDbDictionary
0
ENDSEC
0
EOF
