0
SECTION
2
HEADER
9
$INSUNITS
70
4
9
$ACADVER
1
AC1014
9
$HANDSEED
5
FFFF
0
ENDSEC
0
SECTION
2
TABLES
0
TABLE
2
VPORT
5
8
100
AcDbSymbolTable
0
ENDTAB
0
TABLE
2
LTYPE
5
5
100
AcDbSymbolTable
0
LTYPE
5
14
100
AcDbSymbolTableRecord
100
AcDbLinetypeTableRecord
2
BYBLOCK
70
0
0
LTYPE
5
15
100
AcDbSymbolTableRecord
100
AcDbLinetypeTableRecord
2
BYLAYER
70
0
0
ENDTAB
0
TABLE
2
LAYER
5
2
100
AcDbSymbolTable
70
2
0
LAYER
5
50
100
AcDbSymbolTableRecord
100
AcDbLayerTableRecord
2
0
70
0
6
CONTINUOUS
0
ENDTAB
0
TABLE
2
STYLE
5
3
100
AcDbSymbolTable
70
1
0
STYLE
5
11
100
AcDbSymbolTableRecord
100
AcDbTextStyleTableRecord
2
STANDARD
70
0
0
ENDTAB
0
TABLE
2
VIEW
5
6
100
AcDbSymbolTable
70
0
0
ENDTAB
0
TABLE
2
UCS
5
7
100
AcDbSymbolTable
70
0
0
ENDTAB
0
TABLE
2
APPID
5
9
100
AcDbSymbolTable
70
2
0
APPID
5
12
100
AcDbSymbolTableRecord
100
AcDbRegAppTableRecord
2
ACAD
70
0
0
ENDTAB
0
TABLE
2
DIMSTYLE
5
A
100
AcDbSymbolTable
70
1
0
ENDTAB
0
TABLE
2
BLOCK_RECORD
5
1
100
AcDbSymbolTable
70
1
0
BLOCK_RECORD
5
1F
100
AcDbSymbolTableRecord
100
AcDbBlockTableRecord
2
*MODEL_SPACE
0
BLOCK_RECORD
5
1B
100
AcDbSymbolTableRecord
100
AcDbBlockTableRecord
2
*PAPER_SPACE
0
ENDTAB
0
ENDSEC
0
SECTION
2
BLOCKS
0
BLOCK
5
20
100
AcDbEntity
100
AcDbBlockBegin
2
*MODEL_SPACE
0
ENDBLK
5
21
100
AcDbEntity
100
AcDbBlockEnd
0
BLOCK
5
1C
100
AcDbEntity
100
AcDbBlockBegin
2
*PAPER_SPACE
0
ENDBLK
5
1D
100
AcDbEntity
100
AcDbBlockEnd
0
ENDSEC
0
SECTION
2
ENTITIES
0
CIRCLE
5
100
100
AcDbEntity
8
0
100
AcDbCircle
10
0
20
0
30
0
40
2.125
210
0
220
0
230
1
0
CIRCLE
5
101
100
AcDbEntity
8
0
100
AcDbCircle
10
50
20
0
30
0
40
2.1000000000000001
210
0
220
0
230
1
0
CIRCLE
5
102
100
AcDbEntity
8
0
100
AcDbCircle
10
100
20
0
30
0
40
2.0750000000000002
210
0
220
0
230
1
0
CIRCLE
5
103
100
AcDbEntity
8
0
100
AcDbCircle
10
200
20
0
30
0
40
2.0250000000000004
210
0
220
0
230
1
0
CIRCLE
5
104
100
AcDbEntity
8
0
100
AcDbCircle
10
250
20
0
30
0
40
2
210
0
220
0
230
1
0
CIRCLE
5
105
100
AcDbEntity
8
0
100
AcDbCircle
10
300
20
0
30
0
40
1.9750000000000001
210
0
220
0
230
1
0
CIRCLE
5
106
100
AcDbEntity
8
0
100
AcDbCircle
10
150
20
0
30
0
40
2.0500000000000003
210
0
220
0
230
1
0
CIRCLE
5
107
100
AcDbEntity
8
0
100
AcDbCircle
10
350
20
0
30
0
40
1.9500000000000004
210
0
220
0
230
1
0
CIRCLE
5
108
100
AcDbEntity
8
0
100
AcDbCircle
10
400
20
0
30
0
40
1.925
210
0
220
0
230
1
0
CIRCLE
5
109
100
AcDbEntity
8
0
100
AcDbCircle
10
450
20
0
30
0
40
1.9000000000000004
210
0
220
0
230
1
0
CIRCLE
5
110
100
AcDbEntity
8
0
100
AcDbCircle
10
500.00000000000045
20
8.8817841970012523e-15
30
0
40
1.8750000000000002
210
0
220
0
230
1
0
LWPOLYLINE
5
111
100
AcDbEntity
8
0
100
AcDbPolyline
90
5
70
1
43
0.0
10
252.00415776728869
20
-118.8581291663214
10
406.00415776728869
20
-118.85812916632165
10
416.00415776728869
20
-118.85812916632315
10
416.00415776728869
20
-158.85812916632142
10
252.00415776728869
20
-158.85812916632142
0
LINE
5
112
100
AcDbEntity
8
0
100
AcDbLine
10
252.00415776728858
20
-138.85812916632142
30
0
11
406.00415776728869
21
-138.85812916632136
31
0
0
LINE
5
113
100
AcDbEntity
8
0
100
AcDbLine
10
262.00415776728869
20
-118.85812916632142
30
0
11
262.00415776728869
21
-138.85812916632142
31
0
0
LINE
5
114
100
AcDbEntity
8
0
100
AcDbLine
10
266.25415776728869
20
-118.85812916632142
30
0
11
266.25415776728869
21
-138.85812916632142
31
0
0
LINE
5
115
100
AcDbEntity
8
0
100
AcDbLine
10
276.25415776728869
20
-118.85812916632145
30
0
11
276.25415776728869
21
-138.85812916632142
31
0
0
LINE
5
116
100
AcDbEntity
8
0
100
AcDbLine
10
280.45415776728868
20
-118.85812916632146
30
0
11
280.45415776728868
21
-138.85812916632142
31
0
0
LINE
5
117
100
AcDbEntity
8
0
100
AcDbLine
10
290.45415776728868
20
-118.85812916632146
30
0
11
290.45415776728868
21
-138.85812916632142
31
0
0
LINE
5
118
100
AcDbEntity
8
0
100
AcDbLine
10
294.60415776728871
20
-118.85812916632148
30
0
11
294.60415776728871
21
-138.85812916632142
31
0
0
LINE
5
119
100
AcDbEntity
8
0
100
AcDbLine
10
304.60415776728871
20
-118.85812916632149
30
0
11
304.60415776728871
21
-138.85812916632142
31
0
0
LINE
5
120
100
AcDbEntity
8
0
100
AcDbLine
10
308.70415776728862
20
-118.85812916632149
30
0
11
308.70415776728862
21
-138.85812916632142
31
0
0
LINE
5
121
100
AcDbEntity
8
0
100
AcDbLine
10
318.70415776728862
20
-118.8581291663215
30
0
11
318.70415776728862
21
-138.85812916632139
31
0
0
LINE
5
122
100
AcDbEntity
8
0
100
AcDbLine
10
322.75415776728863
20
-118.85812916632153
30
0
11
322.75415776728863
21
-138.85812916632139
31
0
0
LINE
5
123
100
AcDbEntity
8
0
100
AcDbLine
10
332.75415776728863
20
-118.85812916632153
30
0
11
332.75415776728863
21
-138.85812916632139
31
0
0
LINE
5
124
100
AcDbEntity
8
0
100
AcDbLine
10
336.75415776728863
20
-118.85812916632155
30
0
11
336.75415776728863
21
-138.85812916632139
31
0
0
LINE
5
125
100
AcDbEntity
8
0
100
AcDbLine
10
346.75415776728863
20
-118.85812916632156
30
0
11
346.75415776728863
21
-138.85812916632139
31
0
0
LINE
5
126
100
AcDbEntity
8
0
100
AcDbLine
10
350.70415776728862
20
-118.85812916632156
30
0
11
350.70415776728862
21
-138.85812916632139
31
0
0
LINE
5
127
100
AcDbEntity
8
0
100
AcDbLine
10
360.70415776728862
20
-118.85812916632159
30
0
11
360.70415776728862
21
-138.85812916632139
31
0
0
LINE
5
128
100
AcDbEntity
8
0
100
AcDbLine
10
252.00415776728869
20
-118.8581291663214
30
0
11
262.00415776728869
21
-118.85812916632142
31
0
0
LINE
5
129
100
AcDbEntity
8
0
100
AcDbLine
10
262.00415776728869
20
-138.85812916632142
30
0
11
266.25415776728869
21
-138.85812916632142
31
0
0
LINE
5
130
100
AcDbEntity
8
0
100
AcDbLine
10
266.25415776728869
20
-118.85812916632142
30
0
11
276.25415776728869
21
-118.85812916632145
31
0
0
LINE
5
131
100
AcDbEntity
8
0
100
AcDbLine
10
276.25415776728869
20
-138.85812916632142
30
0
11
280.45415776728868
21
-138.85812916632142
31
0
0
LINE
5
132
100
AcDbEntity
8
0
100
AcDbLine
10
280.45415776728868
20
-118.85812916632146
30
0
11
290.45415776728868
21
-118.85812916632146
31
0
0
LINE
5
133
100
AcDbEntity
8
0
100
AcDbLine
10
290.45415776728868
20
-138.85812916632142
30
0
11
294.60415776728871
21
-138.85812916632142
31
0
0
LINE
5
134
100
AcDbEntity
8
0
100
AcDbLine
10
294.60415776728871
20
-118.85812916632148
30
0
11
304.60415776728871
21
-118.85812916632149
31
0
0
LINE
5
135
100
AcDbEntity
8
0
100
AcDbLine
10
304.60415776728871
20
-138.85812916632142
30
0
11
308.70415776728862
21
-138.85812916632142
31
0
0
LINE
5
136
100
AcDbEntity
8
0
100
AcDbLine
10
364.60415776728865
20
-118.85812916632159
30
0
11
364.60415776728865
21
-138.85812916632139
31
0
0
LINE
5
137
100
AcDbEntity
8
0
100
AcDbLine
10
374.60415776728865
20
-118.8581291663216
30
0
11
374.60415776728865
21
-138.85812916632139
31
0
0
LINE
5
138
100
AcDbEntity
8
0
100
AcDbLine
10
378.45415776728862
20
-118.85812916632162
30
0
11
378.45415776728862
21
-138.85812916632142
31
0
0
LINE
5
139
100
AcDbEntity
8
0
100
AcDbLine
10
388.45415776728862
20
-118.85812916632163
30
0
11
388.45415776728862
21
-138.85812916632142
31
0
0
LINE
5
140
100
AcDbEntity
8
0
100
AcDbLine
10
392.25415776728869
20
-118.85812916632163
30
0
11
392.25415776728869
21
-138.85812916632142
31
0
0
LINE
5
141
100
AcDbEntity
8
0
100
AcDbLine
10
402.25415776728869
20
-118.85812916632165
30
0
11
402.25415776728869
21
-138.85812916632142
31
0
0
LINE
5
142
100
AcDbEntity
8
0
100
AcDbLine
10
252.00415776728869
20
-158.85812916632142
30
0
11
416.00415776728869
21
-158.85812916632142
31
0
0
LINE
5
143
100
AcDbEntity
8
0
100
AcDbLine
10
308.70415776728862
20
-118.85812916632149
30
0
11
318.70415776728862
21
-118.8581291663215
31
0
0
LINE
5
144
100
AcDbEntity
8
0
100
AcDbLine
10
318.70415776728862
20
-138.85812916632139
30
0
11
322.75415776728863
21
-138.85812916632139
31
0
0
LINE
5
145
100
AcDbEntity
8
0
100
AcDbLine
10
322.75415776728863
20
-118.85812916632153
30
0
11
332.75415776728863
21
-118.85812916632153
31
0
0
LINE
5
146
100
AcDbEntity
8
0
100
AcDbLine
10
332.75415776728863
20
-138.85812916632139
30
0
11
336.75415776728863
21
-138.85812916632139
31
0
0
LINE
5
147
100
AcDbEntity
8
0
100
AcDbLine
10
336.75415776728863
20
-118.85812916632155
30
0
11
346.75415776728863
21
-118.85812916632156
31
0
0
LINE
5
148
100
AcDbEntity
8
0
100
AcDbLine
10
346.75415776728863
20
-138.85812916632139
30
0
11
350.70415776728862
21
-138.85812916632139
31
0
0
LINE
5
149
100
AcDbEntity
8
0
100
AcDbLine
10
350.70415776728862
20
-118.85812916632156
30
0
11
360.70415776728862
21
-118.85812916632159
31
0
0
LINE
5
150
100
AcDbEntity
8
0
100
AcDbLine
10
360.70415776728862
20
-138.85812916632139
30
0
11
364.60415776728865
21
-138.85812916632139
31
0
0
LINE
5
151
100
AcDbEntity
8
0
100
AcDbLine
10
364.60415776728865
20
-118.85812916632159
30
0
11
374.60415776728865
21
-118.8581291663216
31
0
0
LINE
5
152
100
AcDbEntity
8
0
100
AcDbLine
10
374.60415776728865
20
-138.85812916632139
30
0
11
378.45415776728862
21
-138.85812916632142
31
0
0
LINE
5
153
100
AcDbEntity
8
0
100
AcDbLine
10
378.45415776728862
20
-118.85812916632162
30
0
11
388.45415776728862
21
-118.85812916632163
31
0
0
LINE
5
154
100
AcDbEntity
8
0
100
AcDbLine
10
388.45415776728862
20
-138.85812916632142
30
0
11
392.25415776728869
21
-138.85812916632142
31
0
0
LINE
5
155
100
AcDbEntity
8
0
100
AcDbLine
10
392.25415776728869
20
-118.85812916632163
30
0
11
402.25415776728869
21
-118.85812916632165
31
0
0
LINE
5
156
100
AcDbEntity
8
0
100
AcDbLine
10
402.25415776728869
20
-138.85812916632142
30
0
11
406.00415776728869
21
-138.85812916632136
31
0
0
LINE
5
157
100
AcDbEntity
8
0
100
AcDbLine
10
406.00415776728869
20
-138.85812916632136
30
0
11
406.00415776728869
21
-118.85812916632165
31
0
0
LWPOLYLINE
5
158
100
AcDbEntity
8
0
100
AcDbPolyline
90
22
70
1
43
0.0
10
54.657142857142858
20
-300
10
462.98441816552889
20
-300
10
274.76322962201539
20
-300
10
274.76322962201539
20
-393.44834541397904
10
255.86065147087157
20
-393.44834541397904
10
255.86065147087157
20
-300
10
237.71417644577355
20
-300
10
237.71417644577355
20
-393.44834541397904
10
215.78718579044673
20
-393.44834541397904
10
215.78718579044673
20
-300
10
67.857142857142847
20
-300
10
67.857142857142847
20
-393.44834541397904
10
65.707142857142856
20
-393.44834541397904
10
65.707142857142856
20
-300
10
63.55714285714285
20
-300
10
63.55714285714285
20
-393.44834541397904
10
61.357142857142854
20
-393.44834541397904
10
61.357142857142854
20
-300
10
59.157142857142858
20
-300
10
59.157142857142858
20
-393.44834541397904
10
56.907142857142858
20
-393.44834541397904
10
56.907142857142858
20
-300
0
LINE
5
159
100
AcDbEntity
8
0
100
AcDbLine
10
462.98441816552889
20
-300
30
0
11
462.98441816552889
21
-486.89669082795803
31
0
0
LINE
5
160
100
AcDbEntity
8
0
100
AcDbLine
10
462.98441816552889
20
-486.89669082795803
30
0
11
54.657142857142858
21
-486.89669082795803
31
0
0
LINE
5
161
100
AcDbEntity
8
0
100
AcDbLine
10
54.657142857142858
20
-486.89669082795803
30
0
11
54.657142857142858
21
-300
31
0
0
LINE
5
162
100
AcDbEntity
8
0
100
AcDbLine
10
54.657142857142858
20
-393.44834541397904
30
0
11
462.98441816552889
21
-393.44834541397904
31
0
0
ENDSEC
0
SECTION
2
OBJECTS
0
DICTIONARY
5
C
100
AcDbDictionary
3
ACAD_GROUP
350
D
3
ACAD_MLINESTYLE
350
17
0
DICTIONARY
5
D
100
AcDbDictionary
0
DICTIONARY
5
1A
330
C
100
AcDbDictionary
0
DICTIONARY
5
17
100
AcDbDictionary
0
ENDSEC
0
EOF
